<?xml version="1.0" encoding="UTF-8" standalone="no"?>
<svg
   xmlns:dc="http://purl.org/dc/elements/1.1/"
   xmlns:cc="http://creativecommons.org/ns#"
   xmlns:rdf="http://www.w3.org/1999/02/22-rdf-syntax-ns#"
   xmlns:svg="http://www.w3.org/2000/svg"
   xmlns="http://www.w3.org/2000/svg"
   xmlns:sodipodi="http://sodipodi.sourceforge.net/DTD/sodipodi-0.dtd"
   xmlns:inkscape="http://www.inkscape.org/namespaces/inkscape"
   width="24"
   height="24"
   viewBox="0 0 24 24"
   version="1.1"
   id="svg4"
   sodipodi:docname="eye-announced-groups.svg"
   inkscape:version="0.92.4 (5da689c313, 2019-01-14)">
  <metadata
     id="metadata10">
    <rdf:RDF>
      <cc:Work
         rdf:about="">
        <dc:format>image/svg+xml</dc:format>
        <dc:type
           rdf:resource="http://purl.org/dc/dcmitype/StillImage" />
        <dc:title></dc:title>
      </cc:Work>
    </rdf:RDF>
  </metadata>
  <defs
     id="defs8" />
  <sodipodi:namedview
     pagecolor="#ffffff"
     bordercolor="#666666"
     borderopacity="1"
     objecttolerance="10"
     gridtolerance="10"
     guidetolerance="10"
     inkscape:pageopacity="0"
     inkscape:pageshadow="2"
     inkscape:window-width="3225"
     inkscape:window-height="1755"
     id="namedview6"
     showgrid="false"
     inkscape:zoom="9.8333333"
     inkscape:cx="-84.355932"
     inkscape:cy="12"
     inkscape:window-x="738"
     inkscape:window-y="167"
     inkscape:window-maximized="0"
     inkscape:current-layer="svg4" />
  <path
     d="m 17.539753,22.508477 h -0.871135 c 0,-1.354709 0.05237,-1.549361 -0.768135,-1.73965 -1.255203,-0.289796 -2.441449,-0.563006 -2.874399,-1.509207 -0.157117,-0.345659 -0.262736,-0.914779 0.135292,-1.664583 0.891212,-1.683783 1.114671,-3.127525 0.612763,-3.961124 -0.586575,-0.973262 -2.362891,-0.977626 -2.954704,0.01478 -0.502779,0.844946 -0.275829,2.280833 0.622366,3.938432 0.405888,0.747182 0.303762,1.318048 0.14665,1.665451 -0.427712,0.950568 -1.6026111,1.222034 -2.8473384,1.508335 -0.8571699,0.19814 -0.8030512,0.379702 -0.8030512,1.747504 H 7.069543 L 7.067803,21.96461 c 0,-1.098955 0.087281,-1.732664 1.3861345,-2.032935 1.4681864,-0.339551 2.9189165,-0.64244 2.2214835,-1.928189 -2.0652367,-3.810124 -0.590069,-5.969624 1.627924,-5.969624 2.17522,0 3.689666,2.08007 1.62967,5.96962 -0.676484,1.277897 0.719253,1.58166 2.221481,1.928192 1.300591,0.30027 1.387009,0.935727 1.387009,2.036428 z m 4.198559,-1.932557 c -1.125145,-0.260116 -2.172601,-0.487937 -1.665458,-1.44636 1.545,-2.917162 0.410255,-4.476998 -1.222036,-4.476998 -1.104192,0 -1.962234,0.713142 -1.962234,2.029445 0,1.107684 0.501034,1.898511 0.789084,2.553173 h 0.914778 c -0.148395,-0.654662 -1.279642,-2.236318 -0.668626,-3.261079 0.359629,-0.604031 1.48739,-0.604905 1.845273,-0.01041 0.331694,0.550788 0.157989,1.581659 -0.466118,2.759172 -0.338682,0.639821 -0.24441,1.135617 -0.105617,1.438506 0.266227,0.581339 0.852805,0.861533 1.516195,1.05444 1.315432,0.384938 1.194101,0.03665 1.194101,1.291858 h 0.870261 l 0.0017,-0.404143 c 0,-0.82487 -0.06458,-1.302335 -1.041347,-1.527538 z M 1.8322553,22.508477 h 0.870263 c 0,-1.255199 -0.1213362,-0.906923 1.1941013,-1.291863 0.6642625,-0.192906 1.2508386,-0.473101 1.5161951,-1.054437 0.1387812,-0.303762 0.2330589,-0.798686 -0.105617,-1.438506 -0.624111,-1.177513 -0.7978139,-2.208382 -0.4661197,-2.759172 0.3578822,-0.595303 1.4856439,-0.594429 1.8452707,0.01041 0.6110178,1.025634 -0.5202366,2.606419 -0.6686256,3.26108 h 0.9147794 c 0.28805,-0.654659 0.789084,-1.445487 0.789084,-2.553172 8.722e-4,-1.317174 -0.8571699,-2.030318 -1.9613641,-2.030318 -1.6322884,0 -2.7670337,1.559837 -1.2220338,4.476999 0.5071435,0.959295 -0.5403133,1.186244 -1.6654582,1.446362 -0.9776282,0.2252 -1.0422214,0.702664 -1.0422214,1.528409 z"
     id="path2"
     inkscape:connector-curvature="0"
     style="stroke-width:0.87288022" />
  <path
     inkscape:connector-curvature="0"
     d="m 7.4318649,3.3099276 c 2.5768131,0 4.3731521,1.7430218 5.1547111,2.6828185 -0.759864,1.063058 -2.556203,3.1041068 -5.1547111,3.1041068 -2.3972891,0 -4.3010175,-2.0462572 -5.1406111,-3.1289907 C 3.101017,5.0147555 4.9038647,3.3099276 7.4318649,3.3099276 Z m 0,-1.1573848 c -4.1052212,0 -6.51661105,3.7910145 -6.51661105,3.7910145 0,0 2.62237335,4.3106807 6.51661105,4.3106807 4.1941691,0 6.5003391,-4.3106807 6.5003391,-4.3106807 0,0 -2.327322,-3.7910145 -6.5003391,-3.7910145 z m -0.00814,1.7360776 c -1.1981018,0 -2.1694917,1.0370168 -2.1694917,2.3147698 0,1.278332 0.9713899,2.3147698 2.1694917,2.3147698 1.198102,0 2.169491,-1.0364378 2.169491,-2.3147698 0,-1.277753 -0.971389,-2.3147698 -2.169491,-2.3147698 z"
     id="path2-20"
     style="stroke-width:0.56023848" />
  <path
     inkscape:connector-curvature="0"
     d="m 20.596791,7.1010854 c 0.330005,-0.458823 0.526918,-1.0292633 0.526918,-1.647279 0,-0.6180167 -0.196913,-1.1884572 -0.526918,-1.6472802 l 0.610976,-0.6582721 c 0.48917,0.6289949 0.786874,1.4290769 0.786874,2.3055523 0,0.8764744 -0.298093,1.6760982 -0.786874,2.3060082 z M 16.319184,2.4918132 15.707431,1.8326268 c -0.811781,0.9665926 -1.30951,2.230529 -1.30951,3.6211796 0,1.3906496 0.497729,2.6541279 1.309121,3.6211784 L 16.318795,8.4157986 C 15.668127,7.6166327 15.269241,6.5855382 15.269241,5.4538064 c 0,-1.1317329 0.399275,-2.1628274 1.049943,-2.9619932 z m 0.608642,5.2675435 0.610975,-0.6582713 c -0.330004,-0.458823 -0.526918,-1.0292633 -0.526918,-1.647279 0,-0.6180167 0.196914,-1.1884572 0.526918,-1.6472802 L 16.927826,3.1482541 c -0.489169,0.6289949 -0.786874,1.4290769 -0.786874,2.3055523 0,0.8764744 0.297705,1.6760982 0.786874,2.3055503 z m 5.500335,-5.9267299 -0.611365,0.6591864 c 0.65067,0.7991658 1.049554,1.8302603 1.049554,2.9619932 0,1.1317318 -0.398884,2.1628263 -1.049554,2.9619922 l 0.611755,0.6591862 c 0.81139,-0.9675084 1.309121,-2.2309869 1.309121,-3.6211784 0,-1.3901925 -0.497731,-2.654587 -1.309511,-3.6211796 z M 21.435034,12.811441 h -0.838243 c -0.330782,-1.007764 -0.879883,-1.402545 -1.528995,-1.402545 -0.658452,0 -1.201714,0.405303 -1.528995,1.402545 H 16.716514 L 18.678641,6.7419865 C 18.22644,6.5526025 17.900328,6.0503216 17.900328,5.4538064 c 0,-0.7579963 0.523026,-1.3723525 1.167468,-1.3723525 0.644444,0 1.167469,0.6143562 1.167469,1.3723525 0,0.5965152 -0.326113,1.0992531 -0.778313,1.2881801 z M 19.067796,8.1390409 18.736235,9.1518364 h 0.662734 z m 0.780648,2.3851471 -0.149825,-0.45745 h -1.261645 l -0.149825,0.45745 z"
     id="path3725"
     style="stroke-width:0.42192394" />
</svg>
