<?xml version="1.0" encoding="UTF-8" standalone="no"?>
<svg
   xmlns:dc="http://purl.org/dc/elements/1.1/"
   xmlns:cc="http://creativecommons.org/ns#"
   xmlns:rdf="http://www.w3.org/1999/02/22-rdf-syntax-ns#"
   xmlns:svg="http://www.w3.org/2000/svg"
   xmlns="http://www.w3.org/2000/svg"
   xmlns:sodipodi="http://sodipodi.sourceforge.net/DTD/sodipodi-0.dtd"
   xmlns:inkscape="http://www.inkscape.org/namespaces/inkscape"
   width="24"
   height="24"
   viewBox="0 0 24 24"
   version="1.1"
   id="svg4"
   sodipodi:docname="eye-random-connect.svg"
   inkscape:version="0.92.4 (5da689c313, 2019-01-14)">
  <metadata
     id="metadata10">
    <rdf:RDF>
      <cc:Work
         rdf:about="">
        <dc:format>image/svg+xml</dc:format>
        <dc:type
           rdf:resource="http://purl.org/dc/dcmitype/StillImage" />
        <dc:title />
      </cc:Work>
    </rdf:RDF>
  </metadata>
  <defs
     id="defs8" />
  <sodipodi:namedview
     pagecolor="#ffffff"
     bordercolor="#666666"
     borderopacity="1"
     objecttolerance="10"
     gridtolerance="10"
     guidetolerance="10"
     inkscape:pageopacity="0"
     inkscape:pageshadow="2"
     inkscape:window-width="2629"
     inkscape:window-height="1586"
     id="namedview6"
     showgrid="false"
     inkscape:zoom="9.8333333"
     inkscape:cx="-59.694916"
     inkscape:cy="12"
     inkscape:window-x="863"
     inkscape:window-y="229"
     inkscape:window-maximized="0"
     inkscape:current-layer="svg4" />
  <path
     d="m 12.691608,15.305292 c -0.0184,-0.03449 0.179806,-0.05332 0.215027,-0.05332 0.03891,0.0047 -0.103046,0.236189 -0.215027,0.05332 z m -1.131404,-1.60525 0.05679,-0.01619 c 0.03363,0.02874 -0.03785,0.04964 -0.02681,0.07107 0.04523,0.08101 0.01126,0.129581 0.0041,0.173485 -0.0074,0.04442 -0.05469,0.02509 -0.07833,0.04861 -0.02788,0.0345 0.135642,0.03916 0.137748,0.04442 0.0058,0.01724 -0.197155,0.04652 -0.159828,0.08936 0.05049,0.07108 0.433215,-0.101899 0.372229,-0.09195 0.1183,-0.05905 0.0153,-0.06533 -0.05099,-0.09929 -0.0226,-0.112343 -0.04152,-0.285827 -0.111974,-0.355324 l 0.04627,-0.05332 c -0.108308,-0.156241 -0.189268,0.189161 -0.189268,0.189161 z m 6.838901,3.606061 c 0,3.462888 -2.824832,6.270505 -6.308951,6.270505 -3.4846432,0 -6.3089515,-2.807617 -6.3089515,-6.270505 0,-3.462886 2.8243083,-6.270502 6.3089515,-6.270502 3.484119,0 6.308951,2.807616 6.308951,6.270502 z m -4.368947,-2.80657 c -0.003,-0.0763 -0.09986,-0.148411 -0.200837,-0.01618 -0.07099,0.09093 -0.05834,0.229394 -0.09675,0.291054 -0.0547,0.09145 0.298098,0.177144 0.298098,0.09092 0.01316,-0.144737 0.384846,-0.03292 0.457401,-0.01302 0.130392,0.03607 0.338053,-0.118108 0.110933,-0.199088 -0.186641,-0.06793 -0.284955,-0.14056 -0.30178,-0.273289 0,0 0.09885,-0.09196 0.05574,-0.08675 -0.114592,0.01417 -0.322807,0.410718 -0.322807,0.206405 z m 3.310093,2.80657 c 0,-0.540831 -0.09305,-1.086886 -0.18769,-1.375329 -0.03047,-0.09092 -0.09938,-0.163032 -0.188741,-0.197521 -0.134603,-0.05226 -0.702924,0.311958 -0.78862,0.132721 -0.05627,-0.119656 -0.170342,0.0763 -0.300727,0.0042 -0.06308,-0.03451 -0.238687,-0.26911 -0.318075,-0.240369 -0.162457,0.05798 0.249202,0.50373 0.361712,0.562254 0.105683,-0.07943 0.447934,-0.242981 0.52154,-0.01985 0.140892,0.420125 -0.387474,0.880482 -0.657709,1.122945 -0.403773,0.362643 -0.328065,-0.234621 -0.603029,-0.445206 -0.144583,-0.110266 -0.143005,-0.34488 -0.289161,-0.425874 -0.0652,-0.03657 -0.364344,-0.378843 -0.361713,-0.424826 l -0.0088,0.08675 c -0.04943,0.03709 -0.154567,-0.140037 -0.165607,-0.167737 0,0.15415 0.252355,0.399745 0.33595,0.523065 0.142484,0.211627 0.218709,0.519927 0.393257,0.692891 0.0936,0.09301 0.451091,0.477604 0.544148,0.469242 0.101461,-0.009 0.422175,-0.239325 0.478954,-0.226261 0.338579,0.07944 -0.797031,1.674748 -0.90481,1.872269 -0.08884,0.165645 0.07254,0.575319 0.0594,0.771274 -0.0153,0.226257 -0.194525,0.299414 -0.36434,0.422734 -0.18191,0.132198 -0.139315,0.389293 -0.292314,0.483351 -0.271812,0.166169 -0.46739,0.707001 -0.853288,0.704385 -0.113556,-5.22e-4 -0.599348,0.188116 -0.662964,0.0038 -0.04944,-0.133767 -0.11568,-0.235141 -0.185589,-0.367346 -0.06833,-0.129581 -0.0077,-0.263883 -0.09096,-0.378319 -0.0573,-0.07942 -0.249728,-0.259703 -0.267078,-0.353762 -0.0011,-0.08098 0.06153,-0.32711 0.147202,-0.36996 0.120388,-0.06113 0.02312,-0.239322 0.0085,-0.342786 -0.02522,-0.18498 -0.140372,-0.337562 -0.278643,-0.444684 -0.204517,-0.156242 -0.09885,-0.280605 -0.05098,-0.503731 0,-0.106598 -0.0652,-0.24664 -0.209246,-0.204837 -0.296523,0.08569 -0.206619,-0.229916 -0.422701,-0.215809 -0.155621,0.01098 -0.282851,0.109212 -0.427433,0.152582 -0.181906,0.05436 -0.368021,-0.04285 -0.547826,-0.06533 -0.739725,-0.09301 -0.9810409,-0.93326 -0.7880928,-1.539408 0.01947,-0.09929 -0.05994,-0.283219 -0.025223,-0.360032 0.083074,-0.183935 0.2523588,-0.390339 0.4006198,-0.529856 0.08307,-0.07838 0.189795,-0.05853 0.287585,-0.119657 0.15089,-0.09458 0.152988,-0.288968 0.300724,-0.40811 0.2103,-0.169825 0.497355,-0.166166 0.771794,-0.202744 0.14616,-0.01932 0.702398,-0.138991 0.790199,-0.03136 0,0.01985 0.10041,0.315617 -0.0099,0.298895 0.22765,0.01204 0.552034,0.391384 0.768115,0.302552 0.110933,-0.04597 0.07045,-0.38459 0.2981,-0.221034 0.137734,0.09823 0.754972,0.142126 0.883253,0.03605 0.07888,-0.0648 0.123018,-0.485963 0.02736,-0.533517 0.06099,0.0601 -0.32123,0.0648 -0.356984,0.05121 -0.06308,-0.02299 -0.12198,0.05957 -0.22344,0.013 0.06099,0.02873 -0.33963,-0.18498 -0.114592,-0.348536 -0.09412,0.06846 -0.181907,-0.01933 -0.283378,0.05592 -0.0699,0.05643 0.0326,0.09406 -0.06729,0.143172 -0.158776,0.07994 -0.278646,-0.274336 -0.338582,-0.31457 -0.06099,-0.0397 -0.533107,-0.368916 -0.404824,-0.15415 l 0.414815,0.410195 c -0.02051,0.01301 -0.108833,-0.149447 -0.108833,-0.03083 0.02788,-0.07053 0.01039,0.302551 -0.0547,0.18132 -0.02892,-0.04652 0.04733,-0.07264 0.003,-0.140036 0,-0.04442 -0.119868,-0.08779 -0.143006,-0.118108 -0.06574,-0.08098 -0.240265,-0.259702 -0.334898,-0.302551 -0.02626,-0.01204 -0.401671,0.04547 -0.433215,0.05748 -0.0368,0.05121 -0.06834,0.105039 -0.09412,0.162511 -0.07779,0.02873 -0.150891,0.06583 -0.220284,0.111801 l -0.08263,0.184444 c -0.03577,0.03187 -0.402199,0.152062 -0.404304,0.156764 0.0153,-0.03918 -0.256036,-0.08935 -0.23816,-0.167735 0.01997,-0.08624 0.111974,-0.355329 0.08832,-0.453568 -0.02522,-0.102942 0.564651,0.148395 0.602504,-0.122803 0.0153,-0.11758 0.02418,-0.254479 -0.164558,-0.274335 0.03572,0.0042 0.365392,-0.12855 0.420071,-0.188114 0.07675,-0.08779 0.252884,-0.230966 0.380639,-0.230966 0.149315,0 0.117237,-0.215807 0.186114,-0.321362 0.06886,0.02769 -0.03681,0.196477 0.04573,0.264929 -0.0054,-0.05382 0.233956,0.02977 0.257086,0.01724 0.05469,-0.02822 0.359611,-0.01143 0.312296,-0.153628 -0.05257,-0.144739 0.02681,-0.1019 0.09516,-0.132198 -0.01152,0.0045 0.178754,-0.323455 0.211349,-0.21581 -0.0226,-0.110769 -0.221339,0.03867 -0.290737,0.03292 -0.16035,-0.01247 -0.09252,-0.271723 -0.03206,-0.34749 0.04677,-0.06009 -0.127757,-0.133767 -0.129851,-0.01881 -0.003,0.171915 -0.164032,0.327633 -0.126692,0.555984 0.05679,0.344355 -0.386423,-0.08307 -0.425327,-0.05957 -0.147201,0.08882 -0.267608,-0.111814 -0.191373,-0.232008 0.07781,-0.122792 0.265502,-0.117063 0.342788,-0.248733 0.05469,-0.09302 0.1183,-0.201177 0.202411,-0.271721 0.281274,-0.234622 0.359085,-0.04702 0.639307,-0.02143 0.273915,0.02509 0.09255,0.0648 0.05468,0.169304 -0.03627,0.09929 0.150368,0.134811 0.215029,0.05172 0.03681,-0.04807 0.1204,-0.168782 0.156671,-0.258135 0.04677,-0.116005 0.4737,-0.102942 0.1756,-0.280083 -0.19663,-0.116535 -1.053594,-0.351149 -1.627709,-0.351149 -0.124068,0 -0.210822,0.137423 -0.305454,0.215289 -0.187169,0.15415 -0.666647,0.4567 -0.933203,0.364734 -0.272862,-0.09353 -0.856966,0.344876 -0.950548,0.348011 -0.03418,0.0023 0.0019,-0.33129 0.188217,-0.35585 -0.0804,0.01205 0.655605,-0.369438 0.635625,-0.448864 -0.02417,-0.09406 -1.4715633,0.429528 -1.4068969,0.53456 0.03102,0.04807 0.1571995,0.04807 -0.00849,0.15363 -0.094624,0.05695 -0.1955752,0.418554 -0.2844288,0.418554 -0.2654996,0.115503 -0.2823244,-0.227306 -0.5777912,0.21372 L 8.2664468,13.72613 c -0.6981921,0.737303 -1.1813523,1.671087 -1.3564256,2.708332 -0.00688,0.04128 0.1755984,0.118108 0.1992581,0.146306 0.058892,0.07001 0.058892,0.37205 0.087804,0.470813 0.07255,0.249774 0.2518326,0.388769 0.3890528,0.616076 0.080958,0.135332 0.2155555,0.477603 0.1729708,0.619735 0.05678,-0.09302 0.5625482,0.42587 0.6550773,0.534037 0.2176592,0.254476 0.3853748,0.562776 0.032061,0.814643 -0.1140982,0.08151 0.1734958,0.589949 0.025229,0.714838 l -0.1897939,0.04861 c -0.1871669,0.114432 -0.1025149,0.39504 0.011081,0.513136 0.9558028,0.993351 2.3027657,1.613087 3.7958837,1.613087 2.900539,0 5.251674,-2.336807 5.251674,-5.219674 z m -6.049756,-3.321799 c 0.0657,-0.02873 0.154043,-0.0277 0.163508,-0.114961 0.0077,-0.07735 0.02312,-0.02405 0.04204,-0.05225 0.01839,-0.02768 -0.03522,-0.0721 -0.05783,-0.07629 -0.03363,-0.0074 -0.05678,0.03605 -0.07833,0.05436 l -0.03783,0.0099 -0.03577,0.04547 0.0041,0.02509 -0.04573,0.05539 c -0.04469,0.0439 0.0011,0.07264 0.04573,0.05331 z"
     id="path2-23"
     inkscape:connector-curvature="0"
     style="stroke-width:0.52414149" />
  <path
     inkscape:connector-curvature="0"
     d="m 21.812525,12.370837 c -0.301867,0.210942 -0.671063,0.335667 -1.069679,0.335667 -0.403903,0 -0.777568,-0.127917 -1.08167,-0.343958 h -0.01309 c -1.505236,0.281307 -1.547018,1.819105 -1.547018,1.819105 0,0 0.727593,1.406978 2.574096,1.479743 1.846577,0.07275 2.574096,-1.479444 2.574096,-1.479444 -0.05868,-1.37343 -1.213122,-1.747805 -1.436783,-1.811113 z"
     id="path2-5"
     style="stroke-width:0.07361713" />
  <path
     inkscape:connector-curvature="0"
     d="m 20.742846,9.4775788 c -0.807211,0 -1.461665,0.6393862 -1.461665,1.4280062 0,0.788622 0.654454,1.427996 1.461665,1.427996 0.807288,0 1.461666,-0.639374 1.461666,-1.427996 0,-0.78862 -0.654378,-1.4280062 -1.461666,-1.4280062 z m 0.216365,2.4769742 h -0.407405 v -0.398019 h 0.407405 z m 0.476371,-1.252274 c -0.05081,0.07845 -0.159313,0.18511 -0.325551,0.320167 -0.08603,0.06991 -0.139425,0.126083 -0.160205,0.168594 -0.02071,0.04245 -0.03009,0.118448 -0.02823,0.228042 h -0.36979 c -9.54e-4,-0.0519 -0.0014,-0.08351 -0.0014,-0.09486 0,-0.117088 0.01989,-0.213497 0.05945,-0.289025 0.03962,-0.07556 0.118874,-0.160517 0.237815,-0.254967 0.118946,-0.09445 0.189997,-0.156298 0.213161,-0.185617 0.03568,-0.04624 0.05363,-0.09723 0.05363,-0.153021 0,-0.07745 -0.03166,-0.143787 -0.09496,-0.199009 -0.0633,-0.05519 -0.148594,-0.08292 -0.255912,-0.08292 -0.10344,0 -0.189923,0.02884 -0.259563,0.0864 -0.06958,0.05767 -0.117456,0.145453 -0.143515,0.263481 l -0.374113,-0.04533 c 0.01062,-0.169033 0.08432,-0.312599 0.22113,-0.430623 0.136738,-0.1180342 0.316318,-0.1770362 0.538639,-0.1770362 0.23394,0 0.41999,0.05974 0.5583,0.1791432 0.138165,0.11948 0.207351,0.25854 0.207351,0.417159 0,0.0879 -0.0255,0.171001 -0.07613,0.249373 z"
     id="path4-7"
     style="stroke-width:0.07361713" />
  <path
     inkscape:connector-curvature="0"
     d="m 4.8820234,12.485842 c -0.3018665,0.210942 -0.6710632,0.335667 -1.0696794,0.335667 -0.4039025,0 -0.7775682,-0.127916 -1.0816702,-0.343959 h -0.013078 c -1.5052359,0.281308 -1.5470188,1.819106 -1.5470188,1.819106 0,0 0.7275925,1.406978 2.5740959,1.479743 1.8465777,0.07275 2.5740969,-1.479444 2.5740969,-1.479444 -0.058691,-1.37343 -1.2131291,-1.747804 -1.4367891,-1.811113 z"
     id="path2-5-3"
     style="stroke-width:0.07361713" />
  <path
     inkscape:connector-curvature="0"
     d="m 3.812344,9.5925838 c -0.8072108,0 -1.4616645,0.6393872 -1.4616645,1.4280052 0,0.788623 0.6544537,1.427998 1.4616645,1.427998 0.807288,0 1.4616665,-0.639375 1.4616665,-1.427998 0,-0.788618 -0.6543785,-1.4280052 -1.4616665,-1.4280052 z M 4.0287094,12.06956 H 3.6213039 v -0.39802 h 0.4074055 z m 0.4763715,-1.252275 c -0.050803,0.07845 -0.1593128,0.185109 -0.3255508,0.320165 -0.086023,0.0699 -0.1394265,0.126083 -0.1602065,0.168595 -0.02071,0.04245 -0.030094,0.118447 -0.028236,0.228042 h -0.369789 c -9.543e-4,-0.0519 -0.00149,-0.08351 -0.00149,-0.09486 0,-0.117086 0.019882,-0.213496 0.059443,-0.289025 0.039626,-0.07556 0.1188716,-0.160517 0.2378142,-0.254967 0.1189466,-0.09445 0.1899977,-0.156297 0.2131618,-0.185616 0.035678,-0.04624 0.053628,-0.09723 0.053628,-0.153021 0,-0.07745 -0.031665,-0.143787 -0.094962,-0.199009 -0.063308,-0.05519 -0.1485926,-0.08292 -0.2559129,-0.08292 -0.1034434,0 -0.1899223,0.02884 -0.2595623,0.08642 -0.069571,0.05767 -0.1174591,0.145452 -0.1435143,0.263481 L 3.0557947,10.57924 c 0.010667,-0.169032 0.084315,-0.312599 0.2211294,-0.430622 0.1367378,-0.118035 0.3163157,-0.1770372 0.5386383,-0.1770372 0.2339408,0 0.4199908,0.05975 0.5582996,0.1791432 0.1381654,0.11948 0.2073522,0.25854 0.2073522,0.417159 0,0.0879 -0.025487,0.171003 -0.076121,0.249373 z"
     id="path4-7-0"
     style="stroke-width:0.07361713" />
  <path
     inkscape:connector-curvature="0"
     d="m 12.316272,2.2058113 c 3.543118,0 6.013084,1.9180534 7.087728,2.9522229 -1.044814,1.1698087 -3.514779,3.4158163 -7.087728,3.4158163 -3.2962725,0 -5.913899,-2.2517391 -7.0683401,-3.4431989 C 6.3613563,4.0818353 8.8402718,2.2058113 12.316272,2.2058113 Z m 0,-1.2736074 c -5.644679,0 -8.9603401,4.171702 -8.9603401,4.171702 0,0 3.6057633,4.7435522 8.9603401,4.7435522 5.766982,0 8.937966,-4.7435522 8.937966,-4.7435522 0,0 -3.200068,-4.171702 -8.937966,-4.171702 z m -0.01119,1.9104117 c -1.64739,0 -2.9830511,1.1411523 -2.9830511,2.5472154 0,1.4066999 1.3356611,2.5472151 2.9830511,2.5472151 1.64739,0 2.98305,-1.1405152 2.98305,-2.5472151 0,-1.4060631 -1.33566,-2.5472154 -2.98305,-2.5472154 z"
     id="path2-20"
     style="stroke-width:0.68913323" />
</svg>
