<?xml version="1.0" encoding="UTF-8" standalone="no"?>
<svg
   xmlns:dc="http://purl.org/dc/elements/1.1/"
   xmlns:cc="http://creativecommons.org/ns#"
   xmlns:rdf="http://www.w3.org/1999/02/22-rdf-syntax-ns#"
   xmlns:svg="http://www.w3.org/2000/svg"
   xmlns="http://www.w3.org/2000/svg"
   xmlns:sodipodi="http://sodipodi.sourceforge.net/DTD/sodipodi-0.dtd"
   xmlns:inkscape="http://www.inkscape.org/namespaces/inkscape"
   width="24"
   height="24"
   fill-rule="evenodd"
   clip-rule="evenodd"
   version="1.1"
   id="svg4"
   sodipodi:docname="notify-offer.svg"
   inkscape:version="0.92.4 (5da689c313, 2019-01-14)">
  <metadata
     id="metadata10">
    <rdf:RDF>
      <cc:Work
         rdf:about="">
        <dc:format>image/svg+xml</dc:format>
        <dc:type
           rdf:resource="http://purl.org/dc/dcmitype/StillImage" />
        <dc:title></dc:title>
      </cc:Work>
    </rdf:RDF>
  </metadata>
  <defs
     id="defs8" />
  <sodipodi:namedview
     pagecolor="#ffffff"
     bordercolor="#666666"
     borderopacity="1"
     objecttolerance="10"
     gridtolerance="10"
     guidetolerance="10"
     inkscape:pageopacity="0"
     inkscape:pageshadow="2"
     inkscape:window-width="2635"
     inkscape:window-height="1736"
     id="namedview6"
     showgrid="false"
     inkscape:zoom="55.625733"
     inkscape:cx="14.89281"
     inkscape:cy="11.006526"
     inkscape:window-x="3746"
     inkscape:window-y="142"
     inkscape:window-maximized="0"
     inkscape:current-layer="svg4" />
  <path
     id="path2"
     d="m 15.163685,18.081531 h -2.898652 v 5.800042 h 2.902052 v -0.858427 c 0.721449,0.04447 1.714283,0.207815 3.323755,0.712419 0.276276,0.087 0.524455,0.128386 0.759522,0.128386 0.52411,0 0.969821,-0.205493 1.404548,-0.648224 0.279757,-0.284204 2.064836,-2.05373 2.864642,-2.878624 0.236807,-0.244438 0.346805,-0.557608 0.353687,-0.873532 0.0029,-0.132994 0.01298,-0.257313 -0.0079,-0.399003 -0.0045,-0.03018 0.01859,-0.05745 -0.146102,-0.310727 -0.02033,-0.03128 -0.175917,-0.214908 -0.334551,-0.295962 -0.131171,-0.06702 -0.364859,-0.0944 -0.516927,-0.0944 -0.247835,0 -0.489967,0.09641 -0.697173,0.279428 -0.0099,0.0084 -1.051441,0.906439 -1.703821,1.462599 -0.05745,-0.380225 -0.310973,-0.704152 -0.682436,-0.842063 -1.217701,-0.454981 -1.792733,-0.776612 -2.497351,-0.776612 -0.364498,0 -0.722447,0.08891 -1.095072,0.26936 l -1.038511,0.372572 M 12.845477,18.72598 h 1.741231 v 4.511144 h -1.741231 z m 10.052888,0.281946 c 0.347812,0.02547 0.585414,0.487416 0.226723,0.857168 -1.280966,1.321121 -2.118896,2.120811 -2.861241,2.876106 -0.592599,0.60256 -1.141205,0.523957 -1.6154,0.375089 -0.925175,-0.290646 -2.26711,-0.664064 -3.481329,-0.740109 v -2.504792 c 0.424861,-0.127602 0.885163,-0.345718 1.256044,-0.524874 0.795744,-0.384737 1.325068,-0.189951 2.080182,0.100695 0.784715,0.300957 0.771148,0.30551 1.097338,0.427955 0.495671,0.183667 0.345417,0.923717 -0.244859,0.742627 -0.35231,-0.109557 -1.018141,-0.274879 -1.277584,-0.334812 -0.370883,-0.087 -0.490174,0.434631 -0.156438,0.552564 0.506117,0.177869 1.593498,0.479562 1.802445,0.479562 0.262926,0 0.445457,-0.151145 0.665432,-0.334812 0.422539,-0.350581 2.141397,-1.832652 2.141397,-1.832652 0.122465,-0.107946 0.251352,-0.148203 0.36729,-0.139715 z"
     inkscape:connector-curvature="0"
     sodipodi:nodetypes="ccccccsccssssscccscccccccccccccccccccsccc"
     style="stroke-width:0.61159205" />
</svg>
