<?xml version="1.0" encoding="UTF-8" standalone="no"?>
<svg
   xmlns:dc="http://purl.org/dc/elements/1.1/"
   xmlns:cc="http://creativecommons.org/ns#"
   xmlns:rdf="http://www.w3.org/1999/02/22-rdf-syntax-ns#"
   xmlns:svg="http://www.w3.org/2000/svg"
   xmlns="http://www.w3.org/2000/svg"
   xmlns:sodipodi="http://sodipodi.sourceforge.net/DTD/sodipodi-0.dtd"
   xmlns:inkscape="http://www.inkscape.org/namespaces/inkscape"
   width="24"
   height="24"
   fill-rule="evenodd"
   clip-rule="evenodd"
   version="1.1"
   id="svg4"
   sodipodi:docname="notify-in-group.svg"
   inkscape:version="0.92.4 (5da689c313, 2019-01-14)">
  <metadata
     id="metadata10">
    <rdf:RDF>
      <cc:Work
         rdf:about="">
        <dc:format>image/svg+xml</dc:format>
        <dc:type
           rdf:resource="http://purl.org/dc/dcmitype/StillImage" />
        <dc:title></dc:title>
      </cc:Work>
    </rdf:RDF>
  </metadata>
  <defs
     id="defs8" />
  <sodipodi:namedview
     pagecolor="#ffffff"
     bordercolor="#666666"
     borderopacity="1"
     objecttolerance="10"
     gridtolerance="10"
     guidetolerance="10"
     inkscape:pageopacity="0"
     inkscape:pageshadow="2"
     inkscape:window-width="1565"
     inkscape:window-height="776"
     id="namedview6"
     showgrid="false"
     inkscape:zoom="9.8333333"
     inkscape:cx="12"
     inkscape:cy="12"
     inkscape:window-x="0"
     inkscape:window-y="0"
     inkscape:window-maximized="0"
     inkscape:current-layer="svg4" />
  <path
     d="m 7.2232627,0.58943642 c -0.4017204,0 -0.7280085,0.2534449 -0.7280085,0.56492368 0,0.3114789 0.3262881,0.5644704 0.7280085,0.5644704 0.4017203,0 0.7280085,-0.2529915 0.7280085,-0.5644704 0,-0.31147878 -0.3262882,-0.56492368 -0.7280085,-0.56492368 m 0,1.58323728 c -0.7239153,0 -1.3127543,-0.4570169 -1.3127543,-1.0183136 0,-0.56174998 0.588839,-1.01876688 1.3127543,-1.01876688 0.7233305,0 1.3127542,0.4570169 1.3127542,1.01876688 0,0.5612967 -0.5894237,1.0183136 -1.3127542,1.0183136 M 11.164449,0.58943642 c -0.401135,0 -0.728008,0.2534449 -0.728008,0.56492368 0,0.3114789 0.326873,0.5644704 0.728008,0.5644704 0.401721,0 0.728009,-0.2529915 0.728009,-0.5644704 0,-0.31147878 -0.326288,-0.56492368 -0.728009,-0.56492368 m 0,1.58323728 c -0.723915,0 -1.3127541,-0.4570169 -1.3127541,-1.0183136 0,-0.56174998 0.5888391,-1.01876688 1.3127541,-1.01876688 0.7245,0 1.312755,0.4570169 1.312755,1.01876688 0,0.5612967 -0.588255,1.0183136 -1.312755,1.0183136 M 3.2762288,0.58943642 c -0.4017204,0 -0.7280085,0.2534449 -0.7280085,0.56492368 0,0.3114789 0.3262881,0.5644704 0.7280085,0.5644704 0.4017203,0 0.7280085,-0.2529915 0.7280085,-0.5644704 0,-0.31147878 -0.3262882,-0.56492368 -0.7280085,-0.56492368 m 0,1.58323728 c -0.7239153,0 -1.3127543,-0.4570169 -1.3127543,-1.0183136 0,-0.56174998 0.588839,-1.01876688 1.3127543,-1.01876688 0.7239152,0 1.3127542,0.4570169 1.3127542,1.01876688 0,0.5612967 -0.588839,1.0183136 -1.3127542,1.0183136 M 11.26678,4.9660085 c 0.316347,0 0.572466,0.1827161 0.595271,0.4239194 0.01871,0.1985848 0.169576,1.4780513 0.169576,1.4780513 0.01345,0.118788 0.248517,0.1138 0.254949,9.06e-4 l 0.184195,-3.1447115 c 0.01228,-0.2217076 0.39178,-0.3001441 0.54089,-0.1074534 L 13.653127,4.4337288 13.035051,2.924394 C 13.012831,2.868627 12.928627,2.828729 12.835068,2.828729 H 1.6061949 c -0.094144,0 -0.1783475,0.039898 -0.2005678,0.095665 L 0.78579661,4.4659195 1.4290169,3.6167203 C 1.5822203,3.4217627 1.9582118,3.5051864 1.9704915,3.7241737 l 0.1836102,3.1447115 c 0.0076,0.110627 0.2409152,0.111988 0.2555339,-9.06e-4 0,0 0.1502796,-1.2794665 0.1695762,-1.4785046 0.022805,-0.24075 0.278339,-0.4234661 0.5946865,-0.4234661 0.2719068,0 0.5672034,0.1591398 0.5923474,0.4239194 0.019297,0.1985848 0.1695763,1.4780513 0.1695763,1.4780513 0.015788,0.119695 0.2555339,0.121508 0.2555339,4.53e-4 0.047949,-0.8215424 0.243839,-3.4512034 0.243839,-3.4512034 0.00936,-0.1183348 0.1350763,-0.2117331 0.2882796,-0.2130932 0.588839,-0.00499 0.3631272,-0.00499 0.9496272,0 0.1532034,0.00136 0.2789237,0.094758 0.2876949,0.2130932 0,0 0.1648983,2.6310212 0.2444237,3.4516564 0.012864,0.13239 0.2496864,0.120602 0.2549492,-4.53e-4 0,0 0.1508644,-1.2799195 0.170161,-1.4789576 0.024559,-0.2643263 0.3204407,-0.4234661 0.5917627,-0.4234661 0.2748305,0 0.5712966,0.1591398 0.5952712,0.4248262 0.019297,0.2044788 0.170161,1.4771445 0.170161,1.4771445 0.019297,0.115614 0.246178,0.119241 0.2549491,4.53e-4 0.047949,-0.8215424 0.243839,-3.4512034 0.243839,-3.4512034 0.00877,-0.1183348 0.135661,-0.2117331 0.2888644,-0.2130932 0.5829916,-0.00499 0.3596187,-0.00499 0.9414407,0 0.1532034,0.00136 0.2800932,0.094758 0.2888644,0.2130932 0,0 0.19589,2.629661 0.243839,3.4516564 0.0082,0.109267 0.242085,0.105187 0.254949,0 0,0 0.150865,-1.2735717 0.170161,-1.4794106 0.02398,-0.2643263 0.319856,-0.4234661 0.592348,-0.4234661 m 0.892322,2.4238217 c -0.374237,0 -0.680059,-0.208106 -0.709881,-0.48286 0,0 -0.15145,-1.2830931 -0.170746,-1.4839448 -0.04035,0.2076525 -0.191797,1.4839448 -0.191797,1.4839448 -0.02865,0.274754 -0.33389,0.48286 -0.708712,0.48286 -0.3830084,0 -0.6952626,-0.219894 -0.7122203,-0.500089 C 9.6253983,6.2105632 9.4844745,4.2954449 9.4371101,3.6557118 H 9.0546864 C 9.007322,4.2954449 8.8663983,6.2105632 8.8260508,6.8892882 c -0.016958,0.280648 -0.3292118,0.500542 -0.7116356,0.500542 -0.374822,0 -0.6800593,-0.208106 -0.7092966,-0.483767 0,0 -0.1514491,-1.2753853 -0.1713305,-1.4830378 -0.039763,0.2008517 -0.1912119,1.4839448 -0.1912119,1.4839448 -0.029237,0.274754 -0.3344745,0.48286 -0.7092966,0.48286 -0.3824237,0 -0.6952627,-0.219894 -0.7122203,-0.500089 C 5.5807118,6.2105632 5.4403729,4.2958983 5.3930084,3.6557118 H 5.0035678 c -0.047364,0.6401865 -0.1882882,2.5548514 -0.2280509,3.2335764 -0.016958,0.280648 -0.3297966,0.500542 -0.7116356,0.500542 -0.3742373,0 -0.6800593,-0.208106 -0.7104661,-0.48286 0,0 -0.1508644,-1.2830931 -0.170161,-1.4839448 -0.040347,0.2008517 -0.1912119,1.4839448 -0.1912119,1.4839448 -0.030407,0.274754 -0.335644,0.48286 -0.7098813,0.48286 -0.3824237,0 -0.6952627,-0.219894 -0.7122204,-0.500089 L 1.4296017,4.4876822 1.2869237,4.6694915 C 1.1500932,4.8458601 0.84310169,4.9274703 0.58405932,4.8567415 0.35659322,4.7950805 0.20338983,4.6327669 0.20338983,4.4527712 L 0.22736441,4.3312627 0.84777966,2.7892839 C 0.94718644,2.541733 1.2524237,2.3748856 1.6061949,2.3748856 H 12.835068 c 0.347924,0 0.660178,0.1700212 0.759,0.4143983 l 0.619246,1.541072 0.02397,0.1224153 c 0,0.1804491 -0.153788,0.3423093 -0.381254,0.4039703 -0.242669,0.067555 -0.564864,-0.010428 -0.70228,-0.1877034 L 13.010492,4.4872288 12.870153,6.8892882 c -0.01579,0.280648 -0.328043,0.500542 -0.711051,0.500542"
     id="path2"
     inkscape:connector-curvature="0"
     style="stroke-width:0.51489592" />
</svg>
