<?xml version="1.0" encoding="UTF-8" standalone="no"?>
<svg
   xmlns:dc="http://purl.org/dc/elements/1.1/"
   xmlns:cc="http://creativecommons.org/ns#"
   xmlns:rdf="http://www.w3.org/1999/02/22-rdf-syntax-ns#"
   xmlns:svg="http://www.w3.org/2000/svg"
   xmlns="http://www.w3.org/2000/svg"
   xmlns:sodipodi="http://sodipodi.sourceforge.net/DTD/sodipodi-0.dtd"
   xmlns:inkscape="http://www.inkscape.org/namespaces/inkscape"
   width="24"
   height="24"
   fill-rule="evenodd"
   clip-rule="evenodd"
   version="1.1"
   id="svg4"
   sodipodi:docname="offer-friendship.svg"
   inkscape:version="0.92.4 (5da689c313, 2019-01-14)">
  <metadata
     id="metadata10">
    <rdf:RDF>
      <cc:Work
         rdf:about="">
        <dc:format>image/svg+xml</dc:format>
        <dc:type
           rdf:resource="http://purl.org/dc/dcmitype/StillImage" />
        <dc:title></dc:title>
      </cc:Work>
    </rdf:RDF>
  </metadata>
  <defs
     id="defs8" />
  <sodipodi:namedview
     pagecolor="#ffffff"
     bordercolor="#666666"
     borderopacity="1"
     objecttolerance="10"
     gridtolerance="10"
     guidetolerance="10"
     inkscape:pageopacity="0"
     inkscape:pageshadow="2"
     inkscape:window-width="2635"
     inkscape:window-height="1736"
     id="namedview6"
     showgrid="false"
     inkscape:zoom="55.625733"
     inkscape:cx="9.2538562"
     inkscape:cy="11.086381"
     inkscape:window-x="1104"
     inkscape:window-y="178"
     inkscape:window-maximized="0"
     inkscape:current-layer="svg4" />
  <path
     id="path2"
     d="M 6.8475109,14.360915 H 1.5544771 V 23.89955 H 6.853719 v -1.411752 c 1.3173915,0.07313 3.1303372,0.341768 6.069288,1.17163 0.50449,0.143079 0.957672,0.211142 1.386911,0.211142 0.957043,0 1.770924,-0.337952 2.56475,-1.066059 0.510847,-0.467394 3.770461,-3.377521 5.230932,-4.734127 0.432418,-0.401996 0.633278,-0.917032 0.645845,-1.436592 0.0053,-0.218721 0.0237,-0.423174 -0.01449,-0.656195 -0.0082,-0.04962 0.03394,-0.09449 -0.266786,-0.511014 -0.03714,-0.05144 -0.321231,-0.353434 -0.610901,-0.486734 -0.239526,-0.110224 -0.666247,-0.155251 -0.943928,-0.155251 -0.452555,0 -0.894694,0.158546 -1.27306,0.459543 -0.01802,0.01378 -1.919965,1.490711 -3.111235,2.40536 -0.104925,-0.625311 -0.567846,-1.158034 -1.246149,-1.384841 -2.223562,-0.748253 -3.27359,-1.2772 -4.560246,-1.2772 -0.665585,0 -1.3192138,0.146226 -1.9996358,0.442983 L 6.828658,16.083168 M 2.6143255,15.420763 h 3.1795451 v 7.418939 H 2.6143255 Z M 20.97123,15.884447 c 0.635115,0.04189 1.068988,0.801593 0.414005,1.409681 -2.339088,2.172689 -3.869176,3.487844 -5.224722,4.729986 -1.082105,0.990959 -2.083877,0.861691 -2.949773,0.616866 -1.689399,-0.477992 -4.1398178,-1.092108 -6.357021,-1.21717 v -4.119333 c 0.775809,-0.20985 1.6163352,-0.568559 2.2935782,-0.863197 1.4530528,-0.632729 2.4196178,-0.31239 3.7984798,0.165602 1.432915,0.494949 1.408142,0.502435 2.003776,0.703806 0.905111,0.302057 0.630743,1.519126 -0.447123,1.22131 -0.643328,-0.180176 -1.859157,-0.45206 -2.332909,-0.550625 -0.677243,-0.14308 -0.895075,0.714785 -0.285662,0.908737 0.924188,0.292518 2.909781,0.788677 3.291325,0.788677 0.480112,0 0.813418,-0.24857 1.215101,-0.550625 0.771569,-0.576559 3.91026,-3.013943 3.91026,-3.013943 0.223628,-0.177527 0.458981,-0.243733 0.670685,-0.229772 z"
     inkscape:connector-curvature="0"
     sodipodi:nodetypes="ccccccsccssssscccscccccccccccccccccccsccc"
     style="stroke-width:1.05984843" />
  <path
     inkscape:connector-curvature="0"
     d="M 10.243171,10.639798 C 12.362696,10.181853 14.335249,9.7809351 13.3804,8.0943161 10.471484,2.9610148 12.608571,0.21593831 15.680172,0.21593831 c 3.131683,0 5.216082,2.85049019 2.299772,7.87924179 -0.984428,1.696988 1.062073,2.0970419 3.136304,2.5454819 1.834826,0.395733 1.957764,1.233859 1.957764,2.684593 l -0.0028,0.715431 h -1.228455 c 0,-1.804994 0.07672,-2.045199 -1.133248,-2.306141 -1.757181,-0.378452 -3.415457,-0.736168 -4.021828,-1.9907639 -0.220918,-0.457944 -0.365116,-1.211393 0.208903,-2.19727 1.268202,-2.1877668 1.58895,-4.0834852 0.877204,-5.1989695 -0.83376,-1.3107589 -3.343358,-1.3038465 -4.170648,-0.019009 -0.709897,1.0999315 -0.393771,3.0060184 0.865188,5.2274825 0.561078,0.990198 0.413182,1.741918 0.190415,2.197271 -0.610068,1.2485469 -2.284982,1.6097189 -4.057877,1.9916279 -1.1572813,0.250573 -1.0833332,0.508059 -1.0833332,2.295772 H 8.2872554 c 0,-1.897447 -0.1626848,-2.942943 1.9559156,-3.400888 z M 0.89156645,14.040686 H 2.1200217 c 0,-1.657242 -0.1719283,-1.196705 1.6860064,-1.704764 0.9372864,-0.254894 1.7655,-0.624706 2.1407843,-1.392844 C 6.1427737,10.543025 6.2749551,9.8889411 5.7970684,9.0447681 4.9170914,7.4912121 4.6702912,6.1294741 5.1389344,5.4028107 5.6445514,4.6173924 7.2371988,4.6182564 7.7446645,5.4157717 8.6089276,6.7697331 7.0116585,8.8564051 6.8018321,9.7204521 h 1.2903864 c 0.406712,-0.864047 1.1147607,-1.907815 1.1147607,-3.369782 0,-1.7367336 -1.2127414,-2.6785446 -2.771188,-2.6785446 -2.3043935,0 -3.9072087,2.0590226 -1.7248288,5.9092156 C 5.4264059,10.846305 3.9474529,11.146993 2.3585029,11.49002 0.98122795,11.788116 0.88971775,12.416278 0.88971775,13.506705 Z"
     id="path2-8"
     style="stroke-width:0.89368778" />
</svg>
