<?xml version="1.0" encoding="UTF-8" standalone="no"?>
<!-- Generated by IcoMoon.io -->

<svg
   xmlns:dc="http://purl.org/dc/elements/1.1/"
   xmlns:cc="http://creativecommons.org/ns#"
   xmlns:rdf="http://www.w3.org/1999/02/22-rdf-syntax-ns#"
   xmlns:svg="http://www.w3.org/2000/svg"
   xmlns="http://www.w3.org/2000/svg"
   xmlns:sodipodi="http://sodipodi.sourceforge.net/DTD/sodipodi-0.dtd"
   xmlns:inkscape="http://www.inkscape.org/namespaces/inkscape"
   version="1.1"
   width="32"
   height="32"
   viewBox="0 0 32 32"
   id="svg6"
   sodipodi:docname="persons-offer-list.svg"
   inkscape:version="0.92.4 (5da689c313, 2019-01-14)">
  <metadata
     id="metadata12">
    <rdf:RDF>
      <cc:Work
         rdf:about="">
        <dc:format>image/svg+xml</dc:format>
        <dc:type
           rdf:resource="http://purl.org/dc/dcmitype/StillImage" />
        <dc:title>phone</dc:title>
      </cc:Work>
    </rdf:RDF>
  </metadata>
  <defs
     id="defs10" />
  <sodipodi:namedview
     pagecolor="#ffffff"
     bordercolor="#666666"
     borderopacity="1"
     objecttolerance="10"
     gridtolerance="10"
     guidetolerance="10"
     inkscape:pageopacity="0"
     inkscape:pageshadow="2"
     inkscape:window-width="2719"
     inkscape:window-height="1414"
     id="namedview8"
     showgrid="false"
     inkscape:zoom="20.85965"
     inkscape:cx="-0.70229862"
     inkscape:cy="19.058004"
     inkscape:window-x="471"
     inkscape:window-y="520"
     inkscape:window-maximized="0"
     inkscape:current-layer="svg6" />
  <title
     id="title2">phone</title>
  <path
     d="M 2.9096665,0.5648391 H 9.4367502 V 3.9619825 H 2.9096665 Z m 9.7906255,0.849286 H 29.018001 V 3.1126967 H 12.700292 Z M 2.9096665,5.6605546 h 6.5270837 v 3.397144 H 2.9096665 Z M 12.700292,6.5098404 H 29.018001 V 8.208412 H 12.700292 Z M 2.9096665,10.75627 h 6.5270837 v 3.397143 H 2.9096665 Z m 9.7906255,0.849286 h 16.317709 v 1.698572 H 12.700292 Z"
     id="path4-1"
     inkscape:connector-curvature="0"
     style="stroke-width:0.5886085" />
  <path
     id="path2"
     d="M 11.398259,26.127733 H 6.1782649 v 5.800042 h 5.2261171 v -0.858427 c 1.29921,0.04447 3.08714,0.207815 5.985534,0.712419 0.497527,0.087 0.944457,0.128386 1.367774,0.128386 0.943835,0 1.746487,-0.205493 2.529359,-0.648224 0.503796,-0.284204 3.718429,-2.05373 5.158748,-2.878624 0.426451,-0.244438 0.624539,-0.557608 0.636932,-0.873532 0.0052,-0.132994 0.02338,-0.257313 -0.01423,-0.399003 -0.0081,-0.03018 0.03348,-0.05745 -0.263106,-0.310727 -0.03661,-0.03128 -0.316798,-0.214908 -0.602471,-0.295962 -0.236218,-0.06702 -0.657051,-0.0944 -0.930901,-0.0944 -0.44631,0 -0.882349,0.09641 -1.255493,0.279428 -0.01783,0.0084 -1.893472,0.906439 -3.068301,1.462599 -0.103458,-0.380225 -0.560011,-0.704152 -1.228955,-0.842063 -2.192879,-0.454981 -3.228416,-0.776612 -4.497317,-0.776612 -0.656401,0 -1.301008,0.08891 -1.972044,0.26936 l -1.870182,0.372572 M 7.2235489,26.772182 h 3.1356701 v 4.511144 H 7.2235489 Z m 18.1035931,0.281946 c 0.626352,0.02547 1.054234,0.487416 0.40829,0.857168 -2.306808,1.321121 -3.815782,2.120811 -5.152623,2.876106 -1.067173,0.60256 -2.055122,0.523957 -2.909069,0.375089 -1.666088,-0.290646 -4.082691,-0.664064 -6.269298,-0.740109 V 27.91759 c 0.765104,-0.127602 1.594031,-0.345718 2.261927,-0.524874 1.433004,-0.384737 2.386229,-0.189951 3.746064,0.100695 1.413143,0.300957 1.388711,0.30551 1.976125,0.427955 0.892622,0.183667 0.622039,0.923717 -0.44095,0.742627 -0.634453,-0.109557 -1.833505,-0.274879 -2.300719,-0.334812 -0.667899,-0.087 -0.882722,0.434631 -0.281719,0.552564 0.911434,0.177869 2.869628,0.479562 3.245907,0.479562 0.473486,0 0.802194,-0.151145 1.198333,-0.334812 0.760923,-0.350581 3.856303,-1.832652 3.856303,-1.832652 0.220539,-0.107946 0.452644,-0.148203 0.661429,-0.139715 z"
     inkscape:connector-curvature="0"
     sodipodi:nodetypes="ccccccsccssssscccscccccccccccccccccccsccc"
     style="stroke-width:0.82072717" />
  <path
     inkscape:connector-curvature="0"
     d="m 20.889896,21.177365 h 1.740328 v 0.925358 h 0.870164 v -0.925358 h 1.740328 v -0.462678 h -1.740328 v -0.925358 h -0.870164 v 0.925358 h -1.740328 z m 3.989702,3.980888 c -0.554294,-0.489977 -1.365287,-1.214531 -1.874333,-1.668882 -0.449875,-0.0032 -0.884087,-0.03933 -1.296545,-0.104102 l -0.149668,1.947877 h -9.97382 l -0.246256,-2.878787 c 0,0 -2.3494432,1.931683 -3.1543449,2.705745 -0.366339,0.3558 -1.4079254,0.12261 -1.1895142,-0.253548 0.5290597,-0.903149 1.6950795,-2.922279 2.3224677,-4.098871 0.1740328,-0.325726 0.7405094,-0.552901 1.3783394,-0.552901 h 8.693809 c -0.145317,0.217459 -0.238425,0.447873 -0.238425,0.691242 0,1.148832 1.755991,2.082517 3.917479,2.082517 0.663935,0 1.279141,-0.0967 1.827344,-0.251697 0.517748,0.933685 1.045067,1.880326 1.176462,2.126471 0.198397,0.383098 -0.774446,0.623691 -1.192995,0.254936 M 23.068787,19.32665 c 1.682027,0 3.047314,0.725018 3.047314,1.619376 0,0.893895 -1.365287,1.619376 -3.047314,1.619376 -1.682027,0 -3.047315,-0.725481 -3.047315,-1.619376 0,-0.894358 1.365288,-1.619376 3.047315,-1.619376 m 2.801058,3.569104 -0.220152,-0.394665 c 0.813603,-0.38171 1.337442,-0.933686 1.337442,-1.555063 0,-1.149294 -1.755991,-2.082054 -3.918348,-2.082054 -1.359196,0 -2.554802,0.368755 -3.257894,0.92767 h -9.114969 c -1.0259229,0 -1.9361145,0.366442 -2.2154371,0.890194 -0.625648,1.171966 -1.7881871,3.186006 -2.3163766,4.087305 -0.040898,0.06986 -0.060911,0.14343 -0.060911,0.224399 0,0.198951 0.2671404,0.804598 1.5027732,0.804598 0.5421122,0 1.0737824,-0.156385 1.3417929,-0.41456 0.4385627,-0.422888 1.1225116,-1.012804 1.6454806,-1.454662 l 0.15924,1.866909 H 22.39441 l 0.140966,-1.821566 c 0.495123,0.44232 1.136434,1.013729 1.597621,1.421349 0.283674,0.251697 0.79272,0.408082 1.32613,0.408082 0.551684,0 1.509735,-0.229951 1.509735,-0.805523 0,-0.07125 -0.01827,-0.144819 -0.05656,-0.21931 -0.253218,-0.472858 -0.63957,-1.1641 -1.042456,-1.883103 M 16.55822,14.6994 c -2.413835,0 -4.374315,1.04149 -4.374315,2.324498 0,1.283009 1.96048,2.324961 4.374315,2.324961 2.414705,0 4.375184,-1.041952 4.375184,-2.324961 0,-1.283008 -1.960479,-2.324498 -4.375184,-2.324498 m 0,0.462679 c 1.931764,0 3.50415,0.835135 3.50415,1.861819 0,1.026685 -1.572386,1.862282 -3.50415,1.862282 -1.931765,0 -3.503281,-0.835597 -3.503281,-1.862282 0,-1.026684 1.571516,-1.861819 3.503281,-1.861819"
     id="path2-7"
     style="stroke-width:0.63451272" />
</svg>
