<?xml version="1.0" encoding="UTF-8" standalone="no"?>
<!-- Generator: Adobe Illustrator 16.0.0, SVG Export Plug-In . SVG Version: 6.00 Build 0)  -->

<svg
   xmlns:dc="http://purl.org/dc/elements/1.1/"
   xmlns:cc="http://creativecommons.org/ns#"
   xmlns:rdf="http://www.w3.org/1999/02/22-rdf-syntax-ns#"
   xmlns:svg="http://www.w3.org/2000/svg"
   xmlns="http://www.w3.org/2000/svg"
   xmlns:sodipodi="http://sodipodi.sourceforge.net/DTD/sodipodi-0.dtd"
   xmlns:inkscape="http://www.inkscape.org/namespaces/inkscape"
   version="1.1"
   id="Capa_1"
   x="0px"
   y="0px"
   width="485.228px"
   height="485.228px"
   viewBox="0 0 485.228 485.228"
   style="enable-background:new 0 0 485.228 485.228;"
   xml:space="preserve"
   sodipodi:docname="person-round.svg"
   inkscape:version="0.92.4 (5da689c313, 2019-01-14)"><metadata
   id="metadata47"><rdf:RDF><cc:Work
       rdf:about=""><dc:format>image/svg+xml</dc:format><dc:type
         rdf:resource="http://purl.org/dc/dcmitype/StillImage" /><dc:title></dc:title></cc:Work></rdf:RDF></metadata><defs
   id="defs45" /><sodipodi:namedview
   pagecolor="#ffffff"
   bordercolor="#666666"
   borderopacity="1"
   objecttolerance="10"
   gridtolerance="10"
   guidetolerance="10"
   inkscape:pageopacity="0"
   inkscape:pageshadow="2"
   inkscape:window-width="3315"
   inkscape:window-height="1725"
   id="namedview43"
   showgrid="false"
   inkscape:zoom="1.9454772"
   inkscape:cx="312.6756"
   inkscape:cy="182.88014"
   inkscape:window-x="512"
   inkscape:window-y="200"
   inkscape:window-maximized="0"
   inkscape:current-layer="Capa_1" />
<g
   id="g10"
   transform="matrix(2.0079937,0,0,1.8848118,-150.62601,-127.22592)">
	<g
   id="g8">
		
		
		<path
   d="M 272.915,227.451 H 257.77 c -16.762,0 -30.325,-13.567 -30.325,-30.326 v -1.911 c 13.74,-16.214 22.741,-40.707 22.741,-58.74 0,-25.468 -5.804,-52.39 -37.075,-59.039 -5.305,-0.709 -10.518,-1.615 -15.992,-1.615 -5.481,0 -10.694,0.905 -15.996,1.615 -31.27,6.648 -37.075,33.57 -37.075,59.039 0,18.034 9,42.526 22.742,58.724 v 1.928 c 0,16.764 -13.564,30.326 -30.326,30.326 h -15.161 c 0,0 -16.318,4.677 -32.044,24.092 19.989,39.521 60.535,66.884 107.861,66.884 47.294,0 87.818,-27.363 107.845,-66.884 -15.702,-19.43 -32.05,-24.093 -32.05,-24.093 z"
   id="path6"
   inkscape:connector-curvature="0" />
	</g>
</g>
<g
   id="g12">
</g>
<g
   id="g14">
</g>
<g
   id="g16">
</g>
<g
   id="g18">
</g>
<g
   id="g20">
</g>
<g
   id="g22">
</g>
<g
   id="g24">
</g>
<g
   id="g26">
</g>
<g
   id="g28">
</g>
<g
   id="g30">
</g>
<g
   id="g32">
</g>
<g
   id="g34">
</g>
<g
   id="g36">
</g>
<g
   id="g38">
</g>
<g
   id="g40">
</g>
</svg>