<?xml version="1.0" encoding="UTF-8" standalone="no"?>
<!-- Created with Inkscape (http://www.inkscape.org/) -->

<svg
   xmlns:dc="http://purl.org/dc/elements/1.1/"
   xmlns:cc="http://creativecommons.org/ns#"
   xmlns:rdf="http://www.w3.org/1999/02/22-rdf-syntax-ns#"
   xmlns:svg="http://www.w3.org/2000/svg"
   xmlns="http://www.w3.org/2000/svg"
   xmlns:sodipodi="http://sodipodi.sourceforge.net/DTD/sodipodi-0.dtd"
   xmlns:inkscape="http://www.inkscape.org/namespaces/inkscape"
   width="210mm"
   height="297mm"
   viewBox="0 0 210 297"
   version="1.1"
   id="svg166"
   inkscape:version="0.92.4 (5da689c313, 2019-01-14)"
   sodipodi:docname="question-mark-outlined5.svg">
  <defs
     id="defs160" />
  <sodipodi:namedview
     id="base"
     pagecolor="#ffffff"
     bordercolor="#666666"
     borderopacity="1.0"
     inkscape:pageopacity="0.0"
     inkscape:pageshadow="2"
     inkscape:zoom="0.35"
     inkscape:cx="-607.14286"
     inkscape:cy="560"
     inkscape:document-units="mm"
     inkscape:current-layer="layer1"
     showgrid="false"
     inkscape:window-width="3840"
     inkscape:window-height="2050"
     inkscape:window-x="3828"
     inkscape:window-y="-12"
     inkscape:window-maximized="1" />
  <metadata
     id="metadata163">
    <rdf:RDF>
      <cc:Work
         rdf:about="">
        <dc:format>image/svg+xml</dc:format>
        <dc:type
           rdf:resource="http://purl.org/dc/dcmitype/StillImage" />
        <dc:title></dc:title>
      </cc:Work>
    </rdf:RDF>
  </metadata>
  <g
     inkscape:label="Layer 1"
     inkscape:groupmode="layer"
     id="layer1">
    <path
       style="display:inline;fill:#000000;fill-opacity:1;stroke-width:0.80176765"
       d="m 68.413942,185.59684 c 0.37622,-15.88821 0.60374,-18.07993 2.55934,-24.65436 2.7454,-9.22962 6.3398,-15.62002 13.67475,-24.31201 5.85596,-6.93938 8.90703,-9.8123 23.045398,-21.69977 14.47607,-12.17141 18.42389,-18.054633 18.91005,-28.180595 0.15955,-3.323169 -0.11523,-7.547342 -0.6106,-9.387057 -3.76642,-13.98738 -25.62576,-21.197525 -40.860448,-13.47752 -10.43657,5.288611 -16.87302,18.81051 -16.90819,35.521286 l -0.0139,6.614586 H 37.342292 6.4742324 v -8.313539 c 0,-31.23189 14.2886296,-58.432382 38.5324796,-73.352168 34.453,-21.2025587 89.885838,-18.6570257 120.339758,5.526124 16.30406,12.946889 24.71434,30.823811 24.72694,52.559623 0.008,14.675903 -3.61291,26.36453 -12.05563,38.91127 -5.17049,7.68387 -6.00766,8.62263 -23.50801,26.36061 -8.91882,9.03993 -17.41062,18.33108 -18.87068,20.647 -4.40102,6.98088 -5.69264,12.49965 -5.69264,24.32341 v 10.35155 H 98.973742 68.001032 Z m 49.019308,6.54901 c 0.26767,-0.69753 0.48667,-3.1473 0.48667,-5.44393 0,-8.48631 3.73137,-18.05863 10.75429,-27.58866 2.04126,-2.76996 9.33342,-10.52707 16.2048,-17.23801 19.41948,-18.96605 26.40732,-28.70788 30.89403,-43.069762 2.70668,-8.66403 2.70181,-24.937924 -0.0101,-33.674243 C 172.68119,55.203422 168.73865,48.584804 161.62807,41.402017 148.39572,28.03529 130.29683,20.990088 105.92045,19.717185 79.013872,18.312158 52.457522,27.60766 38.453642,43.332554 c -11.08874,12.451493 -17.64,28.630619 -19.45908,48.056584 l -0.46925,5.011046 h 18.82925 18.82925 v -3.078818 c 0,-4.668483 2.90053,-15.147597 5.76926,-20.843293 6.64167,-13.186693 20.67833,-21.20269 37.10525,-21.189916 25.597858,0.01992 43.527318,17.38933 39.883608,38.637835 -1.94177,11.323498 -6.88657,18.491208 -20.75778,30.089318 -12.39474,10.36361 -26.439088,24.64495 -29.785948,30.28861 -4.82895,8.14282 -6.56186,14.66805 -7.51141,28.28398 -0.47263,6.77728 -0.64315,12.88569 -0.37892,13.57425 0.41567,1.08322 2.90321,1.25192 18.45957,1.25192 15.655008,0 18.042058,-0.16394 18.465808,-1.26822 z"
       id="path126"
       inkscape:connector-curvature="0" />
    <path
       style="display:inline;fill:#000000;fill-opacity:1;stroke-width:0.78645211"
       d="m 90.48633,279.77964 c -10.096647,-2.49526 -18.608161,-9.43352 -23.189746,-18.90341 -2.040037,-4.21665 -2.208551,-5.20597 -2.208551,-12.96649 0,-7.12785 0.263025,-9.01116 1.734981,-12.42268 3.852194,-8.92818 11.910586,-16.24066 21.404344,-19.42306 4.983581,-1.67055 15.264472,-1.7305 20.566782,-0.11993 16.7651,5.0924 27.34373,22.67208 23.32374,38.75962 -3.15269,12.61665 -12.72652,22.13118 -25.33904,25.18211 -6.01014,1.45382 -10.087843,1.42726 -16.29251,-0.10616 z m 18.72435,-11.5729 c 7.52649,-3.93239 12.14934,-11.44008 12.17914,-19.77945 0.0228,-6.38487 -1.26657,-10.53707 -4.62375,-14.88967 -4.39028,-5.69204 -9.13099,-8.11539 -16.70937,-8.54149 -5.068779,-0.28499 -7.026756,-0.0205 -10.306555,1.39201 -16.515778,7.1131 -18.839593,29.99297 -4.102009,40.38768 6.441076,4.54301 16.443474,5.15047 23.562544,1.43092 z"
       id="path128"
       inkscape:connector-curvature="0" />
  </g>
</svg>
