<?xml version="1.0" encoding="UTF-8" standalone="no"?>
<!-- Generator: Adobe Illustrator 16.0.0, SVG Export Plug-In . SVG Version: 6.00 Build 0)  -->

<svg
   xmlns:dc="http://purl.org/dc/elements/1.1/"
   xmlns:cc="http://creativecommons.org/ns#"
   xmlns:rdf="http://www.w3.org/1999/02/22-rdf-syntax-ns#"
   xmlns:svg="http://www.w3.org/2000/svg"
   xmlns="http://www.w3.org/2000/svg"
   xmlns:sodipodi="http://sodipodi.sourceforge.net/DTD/sodipodi-0.dtd"
   xmlns:inkscape="http://www.inkscape.org/namespaces/inkscape"
   version="1.1"
   id="Capa_1"
   x="0px"
   y="0px"
   width="485.228px"
   height="485.228px"
   viewBox="0 0 485.228 485.228"
   style="enable-background:new 0 0 485.228 485.228;"
   xml:space="preserve"
   sodipodi:docname="search-random-connect.svg"
   inkscape:version="0.92.4 (5da689c313, 2019-01-14)"><metadata
   id="metadata47"><rdf:RDF><cc:Work
       rdf:about=""><dc:format>image/svg+xml</dc:format><dc:type
         rdf:resource="http://purl.org/dc/dcmitype/StillImage" /><dc:title /></cc:Work></rdf:RDF></metadata><defs
   id="defs45" /><sodipodi:namedview
   pagecolor="#ffffff"
   bordercolor="#666666"
   borderopacity="1"
   objecttolerance="10"
   gridtolerance="10"
   guidetolerance="10"
   inkscape:pageopacity="0"
   inkscape:pageshadow="2"
   inkscape:window-width="2714"
   inkscape:window-height="1279"
   id="namedview43"
   showgrid="false"
   inkscape:zoom="0.4863693"
   inkscape:cx="-1206.9018"
   inkscape:cy="242.614"
   inkscape:window-x="373"
   inkscape:window-y="320"
   inkscape:window-maximized="0"
   inkscape:current-layer="g8" />
<g
   id="g10">
	<g
   id="g8">
		<path
   d="M474.122,420.51l-91.811-91.839c-14.743,20.731-32.87,38.858-53.602,53.635l91.806,91.806    c14.805,14.813,38.793,14.813,53.606,0C488.93,459.308,488.93,435.318,474.122,420.51z"
   id="path2" />
		<path
   d="M394.221,197.125c0-108.864-88.254-197.119-197.103-197.119C88.252,0.006,0,88.261,0,197.125    s88.252,197.114,197.119,197.114C305.967,394.239,394.221,305.989,394.221,197.125z M197.119,348.754    c-83.606,0-151.631-68.027-151.631-151.629c0-83.606,68.025-151.629,151.631-151.629c83.613,0,151.608,68.022,151.608,151.629    C348.727,280.727,280.737,348.754,197.119,348.754z"
   id="path4" />
		
	<path
   d="m 203.57872,251.60267 c -0.18405,-0.34034 1.7988,-0.52453 2.1512,-0.52453 0.38961,0.04 -1.03046,2.32625 -2.1512,0.52453 z m -11.3189,-15.81 0.56829,-0.16018 c 0.33722,0.28296 -0.37886,0.4885 -0.2687,0.69939 0.45276,0.79815 0.10748,1.27596 0.0403,1.70867 -0.0806,0.43779 -0.5468,0.24693 -0.78326,0.47917 -0.27944,0.34033 1.35693,0.38571 1.37802,0.43777 0.0537,0.16952 -1.97238,0.4578 -1.59902,0.87957 0.50515,0.69938 4.3341,-1.0037 3.72389,-0.90626 1.18361,-0.58192 0.15315,-0.64332 -0.51053,-0.97833 -0.22571,-1.10647 -0.41514,-2.81515 -1.12047,-3.49958 l 0.46216,-0.52454 c -1.08285,-1.5389 -1.89338,1.86298 -1.89338,1.86298 z m 68.41847,35.51601 c 0,34.10591 -28.26046,61.75804 -63.11679,61.75804 -34.86144,0 -63.11679,-27.65213 -63.11679,-61.75804 0,-34.10591 28.25535,-61.75803 63.11679,-61.75803 34.85633,0 63.11679,27.65212 63.11679,61.75803 z m -43.70832,-27.64185 c -0.0269,-0.75143 -0.99956,-1.46161 -2.00919,-0.16015 -0.70936,0.89558 -0.58308,2.25924 -0.96731,2.86652 -0.54681,0.90093 2.98228,1.74471 2.98228,0.89559 0.13435,-1.42561 3.85004,-0.32433 4.57593,-0.13347 1.30453,0.35502 3.38196,-1.16387 1.10972,-1.96081 -1.86718,-0.66869 -2.85075,-1.38435 -3.01909,-2.69155 0,0 0.98881,-0.90627 0.55755,-0.8542 -1.146,0.13879 -3.22949,4.04507 -3.22949,2.03286 z m 33.1153,27.64185 c 0,-5.32664 -0.93104,-10.70467 -1.8778,-13.54557 -0.30497,-0.89559 -0.99418,-1.60578 -1.88814,-1.94545 -1.34658,-0.5152 -7.03237,3.07247 -7.88965,1.30666 -0.56292,-1.17854 -1.70422,0.75143 -3.00861,0.0399 -0.63144,-0.34035 -2.38792,-2.65044 -3.18206,-2.36735 -1.62535,0.57126 2.49312,4.9612 3.61869,5.53767 1.05733,-0.78214 4.48122,-2.39312 5.21758,-0.19621 1.40959,4.13783 -3.87637,8.6718 -6.57988,11.05984 -4.03947,3.57164 -3.28214,-2.31077 -6.03294,-4.38488 -1.4464,-1.08644 -1.43069,-3.39667 -2.89281,-4.1943 -0.65159,-0.36036 -3.64502,-3.73127 -3.61869,-4.18413 l -0.094,0.8542 c -0.49441,0.36572 -1.54636,-1.37926 -1.6568,-1.65209 0,1.51822 2.52456,3.9371 3.36088,5.15167 1.42544,2.0844 2.18814,5.12083 3.93428,6.82431 0.93641,0.9156 4.51292,4.70387 5.44382,4.62152 1.01568,-0.0935 4.22367,-2.35708 4.7917,-2.22842 3.38721,0.78214 -7.97375,16.4946 -9.05204,18.43992 -0.88939,1.63139 0.72548,5.66631 0.59382,7.5963 -0.15316,2.22841 -1.94604,2.94888 -3.64502,4.16344 -1.81989,1.30134 -1.39374,3.83418 -2.92438,4.76047 -2.71922,1.6366 -4.67588,6.96325 -8.53654,6.93748 -1.13659,-0.006 -5.99613,1.85283 -6.63254,0.04 -0.49441,-1.31735 -1.15675,-2.31584 -1.85671,-3.61795 -0.68383,-1.27598 -0.0806,-2.59894 -0.90954,-3.72608 -0.57367,-0.78213 -2.49836,-2.55782 -2.67194,-3.48423 -0.0105,-0.79815 0.61532,-3.2217 1.47274,-3.64372 1.20511,-0.60195 0.23108,-2.35708 0.0806,-3.376 -0.25258,-1.82184 -1.40435,-3.32472 -2.78761,-4.37966 -2.046,-1.5389 -0.98881,-2.76375 -0.51053,-4.96134 0,-1.05041 -0.65293,-2.42915 -2.09342,-2.0174 -2.96643,0.84353 -2.0671,-2.26444 -4.22878,-2.1255 -1.55697,0.10674 -2.82979,1.07577 -4.27619,1.50274 -1.8199,0.53521 -3.68184,-0.42177 -5.48064,-0.64333 -7.40048,-0.9156 -9.8146,-9.19153 -7.88427,-15.16149 0.1948,-0.97834 -0.5992,-2.78951 -0.25258,-3.54602 0.83162,-1.81159 2.52469,-3.84433 4.0079,-5.21853 0.83162,-0.77145 1.89889,-0.5766 2.87709,-1.17854 1.50954,-0.93161 1.53064,-2.84598 3.00861,-4.01944 2.10391,-1.67265 4.97575,-1.6366 7.72131,-1.99684 1.46212,-0.19086 7.02699,-1.369 7.90537,-0.30831 0,0.19486 1.00493,3.10851 -0.0941,2.9438 2.27749,0.12011 5.52269,3.85474 7.6845,2.97985 1.10973,-0.45247 0.70533,-3.78774 2.98228,-2.17689 1.37802,0.96765 7.55297,1.39983 8.83628,0.35503 0.78862,-0.63799 1.23063,-4.78636 0.27407,-5.2547 0.60994,0.5926 -3.21363,0.63799 -3.57127,0.50451 -0.63144,-0.22691 -1.21989,0.58726 -2.23543,0.13348 0.60994,0.28295 -3.39783,-1.82187 -1.146,-3.43272 -0.94179,0.67403 -1.81989,-0.19086 -2.83504,0.55123 -0.69995,0.55524 0.32647,0.92628 -0.67308,1.41024 -1.58841,0.78747 -2.78761,-2.70197 -3.38721,-3.09823 -0.60995,-0.39107 -5.33339,-3.63345 -4.04996,-1.51821 l 4.14991,4.03999 c -0.20555,0.13345 -1.08822,-1.47191 -1.08822,-0.30432 0.2781,-0.69537 0.10747,2.97985 -0.54681,1.78583 -0.28885,-0.4578 0.47291,-0.71541 0.0269,-1.37927 0,-0.43778 -1.19973,-0.86489 -1.43068,-1.16387 -0.65697,-0.79814 -2.40364,-2.5578 -3.3504,-2.97984 -0.26332,-0.1201 -4.01851,0.44846 -4.3341,0.56592 -0.36811,0.5045 -0.68383,1.03438 -0.94178,1.60057 -0.77789,0.28295 -1.50955,0.64866 -2.20373,1.10112 l -0.82625,1.81679 c -0.35737,0.31365 -4.02375,1.49753 -4.04485,1.54385 0.15316,-0.38574 -2.5615,-0.87958 -2.38254,-1.65197 0.20018,-0.84886 1.12047,-3.49958 0.88401,-4.46723 -0.25257,-1.01437 5.64884,1.46163 6.02757,-1.20922 0.15316,-1.15853 0.24183,-2.5063 -1.64631,-2.70184 0.35737,0.04 3.65551,-1.26661 4.20257,-1.85282 0.76848,-0.86489 2.52993,-2.27473 3.80799,-2.27473 1.49383,0 1.17287,-2.12551 1.86195,-3.1651 0.68921,0.27228 -0.36812,1.93517 0.45813,2.60935 -0.0537,-0.52989 2.34063,0.29362 2.57198,0.1695 0.5468,-0.27762 3.59773,-0.10674 3.12429,-1.51315 -0.52665,-1.42559 0.26869,-1.00369 0.95253,-1.30267 -0.12091,0.04 1.78832,-3.18566 2.11452,-2.1255 -0.22571,-1.09046 -2.21434,0.38039 -2.90866,0.32434 -1.60426,-0.12011 -0.92566,-2.67621 -0.32109,-3.42244 0.46753,-0.59127 -1.27766,-1.31734 -1.29916,-0.18553 -0.0269,1.6932 -1.64107,3.22689 -1.26691,5.47587 0.5683,3.39159 -3.86589,-0.81818 -4.2551,-0.58727 -1.47274,0.87556 -2.67731,-1.10113 -1.91461,-2.28501 0.77788,-1.20923 2.65621,-1.15317 3.42939,-2.4497 0.5468,-0.9156 1.18362,-1.98135 2.02491,-2.6762 2.81408,-2.31076 3.5925,-0.46313 6.39596,-0.21088 2.74032,0.24692 0.92566,0.63799 0.5468,1.66744 -0.36274,0.97832 1.50417,1.32802 2.1512,0.50985 0.36811,-0.47382 1.20511,-1.66223 1.56731,-2.54232 0.46754,-1.14251 4.73903,-1.01438 1.75675,-2.75856 -1.96714,-1.14783 -10.54049,-3.45848 -16.28405,-3.45848 -1.24138,0 -2.10914,1.35354 -3.0559,2.12045 -1.87242,1.51821 -6.66936,4.49792 -9.33605,3.5922 -2.72984,-0.92094 -8.57335,3.39667 -9.50963,3.42763 -0.34259,0.0267 0.0269,-3.26292 1.88303,-3.50478 -0.80475,0.12011 6.55893,-3.63865 6.35901,-4.42091 -0.24182,-0.92628 -14.72197,4.23046 -14.07508,5.26485 0.31035,0.47381 1.57269,0.47381 -0.0806,1.51314 -0.94716,0.56058 -1.95652,4.12235 -2.84551,4.12235 -2.65608,1.13716 -2.82442,-2.23882 -5.78037,2.10494 l -4.70222,1.85269 c -6.98494,7.26169 -11.81868,16.45856 -13.57019,26.67433 -0.0672,0.40708 1.75675,1.16386 1.99347,1.44094 0.58979,0.69004 0.58979,3.66442 0.87864,4.63701 0.72549,2.46011 2.51945,3.8291 3.89223,6.06779 0.81012,1.33337 2.15657,4.70388 1.73041,6.10371 0.5683,-0.91561 5.62802,4.19441 6.55369,5.25977 2.17753,2.5063 3.85541,5.54273 0.32109,8.02339 -1.14197,0.80216 1.73566,5.81034 0.25258,7.0404 l -1.89876,0.47915 c -1.87242,1.1265 -1.02508,3.89079 0.10748,5.05384 9.56216,9.7836 23.03764,15.8873 37.97525,15.8873 29.01792,0 52.53949,-23.01512 52.53949,-51.4084 z m -60.52372,-32.71636 c 0.65697,-0.28296 1.54098,-0.27227 1.6357,-1.13183 0.0806,-0.7621 0.23108,-0.23623 0.42051,-0.51519 0.18406,-0.27228 -0.35199,-0.71005 -0.57904,-0.75144 -0.33588,-0.0668 -0.5683,0.35503 -0.78326,0.53522 l -0.37886,0.0935 -0.35737,0.44847 0.0403,0.24691 -0.45813,0.54589 c -0.44738,0.43245 0.0106,0.7154 0.45813,0.52454 z"
   id="path2-33"
   inkscape:connector-curvature="0"
   style="stroke-width:5.20280933" /><path
   inkscape:connector-curvature="0"
   d="m 314.17703,232.53478 c -3.82062,2.25623 -8.49328,3.59035 -13.53835,3.59035 -5.11198,0 -9.84134,-1.36819 -13.69017,-3.67902 h -0.16525 c -19.05097,3.0089 -19.57977,19.45768 -19.57977,19.45768 0,0 9.20869,15.04935 32.57898,15.82772 23.3711,0.77826 32.57898,-15.82454 32.57898,-15.82454 -0.74295,-14.69063 -15.35395,-18.69499 -18.18468,-19.37219 z"
   id="path2-5"
   style="stroke-width:0.85654777" /><path
   inkscape:connector-curvature="0"
   d="m 300.63868,201.58768 c -10.21644,0 -18.4996,6.8391 -18.4996,15.27433 0,8.43534 8.28316,15.27421 18.4996,15.27421 10.21738,0 18.49946,-6.83887 18.49946,-15.27421 0,-8.43523 -8.28208,-15.27433 -18.49946,-15.27433 z m 2.7383,26.49442 h -5.15632 v -4.2573 h 5.15632 z m 6.02918,-13.39474 c -0.64353,0.83958 -2.01631,1.98008 -4.12021,3.42468 -1.08823,0.7476 -1.76468,1.34864 -2.02773,1.80332 -0.26198,0.45398 -0.38021,1.26691 -0.35737,2.43913 h -4.68019 c -0.0121,-0.5554 -0.0134,-0.89264 -0.0134,-1.01528 0,-1.2524 0.25123,-2.28359 0.75235,-3.09143 0.50112,-0.80775 1.50444,-1.71689 3.00983,-2.7272 1.50551,-1.01056 2.40471,-1.67184 2.69799,-1.98538 0.45142,-0.49407 0.67847,-1.04003 0.67847,-1.63681 0,-0.82897 -0.40036,-1.538 -1.20243,-2.12866 -0.80072,-0.59076 -1.88075,-0.88673 -3.23902,-0.88673 -1.30856,0 -2.40377,0.30894 -3.2851,0.92447 -0.87999,0.61671 -1.48671,1.5558 -1.8164,2.81823 l -4.735,-0.48464 c 0.13435,-1.80791 1.06673,-3.34356 2.79876,-4.60598 1.73055,-1.26254 4.00347,-1.89364 6.81727,-1.89364 2.96079,0 5.31552,0.63912 7.06609,1.91616 1.74869,1.27788 2.62438,2.7654 2.62438,4.462 0,0.93981 -0.32244,1.82914 -0.96329,2.66741 z"
   id="path4-7"
   style="stroke-width:0.85654777" /><path
   inkscape:connector-curvature="0"
   d="m 112.76748,233.7649 c -3.82048,2.25634 -8.49328,3.59034 -13.53835,3.59034 -5.11199,0 -9.84121,-1.36819 -13.69004,-3.67902 h -0.16525 c -19.0511,3.0089 -19.5799,19.45769 -19.5799,19.45769 0,0 9.20882,15.04934 32.57898,15.82771 23.37123,0.77827 32.57898,-15.82453 32.57898,-15.82453 -0.74295,-14.69063 -15.35395,-18.69499 -18.18469,-19.37219 z"
   id="path2-5-3"
   style="stroke-width:0.85654777" /><path
   inkscape:connector-curvature="0"
   d="m 99.22913,202.81779 c -10.21645,0 -18.49947,6.8391 -18.49947,15.27433 0,8.43535 8.28302,15.27433 18.49947,15.27433 10.21751,0 18.49959,-6.83898 18.49959,-15.27433 0,-8.43523 -8.28208,-15.27433 -18.49959,-15.27433 z m 2.73843,26.49442 h -5.15631 v -4.25729 h 5.15631 z m 6.02919,-13.39472 c -0.64354,0.83957 -2.01631,1.98007 -4.12036,3.42467 -1.08822,0.74761 -1.76454,1.34863 -2.02759,1.80332 -0.26198,0.45399 -0.38155,1.26691 -0.35737,2.43924 h -4.68018 c -0.0121,-0.5554 -0.0134,-0.89264 -0.0134,-1.01527 0,-1.25252 0.25123,-2.28371 0.75236,-3.09156 0.50112,-0.80774 1.50444,-1.71688 3.00982,-2.7272 1.50551,-1.01055 2.40471,-1.67184 2.69786,-1.98538 0.45141,-0.49407 0.67846,-1.04003 0.67846,-1.63681 0,-0.82896 -0.40036,-1.538 -1.20242,-2.12865 -0.80072,-0.59077 -1.88062,-0.88674 -3.23889,-0.88674 -1.3099,0 -2.40377,0.30894 -3.28524,0.92448 -0.87998,0.61671 -1.48657,1.5558 -1.81626,2.81835 l -4.735,-0.48465 c 0.13569,-1.80803 1.06673,-3.34367 2.79876,-4.6061 1.73055,-1.26254 4.00333,-1.89363 6.81728,-1.89363 2.96078,0 5.31552,0.63911 7.06609,1.91616 1.74868,1.27799 2.62424,2.7654 2.62424,4.462 0,0.9398 -0.32244,1.82913 -0.96329,2.66741 z"
   id="path4-7-0"
   style="stroke-width:0.85654777" /><path
   inkscape:connector-curvature="0"
   d="m 223.33274,135.47474 c 5.46317,-4.98001 8.72302,-11.17151 8.72302,-17.87948 0,-6.70787 -3.25985,-12.89947 -8.72302,-17.879484 l 10.11461,-7.144862 c 8.09816,6.827068 13.02648,15.511106 13.02648,25.024346 0,9.51323 -4.93477,18.19231 -13.02648,25.02929 z M 152.51761,85.445989 142.39024,78.29122 c -13.43893,10.491359 -21.67883,24.21 -21.67883,39.30404 0,15.09402 8.2399,28.80784 21.67239,39.30415 l 10.1275,-7.15477 c -10.77184,-8.67412 -17.37523,-19.86557 -17.37523,-32.14938 0,-12.28371 6.60984,-23.475261 17.38154,-32.149271 z m 10.07605,57.173611 10.1146,-7.14486 c -5.46317,-4.98001 -8.72301,-11.17151 -8.72301,-17.87948 0,-6.70787 3.25984,-12.89947 8.72301,-17.879484 l -10.1146,-7.144862 c -8.09816,6.827068 -13.02662,15.511106 -13.02662,25.024346 0,9.51323 4.92846,18.19231 13.02662,25.02434 z m 91.0571,-64.32838 -10.12105,7.154769 c 10.7717,8.67401 17.37523,19.865561 17.37523,32.149271 0,12.28381 -6.60353,23.47526 -17.37523,32.14938 l 10.1275,7.15477 c 13.43235,-10.50127 21.67225,-24.21507 21.67225,-39.30415 0,-15.08909 -8.2399,-28.812681 -21.6787,-39.30404 z m -16.4411,119.16344 h -13.87692 c -5.47607,-10.93814 -14.56626,-15.22315 -25.31231,-15.22315 -10.90054,0 -19.89414,4.39915 -25.31217,15.22315 h -13.61292 l 32.48265,-65.87757 c -7.48606,-2.05554 -12.88474,-7.50722 -12.88474,-13.98183 0,-8.22723 8.65852,-14.89546 19.32718,-14.89546 10.66867,0 19.32733,6.66823 19.32733,14.89546 0,6.47461 -5.39882,11.93125 -12.88488,13.98183 z m -39.18923,-50.71397 -5.48896,10.99286 h 10.97148 z m 12.92358,25.88833 -2.48035,-4.96516 h -20.88631 l -2.48036,4.96516 z"
   id="path2-3"
   style="stroke-width:5.65575361" /></g>
</g>
<g
   id="g12">
</g>
<g
   id="g14">
</g>
<g
   id="g16">
</g>
<g
   id="g18">
</g>
<g
   id="g20">
</g>
<g
   id="g22">
</g>
<g
   id="g24">
</g>
<g
   id="g26">
</g>
<g
   id="g28">
</g>
<g
   id="g30">
</g>
<g
   id="g32">
</g>
<g
   id="g34">
</g>
<g
   id="g36">
</g>
<g
   id="g38">
</g>
<g
   id="g40">
</g>
</svg>