<?xml version="1.0" encoding="UTF-8" standalone="no"?>
<svg
   xmlns:dc="http://purl.org/dc/elements/1.1/"
   xmlns:cc="http://creativecommons.org/ns#"
   xmlns:rdf="http://www.w3.org/1999/02/22-rdf-syntax-ns#"
   xmlns:svg="http://www.w3.org/2000/svg"
   xmlns="http://www.w3.org/2000/svg"
   xmlns:sodipodi="http://sodipodi.sourceforge.net/DTD/sodipodi-0.dtd"
   xmlns:inkscape="http://www.inkscape.org/namespaces/inkscape"
   width="24"
   height="24"
   fill-rule="evenodd"
   clip-rule="evenodd"
   version="1.1"
   id="svg4"
   sodipodi:docname="about-me-edit.svg"
   inkscape:version="0.92.4 (5da689c313, 2019-01-14)">
  <metadata
     id="metadata10">
    <rdf:RDF>
      <cc:Work
         rdf:about="">
        <dc:format>image/svg+xml</dc:format>
        <dc:type
           rdf:resource="http://purl.org/dc/dcmitype/StillImage" />
        <dc:title></dc:title>
      </cc:Work>
    </rdf:RDF>
  </metadata>
  <defs
     id="defs8" />
  <sodipodi:namedview
     pagecolor="#ffffff"
     bordercolor="#666666"
     borderopacity="1"
     objecttolerance="10"
     gridtolerance="10"
     guidetolerance="10"
     inkscape:pageopacity="0"
     inkscape:pageshadow="2"
     inkscape:window-width="3122"
     inkscape:window-height="1835"
     id="namedview6"
     showgrid="false"
     inkscape:zoom="55.625733"
     inkscape:cx="13.608199"
     inkscape:cy="10.171254"
     inkscape:window-x="107"
     inkscape:window-y="48"
     inkscape:window-maximized="0"
     inkscape:current-layer="svg4" />
  <path
     inkscape:connector-curvature="0"
     style="clip-rule:evenodd;fill-rule:evenodd;stroke-width:0.33366579"
     d="M 17.530551,22.407066 H 8.4106814 c -0.9157189,0 -1.6581586,-0.729187 -1.6581586,-1.62856 V 8.5642986 c 0,-0.8993733 0.7424397,-1.6285607 1.6581586,-1.6285607 H 11.31246 V 5.3071773 c 0,-0.8993731 0.742438,-1.6285611 1.658156,-1.6285611 0.915717,0 1.658158,0.729188 1.658158,1.6285611 v 1.6285606 h 2.901777 c 0.915719,0 1.65816,0.7291874 1.65816,1.6285607 V 20.778506 c 0,0.899373 -0.742441,1.62856 -1.65816,1.62856 z M 13.799696,5.3071773 c 0,-0.449483 -0.371427,-0.8142808 -0.82908,-0.8142808 -0.457651,0 -0.829078,0.3647978 -0.829078,0.8142808 v 2.4428409 c 0,0.449483 0.371427,0.8142804 0.829078,0.8142804 0.457653,0 0.82908,-0.3647974 0.82908,-0.8142804 z m 4.559935,3.2571213 c 0,-0.449483 -0.371427,-0.8142804 -0.82908,-0.8142804 h -2.901777 c 0,0.8993722 -0.742441,1.6285607 -1.658158,1.6285607 -0.915718,0 -1.658156,-0.7291885 -1.658156,-1.6285607 H 8.4106814 c -0.457653,0 -0.8290806,0.3647974 -0.8290806,0.8142804 v 9.7713654 h 1.5740094 c 0.09576,-0.239806 0.271936,-0.630661 0.4808653,-0.911994 0.010388,-0.0058 0.351529,-0.708017 2.0718675,-0.728781 0.0025,-0.0086 0.0042,-0.42424 0.0092,-0.418133 -0.132652,-0.08223 -0.305516,-0.210084 -0.435681,-0.332226 -0.105706,-0.06351 -0.481281,-0.418949 -0.601911,-1.051644 -0.03607,-0.22067 -0.202296,-1.261728 -0.202296,-1.696146 0,-1.291041 0.524394,-2.597962 2.467755,-2.597962 0.0087,0 0.04145,0 0.05014,0 1.943362,0 2.467754,1.306921 2.467754,2.597962 0,0.434418 -0.16623,1.475476 -0.202294,1.696146 -0.120638,0.632695 -0.49579,0.98813 -0.601914,1.051644 -0.129753,0.122551 -0.302613,0.249984 -0.435679,0.332226 0.0053,-0.0062 0.0074,0.40999 0.0092,0.418133 1.720753,0.02076 2.061918,0.723082 2.071867,0.728781 0.208928,0.281333 0.385108,0.672188 0.480866,0.911994 h 1.574421 z m -4.968672,7.5272074 c -4.15e-4,0.0012 -4.15e-4,0.0015 -4.15e-4,0.0015 -0.0013,0 -0.0071,-0.317978 -0.0071,-0.317978 0,0 0.483355,-0.24469 0.84193,-0.561038 0.210171,-0.169778 0.307175,-0.554525 0.307175,-0.554525 0.05678,-0.337113 0.09865,-1.171343 0.09865,-1.507641 0,-0.839522 -0.428221,-1.74256 -1.66106,-1.74256 0,0 0,-0.0024 0,-0.0028 0,0 0,0.0028 0,0.0028 -1.232841,0 -1.661061,0.903444 -1.661061,1.74256 0,0.336298 0.04269,1.170528 0.09865,1.507641 0,0 0.09701,0.384747 0.307173,0.554525 0.358577,0.316348 0.84193,0.561038 0.84193,0.561038 0,0 -0.0058,0.317978 -0.0074,0.317978 0,0 0,-4.06e-4 0,-0.0015 0,0 0.01195,0.466585 0.01195,0.605012 0,0.554931 -0.565848,0.822016 -0.921522,0.822016 -8.27e-4,0 -8.27e-4,0 -0.0013,0 -1.074901,0.0464 -1.3286,0.397369 -1.330672,0.400625 -0.06551,0.103022 -0.156283,0.205606 -0.240019,0.416505 h 5.805628 c -0.08415,-0.210899 -0.174935,-0.313498 -0.241262,-0.416097 -0.0025,-0.0037 -0.256601,-0.354213 -1.331087,-0.400626 -4.13e-4,0 -4.13e-4,0 -8.27e-4,0 -0.355675,0 -0.921935,-0.266676 -0.921935,-0.822015 0,-0.138835 0.01247,-0.60542 0.01247,-0.60542 z m 4.968672,3.058438 H 7.5816008 v 1.628562 c 0,0.449481 0.3714276,0.814279 0.8290806,0.814279 h 9.1198696 c 0.457653,0 0.82908,-0.364798 0.82908,-0.814279 z m -2.487238,1.628562 h -1.243619 c -0.22924,0 -0.414539,-0.181993 -0.414539,-0.407141 0,-0.225149 0.185299,-0.40714 0.414539,-0.40714 h 1.243619 c 0.229241,0 0.41454,0.181991 0.41454,0.40714 0,0.225148 -0.185299,0.407141 -0.41454,0.407141 z m -3.316316,0 h -2.487238 c -0.2292409,0 -0.4145399,-0.181993 -0.4145399,-0.407141 0,-0.225149 0.185299,-0.40714 0.4145399,-0.40714 h 2.487238 c 0.22924,0 0.414539,0.181991 0.414539,0.40714 0,0.225148 -0.185299,0.407141 -0.414539,0.407141 z m 0,-15.4713287 h 0.82908 v 0.8142803 h -0.82908 z"
     id="path2-5" />
  <path
     inkscape:connector-curvature="0"
     d="M 1.0283273,7.1940803 0.38585366,10.130178 3.5683082,9.5381798 11.101635,2.587451 8.5612082,0.24335155 Z M 3.12764,8.7793342 1.5283763,9.0775993 1.8502828,7.601105 Z M 9.8385652,2.5866271 3.7589519,8.1968111 2.4820411,7.0181699 7.3151042,2.5582013 8.5857642,3.730663 9.2170752,3.1481398 7.9464152,1.9756781 8.5612082,1.4083977 Z"
     id="path2-51"
     style="stroke-width:1" />
</svg>
