<?xml version="1.0" encoding="UTF-8" standalone="no"?>
<!-- Generator: Adobe Illustrator 18.0.0, SVG Export Plug-In . SVG Version: 6.00 Build 0)  -->

<svg
   xmlns:dc="http://purl.org/dc/elements/1.1/"
   xmlns:cc="http://creativecommons.org/ns#"
   xmlns:rdf="http://www.w3.org/1999/02/22-rdf-syntax-ns#"
   xmlns:svg="http://www.w3.org/2000/svg"
   xmlns="http://www.w3.org/2000/svg"
   xmlns:sodipodi="http://sodipodi.sourceforge.net/DTD/sodipodi-0.dtd"
   xmlns:inkscape="http://www.inkscape.org/namespaces/inkscape"
   version="1.1"
   id="Capa_1"
   x="0px"
   y="0px"
   viewBox="0 0 296 296"
   style="enable-background:new 0 0 296 296;"
   xml:space="preserve"
   sodipodi:docname="kick-boot.svg"
   inkscape:version="0.92.4 (5da689c313, 2019-01-14)"><metadata
   id="metadata39"><rdf:RDF><cc:Work
       rdf:about=""><dc:format>image/svg+xml</dc:format><dc:type
         rdf:resource="http://purl.org/dc/dcmitype/StillImage" /></cc:Work></rdf:RDF></metadata><defs
   id="defs37" /><sodipodi:namedview
   pagecolor="#ffffff"
   bordercolor="#666666"
   borderopacity="1"
   objecttolerance="10"
   gridtolerance="10"
   guidetolerance="10"
   inkscape:pageopacity="0"
   inkscape:pageshadow="2"
   inkscape:window-width="3311"
   inkscape:window-height="1617"
   id="namedview35"
   showgrid="false"
   inkscape:zoom="0.7972973"
   inkscape:cx="148"
   inkscape:cy="148"
   inkscape:window-x="0"
   inkscape:window-y="0"
   inkscape:window-maximized="0"
   inkscape:current-layer="Capa_1" />
<path
   d="m 202.66656,269.40652 c -2.508,-0.0608 -61.62842,-1.93404 -79.69806,-6.14895 -6.05038,-1.41085 -9.11631,-0.95918 -10.36676,0.30862 -3.20142,3.24594 -4.62191,5.84033 -8.17934,5.84033 H 32.807151 c -4.95667,0 -8.976375,-4.44613 -8.976375,-9.93081 V 36.524281 c 0,-3.403673 1.576362,-6.571226 4.175574,-8.391613 2.600103,-1.819408 5.861743,-2.041813 8.643389,-0.582955 0.194831,0.101891 19.803631,10.197305 49.881918,10.198285 17.776503,9.8e-4 35.502543,-3.546719 52.686583,-10.543159 2.98002,-1.21196 6.32137,-0.593733 8.78066,1.630314 2.46018,2.224047 3.67343,5.720798 3.19256,9.195014 -4.19063,30.223528 -5.44817,84.136583 9.02065,100.143853 16.62524,18.39493 66.32118,38.41233 90.20386,48.03256 7.80473,3.14404 12.96153,5.22014 15.61921,6.61532 18.00321,9.44583 25.12693,35.67195 15.88045,58.46207 -0.90774,2.23874 -2.53368,4.02581 -4.56258,5.01634 -1.06448,0.51928 -26.52705,13.10524 -66.16974,13.10524 h -8.51675 z m -54.1,-116.08351 c -1.58964,-1.75866 -4.11358,-4.85273 -5.48182,-7.05816 l -5.46234,2.49642 c -1.12116,0.5134 -2.28129,0.7554 -3.4237,0.7554 -3.52555,0 -6.86955,-2.31322 -8.29978,-6.14112 -1.89339,-5.06927 0.28694,-10.87628 4.86811,-12.97002 l 4.80788,-2.19759 c -0.97504,-3.55651 -1.81104,-7.38344 -2.508,-11.48079 l -2.1759,0.99446 c -1.12116,0.5124 -2.28128,0.7544 -3.42281,0.7544 -3.52556,0 -6.87044,-2.31418 -8.30067,-6.14307 -1.89163,-5.06926 0.2887,-10.87627 4.86987,-12.970014 l 6.82173,-3.116603 c -0.25505,-4.599962 -0.38701,-9.432121 -0.39586,-14.495503 -16.88649,5.469001 -32.376396,7.425575 -45.879924,7.425575 -18.484984,0 -33.246931,-3.655472 -42.80071,-6.948434 v 65.497709 c 11.650859,1.2776 31.936255,5.93438 46.611426,22.48639 11.290422,12.73487 16.999838,29.78263 17.048548,50.71807 7.2902,2.14959 14.85494,4.97912 22.7004,8.71983 27.17177,12.95728 55.10958,19.52753 83.03853,19.52753 1.81458,0 3.59461,-0.0294 5.34367,-0.0843 -4.39609,-26.1497 1.63746,-42.64782 8.09343,-52.27099 -3.27581,-1.37656 -6.65524,-2.82268 -10.0993,-4.3315 l -6.52063,8.76 c -1.77472,2.38375 -4.34472,3.61726 -6.93419,3.61726 -2.00853,0 -4.02944,-0.74167 -5.70144,-2.26421 -3.82666,-3.48695 -4.37395,-9.74564 -1.22301,-13.97917 l 3.03935,-4.08363 c -2.30873,-1.113 -4.60863,-2.24658 -6.88991,-3.40171 l -9.10744,7.76555 c -1.63215,1.39125 -3.56008,2.06435 -5.47297,2.06435 -2.68866,0 -5.34809,-1.33051 -7.11574,-3.86809 -3.02607,-4.34423 -2.29545,-10.5794 1.63039,-13.92821 l 2.17235,-1.85272 c -2.75507,-1.65775 -5.41452,-3.33901 -7.94111,-5.0428 l -8.42997,5.17898 c -1.06005,0.65253 -2.1883,1.04051 -3.32274,1.18551 -3.50252,0.44873 -7.06437,-1.42456 -8.8825,-5.04574 -2.40615,-4.79493 -0.84485,-10.84101 3.48924,-13.50301 z M 87.390677,216.79458 C 86.692832,203.20731 82.764339,192.26932 75.653913,184.20494 65.559039,172.75648 50.960922,168.97757 41.783517,167.73229 v 46.60212 c 3.009252,-0.0265 6.037088,-0.0519 9.088847,-0.0519 11.138101,0 23.310579,0.31548 36.518313,2.5121 z M 86.530765,57.609621 C 67.376274,57.608641 51.863341,53.937493 41.782636,50.635714 v 10.591168 c 11.325853,4.740061 45.372476,15.699617 89.297004,-0.501636 0.20989,-3.6202 0.45519,-6.988603 0.70759,-10.012131 -14.86999,4.583301 -30.03755,6.897485 -45.256465,6.896506 z M 242.71396,204.24096 c -3.93203,3.60354 -13.41053,15.52326 -8.15188,43.33855 15.65817,-2.16429 26.94329,-5.99023 32.20902,-8.04772 3.53263,-12.68883 -1.1867,-24.96419 -8.42819,-28.76369 -1.89782,-0.99642 -9.0977,-3.8965 -15.62895,-6.52714 z M 99.971409,249.5449 c 2.258261,-2.47389 5.656291,-4.93405 10.633311,-6.12838 -22.17435,-8.46999 -41.605151,-9.27339 -59.732356,-9.27339 -3.047323,0 -6.069852,0.0265 -9.072906,0.0519 -0.0051,0 -0.01147,0 -0.0168,0 v 15.34887 h 58.188773 z"
   id="path2"
   inkscape:connector-curvature="0"
   style="stroke-width:0.99999994" />
<g
   id="g4">
</g>
<g
   id="g6">
</g>
<g
   id="g8">
</g>
<g
   id="g10">
</g>
<g
   id="g12">
</g>
<g
   id="g14">
</g>
<g
   id="g16">
</g>
<g
   id="g18">
</g>
<g
   id="g20">
</g>
<g
   id="g22">
</g>
<g
   id="g24">
</g>
<g
   id="g26">
</g>
<g
   id="g28">
</g>
<g
   id="g30">
</g>
<g
   id="g32">
</g>
</svg>