<?xml version="1.0" encoding="UTF-8" standalone="no"?>
<svg
   xmlns:dc="http://purl.org/dc/elements/1.1/"
   xmlns:cc="http://creativecommons.org/ns#"
   xmlns:rdf="http://www.w3.org/1999/02/22-rdf-syntax-ns#"
   xmlns:svg="http://www.w3.org/2000/svg"
   xmlns="http://www.w3.org/2000/svg"
   xmlns:sodipodi="http://sodipodi.sourceforge.net/DTD/sodipodi-0.dtd"
   xmlns:inkscape="http://www.inkscape.org/namespaces/inkscape"
   width="24"
   height="24"
   fill-rule="evenodd"
   clip-rule="evenodd"
   version="1.1"
   id="svg4"
   sodipodi:docname="chat-room-info.svg"
   inkscape:version="0.92.4 (5da689c313, 2019-01-14)">
  <metadata
     id="metadata10">
    <rdf:RDF>
      <cc:Work
         rdf:about="">
        <dc:format>image/svg+xml</dc:format>
        <dc:type
           rdf:resource="http://purl.org/dc/dcmitype/StillImage" />
        <dc:title></dc:title>
      </cc:Work>
    </rdf:RDF>
  </metadata>
  <defs
     id="defs8" />
  <sodipodi:namedview
     pagecolor="#ffffff"
     bordercolor="#666666"
     borderopacity="1"
     objecttolerance="10"
     gridtolerance="10"
     guidetolerance="10"
     inkscape:pageopacity="0"
     inkscape:pageshadow="2"
     inkscape:window-width="2400"
     inkscape:window-height="1220"
     id="namedview6"
     showgrid="false"
     inkscape:zoom="19.666667"
     inkscape:cx="-5.9237285"
     inkscape:cy="12"
     inkscape:window-x="0"
     inkscape:window-y="0"
     inkscape:window-maximized="0"
     inkscape:current-layer="svg4" />
  <path
     d="M 18.050847,20.813525 H 15.794492 V 24 L 11.783443,20.813525 H 6.0169492 v -3.186474 h 1.5042372 v 1.593237 h 4.7631676 l 2.0059,1.593237 v -1.593237 h 2.256356 v -6.373746 h -1.504237 v -1.593237 h 3.008474 z M 13.538136,16.033814 H 6.2674047 L 2.2563559,19.220288 V 16.033814 H 0 V 4.8803559 H 13.538136 Z M 6.7690678,12.780423 H 3.0084746 v 0.863535 h 3.7605932 z m 3.7605932,-2.32294 H 3.0084746 v 0.796619 h 7.5211864 z m 0,-2.3898559 H 3.0084746 v 0.7966187 h 7.5211864 z"
     id="path2"
     inkscape:connector-curvature="0"
     style="stroke-width:0.77404892" />
  <path
     inkscape:connector-curvature="0"
     d="m 18.838983,1.1991527 c 2.184571,0 3.961864,1.7772924 3.961864,3.9618644 0,2.1845719 -1.777293,3.9618642 -3.961864,3.9618642 -2.184573,0 -3.961865,-1.7772923 -3.961865,-3.9618642 0,-2.184572 1.777292,-3.9618644 3.961865,-3.9618644 z m 0,-0.79237293 c -2.625528,0 -4.754238,2.12870983 -4.754238,4.75423733 0,2.6255277 2.12871,4.7542372 4.754238,4.7542372 2.625527,0 4.754237,-2.1287095 4.754237,-4.7542372 0,-2.6255275 -2.12871,-4.75423733 -4.754237,-4.75423733 z m -3.97e-4,2.27807213 c 0.273369,0 0.495629,0.2218644 0.495629,0.495233 0,0.2733687 -0.22226,0.4952331 -0.495629,0.4952331 -0.273368,0 -0.494837,-0.2218644 -0.494837,-0.4952331 0,-0.2733686 0.221469,-0.495233 0.494837,-0.495233 z m 0.792769,4.8532835 H 18.046609 V 7.1419498 c 0.191755,-0.070916 0.396187,-0.079634 0.396187,-0.2911977 V 5.0809872 c 0,-0.2115629 -0.204432,-0.2448428 -0.396187,-0.3157605 V 4.3690405 h 1.18856 v 2.4821084 c 0,0.2119595 0.204828,0.2210718 0.396186,0.2911968 z"
     id="path2-2"
     style="stroke-width:1" />
</svg>
