<?xml version="1.0" encoding="UTF-8" standalone="no"?>
<!-- Generated by IcoMoon.io -->

<svg
   xmlns:dc="http://purl.org/dc/elements/1.1/"
   xmlns:cc="http://creativecommons.org/ns#"
   xmlns:rdf="http://www.w3.org/1999/02/22-rdf-syntax-ns#"
   xmlns:svg="http://www.w3.org/2000/svg"
   xmlns="http://www.w3.org/2000/svg"
   xmlns:sodipodi="http://sodipodi.sourceforge.net/DTD/sodipodi-0.dtd"
   xmlns:inkscape="http://www.inkscape.org/namespaces/inkscape"
   version="1.1"
   width="32"
   height="32"
   viewBox="0 0 32 32"
   id="svg6"
   sodipodi:docname="cloud-upload-settings.svg"
   inkscape:version="0.92.4 (5da689c313, 2019-01-14)">
  <metadata
     id="metadata12">
    <rdf:RDF>
      <cc:Work
         rdf:about="">
        <dc:format>image/svg+xml</dc:format>
        <dc:type
           rdf:resource="http://purl.org/dc/dcmitype/StillImage" />
        <dc:title>cloud-upload</dc:title>
      </cc:Work>
    </rdf:RDF>
  </metadata>
  <defs
     id="defs10" />
  <sodipodi:namedview
     pagecolor="#ffffff"
     bordercolor="#666666"
     borderopacity="1"
     objecttolerance="10"
     gridtolerance="10"
     guidetolerance="10"
     inkscape:pageopacity="0"
     inkscape:pageshadow="2"
     inkscape:window-width="1698"
     inkscape:window-height="1227"
     id="namedview8"
     showgrid="false"
     inkscape:zoom="7.375"
     inkscape:cx="16"
     inkscape:cy="16"
     inkscape:window-x="1751"
     inkscape:window-y="366"
     inkscape:window-maximized="0"
     inkscape:current-layer="svg6" />
  <title
     id="title2">cloud-upload</title>
  <path
     d="m 24.880923,16.796394 c 0.06634,-0.318046 0.102128,-0.648923 0.102128,-0.98805 0,-2.530617 -1.954381,-4.58279 -4.364407,-4.58279 -0.387559,0 -0.763771,0.05316 -1.121653,0.153065 -0.676483,-2.2153205 -2.653558,-3.819297 -4.988516,-3.819297 -2.382967,0 -4.393212,1.6708853 -5.027797,3.957697 -0.6206187,-0.189727 -1.2761526,-0.291465 -1.9552542,-0.291465 -3.8563899,0 -6.98305092,3.283112 -6.98305092,7.332465 0,4.049353 3.12666102,7.332464 6.98305092,7.332464 H 11.01695 v 5.499348 H 18 v -5.499348 h 6.11017 c 2.410025,0 4.364406,-2.052173 4.364406,-4.582791 0,-2.254732 -1.55111,-4.129093 -3.593653,-4.511298 z m -8.626685,7.260973 v 5.499348 H 12.762712 V 24.057367 H 8.3983051 l 6.1101699,-6.415907 6.110169,6.415907 z"
     id="path4"
     inkscape:connector-curvature="0"
     style="stroke-width:0.99999994" />
  <path
     inkscape:connector-curvature="0"
     d="M 32.20339,7.472559 V 5.2732033 C 31.123322,4.8880397 30.83269,4.8699377 30.681339,4.5043834 30.528984,4.1378246 30.723075,3.916582 31.213831,2.8837796 L 29.658594,1.3285424 C 28.639871,1.8127621 28.407565,2.0143954 28.037486,1.8610332 27.671932,1.7091803 27.651316,1.4140222 27.269673,0.33898269 H 25.069814 C 24.685656,1.4170387 24.667554,1.7091803 24.300995,1.8610332 23.922871,2.0184174 23.696097,1.8107482 22.68039,1.3285424 l -1.555237,1.5552372 c 0.49126,1.0333051 0.684847,1.2535423 0.532492,1.6211075 -0.151853,0.3655533 -0.442989,0.3841581 -1.522052,0.7683162 v 2.1998584 c 1.075543,0.3821471 1.370199,0.4022601 1.522052,0.7683162 0.152858,0.3690735 -0.04073,0.5867969 -0.532492,1.6206051 l 1.555237,1.555237 c 1.005147,-0.477684 1.241978,-0.690379 1.620605,-0.532492 0.366056,0.151854 0.384158,0.442487 0.768819,1.522052 h 2.199355 c 0.381142,-1.07152 0.401758,-1.369192 0.772842,-1.524063 0.374605,-0.154869 0.59635,0.04978 1.616583,0.534 L 31.213831,9.8614802 C 30.723576,8.8306886 30.528984,8.6084404 30.681339,8.2408751 30.832187,7.8758246 31.123826,7.8572198 32.20339,7.472559 Z m -2.451271,0.3841581 c -0.29013,0.7009384 -0.03419,1.2359439 0.245378,1.7991078 L 29.452435,10.200887 C 28.902848,9.9278534 28.365831,9.6598479 27.655842,9.9545032 26.953898,10.246644 26.755785,10.805785 26.555661,11.40113 H 25.784328 C 25.584203,10.805283 25.386593,10.246141 24.686661,9.9555087 23.973153,9.6598479 23.426079,9.93288 22.887051,10.200887 L 22.342492,9.6558249 C 22.622565,9.0936665 22.878503,8.5596665 22.587368,7.8557116 22.296232,7.1562823 21.73709,6.958672 21.141243,6.758548 V 5.9877171 C 21.73709,5.787593 22.296232,5.5899827 22.586865,4.889548 22.877497,4.1886095 22.621054,3.6531013 22.341486,3.0899377 l 0.545062,-0.5450625 c 0.544057,0.2705202 1.087108,0.5415422 1.800113,0.2453786 0.699932,-0.2901296 0.897542,-0.8497739 1.097667,-1.4456213 h 0.771333 c 0.200124,0.5958474 0.398237,1.154989 1.09817,1.4456213 0.713508,0.2956609 1.260079,0.022629 1.79961,-0.2453786 l 0.545062,0.5450625 c -0.279571,0.5636663 -0.535508,1.0996773 -0.245379,1.800113 0.290131,0.6994292 0.849271,0.8970395 1.445623,1.0976664 V 6.7590507 C 30.60139,6.9591748 30.041243,7.1567851 29.752119,7.8567171 Z M 26.169492,4.8644064 c 0.831672,0 1.508474,0.6768024 1.508474,1.5084743 0,0.8316728 -0.676802,1.5084752 -1.508474,1.5084752 -0.831673,0 -1.508474,-0.6768024 -1.508474,-1.5084752 0,-0.8316719 0.676801,-1.5084743 1.508474,-1.5084743 z m 0,-1.0056498 c -1.388802,0 -2.514124,1.1253226 -2.514124,2.5141241 0,1.3888024 1.125322,2.514125 2.514124,2.514125 1.388802,0 2.514124,-1.1253226 2.514124,-2.514125 0,-1.3888015 -1.125322,-2.5141241 -2.514124,-2.5141241 z"
     id="path2"
     style="stroke-width:1" />
</svg>
