<?xml version="1.0" encoding="UTF-8" standalone="no"?>
<svg
   xmlns:dc="http://purl.org/dc/elements/1.1/"
   xmlns:cc="http://creativecommons.org/ns#"
   xmlns:rdf="http://www.w3.org/1999/02/22-rdf-syntax-ns#"
   xmlns:svg="http://www.w3.org/2000/svg"
   xmlns="http://www.w3.org/2000/svg"
   xmlns:sodipodi="http://sodipodi.sourceforge.net/DTD/sodipodi-0.dtd"
   xmlns:inkscape="http://www.inkscape.org/namespaces/inkscape"
   width="24"
   height="24"
   viewBox="0 0 24 24"
   version="1.1"
   id="svg4"
   sodipodi:docname="eye-chat-room.svg"
   inkscape:version="0.92.4 (5da689c313, 2019-01-14)">
  <metadata
     id="metadata10">
    <rdf:RDF>
      <cc:Work
         rdf:about="">
        <dc:format>image/svg+xml</dc:format>
        <dc:type
           rdf:resource="http://purl.org/dc/dcmitype/StillImage" />
        <dc:title />
      </cc:Work>
    </rdf:RDF>
  </metadata>
  <defs
     id="defs8" />
  <sodipodi:namedview
     pagecolor="#ffffff"
     bordercolor="#666666"
     borderopacity="1"
     objecttolerance="10"
     gridtolerance="10"
     guidetolerance="10"
     inkscape:pageopacity="0"
     inkscape:pageshadow="2"
     inkscape:window-width="3376"
     inkscape:window-height="1779"
     id="namedview6"
     showgrid="false"
     inkscape:zoom="9.8333333"
     inkscape:cx="-95.542373"
     inkscape:cy="12"
     inkscape:window-x="114"
     inkscape:window-y="46"
     inkscape:window-maximized="0"
     inkscape:current-layer="svg4" />
  <path
     d="m 22.068739,21.271228 h -2.256357 v 2.364474 l -4.01105,-2.364474 h -5.766493 v -2.364473 h 1.504238 v 1.182234 h 4.763167 l 2.005902,1.182239 v -1.182239 h 2.256355 v -4.72954 H 19.060264 V 14.17721 h 3.008475 z M 17.556027,17.724513 H 10.285295 L 6.2742469,20.088989 V 17.724513 H 4.0178909 V 9.4482608 H 17.556027 Z M 10.786959,15.310388 H 7.0263649 v 0.640772 h 3.7605941 z m 3.760593,-1.723704 H 7.0263649 v 0.591119 h 7.5211871 z m 0,-1.773359 H 7.0263649 v 0.59112 h 7.5211871 z"
     id="path2-2"
     inkscape:connector-curvature="0"
     style="stroke-width:0.60151631" />
  <path
     inkscape:connector-curvature="0"
     d="m 7.3300433,1.8426153 c 2.53655,0 4.3048207,1.3710799 5.0741687,2.1103342 C 11.65622,4.7891626 9.8879503,6.3946737 7.3300433,6.3946737 4.9702114,6.3946737 3.0962288,4.7850655 2.2697539,3.9333756 3.0668646,3.1836515 4.8415427,1.8426153 7.3300433,1.8426153 Z m 0,-0.91041143 c -4.0410775,0 -6.41478951,2.98205323 -6.41478951,2.98205323 0,0 2.58139881,3.3908281 6.41478951,3.3908281 4.1286347,0 6.3987707,-3.3908281 6.3987707,-3.3908281 0,0 -2.290958,-2.98205323 -6.3987707,-2.98205323 z m -0.008,1.36561753 c -1.1793822,0 -2.1355942,0.8157287 -2.1355942,1.8208231 0,1.0055499 0.956212,1.820823 2.1355942,1.820823 1.17938,0 2.135592,-0.8152731 2.135592,-1.820823 0,-1.0050944 -0.956212,-1.8208231 -2.135592,-1.8208231 z"
     id="path2-20"
     style="stroke-width:0.6772393" />
</svg>
