<?xml version="1.0" encoding="UTF-8" standalone="no"?>
<svg
   xmlns:dc="http://purl.org/dc/elements/1.1/"
   xmlns:cc="http://creativecommons.org/ns#"
   xmlns:rdf="http://www.w3.org/1999/02/22-rdf-syntax-ns#"
   xmlns:svg="http://www.w3.org/2000/svg"
   xmlns="http://www.w3.org/2000/svg"
   xmlns:sodipodi="http://sodipodi.sourceforge.net/DTD/sodipodi-0.dtd"
   xmlns:inkscape="http://www.inkscape.org/namespaces/inkscape"
   width="24"
   height="24"
   viewBox="0 0 24 24"
   version="1.1"
   id="svg4"
   sodipodi:docname="friend-broadcast.svg"
   inkscape:version="0.92.4 (5da689c313, 2019-01-14)">
  <metadata
     id="metadata10">
    <rdf:RDF>
      <cc:Work
         rdf:about="">
        <dc:format>image/svg+xml</dc:format>
        <dc:type
           rdf:resource="http://purl.org/dc/dcmitype/StillImage" />
        <dc:title></dc:title>
      </cc:Work>
    </rdf:RDF>
  </metadata>
  <defs
     id="defs8" />
  <sodipodi:namedview
     pagecolor="#ffffff"
     bordercolor="#666666"
     borderopacity="1"
     objecttolerance="10"
     gridtolerance="10"
     guidetolerance="10"
     inkscape:pageopacity="0"
     inkscape:pageshadow="2"
     inkscape:window-width="2507"
     inkscape:window-height="1268"
     id="namedview6"
     showgrid="false"
     inkscape:zoom="9.8333333"
     inkscape:cx="12"
     inkscape:cy="12"
     inkscape:window-x="0"
     inkscape:window-y="0"
     inkscape:window-maximized="0"
     inkscape:current-layer="svg4" />
  <path
     d="m 10.424085,20.030102 c 2.293,-0.53 4.427,-0.994 3.394,-2.946 -3.147,-5.941 -0.835,-9.1180003 2.488,-9.1180003 3.388,0 5.643,3.2990003 2.488,9.1190003 -1.065,1.964 1.149,2.427 3.393,2.946 1.985,0.458 2.118,1.428 2.118,3.107 l -0.003,0.828 h -1.329 c 0,-2.089 0.083,-2.367 -1.226,-2.669 -1.901,-0.438 -3.695,-0.852 -4.351,-2.304 -0.239,-0.53 -0.395,-1.402 0.226,-2.543 1.372,-2.532 1.719,-4.726 0.949,-6.017 -0.902,-1.5170003 -3.617,-1.5090003 -4.512,-0.022 -0.768,1.273 -0.426,3.479 0.936,6.05 0.607,1.146 0.447,2.016 0.206,2.543 -0.66,1.445 -2.472,1.863 -4.39,2.305 -1.2520003,0.29 -1.1720003,0.588 -1.1720003,2.657 h -1.331 c 0,-2.196 -0.176,-3.406 2.1160003,-3.936 z m -10.11700025,3.936 H 1.6360847 c 0,-1.918 -0.186,-1.385 1.824,-1.973 1.014,-0.295 1.91,-0.723 2.316,-1.612 0.212,-0.463 0.355,-1.22 -0.162,-2.197 -0.952,-1.798 -1.219,-3.374 -0.712,-4.215 0.547,-0.909 2.27,-0.908 2.819,0.015 0.935,1.567 -0.793,3.982 -1.02,4.982 h 1.396 c 0.44,-1 1.206,-2.208 1.206,-3.9 0,-2.01 -1.312,-3.1 -2.998,-3.1 -2.493,0 -4.227,2.383 -1.866,6.839 0.774,1.464 -0.826,1.812 -2.545,2.209 -1.48999995,0.345 -1.58899995,1.072 -1.58899995,2.334 z"
     id="path2"
     inkscape:connector-curvature="0" />
  <path
     inkscape:connector-curvature="0"
     d="m 10.783232,5.1688818 c 0.330005,-0.458823 0.526918,-1.029263 0.526918,-1.647279 0,-0.618016 -0.196913,-1.188457 -0.526918,-1.64728 l 0.610976,-0.658272 c 0.48917,0.628995 0.786874,1.429077 0.786874,2.305552 0,0.876475 -0.298093,1.676098 -0.786874,2.306008 z m -4.2776072,-4.60927195 -0.611753,-0.659186 c -0.811781,0.966592 -1.30951,2.23052895 -1.30951,3.62117895 0,1.39065 0.497729,2.654128 1.309121,3.621179 l 0.611753,-0.659187 c -0.650668,-0.799165 -1.049554,-1.83026 -1.049554,-2.961992 0,-1.131733 0.399275,-2.162827 1.049943,-2.96199295 z m 0.608642,5.26754395 0.610975,-0.658272 c -0.330004,-0.458823 -0.526918,-1.029263 -0.526918,-1.647279 0,-0.618016 0.196914,-1.188457 0.526918,-1.64728 l -0.610975,-0.658272 c -0.489169,0.628995 -0.786874,1.429077 -0.786874,2.305552 0,0.876475 0.297705,1.676098 0.786874,2.305551 z m 5.5003352,-5.92672995 -0.611365,0.659186 c 0.65067,0.79916595 1.049554,1.83025995 1.049554,2.96199295 0,1.131732 -0.398884,2.162827 -1.049554,2.961992 l 0.611755,0.659187 c 0.81139,-0.967509 1.309121,-2.230987 1.309121,-3.621179 0,-1.390192 -0.497731,-2.65458695 -1.309511,-3.62117895 z M 11.621475,10.879238 H 10.783232 C 10.45245,9.8714738 9.9033493,9.4766928 9.2542373,9.4766928 c -0.658452,0 -1.2017145,0.405303 -1.5289955,1.4025452 H 6.9029548 L 8.8650823,4.8097828 c -0.4522015,-0.189384 -0.7783135,-0.691665 -0.7783135,-1.28818 0,-0.757996 0.5230265,-1.372352 1.1674685,-1.372352 0.644444,0 1.1674687,0.614356 1.1674687,1.372352 0,0.596515 -0.326113,1.099253 -0.7783127,1.28818 z M 9.2542373,6.2068378 8.9226763,7.2196328 h 0.662734 z m 0.7806477,2.385147 -0.1498247,-0.45745 h -1.261645 l -0.1498255,0.45745 z"
     id="path3725"
     style="stroke-width:0.42192394" />
</svg>
