<?xml version="1.0" encoding="UTF-8" standalone="no"?>
<svg
   xmlns:dc="http://purl.org/dc/elements/1.1/"
   xmlns:cc="http://creativecommons.org/ns#"
   xmlns:rdf="http://www.w3.org/1999/02/22-rdf-syntax-ns#"
   xmlns:svg="http://www.w3.org/2000/svg"
   xmlns="http://www.w3.org/2000/svg"
   xmlns:sodipodi="http://sodipodi.sourceforge.net/DTD/sodipodi-0.dtd"
   xmlns:inkscape="http://www.inkscape.org/namespaces/inkscape"
   width="24"
   height="24"
   viewBox="0 0 24 24"
   version="1.1"
   id="svg4"
   sodipodi:docname="group-info.svg"
   inkscape:version="0.92.4 (5da689c313, 2019-01-14)">
  <metadata
     id="metadata10">
    <rdf:RDF>
      <cc:Work
         rdf:about="">
        <dc:format>image/svg+xml</dc:format>
        <dc:type
           rdf:resource="http://purl.org/dc/dcmitype/StillImage" />
        <dc:title></dc:title>
      </cc:Work>
    </rdf:RDF>
  </metadata>
  <defs
     id="defs8" />
  <sodipodi:namedview
     pagecolor="#ffffff"
     bordercolor="#666666"
     borderopacity="1"
     objecttolerance="10"
     gridtolerance="10"
     guidetolerance="10"
     inkscape:pageopacity="0"
     inkscape:pageshadow="2"
     inkscape:window-width="1908"
     inkscape:window-height="1424"
     id="namedview6"
     showgrid="false"
     inkscape:zoom="9.8333333"
     inkscape:cx="-23.847458"
     inkscape:cy="12"
     inkscape:window-x="1547"
     inkscape:window-y="277"
     inkscape:window-maximized="0"
     inkscape:current-layer="svg4" />
  <path
     d="m 17.590322,22.915255 h -0.964169 c 0,-1.538848 0.05797,-1.759958 -0.85017,-1.976111 -1.389254,-0.329186 -2.702186,-0.639534 -3.181373,-1.714347 -0.173898,-0.392644 -0.290796,-1.039118 0.149746,-1.890839 0.98639,-1.912653 1.233712,-3.552636 0.678203,-4.499542 -0.64922,-1.105551 -2.615237,-1.110509 -3.270254,0.01686 -0.5564742,0.959796 -0.3052878,2.590856 0.688831,4.473763 0.449237,0.848745 0.336203,1.497203 0.162305,1.89183 -0.47339,1.079772 -1.7737631,1.388136 -3.1514241,1.713355 -0.9487118,0.225074 -0.8888135,0.431311 -0.8888135,1.985032 H 6.0019322 l -0.00193,-0.617721 c 0,-1.24833 0.09661,-1.968178 1.5341695,-2.309263 1.624983,-0.385703 3.2306443,-0.729762 2.4587284,-2.190279 -2.2857962,-4.32801 -0.6530844,-6.781043 1.8017799,-6.781043 2.407526,0 4.083712,2.362805 1.803712,6.781042 -0.748729,1.451593 0.796068,1.796645 2.458729,2.190279 1.439491,0.341085 1.535135,1.062916 1.535135,2.31323 z m 4.646949,-2.195238 c -1.245305,-0.295474 -2.404627,-0.554262 -1.843322,-1.642958 1.71,-3.313677 0.454068,-5.085533 -1.352542,-5.085533 -1.222119,0 -2.171797,0.810076 -2.171797,2.305296 0,1.258246 0.554543,2.156568 0.873356,2.900212 h 1.012475 c -0.164237,-0.743644 -1.416305,-2.540288 -0.740034,-3.704339 0.398034,-0.686136 1.646237,-0.687127 2.042339,-0.0119 0.367119,0.625652 0.174864,1.796644 -0.515898,3.134212 -0.374848,0.726788 -0.270509,1.289974 -0.116899,1.634034 0.294661,0.660355 0.943882,0.978636 1.678119,1.197762 1.455915,0.437263 1.321627,0.04164 1.321627,1.467457 h 0.963203 l 0.0019,-0.459076 c 0,-0.936991 -0.07149,-1.479355 -1.15256,-1.735169 z M 0.20532203,22.915255 H 1.1685254 c 0,-1.425814 -0.1342881,-1.030196 1.3216271,-1.467458 0.7352034,-0.219127 1.3844237,-0.537407 1.6781187,-1.197763 0.1536101,-0.345051 0.2579491,-0.907245 -0.1168983,-1.634033 -0.6907628,-1.337569 -0.883017,-2.50856 -0.5158984,-3.134212 0.3961017,-0.676221 1.6443051,-0.67523 2.042339,0.0119 0.6762712,1.165042 -0.5757966,2.960695 -0.7400339,3.704339 h 1.0124746 c 0.3188136,-0.743642 0.8733559,-1.641964 0.8733559,-2.90021 9.661e-4,-1.496212 -0.9487118,-2.306288 -2.1708305,-2.306288 -1.8066101,0 -3.0625423,1.771856 -1.3525423,5.085534 0.561305,1.089687 -0.598017,1.347483 -1.8433221,1.642957 -1.08203384,0.255814 -1.15352537,0.798178 -1.15352537,1.736162 z"
     id="path2"
     inkscape:connector-curvature="0"
     style="stroke-width:0.97873098" />
  <path
     inkscape:connector-curvature="0"
     d="m 17.694916,1.4745756 c 2.663542,0 4.830508,2.1669658 4.830508,4.8305088 0,2.663542 -2.166966,4.8305076 -4.830508,4.8305076 -2.663543,0 -4.830509,-2.1669656 -4.830509,-4.8305076 0,-2.663543 2.166966,-4.8305088 4.830509,-4.8305088 z m 0,-0.96610156 c -3.201178,0 -5.79661,2.59543236 -5.79661,5.79661036 0,3.201177 2.595432,5.7966096 5.79661,5.7966096 3.201178,0 5.79661,-2.5954326 5.79661,-5.7966096 0,-3.201178 -2.595432,-5.79661036 -5.79661,-5.79661036 z m -4.83e-4,2.77754236 c 0.333305,0 0.604296,0.270508 0.604296,0.603813 0,0.333305 -0.270991,0.603814 -0.604296,0.603814 -0.333305,0 -0.603331,-0.270509 -0.603331,-0.603814 0,-0.333305 0.270026,-0.603813 0.603331,-0.603813 z m 0.966585,5.917373 h -1.932204 v -0.483051 c 0.233797,-0.08647 0.483051,-0.09709 0.483051,-0.355043 v -2.157788 c 0,-0.257949 -0.249254,-0.298525 -0.483051,-0.384991 v -0.483051 h 1.449153 v 3.026313 c 0,0.258433 0.249737,0.269543 0.483051,0.355043 z"
     id="path2-7"
     style="stroke-width:1" />
</svg>
