<?xml version="1.0" encoding="UTF-8" standalone="no"?>
<svg
   xmlns:dc="http://purl.org/dc/elements/1.1/"
   xmlns:cc="http://creativecommons.org/ns#"
   xmlns:rdf="http://www.w3.org/1999/02/22-rdf-syntax-ns#"
   xmlns:svg="http://www.w3.org/2000/svg"
   xmlns="http://www.w3.org/2000/svg"
   xmlns:sodipodi="http://sodipodi.sourceforge.net/DTD/sodipodi-0.dtd"
   xmlns:inkscape="http://www.inkscape.org/namespaces/inkscape"
   width="24"
   height="24"
   fill-rule="evenodd"
   clip-rule="evenodd"
   version="1.1"
   id="svg4"
   sodipodi:docname="library-removed.svg"
   inkscape:version="0.92.4 (5da689c313, 2019-01-14)">
  <metadata
     id="metadata10">
    <rdf:RDF>
      <cc:Work
         rdf:about="">
        <dc:format>image/svg+xml</dc:format>
        <dc:type
           rdf:resource="http://purl.org/dc/dcmitype/StillImage" />
        <dc:title />
      </cc:Work>
    </rdf:RDF>
  </metadata>
  <defs
     id="defs8" />
  <sodipodi:namedview
     pagecolor="#ffffff"
     bordercolor="#666666"
     borderopacity="1"
     objecttolerance="10"
     gridtolerance="10"
     guidetolerance="10"
     inkscape:pageopacity="0"
     inkscape:pageshadow="2"
     inkscape:window-width="3205"
     inkscape:window-height="1698"
     id="namedview6"
     showgrid="false"
     inkscape:zoom="9.8333333"
     inkscape:cx="-23.847458"
     inkscape:cy="12"
     inkscape:window-x="602"
     inkscape:window-y="173"
     inkscape:window-maximized="0"
     inkscape:current-layer="svg4" />
  <path
     d="M 16.779962,16.779661 H 0 V 15.381356 H 16.779962 Z M 16.080797,14.682203 H 0.69916508 V 13.983051 H 16.080797 Z M 4.1949905,13.284597 H 1.3983302 V 8.3898305 c -0.3859392,0 -0.69916512,-0.3132204 -0.69916512,-0.6991526 0,-0.3859322 0.31322592,-0.6991525 0.69916512,-0.6991525 h 2.7966603 c 0.3859391,0 0.6991651,0.3132203 0.6991651,0.6991525 0,0.3859322 -0.313226,0.6991526 -0.6991651,0.6991526 z m 5.5933206,0 H 6.9916508 V 8.3898305 c -0.3859391,0 -0.6991651,-0.3132204 -0.6991651,-0.6991526 0,-0.3859322 0.313226,-0.6991525 0.6991651,-0.6991525 h 2.7966603 c 0.3859389,0 0.6991649,0.3132203 0.6991649,0.6991525 0,0.3859322 -0.313226,0.6991526 -0.6991649,0.6991526 z m 5.5933209,0 H 12.584971 V 8.3898305 c -0.385939,0 -0.699165,-0.3132204 -0.699165,-0.6991526 0,-0.3859322 0.313226,-0.6991525 0.699165,-0.6991525 h 2.796661 c 0.385939,0 0.699165,0.3132203 0.699165,0.6991525 0,0.3859322 -0.313226,0.6991526 -0.699165,0.6991526 z M 8.389981,0 0,6.2923729 h 16.780661 z m 0,2.0974576 c 0.7718782,0 1.3983301,0.6264407 1.3983301,1.3983051 0,0.7718644 -0.6264519,1.3983051 -1.3983301,1.3983051 -0.7718783,0 -1.3983302,-0.6264407 -1.3983302,-1.3983051 0,-0.7718644 0.6264519,-1.3983051 1.3983302,-1.3983051 z"
     id="path2"
     inkscape:connector-curvature="0"
     style="stroke-width:1" />
  <path
     d="m 17.767899,13.169491 c -3.273527,0 -5.927618,2.376871 -5.927618,5.308476 0,2.931605 2.654091,5.308474 5.927618,5.308474 3.273527,0 5.927618,-2.376869 5.927618,-5.308474 0,-2.931605 -2.654091,-5.308476 -5.927618,-5.308476 z m 3.457777,6.193221 h -2.46984 v 2.211865 h -1.975874 v -2.211865 h -2.46984 V 17.59322 h 2.46984 v -2.211864 h 1.975874 v 2.211864 h 2.46984 z"
     id="path2-2"
     inkscape:connector-curvature="0"
     style="stroke-width:0.55652225" />
</svg>
