<?xml version="1.0" encoding="UTF-8" standalone="no"?>
<svg
   xmlns:dc="http://purl.org/dc/elements/1.1/"
   xmlns:cc="http://creativecommons.org/ns#"
   xmlns:rdf="http://www.w3.org/1999/02/22-rdf-syntax-ns#"
   xmlns:svg="http://www.w3.org/2000/svg"
   xmlns="http://www.w3.org/2000/svg"
   xmlns:sodipodi="http://sodipodi.sourceforge.net/DTD/sodipodi-0.dtd"
   xmlns:inkscape="http://www.inkscape.org/namespaces/inkscape"
   width="24"
   height="24"
   viewBox="0 0 24 24"
   version="1.1"
   id="svg4"
   sodipodi:docname="network-host-info.svg"
   inkscape:version="0.92.4 (5da689c313, 2019-01-14)">
  <metadata
     id="metadata10">
    <rdf:RDF>
      <cc:Work
         rdf:about="">
        <dc:format>image/svg+xml</dc:format>
        <dc:type
           rdf:resource="http://purl.org/dc/dcmitype/StillImage" />
        <dc:title></dc:title>
      </cc:Work>
    </rdf:RDF>
  </metadata>
  <defs
     id="defs8" />
  <sodipodi:namedview
     pagecolor="#ffffff"
     bordercolor="#666666"
     borderopacity="1"
     objecttolerance="10"
     gridtolerance="10"
     guidetolerance="10"
     inkscape:pageopacity="0"
     inkscape:pageshadow="2"
     inkscape:window-width="2384"
     inkscape:window-height="969"
     id="namedview6"
     showgrid="false"
     inkscape:zoom="19.666667"
     inkscape:cx="-9.164645"
     inkscape:cy="14.382559"
     inkscape:window-x="670"
     inkscape:window-y="767"
     inkscape:window-maximized="0"
     inkscape:current-layer="svg4" />
  <path
     d="m 5.1040719,19.790569 c 0.2338245,-0.299777 0.3733472,-0.672481 0.3733472,-1.076268 0,-0.403786 -0.1395227,-0.776491 -0.3733472,-1.076268 l 0.4329064,-0.430088 c 0.3466008,0.41096 0.5575393,0.933701 0.5575393,1.506356 0,0.572654 -0.2112142,1.095098 -0.5575393,1.506655 z M 2.0731758,16.779052 1.6397178,16.348366 c -0.5751863,0.631534 -0.92785339,1.457339 -0.92785339,2.365935 0,0.908595 0.35266709,1.734102 0.92757779,2.365935 L 2.0729,20.64955 C 1.6118685,20.127407 1.3292386,19.453731 1.3292386,18.714301 c 0,-0.739429 0.2829056,-1.413105 0.7439372,-1.935249 z m 0.4312519,3.441606 0.4329064,-0.430089 C 2.7035095,19.490792 2.5639867,19.118088 2.5639867,18.714301 c 0,-0.403786 0.1395228,-0.776491 0.3733474,-1.076268 L 2.5044277,17.207945 c -0.3466008,0.41096 -0.5575393,0.933701 -0.5575393,1.506356 0,0.572654 0.2109385,1.095098 0.5575393,1.506357 z m 3.8972607,-3.872292 -0.4331825,0.430686 c 0.4610318,0.522144 0.7436613,1.19582 0.7436613,1.935249 0,0.73943 -0.2826295,1.413106 -0.7436613,1.935249 l 0.4334577,0.430686 c 0.5749111,-0.632131 0.9275778,-1.457639 0.9275778,-2.365935 0,-0.908297 -0.3526667,-1.734401 -0.927853,-2.365935 z m -0.70368,7.173123 H 5.1040719 C 4.8696958,22.863056 4.4806315,22.605123 4.020703,22.605123 c -0.4665463,0 -0.8514745,0.264808 -1.0833689,0.916366 H 2.3547027 L 3.7449664,19.555948 C 3.4245606,19.432212 3.1934933,19.104041 3.1934933,18.714301 c 0,-0.495245 0.37059,-0.896641 0.8272097,-0.896641 0.4566197,0 0.8272096,0.401396 0.8272096,0.896641 0,0.38974 -0.2310672,0.718209 -0.5514731,0.841647 z M 4.020703,20.468728 3.7857754,21.130448 H 4.2553548 Z M 4.5738305,22.027089 4.467672,21.728208 H 3.573734 l -0.1061585,0.298881 z"
     id="path2"
     inkscape:connector-curvature="0"
     style="stroke-width:0.28707522" />
  <path
     d="m 14.009084,19.787681 c 0.221646,-0.305773 0.353902,-0.685931 0.353902,-1.097793 0,-0.411863 -0.132256,-0.792021 -0.353902,-1.097793 l 0.410359,-0.438691 c 0.328548,0.41918 0.528501,0.952376 0.528501,1.536484 0,0.584107 -0.200214,1.116999 -0.528501,1.536788 z m -2.873037,-3.071747 -0.410882,-0.4393 c -0.545228,0.644164 -0.8795279,1.486486 -0.8795279,2.413254 0,0.926768 0.3342999,1.768785 0.8792669,2.413253 l 0.410882,-0.439299 c -0.437019,-0.532587 -0.704929,-1.219736 -0.704929,-1.973954 0,-0.754218 0.268171,-1.441368 0.70519,-1.973954 z m 0.40879,3.510437 0.41036,-0.43869 c -0.221646,-0.305773 -0.353902,-0.685931 -0.353902,-1.097793 0,-0.411863 0.132256,-0.792021 0.353902,-1.097793 l -0.41036,-0.438691 c -0.328548,0.41918 -0.5285,0.952376 -0.5285,1.536484 0,0.584107 0.199952,1.116999 0.5285,1.536483 z m 3.694279,-3.949737 -0.41062,0.4393 c 0.437019,0.532586 0.704929,1.219736 0.704929,1.973954 0,0.754218 -0.26791,1.441367 -0.704929,1.973954 l 0.410881,0.439299 c 0.544969,-0.644773 0.879267,-1.486791 0.879267,-2.413253 0,-0.926463 -0.334298,-1.76909 -0.879528,-2.413254 z m -0.667029,7.316586 h -0.563003 c -0.222169,-0.671602 -0.590969,-0.934694 -1.026943,-0.934694 -0.442248,0 -0.807127,0.270104 -1.026944,0.934694 h -0.552286 l 1.317854,-4.044852 c -0.303718,-0.126212 -0.52275,-0.460945 -0.52275,-0.85848 0,-0.505149 0.351288,-0.914574 0.784126,-0.914574 0.432837,0 0.784126,0.409425 0.784126,0.914574 0,0.397535 -0.219033,0.732574 -0.522751,0.85848 z m -1.589946,-3.113817 -0.222692,0.674955 h 0.445121 z m 0.524318,1.589528 -0.100629,-0.304857 h -0.847379 l -0.100629,0.304857 z"
     id="path2-1"
     inkscape:connector-curvature="0"
     style="stroke-width:0.2822805" />
  <path
     d="m 10.001305,11.724911 c 0.284974,-0.365728 0.455017,-0.820427 0.455017,-1.313047 0,-0.4926197 -0.170043,-0.9473184 -0.455017,-1.313046 L 10.52891,8.5741098 c 0.42242,0.5013714 0.679501,1.1391159 0.679501,1.8377542 0,0.698638 -0.257417,1.336019 -0.679501,1.838119 z M 6.3074011,8.0508604 5.7791244,7.5254229 C 5.0781159,8.2958944 4.6483029,9.3033772 4.6483029,10.411864 c 0,1.108487 0.429813,2.115605 1.1304854,2.886441 L 6.307065,12.772868 c -0.5618821,-0.637016 -0.9063373,-1.4589 -0.9063373,-2.361004 0,-0.9021036 0.3447913,-1.7239885 0.9066734,-2.3610036 z M 6.8329895,12.249619 7.3605938,11.724911 C 7.0756206,11.359183 6.9055773,10.904484 6.9055773,10.411864 c 0,-0.4926197 0.1700433,-0.9473184 0.4550165,-1.313046 L 6.8329895,8.5741098 C 6.4105697,9.0754812 6.1534884,9.7132257 6.1534884,10.411864 c 0,0.698638 0.2570813,1.336019 0.6795011,1.837755 z M 11.582775,7.5254229 11.054834,8.0508604 c 0.561883,0.6370151 0.906338,1.4589 0.906338,2.3610036 0,0.902104 -0.344455,1.723988 -0.906338,2.361004 l 0.528277,0.525437 c 0.700673,-0.7712 1.130486,-1.778319 1.130486,-2.886441 0,-1.1081222 -0.429813,-2.1159696 -1.130822,-2.8864411 z m -0.85761,8.7512111 h -0.72386 C 9.7156596,15.473345 9.2414877,15.158666 8.6809499,15.158666 c -0.5686036,0 -1.0377344,0.323066 -1.3203561,1.117968 H 6.6505122 L 8.3448958,11.438673 C 7.9544013,11.287715 7.6727882,10.887347 7.6727882,10.411864 c 0,-0.6041981 0.4516564,-1.0939014 1.0081617,-1.0939014 0.5565052,0 1.0081616,0.4897033 1.0081616,1.0939014 0,0.475483 -0.281613,0.876215 -0.6721082,1.026809 z m -2.0442151,-3.72437 -0.2863181,0.8073 H 8.9669317 Z M 9.355074,14.453465 9.225693,14.088831 H 8.136206 l -0.1293803,0.364634 z"
     id="path2-0"
     inkscape:connector-curvature="0"
     style="stroke-width:0.35005233" />
  <path
     inkscape:connector-curvature="0"
     d="m 18.050848,1.5466104 c 2.54672,0 4.618643,2.1004364 4.618643,4.6822034 0,2.5817675 -2.071923,4.6822032 -4.618643,4.6822032 -2.546721,0 -4.618645,-2.1004357 -4.618645,-4.6822032 0,-2.581767 2.071924,-4.6822034 4.618645,-4.6822034 z m 0,-0.93644081 c -3.060776,0 -5.542374,2.51574801 -5.542374,5.61864421 0,3.1028963 2.481598,5.6186442 5.542374,5.6186442 3.060775,0 5.542372,-2.5157479 5.542372,-5.6186442 0,-3.1028962 -2.481597,-5.61864421 -5.542372,-5.61864421 z m -4.63e-4,2.69226701 c 0.318687,0 0.577793,0.2622035 0.577793,0.5852755 0,0.323072 -0.259106,0.5852754 -0.577793,0.5852754 -0.318686,0 -0.576868,-0.2622034 -0.576868,-0.5852754 0,-0.323072 0.258182,-0.5852755 0.576868,-0.5852755 z M 18.974576,9.038136 H 17.127119 V 8.5699156 c 0.223542,-0.083811 0.461864,-0.094112 0.461864,-0.3441417 V 6.1342332 c 0,-0.2500296 -0.238322,-0.2893602 -0.461864,-0.3731713 V 5.2928415 h 1.385593 v 2.9334001 c 0,0.2504981 0.238784,0.2612675 0.461864,0.3441425 z"
     id="path2-15"
     style="stroke-width:1" />
</svg>
