<?xml version="1.0" encoding="UTF-8" standalone="no"?>
<!-- Generated by IcoMoon.io -->

<svg
   xmlns:dc="http://purl.org/dc/elements/1.1/"
   xmlns:cc="http://creativecommons.org/ns#"
   xmlns:rdf="http://www.w3.org/1999/02/22-rdf-syntax-ns#"
   xmlns:svg="http://www.w3.org/2000/svg"
   xmlns="http://www.w3.org/2000/svg"
   xmlns:sodipodi="http://sodipodi.sourceforge.net/DTD/sodipodi-0.dtd"
   xmlns:inkscape="http://www.inkscape.org/namespaces/inkscape"
   version="1.1"
   width="32"
   height="32"
   viewBox="0 0 32 32"
   id="svg6"
   sodipodi:docname="direct-connected-overlay.svg"
   inkscape:version="0.92.4 (5da689c313, 2019-01-14)">
  <metadata
     id="metadata12">
    <rdf:RDF>
      <cc:Work
         rdf:about="">
        <dc:format>image/svg+xml</dc:format>
        <dc:type
           rdf:resource="http://purl.org/dc/dcmitype/StillImage" />
        <dc:title>arrow-right2</dc:title>
      </cc:Work>
    </rdf:RDF>
  </metadata>
  <defs
     id="defs10" />
  <sodipodi:namedview
     pagecolor="#ffffff"
     bordercolor="#666666"
     borderopacity="1"
     objecttolerance="10"
     gridtolerance="10"
     guidetolerance="10"
     inkscape:pageopacity="0"
     inkscape:pageshadow="2"
     inkscape:window-width="3773"
     inkscape:window-height="1478"
     id="namedview8"
     showgrid="false"
     inkscape:zoom="7.375"
     inkscape:cx="-127.38983"
     inkscape:cy="16"
     inkscape:window-x="182"
     inkscape:window-y="109"
     inkscape:window-maximized="0"
     inkscape:current-layer="svg6" />
  <title
     id="title2">arrow-right2</title>
  <path
     inkscape:connector-curvature="0"
     d="m 18.232127,26.37586 3.559265,-2.259725 c 0.277978,-0.176485 0.277978,-0.462566 0,-0.63905 l -3.559265,-2.259726 c -0.277979,-0.176486 -0.728582,-0.176486 -1.006559,0 -0.27798,0.176483 -0.27798,0.462565 0,0.639051 l 2.34413,1.488255 h -6.823823 c -0.393298,0 -0.711852,0.202245 -0.711852,0.451944 0,0.2497 0.318554,0.451945 0.711852,0.451945 h 6.823823 l -2.34413,1.488255 c -0.138813,0.08814 -0.208574,0.203829 -0.208574,0.319526 0,0.11571 0.06941,0.231397 0.208574,0.319525 0.277977,0.176486 0.72858,0.176486 1.006559,0 z"
     id="path4"
     style="stroke-width:0.28360119" />
  <path
     inkscape:connector-curvature="0"
     d="m 15.289146,25.081766 -3.075001,2.259725 c -0.240158,0.176485 -0.240158,0.462566 0,0.63905 l 3.075001,2.259725 c 0.240158,0.176486 0.629448,0.176486 0.869606,0 0.240158,-0.176484 0.240158,-0.462563 0,-0.639049 l -2.025195,-1.488256 h 5.895389 c 0.339792,0 0.615,-0.202244 0.615,-0.451943 0,-0.249702 -0.275208,-0.451946 -0.615,-0.451946 h -5.895389 l 2.025195,-1.488255 c 0.119929,-0.08812 0.180201,-0.203829 0.180201,-0.319526 0,-0.115702 -0.05994,-0.231397 -0.180201,-0.319525 -0.240158,-0.176485 -0.629448,-0.176485 -0.869606,0 z"
     id="path4-4"
     style="stroke-width:0.26360303" />
  <path
     inkscape:connector-curvature="0"
     d="M 11.614668,28.994711 C 9.7300705,28.617898 7.975899,28.287593 8.8253096,26.898034 11.411904,22.66861 9.5108669,20.406779 6.7801461,20.406779 c -2.7849738,0 -4.6383342,2.348678 -2.0451637,6.491255 0.8751678,1.397626 -0.9453129,1.727932 -2.7893579,2.096677 -1.68402666,0.336949 -1.74704669,1.061152 -1.74156727,2.327322 l 0.002143,0.474577 H 13.352897 l 0.0022,-0.459866 c 0.0066,-1.27566 -0.05042,-2.00366 -1.740472,-2.342033 z"
     id="path2"
     style="stroke-width:0.50997186" />
  <path
     inkscape:connector-curvature="0"
     d="m 30.787168,28.893559 c -1.826305,-0.3813 -3.526219,-0.715537 -2.70308,-2.121638 2.506588,-4.279775 0.664351,-6.568532 -1.981907,-6.568532 -2.698833,0 -4.494869,2.376638 -1.981906,6.568532 0.848099,1.414264 -0.916073,1.748502 -2.703081,2.121638 -1.631938,0.340959 -1.69301,1.073784 -1.687699,2.355027 l 0.0021,0.480227 h 12.740046 l 0.0021,-0.46534 c 0.0064,-1.290847 -0.04886,-2.027514 -1.686637,-2.369914 z"
     id="path2-2"
     style="stroke-width:0.5050025" />
</svg>
