<svg width="24" height="24" xmlns="http://www.w3.org/2000/svg" fill-rule="evenodd" clip-rule="evenodd"><path d="M16.993 14.001h2v2h1v-2h2v-1h-2v-2h-1v2h-2v1zm4.585 8.604c-.637-1.059-1.569-2.625-2.154-3.607-.517-.007-1.016-.085-1.49-.225l-.172 4.21h-11.462l-.283-6.222s-2.7 4.175-3.625 5.848c-.421.769-1.618.265-1.367-.548.608-1.952 1.948-6.316 2.669-8.859.2-.704.851-1.195 1.584-1.195h9.991c-.167.47-.274.968-.274 1.494 0 2.483 2.018 4.501 4.502 4.501.763 0 1.47-.209 2.1-.544.595 2.018 1.201 4.064 1.352 4.596.228.828-.89 1.348-1.371.551m-2.081-12.604c1.933 0 3.502 1.567 3.502 3.5 0 1.932-1.569 3.5-3.502 3.5-1.933 0-3.502-1.568-3.502-3.5 0-1.933 1.569-3.5 3.502-3.5m3.219 7.714l-.253-.853c.935-.825 1.537-2.018 1.537-3.361 0-2.484-2.018-4.5-4.503-4.5-1.562 0-2.936.797-3.744 2.005h-10.475c-1.179 0-2.225.792-2.546 1.924-.719 2.533-2.055 6.886-2.662 8.834-.047.151-.07.31-.07.485 0 .43.307 1.739 1.727 1.739.623 0 1.234-.338 1.542-.896.504-.914 1.29-2.189 1.891-3.144l.183 4.035h13.379l.162-3.937c.569.956 1.306 2.191 1.836 3.072.326.544.911.882 1.524.882.634 0 1.735-.497 1.735-1.741 0-.154-.021-.313-.065-.474-.291-1.022-.735-2.516-1.198-4.07m-10.701-17.715c-2.774 0-5.027 2.251-5.027 5.024s2.253 5.025 5.027 5.025c2.775 0 5.028-2.252 5.028-5.025 0-2.773-2.253-5.024-5.028-5.024m0 1c2.22 0 4.027 1.805 4.027 4.024 0 2.219-1.807 4.025-4.027 4.025s-4.026-1.806-4.026-4.025c0-2.219 1.806-4.024 4.026-4.024"/></svg>