<?xml version="1.0" encoding="UTF-8" standalone="no"?>
<svg
   xmlns:dc="http://purl.org/dc/elements/1.1/"
   xmlns:cc="http://creativecommons.org/ns#"
   xmlns:rdf="http://www.w3.org/1999/02/22-rdf-syntax-ns#"
   xmlns:svg="http://www.w3.org/2000/svg"
   xmlns="http://www.w3.org/2000/svg"
   xmlns:sodipodi="http://sodipodi.sourceforge.net/DTD/sodipodi-0.dtd"
   xmlns:inkscape="http://www.inkscape.org/namespaces/inkscape"
   width="24"
   height="24"
   viewBox="0 0 24 24"
   version="1.1"
   id="svg4"
   sodipodi:docname="push-to-talk-off.svg"
   inkscape:version="0.92.4 (5da689c313, 2019-01-14)">
  <metadata
     id="metadata10">
    <rdf:RDF>
      <cc:Work
         rdf:about="">
        <dc:format>image/svg+xml</dc:format>
        <dc:type
           rdf:resource="http://purl.org/dc/dcmitype/StillImage" />
        <dc:title></dc:title>
      </cc:Work>
    </rdf:RDF>
  </metadata>
  <defs
     id="defs8" />
  <sodipodi:namedview
     pagecolor="#ffffff"
     bordercolor="#666666"
     borderopacity="1"
     objecttolerance="10"
     gridtolerance="10"
     guidetolerance="10"
     inkscape:pageopacity="0"
     inkscape:pageshadow="2"
     inkscape:window-width="2931"
     inkscape:window-height="1741"
     id="namedview6"
     showgrid="false"
     inkscape:zoom="48.5"
     inkscape:cx="5.0063598"
     inkscape:cy="13.977433"
     inkscape:window-x="725"
     inkscape:window-y="207"
     inkscape:window-maximized="0"
     inkscape:current-layer="svg4" />
  <path
     d="M 16.423889,3.4094007 V 5.8627905 H 7.8137189 c -1.1882033,0 -2.1525424,0.7327457 -2.1525424,1.6355932 V 21.400926 c 0,0.902847 0.9643391,1.635593 2.1525424,1.635593 h 8.6101701 c 1.188202,0 2.152542,-0.732746 2.152542,-1.635593 V 3.4094007 Z M 9.9662613,20.58313 H 7.8137189 v -0.817797 h 2.1525424 z m 0,-1.635594 H 7.8137189 v -0.817797 h 2.1525424 z m 0,-1.635593 H 7.8137189 v -0.817797 h 2.1525424 z m 3.2288127,3.271187 h -2.152542 v -0.817797 h 2.152542 z m 0,-1.635594 h -2.152542 v -0.817797 h 2.152542 z m 0,-1.635593 h -2.152542 v -0.817797 h 2.152542 z m 3.228815,3.271187 h -2.152543 v -0.817797 h 2.152543 z m 0,-1.635594 h -2.152543 v -0.817797 h 2.152543 z m 0,-1.635593 h -2.152543 v -0.817797 h 2.152543 z m 0,-2.45339 H 7.8137189 V 8.3161804 h 8.6101701 z"
     id="path2"
     inkscape:connector-curvature="0"
     style="stroke-width:0.93817425" />
</svg>
