<?xml version="1.0" encoding="UTF-8" standalone="no"?>
<svg
   xmlns:dc="http://purl.org/dc/elements/1.1/"
   xmlns:cc="http://creativecommons.org/ns#"
   xmlns:rdf="http://www.w3.org/1999/02/22-rdf-syntax-ns#"
   xmlns:svg="http://www.w3.org/2000/svg"
   xmlns="http://www.w3.org/2000/svg"
   xmlns:sodipodi="http://sodipodi.sourceforge.net/DTD/sodipodi-0.dtd"
   xmlns:inkscape="http://www.inkscape.org/namespaces/inkscape"
   width="24"
   height="24"
   viewBox="0 0 24 24"
   version="1.1"
   id="svg4"
   sodipodi:docname="push-to-talk-settings.svg"
   inkscape:version="0.92.4 (5da689c313, 2019-01-14)">
  <metadata
     id="metadata10">
    <rdf:RDF>
      <cc:Work
         rdf:about="">
        <dc:format>image/svg+xml</dc:format>
        <dc:type
           rdf:resource="http://purl.org/dc/dcmitype/StillImage" />
        <dc:title />
      </cc:Work>
    </rdf:RDF>
  </metadata>
  <defs
     id="defs8" />
  <sodipodi:namedview
     pagecolor="#ffffff"
     bordercolor="#666666"
     borderopacity="1"
     objecttolerance="10"
     gridtolerance="10"
     guidetolerance="10"
     inkscape:pageopacity="0"
     inkscape:pageshadow="2"
     inkscape:window-width="2931"
     inkscape:window-height="1741"
     id="namedview6"
     showgrid="false"
     inkscape:zoom="48.5"
     inkscape:cx="5.0063598"
     inkscape:cy="13.977433"
     inkscape:window-x="725"
     inkscape:window-y="207"
     inkscape:window-maximized="0"
     inkscape:current-layer="svg4" />
  <path
     d="m 11.021827,4.2135244 v 2.4533898 h -8.61017 c -1.1882033,0 -2.15254233,0.7327457 -2.15254233,1.6355932 V 22.20505 c 0,0.902847 0.96433903,1.635593 2.15254233,1.635593 h 8.61017 c 1.188202,0 2.152542,-0.732746 2.152542,-1.635593 V 4.2135244 Z M 4.5641994,21.387254 H 2.411657 v -0.817797 h 2.1525424 z m 0,-1.635594 H 2.411657 v -0.817797 h 2.1525424 z m 0,-1.635593 H 2.411657 V 17.29827 h 2.1525424 z m 3.228813,3.271187 H 5.6404699 v -0.817797 h 2.1525425 z m 0,-1.635594 H 5.6404699 v -0.817797 h 2.1525425 z m 0,-1.635593 H 5.6404699 V 17.29827 h 2.1525425 z m 3.2288146,3.271187 H 8.8692844 v -0.817797 h 2.1525426 z m 0,-1.635594 H 8.8692844 v -0.817797 h 2.1525426 z m 0,-1.635593 H 8.8692844 V 17.29827 h 2.1525426 z m 0,-2.45339 H 2.411657 V 9.1203041 h 8.61017 z"
     id="path2"
     inkscape:connector-curvature="0"
     style="stroke-width:0.93817425" />
  <path
     inkscape:connector-curvature="0"
     d="M 22.969073,5.8895202 V 4.2135726 C 22.166341,3.92007 21.950336,3.9062768 21.837849,3.6277187 21.724614,3.3483934 21.868872,3.1798026 22.233609,2.3927888 L 21.077719,1.2076701 C 20.320581,1.5766542 20.147926,1.7303022 19.872875,1.6134378 19.601187,1.4977232 19.585864,1.2728073 19.302217,0.45360775 H 17.667231 C 17.381715,1.2751062 17.368261,1.4977232 17.095825,1.6134378 16.814795,1.7333679 16.646251,1.5751208 15.891354,1.2076701 L 14.735465,2.3927888 C 15.100581,3.1801849 15.24446,3.3480102 15.131225,3.628101 15.018364,3.90666 14.801985,3.9208373 14,4.2135726 v 1.6763326 c 0.799369,0.291201 1.018364,0.306528 1.131225,0.58547 0.113608,0.281241 -0.03027,0.44715 -0.39576,1.234929 l 1.155889,1.185119 c 0.747049,-0.364004 0.923067,-0.526081 1.204471,-0.405768 0.272062,0.115715 0.285516,0.337182 0.571406,1.15983 h 1.634612 c 0.283273,-0.816517 0.298596,-1.04335 0.574395,-1.161362 0.278415,-0.118014 0.443222,0.03794 1.201481,0.406916 l 1.15589,-1.185118 c -0.364368,-0.785481 -0.508995,-0.954838 -0.39576,-1.234929 0.112113,-0.278176 0.328866,-0.292353 1.131224,-0.585472 z m -1.821842,0.292736 c -0.215631,0.534127 -0.02542,0.941811 0.18237,1.370952 l -0.405102,0.415347 c -0.408467,-0.208056 -0.807591,-0.412281 -1.335271,-0.187749 -0.521702,0.222617 -0.668944,0.648693 -0.81768,1.102355 h -0.573274 c -0.148737,-0.454045 -0.295606,-0.880122 -0.815812,-1.101589 -0.530296,-0.225298 -0.936894,-0.01724 -1.337513,0.186983 l -0.40473,-0.415347 c 0.208159,-0.428374 0.398377,-0.835292 0.181998,-1.371718 -0.216379,-0.532978 -0.631946,-0.68356 -1.074794,-0.836059 v -0.587386 c 0.442848,-0.152499 0.858415,-0.303081 1.07442,-0.8368246 0.216006,-0.5341282 0.02542,-0.9421948 -0.182371,-1.3713358 l 0.405103,-0.4153469 c 0.404356,0.206141 0.807965,0.4126652 1.337887,0.1869827 0.520206,-0.2210848 0.667075,-0.6475432 0.815812,-1.1015896 h 0.573274 c 0.148736,0.4540464 0.295978,0.8801225 0.816185,1.1015896 0.530296,0.2252984 0.93652,0.01724 1.337513,-0.1869827 l 0.405103,0.4153469 c -0.207784,0.4295242 -0.398003,0.837974 -0.182371,1.371718 0.215631,0.5329784 0.631198,0.6835604 1.07442,0.8364424 v 0.58777 c -0.44397,0.152498 -0.860283,0.30308 -1.075167,0.836441 z m -2.662694,-2.280194 c 0.618118,0 1.121134,0.515735 1.121134,1.149484 0,0.63375 -0.503016,1.149486 -1.121134,1.149486 -0.618118,0 -1.121134,-0.515736 -1.121134,-1.149486 0,-0.633749 0.503016,-1.149484 1.121134,-1.149484 z m 0,-0.7663236 c -1.032191,0 -1.868557,0.8575156 -1.868557,1.9158076 0,1.058293 0.836366,1.915807 1.868557,1.915807 1.032191,0 1.868556,-0.857514 1.868556,-1.915807 0,-1.058292 -0.836365,-1.9158076 -1.868556,-1.9158076 z"
     id="path2-9"
     style="stroke-width:0.99999994" />
</svg>
