<?xml version="1.0" encoding="UTF-8" standalone="no"?>
<svg
   xmlns:dc="http://purl.org/dc/elements/1.1/"
   xmlns:cc="http://creativecommons.org/ns#"
   xmlns:rdf="http://www.w3.org/1999/02/22-rdf-syntax-ns#"
   xmlns:svg="http://www.w3.org/2000/svg"
   xmlns="http://www.w3.org/2000/svg"
   xmlns:sodipodi="http://sodipodi.sourceforge.net/DTD/sodipodi-0.dtd"
   xmlns:inkscape="http://www.inkscape.org/namespaces/inkscape"
   width="24"
   height="24"
   fill-rule="evenodd"
   clip-rule="evenodd"
   version="1.1"
   id="svg4"
   sodipodi:docname="share-webcam-eye.svg"
   inkscape:version="0.92.4 (5da689c313, 2019-01-14)">
  <metadata
     id="metadata10">
    <rdf:RDF>
      <cc:Work
         rdf:about="">
        <dc:format>image/svg+xml</dc:format>
        <dc:type
           rdf:resource="http://purl.org/dc/dcmitype/StillImage" />
        <dc:title />
      </cc:Work>
    </rdf:RDF>
  </metadata>
  <defs
     id="defs8" />
  <sodipodi:namedview
     pagecolor="#ffffff"
     bordercolor="#666666"
     borderopacity="1"
     objecttolerance="10"
     gridtolerance="10"
     guidetolerance="10"
     inkscape:pageopacity="0"
     inkscape:pageshadow="2"
     inkscape:window-width="2635"
     inkscape:window-height="1736"
     id="namedview6"
     showgrid="false"
     inkscape:zoom="55.625733"
     inkscape:cx="-3.1622616"
     inkscape:cy="13.303674"
     inkscape:window-x="1104"
     inkscape:window-y="178"
     inkscape:window-maximized="0"
     inkscape:current-layer="svg4" />
  <path
     id="path2"
     d="M 6.9941425,15.025391 2,15.025391 v 9 h 5 v -1.332032 c 1.243,0.069 2.953571,0.322469 5.726562,1.105469 0.476002,0.135 0.903594,0.199219 1.308594,0.199219 0.903,0 1.670922,-0.318868 2.419922,-1.005859 0.482,-0.441001 3.557547,-3.186797 4.935547,-4.466797 0.408,-0.379296 0.597518,-0.865248 0.609375,-1.355469 0.005,-0.20637 0.02236,-0.399278 -0.01367,-0.619141 -0.0077,-0.04682 0.03202,-0.08915 -0.251721,-0.482157 -0.03504,-0.04854 -0.303091,-0.333476 -0.576404,-0.459249 -0.226,-0.104 -0.628625,-0.146484 -0.890625,-0.146484 -0.427,0 -0.844172,0.149593 -1.201172,0.433593 -0.017,0.013 -1.811547,1.406532 -2.935547,2.269532 -0.099,-0.59 -0.535781,-1.092641 -1.175781,-1.306641 -2.098,-0.706 -3.088734,-1.205078 -4.302734,-1.205078 -0.628,0 -1.244719,0.137969 -1.886719,0.417969 L 6.9763542,16.650391 M 3,16.025391 h 3 v 7 H 3 Z m 17.320312,0.4375 c 0.599251,0.03952 1.008623,0.756328 0.390626,1.330078 -2.207002,2.05 -3.650688,3.29089 -4.929688,4.46289 -1.021,0.935 -1.966203,0.813032 -2.783203,0.582032 C 11.404047,22.386891 9.092,21.807453 7,21.689453 v -3.886719 c 0.732,-0.198 1.5250625,-0.536453 2.1640625,-0.814453 1.3710005,-0.597 2.2829845,-0.29475 3.5839845,0.15625 1.352,0.467 1.328625,0.474063 1.890625,0.664063 0.854,0.285 0.595125,1.433343 -0.421875,1.152344 -0.607,-0.170001 -1.754172,-0.426532 -2.201172,-0.519532 -0.639,-0.135 -0.844531,0.674422 -0.269531,0.857422 0.872,0.276 2.745469,0.744141 3.105468,0.744141 0.453,0 0.767485,-0.234533 1.146485,-0.519531 0.728,-0.544002 3.689453,-2.84375 3.689453,-2.84375 0.211,-0.167502 0.433062,-0.229969 0.632812,-0.216797 z"
     inkscape:connector-curvature="0"
     sodipodi:nodetypes="ccccccsccssssscccscccccccccccccccccccsccc" />
  <path
     inkscape:connector-curvature="0"
     d="m 13.824491,2.5083961 c -2.875902,0 -5.2068227,2.200614 -5.2068227,4.9145226 0,2.7144543 2.3309207,4.9145213 5.2068227,4.9145213 2.875903,0 5.206825,-2.200613 5.206825,-4.9145213 0,-2.7139086 -2.330922,-4.9145226 -5.206825,-4.9145226 z m 0,7.0987549 c -1.277986,0 -2.314144,-0.97799 -2.314144,-2.1842323 0,-1.2062423 1.036158,-2.1842323 2.314144,-2.1842323 1.277987,0 2.314144,0.97799 2.314144,2.1842323 0,1.2062423 -1.036157,2.1842323 -2.314144,2.1842323 z m 1.157072,-2.1842323 c 0,0.602302 -0.518369,1.0921161 -1.157072,1.0921161 -0.638125,0 -1.157071,-0.4898141 -1.157071,-1.0921161 0,-0.602302 0.518946,-1.0921162 1.157071,-1.0921162 0.638703,0 1.157072,0.4898142 1.157072,1.0921162 z m 3.816022,6.8262713 c 0.58143,0.622508 -0.0059,1.462344 -0.837719,1.354771 -1.038472,-0.133785 -1.872143,-0.929391 -4.134796,-0.929391 -2.262654,0 -3.096324,0.796153 -4.1347961,0.929391 -0.8325133,0.107573 -1.4197272,-0.73281 -0.83772,-1.354771 l 1.6164291,-1.73155 c 0.97599,0.574453 2.123227,0.911918 3.355508,0.911918 1.232281,0 2.379519,-0.338011 3.355508,-0.912464 z"
     id="path2-6"
     style="stroke-width:0.64629686" />
  <path
     inkscape:connector-curvature="0"
     d="m 5.5886657,1.0141314 c 2.1272933,0 3.6102652,1.1003419 4.2554832,1.6936205 -0.6273077,0.6710917 -2.1102787,1.9595732 -4.2554832,1.9595732 -1.9790878,0 -3.5507149,-1.2917696 -4.2438432,-1.975282 C 2.0133243,2.090362 3.5016691,1.0141314 5.5886657,1.0141314 Z m 0,-0.73063859 c -3.3890748,0 -5.37980303,2.39320709 -5.37980303,2.39320709 0,0 2.16490613,2.7212638 5.37980303,2.7212638 3.4625057,0 5.3663693,-2.7212638 5.3663693,-2.7212638 0,0 -1.9213261,-2.39320709 -5.3663693,-2.39320709 z m -0.00671,1.09595809 c -0.9890962,0 -1.7910293,0.6546522 -1.7910293,1.4612773 0,0.8069907 0.8019331,1.4612772 1.7910293,1.4612772 0.9890945,0 1.7910275,-0.6542865 1.7910275,-1.4612772 0,-0.8066251 -0.801933,-1.4612773 -1.7910275,-1.4612773 z"
     id="path2-20"
     style="stroke-width:0.6772393" />
</svg>
