<?xml version="1.0" encoding="UTF-8" standalone="no"?>
<svg
   xmlns:dc="http://purl.org/dc/elements/1.1/"
   xmlns:cc="http://creativecommons.org/ns#"
   xmlns:rdf="http://www.w3.org/1999/02/22-rdf-syntax-ns#"
   xmlns:svg="http://www.w3.org/2000/svg"
   xmlns="http://www.w3.org/2000/svg"
   xmlns:sodipodi="http://sodipodi.sourceforge.net/DTD/sodipodi-0.dtd"
   xmlns:inkscape="http://www.inkscape.org/namespaces/inkscape"
   width="24"
   height="24"
   fill-rule="evenodd"
   clip-rule="evenodd"
   version="1.1"
   id="svg4"
   sodipodi:docname="share-storyboard-eye.svg"
   inkscape:version="0.92.4 (5da689c313, 2019-01-14)">
  <metadata
     id="metadata10">
    <rdf:RDF>
      <cc:Work
         rdf:about="">
        <dc:format>image/svg+xml</dc:format>
        <dc:type
           rdf:resource="http://purl.org/dc/dcmitype/StillImage" />
        <dc:title></dc:title>
      </cc:Work>
    </rdf:RDF>
  </metadata>
  <defs
     id="defs8" />
  <sodipodi:namedview
     pagecolor="#ffffff"
     bordercolor="#666666"
     borderopacity="1"
     objecttolerance="10"
     gridtolerance="10"
     guidetolerance="10"
     inkscape:pageopacity="0"
     inkscape:pageshadow="2"
     inkscape:window-width="2635"
     inkscape:window-height="1736"
     id="namedview6"
     showgrid="false"
     inkscape:zoom="55.625733"
     inkscape:cx="10.512363"
     inkscape:cy="14.659495"
     inkscape:window-x="494"
     inkscape:window-y="78"
     inkscape:window-maximized="0"
     inkscape:current-layer="svg4" />
  <path
     id="path2"
     d="M 6.9941425,15.025391 2,15.025391 v 9 h 5 v -1.332032 c 1.243,0.069 2.953571,0.322469 5.726562,1.105469 0.476002,0.135 0.903594,0.199219 1.308594,0.199219 0.903,0 1.670922,-0.318868 2.419922,-1.005859 0.482,-0.441001 3.557547,-3.186797 4.935547,-4.466797 0.408,-0.379296 0.597518,-0.865248 0.609375,-1.355469 0.005,-0.20637 0.02236,-0.399278 -0.01367,-0.619141 -0.0077,-0.04682 0.03202,-0.08915 -0.251721,-0.482157 -0.03504,-0.04854 -0.303091,-0.333476 -0.576404,-0.459249 -0.226,-0.104 -0.628625,-0.146484 -0.890625,-0.146484 -0.427,0 -0.844172,0.149593 -1.201172,0.433593 -0.017,0.013 -1.811547,1.406532 -2.935547,2.269532 -0.099,-0.59 -0.535781,-1.092641 -1.175781,-1.306641 -2.098,-0.706 -3.088734,-1.205078 -4.302734,-1.205078 -0.628,0 -1.244719,0.137969 -1.886719,0.417969 L 6.9763542,16.650391 M 3,16.025391 h 3 v 7 H 3 Z m 17.320312,0.4375 c 0.599251,0.03952 1.008623,0.756328 0.390626,1.330078 -2.207002,2.05 -3.650688,3.29089 -4.929688,4.46289 -1.021,0.935 -1.966203,0.813032 -2.783203,0.582032 C 11.404047,22.386891 9.092,21.807453 7,21.689453 v -3.886719 c 0.732,-0.198 1.5250625,-0.536453 2.1640625,-0.814453 1.3710005,-0.597 2.2829845,-0.29475 3.5839845,0.15625 1.352,0.467 1.328625,0.474063 1.890625,0.664063 0.854,0.285 0.595125,1.433343 -0.421875,1.152344 -0.607,-0.170001 -1.754172,-0.426532 -2.201172,-0.519532 -0.639,-0.135 -0.844531,0.674422 -0.269531,0.857422 0.872,0.276 2.745469,0.744141 3.105468,0.744141 0.453,0 0.767485,-0.234533 1.146485,-0.519531 0.728,-0.544002 3.689453,-2.84375 3.689453,-2.84375 0.211,-0.167502 0.433062,-0.229969 0.632812,-0.216797 z"
     inkscape:connector-curvature="0"
     sodipodi:nodetypes="ccccccsccssssscccscccccccccccccccccccsccc" />
  <path
     inkscape:connector-curvature="0"
     d="m 19.812207,7.8193152 c -0.467783,0.7725951 -1.197505,1.55994 -2.10837,1.5278969 -0.212534,0.3590862 -0.438449,0.8529579 -0.689066,1.4256639 l -0.675173,0.281268 c 0.481678,-1.1916991 1.148102,-2.5232682 1.90304,-3.5572943 -0.344791,0.2690604 -0.898515,0.8326122 -1.3699,1.4154916 -0.565045,-0.9297588 -0.154384,-1.8773192 0.500717,-2.6341468 0.01081,0.3260258 0.184747,0.6083103 0.309284,0.7502154 -0.04477,-0.2695689 -0.05867,-0.7573361 0.100349,-1.1957672 0.369491,-0.3723104 0.701932,-0.6464569 1.087377,-0.8951726 -0.0427,0.2431208 0.04117,0.521845 0.134829,0.6922328 0.01235,-0.2492241 0.115274,-0.7273276 0.268113,-0.9358621 0.475502,-0.3697672 1.200079,-0.6983363 2.002875,-0.760388 -0.04167,0.494888 -0.224371,1.3096985 -0.526964,1.8330692 -0.265026,0.2054828 -0.628342,0.3458621 -0.921672,0.4236811 0.253704,0.045268 0.530566,0.039164 0.768832,-5.087e-4 -0.138431,0.3779052 -0.284066,0.7263105 -0.513584,1.1576207 -0.349423,0.2380346 -0.81206,0.3723105 -1.133693,0.4196122 0.236723,0.095112 0.654588,0.1246121 0.863006,0.052388 z M 12.689448,9.7546173 13.021373,10.15185 15.477622,8.7322896 15.133859,8.3416687 Z m 3.581706,-0.1210518 -0.343761,-0.3901121 -2.472715,1.4282076 0.331925,0.397232 z m 2.407875,0.00356 c -0.216652,0.1032439 -0.437936,0.1734334 -0.661793,0.2024248 -0.06175,0.1174914 -0.126594,0.2512587 -0.194008,0.3931637 l 0.153354,0.173948 c 0.320605,0.351966 0.236207,0.86669 -0.193494,1.138802 -0.397795,0.252785 -2.748549,1.717104 -3.286319,2.052286 -0.03809,-0.366713 -0.184232,-0.70749 -0.425071,-0.990792 C 13.830344,12.323661 10.92484,8.8553758 10.200264,7.938841 9.9589104,7.6336687 9.9043609,7.3056083 10.048452,7.0151858 10.186369,6.735953 10.481757,6.548272 10.78435,6.548272 c 0.472929,0 0.724575,0.3331467 0.797135,0.6179743 0.08234,0.3260258 -0.01801,0.626112 -0.320604,0.8570259 l 0.683922,0.8260002 4.011923,-2.2613279 C 16.688505,6.0533841 16.894351,5.0666599 16.435317,4.292539 16.117285,3.7569613 15.530111,3.424832 14.902799,3.424832 c -0.611361,0 -0.408089,-0.00814 -4.9222749,2.2760779 -0.6350326,0.3005948 -1.0549573,0.9089053 -1.0549573,1.6286036 0,0.4425 0.1585009,0.893138 0.4574914,1.2649399 0.7343528,0.9124656 3.8909898,4.6716816 3.9192938,4.7083036 0.190921,0.25075 0.21974,0.569146 0.0772,0.850922 -0.142549,0.282284 -0.417867,0.450638 -0.735383,0.450638 -0.472928,0 -0.724575,-0.333147 -0.797135,-0.618483 -0.08028,-0.319921 0.0061,-0.614413 0.310826,-0.841258 l -0.657165,-0.78582 c -0.423011,0.338232 -0.657161,0.760896 -0.708622,1.242053 -0.11939,1.121507 0.784784,2.030922 1.859297,2.030922 0.306709,0 0.674658,-0.09003 0.947402,-0.259396 l 4.851258,-3.02426 c 0.492485,-0.337725 0.767803,-0.905854 0.767803,-1.473475 0,-0.378922 -0.123506,-0.739534 -0.354054,-1.0187672 z M 14.596604,4.519381 c 0.09674,-0.04425 0.204816,-0.068155 0.313399,-0.068155 0.273774,0 0.51307,0.1429224 0.639665,0.3824828 0.160558,0.303138 0.116302,0.7471639 -0.28201,0.9724829 L 12.644676,7.2750909 C 12.618431,6.7212029 12.346715,6.2166511 11.895915,5.885539 Z m 1.079143,6.806872 0.185776,-0.460302 0.128139,-0.30975 -1.774902,1.025888 0.331926,0.397233 z"
     id="path2-5"
     style="stroke-width:0.53318745" />
  <path
     inkscape:connector-curvature="0"
     d="m 6.0655026,1.2041769 c 2.2660848,0 3.8458097,1.2511816 4.5331234,1.9257896 C 9.9303912,3.8930544 8.3506671,5.3581667 6.0655026,5.3581667 3.9572929,5.3581667 2.2831274,3.8893156 1.5447772,3.1121043 2.2568944,2.4279421 3.8423435,1.2041769 6.0655026,1.2041769 Z m 0,-0.83079764 c -3.6101892,0 -5.73079892,2.72127844 -5.73079892,2.72127844 0,0 2.30615162,3.0943068 5.73079892,3.0943068 3.6884099,0 5.7164874,-3.0943068 5.7164874,-3.0943068 0,0 -2.0466793,-2.72127844 -5.7164874,-2.72127844 z m -0.00715,1.24619684 c -1.0536287,0 -1.9078825,0.7443948 -1.9078825,1.6615957 0,0.9176165 0.8542538,1.6615956 1.9078825,1.6615956 1.053626,0 1.9078798,-0.7439791 1.9078798,-1.6615956 0,-0.9172009 -0.8542538,-1.6615957 -1.9078798,-1.6615957 z"
     id="path2-20"
     style="stroke-width:0.6772393" />
</svg>
