<?xml version="1.0" encoding="UTF-8" standalone="no"?>
<svg
   xmlns:dc="http://purl.org/dc/elements/1.1/"
   xmlns:cc="http://creativecommons.org/ns#"
   xmlns:rdf="http://www.w3.org/1999/02/22-rdf-syntax-ns#"
   xmlns:svg="http://www.w3.org/2000/svg"
   xmlns="http://www.w3.org/2000/svg"
   xmlns:sodipodi="http://sodipodi.sourceforge.net/DTD/sodipodi-0.dtd"
   xmlns:inkscape="http://www.inkscape.org/namespaces/inkscape"
   width="24"
   height="24"
   fill-rule="evenodd"
   clip-rule="evenodd"
   version="1.1"
   id="svg4"
   sodipodi:docname="share-about-me-eye.svg"
   inkscape:version="0.92.4 (5da689c313, 2019-01-14)">
  <metadata
     id="metadata10">
    <rdf:RDF>
      <cc:Work
         rdf:about="">
        <dc:format>image/svg+xml</dc:format>
        <dc:type
           rdf:resource="http://purl.org/dc/dcmitype/StillImage" />
        <dc:title />
      </cc:Work>
    </rdf:RDF>
  </metadata>
  <defs
     id="defs8" />
  <sodipodi:namedview
     pagecolor="#ffffff"
     bordercolor="#666666"
     borderopacity="1"
     objecttolerance="10"
     gridtolerance="10"
     guidetolerance="10"
     inkscape:pageopacity="0"
     inkscape:pageshadow="2"
     inkscape:window-width="2635"
     inkscape:window-height="1736"
     id="namedview6"
     showgrid="false"
     inkscape:zoom="55.625733"
     inkscape:cx="7.3163529"
     inkscape:cy="14.659495"
     inkscape:window-x="434"
     inkscape:window-y="144"
     inkscape:window-maximized="0"
     inkscape:current-layer="svg4" />
  <path
     id="path2"
     d="M 6.9941425,15.025391 2,15.025391 v 9 h 5 v -1.332032 c 1.243,0.069 2.953571,0.322469 5.726562,1.105469 0.476002,0.135 0.903594,0.199219 1.308594,0.199219 0.903,0 1.670922,-0.318868 2.419922,-1.005859 0.482,-0.441001 3.557547,-3.186797 4.935547,-4.466797 0.408,-0.379296 0.597518,-0.865248 0.609375,-1.355469 0.005,-0.20637 0.02236,-0.399278 -0.01367,-0.619141 -0.0077,-0.04682 0.03202,-0.08915 -0.251721,-0.482157 -0.03504,-0.04854 -0.303091,-0.333476 -0.576404,-0.459249 -0.226,-0.104 -0.628625,-0.146484 -0.890625,-0.146484 -0.427,0 -0.844172,0.149593 -1.201172,0.433593 -0.017,0.013 -1.811547,1.406532 -2.935547,2.269532 -0.099,-0.59 -0.535781,-1.092641 -1.175781,-1.306641 -2.098,-0.706 -3.088734,-1.205078 -4.302734,-1.205078 -0.628,0 -1.244719,0.137969 -1.886719,0.417969 L 6.9763542,16.650391 M 3,16.025391 h 3 v 7 H 3 Z m 17.320312,0.4375 c 0.599251,0.03952 1.008623,0.756328 0.390626,1.330078 -2.207002,2.05 -3.650688,3.29089 -4.929688,4.46289 -1.021,0.935 -1.966203,0.813032 -2.783203,0.582032 C 11.404047,22.386891 9.092,21.807453 7,21.689453 v -3.886719 c 0.732,-0.198 1.5250625,-0.536453 2.1640625,-0.814453 1.3710005,-0.597 2.2829845,-0.29475 3.5839845,0.15625 1.352,0.467 1.328625,0.474063 1.890625,0.664063 0.854,0.285 0.595125,1.433343 -0.421875,1.152344 -0.607,-0.170001 -1.754172,-0.426532 -2.201172,-0.519532 -0.639,-0.135 -0.844531,0.674422 -0.269531,0.857422 0.872,0.276 2.745469,0.744141 3.105468,0.744141 0.453,0 0.767485,-0.234533 1.146485,-0.519531 0.728,-0.544002 3.689453,-2.84375 3.689453,-2.84375 0.211,-0.167502 0.433062,-0.229969 0.632812,-0.216797 z"
     inkscape:connector-curvature="0"
     sodipodi:nodetypes="ccccccsccssssscccscccccccccccccccccccsccc" />
  <path
     inkscape:connector-curvature="0"
     style="clip-rule:evenodd;fill-rule:evenodd;stroke-width:0.33366576"
     d="M 18.720647,15.4139 H 11.69693 c -0.705246,0 -1.27704,-0.566801 -1.27704,-1.265888 V 4.6538472 c 0,-0.6990874 0.571794,-1.2658884 1.27704,-1.2658884 h 2.23482 V 2.1220704 c 0,-0.6990873 0.571793,-1.2658888 1.277038,-1.2658888 0.705245,0 1.27704,0.5668015 1.27704,1.2658888 v 1.2658884 h 2.234819 c 0.705246,0 1.277041,0.566801 1.277041,1.2658884 v 9.4941648 c 0,0.699087 -0.571795,1.265888 -1.277041,1.265888 z M 15.847309,2.1220704 c 0,-0.3493854 -0.286057,-0.6329446 -0.638521,-0.6329446 -0.352462,0 -0.638519,0.2835592 -0.638519,0.6329446 V 4.020903 c 0,0.3493854 0.286057,0.6329442 0.638519,0.6329442 0.352464,0 0.638521,-0.2835588 0.638521,-0.6329442 z m 3.511859,2.5317768 c 0,-0.3493854 -0.286057,-0.6329442 -0.638521,-0.6329442 h -2.234819 c 0,0.6990865 -0.571795,1.2658884 -1.27704,1.2658884 -0.705245,0 -1.277038,-0.5668019 -1.277038,-1.2658884 h -2.23482 c -0.352464,0 -0.638521,0.2835588 -0.638521,0.6329442 v 7.5953318 h 1.212232 c 0.07375,-0.186403 0.209433,-0.490216 0.370341,-0.708898 0.008,-0.0045 0.270732,-0.550345 1.59566,-0.566485 0.0019,-0.0067 0.0032,-0.329764 0.0071,-0.325017 -0.102163,-0.06392 -0.235295,-0.163299 -0.335542,-0.258241 -0.08141,-0.04937 -0.370661,-0.325651 -0.463565,-0.8174479 -0.02778,-0.1715279 -0.155799,-0.9807479 -0.155799,-1.3184229 0,-1.003533 0.403864,-2.0194086 1.900554,-2.0194086 0.0067,0 0.03192,0 0.03862,0 1.496691,0 1.900554,1.0158756 1.900554,2.0194086 0,0.337675 -0.128023,1.146895 -0.155798,1.3184229 -0.09291,0.4917969 -0.381835,0.7680779 -0.463567,0.8174479 -0.09993,0.09526 -0.233059,0.194314 -0.335541,0.258241 0.0041,-0.0048 0.0057,0.318687 0.0071,0.325017 1.325248,0.01614 1.587998,0.562055 1.59566,0.566485 0.160907,0.218682 0.296593,0.522495 0.370342,0.708898 h 1.212549 z m -3.82665,5.8509358 c -3.2e-4,9.52e-4 -3.2e-4,0.0012 -3.2e-4,0.0012 -10e-4,0 -0.0055,-0.247166 -0.0055,-0.247166 0,0 0.372258,-0.190199 0.648417,-0.4360981 0.161864,-0.131969 0.236572,-0.4310346 0.236572,-0.4310346 0.04373,-0.2620398 0.07598,-0.9104909 0.07598,-1.1718967 0,-0.6525658 -0.329797,-1.354501 -1.279275,-1.354501 0,0 0,-0.00187 0,-0.00219 0,0 0,0.00219 0,0.00219 -0.949479,0 -1.279275,0.7022517 -1.279275,1.354501 0,0.2614058 0.03288,0.9098569 0.07598,1.1718967 0,0 0.07471,0.2990656 0.236571,0.4310346 0.27616,0.2458991 0.648417,0.4360981 0.648417,0.4360981 0,0 -0.0045,0.247166 -0.0057,0.247166 0,0 0,-3.16e-4 0,-0.0012 0,0 0.0092,0.362679 0.0092,0.470279 0,0.431351 -0.435791,0.638957 -0.709715,0.638957 -6.37e-4,0 -6.37e-4,0 -0.001,0 -0.82784,0.03607 -1.023228,0.308877 -1.024824,0.311408 -0.05045,0.08008 -0.120362,0.159819 -0.184852,0.323752 h 4.471236 c -0.06481,-0.163933 -0.134727,-0.243684 -0.185809,-0.323435 -0.0019,-0.0029 -0.197623,-0.275331 -1.025144,-0.311408 -3.18e-4,0 -3.18e-4,0 -6.37e-4,0 -0.273925,0 -0.710033,-0.207289 -0.710033,-0.638957 0,-0.107917 0.0096,-0.470596 0.0096,-0.470596 z m 3.82665,2.37734 h -8.300759 v 1.265889 c 0,0.349384 0.286057,0.632943 0.638521,0.632943 h 7.023717 c 0.352464,0 0.638521,-0.283559 0.638521,-0.632943 z m -1.91556,1.265889 h -0.95778 c -0.176551,0 -0.31926,-0.141464 -0.31926,-0.316473 0,-0.175009 0.142709,-0.316472 0.31926,-0.316472 h 0.95778 c 0.176551,0 0.31926,0.141463 0.31926,0.316472 0,0.175009 -0.142709,0.316473 -0.31926,0.316473 z m -2.554079,0 h -1.91556 c -0.176551,0 -0.31926,-0.141464 -0.31926,-0.316473 0,-0.175009 0.142709,-0.316472 0.31926,-0.316472 h 1.91556 c 0.17655,0 0.319259,0.141463 0.319259,0.316472 0,0.175009 -0.142709,0.316473 -0.319259,0.316473 z m 0,-12.0259416 h 0.63852 v 0.6329442 h -0.63852 z"
     id="path2-5" />
  <path
     inkscape:connector-curvature="0"
     d="m 5.660485,0.99358585 c 2.0988235,0 3.5619486,1.12354805 4.198532,1.72933895 -0.6189128,0.6852449 -2.0820371,2.0009006 -4.198532,2.0009006 -1.9526011,0 -3.5031948,-1.319013 -4.1870469,-2.0169407 C 2.1329933,2.0925142 3.6014192,0.99358585 5.660485,0.99358585 Z m 0,-0.74604766 c -3.3437181,0 -5.307804,2.44367971 -5.307804,2.44367971 0,0 2.1359327,2.7786552 5.307804,2.7786552 3.4161664,0 5.29455,-2.7786552 5.29455,-2.7786552 0,0 -1.8956123,-2.44367971 -5.29455,-2.44367971 z M 5.6538604,1.36661 c -0.9758589,0 -1.7670596,0.6684587 -1.7670596,1.4920956 0,0.82401 0.7912007,1.4920955 1.7670596,1.4920955 0.975857,0 1.7670578,-0.6680855 1.7670578,-1.4920955 0,-0.8236369 -0.7912008,-1.4920956 -1.7670578,-1.4920956 z"
     id="path2-20"
     style="stroke-width:0.6772393" />
</svg>
