<?xml version="1.0" encoding="UTF-8" standalone="no"?>
<svg
   xmlns:dc="http://purl.org/dc/elements/1.1/"
   xmlns:cc="http://creativecommons.org/ns#"
   xmlns:rdf="http://www.w3.org/1999/02/22-rdf-syntax-ns#"
   xmlns:svg="http://www.w3.org/2000/svg"
   xmlns="http://www.w3.org/2000/svg"
   xmlns:sodipodi="http://sodipodi.sourceforge.net/DTD/sodipodi-0.dtd"
   xmlns:inkscape="http://www.inkscape.org/namespaces/inkscape"
   width="24"
   height="24"
   fill-rule="evenodd"
   clip-rule="evenodd"
   version="1.1"
   id="svg4"
   sodipodi:docname="share-files-eye.svg"
   inkscape:version="0.92.4 (5da689c313, 2019-01-14)">
  <metadata
     id="metadata10">
    <rdf:RDF>
      <cc:Work
         rdf:about="">
        <dc:format>image/svg+xml</dc:format>
        <dc:type
           rdf:resource="http://purl.org/dc/dcmitype/StillImage" />
        <dc:title />
      </cc:Work>
    </rdf:RDF>
  </metadata>
  <defs
     id="defs8" />
  <sodipodi:namedview
     pagecolor="#ffffff"
     bordercolor="#666666"
     borderopacity="1"
     objecttolerance="10"
     gridtolerance="10"
     guidetolerance="10"
     inkscape:pageopacity="0"
     inkscape:pageshadow="2"
     inkscape:window-width="2635"
     inkscape:window-height="1736"
     id="namedview6"
     showgrid="false"
     inkscape:zoom="55.625733"
     inkscape:cx="9.593228"
     inkscape:cy="15.093926"
     inkscape:window-x="238"
     inkscape:window-y="4"
     inkscape:window-maximized="0"
     inkscape:current-layer="svg4" />
  <path
     id="path2"
     d="M 6.9941425,15.025391 2,15.025391 v 9 h 5 v -1.332032 c 1.243,0.069 2.953571,0.322469 5.726562,1.105469 0.476002,0.135 0.903594,0.199219 1.308594,0.199219 0.903,0 1.670922,-0.318868 2.419922,-1.005859 0.482,-0.441001 3.557547,-3.186797 4.935547,-4.466797 0.408,-0.379296 0.597518,-0.865248 0.609375,-1.355469 0.005,-0.20637 0.02236,-0.399278 -0.01367,-0.619141 -0.0077,-0.04682 0.03202,-0.08915 -0.251721,-0.482157 -0.03504,-0.04854 -0.303091,-0.333476 -0.576404,-0.459249 -0.226,-0.104 -0.628625,-0.146484 -0.890625,-0.146484 -0.427,0 -0.844172,0.149593 -1.201172,0.433593 -0.017,0.013 -1.811547,1.406532 -2.935547,2.269532 -0.099,-0.59 -0.535781,-1.092641 -1.175781,-1.306641 -2.098,-0.706 -3.088734,-1.205078 -4.302734,-1.205078 -0.628,0 -1.244719,0.137969 -1.886719,0.417969 L 6.9763542,16.650391 M 3,16.025391 h 3 v 7 H 3 Z m 17.320312,0.4375 c 0.599251,0.03952 1.008623,0.756328 0.390626,1.330078 -2.207002,2.05 -3.650688,3.29089 -4.929688,4.46289 -1.021,0.935 -1.966203,0.813032 -2.783203,0.582032 C 11.404047,22.386891 9.092,21.807453 7,21.689453 v -3.886719 c 0.732,-0.198 1.5250625,-0.536453 2.1640625,-0.814453 1.3710005,-0.597 2.2829845,-0.29475 3.5839845,0.15625 1.352,0.467 1.328625,0.474063 1.890625,0.664063 0.854,0.285 0.595125,1.433343 -0.421875,1.152344 -0.607,-0.170001 -1.754172,-0.426532 -2.201172,-0.519532 -0.639,-0.135 -0.844531,0.674422 -0.269531,0.857422 0.872,0.276 2.745469,0.744141 3.105468,0.744141 0.453,0 0.767485,-0.234533 1.146485,-0.519531 0.728,-0.544002 3.689453,-2.84375 3.689453,-2.84375 0.211,-0.167502 0.433062,-0.229969 0.632812,-0.216797 z"
     inkscape:connector-curvature="0"
     sodipodi:nodetypes="ccccccsccssssscccscccccccccccccccccccsccc" />
  <path
     inkscape:connector-curvature="0"
     d="m 10.880702,6.2081164 c 0.780095,0.8201699 1.457308,1.526371 2.779513,1.526371 H 19.87837 V 14.348761 H 8.5726353 V 6.2081164 Z M 11.399068,5.190536 H 7.4420618 V 15.366342 H 21.008943 V 6.7169068 h -7.348728 c -0.920852,0 -1.302984,-0.5383 -2.261147,-1.5263708 z"
     id="path2-1"
     style="stroke-width:0.55389547" />
  <path
     inkscape:connector-curvature="0"
     d="m 5.1477607,1.0475177 c 1.981385,0 3.362641,1.0964743 3.963604,1.6876676 -0.584281,0.6687328 -1.965537,1.9526853 -3.963604,1.9526853 -1.8433435,0 -3.3071745,-1.2872291 -3.9527625,-1.9683389 0.622651,-0.5995662 2.008911,-1.672014 3.9527625,-1.672014 z m 0,-0.72807031 c -3.1566215,0 -5.01080755,2.38479491 -5.01080755,2.38479491 0,0 2.01641805,2.7116987 5.01080755,2.7116987 3.225016,0 4.9982953,-2.7116987 4.9982953,-2.7116987 0,0 -1.7895443,-2.38479491 -4.9982953,-2.38479491 z m -0.0062,1.09210581 c -0.921255,0 -1.6681835,0.6523511 -1.6681835,1.456141 0,0.8041541 0.7469285,1.4561408 1.6681835,1.4561408 0.921254,0 1.668183,-0.6519867 1.668183,-1.4561408 0,-0.8037899 -0.746929,-1.456141 -1.668183,-1.456141 z"
     id="path2-20"
     style="stroke-width:0.6772393" />
</svg>
