<?xml version="1.0" encoding="UTF-8" standalone="no"?>
<svg
   xmlns:dc="http://purl.org/dc/elements/1.1/"
   xmlns:cc="http://creativecommons.org/ns#"
   xmlns:rdf="http://www.w3.org/1999/02/22-rdf-syntax-ns#"
   xmlns:svg="http://www.w3.org/2000/svg"
   xmlns="http://www.w3.org/2000/svg"
   xmlns:sodipodi="http://sodipodi.sourceforge.net/DTD/sodipodi-0.dtd"
   xmlns:inkscape="http://www.inkscape.org/namespaces/inkscape"
   width="24"
   height="24"
   viewBox="0 0 24 24"
   version="1.1"
   id="svg4"
   sodipodi:docname="sound-settings.svg"
   inkscape:version="0.92.4 (5da689c313, 2019-01-14)">
  <metadata
     id="metadata10">
    <rdf:RDF>
      <cc:Work
         rdf:about="">
        <dc:format>image/svg+xml</dc:format>
        <dc:type
           rdf:resource="http://purl.org/dc/dcmitype/StillImage" />
        <dc:title></dc:title>
      </cc:Work>
    </rdf:RDF>
  </metadata>
  <defs
     id="defs8" />
  <sodipodi:namedview
     pagecolor="#ffffff"
     bordercolor="#666666"
     borderopacity="1"
     objecttolerance="10"
     gridtolerance="10"
     guidetolerance="10"
     inkscape:pageopacity="0"
     inkscape:pageshadow="2"
     inkscape:window-width="2444"
     inkscape:window-height="1535"
     id="namedview6"
     showgrid="false"
     inkscape:zoom="9.8333333"
     inkscape:cx="-43.067797"
     inkscape:cy="12"
     inkscape:window-x="73"
     inkscape:window-y="291"
     inkscape:window-maximized="0"
     inkscape:current-layer="svg4" />
  <path
     d="M 16.474576,4.8367118 V 3.5022712 C 15.673627,3.2685762 15.458102,3.2575932 15.345865,3.0357966 15.232882,2.8133898 15.376814,2.6791525 15.740746,2.0525084 L 14.587424,1.1088814 C 13.831967,1.4026779 13.659695,1.5250169 13.385255,1.4319661 13.11417,1.3398305 13.098882,1.1607458 12.815865,0.50847458 H 11.184509 C 10.899627,1.1625763 10.886204,1.3398305 10.614373,1.4319661 10.333967,1.5274576 10.165797,1.4014576 9.4125765,1.1088814 L 8.2592542,2.0525084 C 8.6235592,2.6794576 8.7671186,2.8130847 8.6541355,3.0361017 8.5415254,3.2578983 8.3256271,3.2691864 7.5254237,3.5022712 V 4.8370169 C 8.3230169,5.0688813 8.5415254,5.0810847 8.6541355,5.3031864 8.7674915,5.5271186 8.6239322,5.6592203 8.2592542,6.2864746 L 9.4125765,7.2301017 C 10.157966,6.9402712 10.333594,6.8112204 10.614373,6.907017 c 0.271458,0.092136 0.284882,0.2684745 0.570136,0.9234915 h 1.630983 c 0.282644,-0.6501356 0.297932,-0.8307458 0.573119,-0.9247119 0.277796,-0.093966 0.442237,0.030203 1.198813,0.324 L 15.740746,6.2861695 C 15.377187,5.6607458 15.232882,5.5258983 15.345865,5.3028813 15.457729,5.0813898 15.674,5.0701017 16.474576,4.8367118 Z M 14.65678,5.0697966 c -0.215153,0.4252881 -0.02536,0.7498983 0.181967,1.0915932 L 14.434542,6.4921017 C 14.026984,6.3264407 13.628747,6.1638305 13.102237,6.3426102 12.581695,6.5198644 12.43478,6.8591187 12.286374,7.220339 h -0.572 C 11.565967,6.8588136 11.419424,6.5195593 10.900374,6.3432203 10.371255,6.1638305 9.9655595,6.3294915 9.5658305,6.4921017 L 9.1619999,6.1613898 C 9.3696949,5.8203051 9.5594915,5.4963051 9.3435932,5.0691864 9.1276949,4.6448135 8.7130508,4.5249152 8.2711864,4.4034915 V 3.9357966 C 8.7130508,3.8143729 9.1276949,3.6944745 9.3432202,3.2694915 9.5587455,2.8442033 9.3685762,2.5192881 9.1612542,2.1775932 L 9.5654575,1.8468813 c 0.403458,0.1641356 0.8061695,0.3285763 1.3349165,0.1488814 0.51905,-0.1760339 0.665593,-0.5155932 0.814,-0.8771186 h 0.572 c 0.148406,0.3615254 0.295321,0.7007796 0.814373,0.8771186 0.529118,0.1793898 0.93444,0.013729 1.334542,-0.1488814 l 0.404203,0.3307119 c -0.207322,0.342 -0.397118,0.6672203 -0.181966,1.0922034 0.215153,0.4243729 0.629796,0.5442712 1.072034,0.666 v 0.468 c -0.442983,0.1214237 -0.858373,0.241322 -1.07278,0.666 z M 12,3.2542373 c 0.616747,0 1.118644,0.410644 1.118644,0.9152542 0,0.5046102 -0.501897,0.9152543 -1.118644,0.9152543 -0.616745,0 -1.118643,-0.4106441 -1.118643,-0.9152543 0,-0.5046102 0.501898,-0.9152542 1.118643,-0.9152542 z m 0,-0.6101695 c -1.029898,0 -1.864406,0.6827796 -1.864406,1.5254237 0,0.8426441 0.834508,1.5254237 1.864406,1.5254237 1.029899,0 1.864407,-0.6827796 1.864407,-1.5254237 0,-0.8426441 -0.834508,-1.5254237 -1.864407,-1.5254237 z"
     id="path2"
     inkscape:connector-curvature="0"
     style="stroke-width:1" />
  <path
     inkscape:connector-curvature="0"
     d="m 2.4979746,18.155663 c -0.734,0.670585 -1.084,1.551672 -1.1155,2.711826 H 0.50847457 c 0.0345,-1.608583 0.55000003,-2.870216 1.57650003,-3.76913 z M 10.177974,8.5254236 c -0.9259997,0 -1.5989997,0.662357 -2.0689997,1.7957704 l 1.7725,4.537766 c 1.6999997,0.152219 2.6269997,-1.474191 2.6269997,-3.136941 0,-1.7813724 -1.049,-3.1965954 -2.3305,-3.1965954 z m -7.4334994,7.3558714 0.7785,1.992557 5.2694997,-2.899699 -1.358,-3.476348 z m 2.3824998,2.587033 c 0.3165,0.42443 0.382,1.129985 0.382,1.753945 v 3.387897 h 0.9995 v -3.494862 c 0,-1.21775 0.331,-2.073466 0.8674999,-2.884614 z"
     id="path2-7"
     style="stroke-width:1" />
  <path
     inkscape:connector-curvature="0"
     d="m 21.217917,22.847551 c -0.137239,0 -0.272368,-0.05681 -0.373186,-0.163172 l -4.068102,-4.292057 h -1.892852 c -0.291371,0 -0.527846,-0.249492 -0.527846,-0.556903 v -5.569038 c 0,-0.307411 0.236475,-0.556903 0.527846,-0.556903 h 1.892852 l 4.068102,-4.2920571 c 0.150963,-0.1592746 0.377937,-0.2071683 0.575351,-0.1208482 0.197413,0.08632 0.32568,0.2890331 0.32568,0.5145789 V 22.290648 c 0,0.224989 -0.128794,0.428258 -0.32568,0.514579 -0.06546,0.0284 -0.134073,0.04233 -0.202165,0.04233 z"
     id="path4"
     style="stroke-width:1" />
</svg>
