<?xml version="1.0" encoding="UTF-8" standalone="no"?>
<svg
   xmlns:dc="http://purl.org/dc/elements/1.1/"
   xmlns:cc="http://creativecommons.org/ns#"
   xmlns:rdf="http://www.w3.org/1999/02/22-rdf-syntax-ns#"
   xmlns:svg="http://www.w3.org/2000/svg"
   xmlns="http://www.w3.org/2000/svg"
   xmlns:sodipodi="http://sodipodi.sourceforge.net/DTD/sodipodi-0.dtd"
   xmlns:inkscape="http://www.inkscape.org/namespaces/inkscape"
   width="24"
   height="24"
   viewBox="0 0 24 24"
   version="1.1"
   id="svg4"
   sodipodi:docname="sound-settings.svg"
   inkscape:version="0.92.4 (5da689c313, 2019-01-14)">
  <metadata
     id="metadata10">
    <rdf:RDF>
      <cc:Work
         rdf:about="">
        <dc:format>image/svg+xml</dc:format>
        <dc:type
           rdf:resource="http://purl.org/dc/dcmitype/StillImage" />
        <dc:title />
      </cc:Work>
    </rdf:RDF>
  </metadata>
  <defs
     id="defs8" />
  <sodipodi:namedview
     pagecolor="#ffffff"
     bordercolor="#666666"
     borderopacity="1"
     objecttolerance="10"
     gridtolerance="10"
     guidetolerance="10"
     inkscape:pageopacity="0"
     inkscape:pageshadow="2"
     inkscape:window-width="3344"
     inkscape:window-height="1568"
     id="namedview6"
     showgrid="false"
     inkscape:zoom="9.8333333"
     inkscape:cx="-78.915254"
     inkscape:cy="12"
     inkscape:window-x="73"
     inkscape:window-y="291"
     inkscape:window-maximized="0"
     inkscape:current-layer="svg4" />
  <path
     d="M 20.237288,5.5165042 V 3.941123 c -0.828255,-0.27589 -1.051127,-0.288856 -1.16719,-0.5506992 -0.116835,-0.2625636 0.032,-0.4210382 0.408343,-1.1608263 L 18.285801,1.1155933 C 17.50459,1.4624364 17.326445,1.6068644 17.042649,1.4970128 16.762322,1.3882415 16.746513,1.1768221 16.453848,0.40677966 H 14.766877 C 14.472283,1.1789831 14.458403,1.3882415 14.177305,1.4970128 13.88734,1.6097458 13.713437,1.4609958 12.934539,1.1155933 L 11.741898,2.2295975 C 12.118622,2.9697457 12.267076,3.1275 12.150242,3.390784 12.033793,3.6526271 11.810534,3.6659534 10.983051,3.941123 v 1.5757414 c 0.824784,0.2737289 1.050742,0.2881356 1.167191,0.550339 0.11722,0.2643644 -0.03123,0.4203178 -0.408344,1.1608264 l 1.192641,1.1140042 c 0.7708,-0.342161 0.952415,-0.4945127 1.242766,-0.3814194 0.280712,0.1087716 0.294594,0.316949 0.589572,1.090233 h 1.686585 c 0.29228,-0.7675212 0.308089,-0.9807416 0.592657,-1.0916738 0.287267,-0.1109321 0.457313,0.035656 1.239682,0.3825 l 1.19264,-1.1140042 C 19.102488,6.4893221 18.953263,6.3301272 19.070098,6.0668433 19.185775,5.8053602 19.409419,5.792034 20.237288,5.5165042 Z M 18.357521,5.7916738 C 18.135033,6.29375 18.331301,6.6769704 18.545692,7.0803602 L 18.127707,7.470784 C 17.706255,7.275212 17.294442,7.0832416 16.749982,7.294301 16.211695,7.5035594 16.059771,7.904068 15.906306,8.3305086 h -0.5915 C 15.16134,7.9037077 15.009801,7.5031992 14.473056,7.2950212 13.925899,7.0832416 13.506373,7.2788137 13.093017,7.470784 L 12.675419,7.0803602 C 12.890195,6.6776907 13.086462,6.2951908 12.863203,5.7909534 12.639945,5.2899577 12.211165,5.148411 11.754238,5.0050636 V 4.4529238 C 12.211165,4.3095764 12.639945,4.1680296 12.862817,3.6663135 13.085691,3.1642373 12.889037,2.7806568 12.674648,2.377267 l 0.417983,-0.3904239 c 0.417213,0.1937713 0.833652,0.3879027 1.380425,0.1757628 0.536745,-0.2078178 0.688284,-0.6086864 0.84175,-1.0354872 h 0.5915 c 0.153465,0.4268008 0.305389,0.8273093 0.842136,1.0354872 0.547156,0.2117797 0.966296,0.016208 1.380037,-0.1757628 l 0.417983,0.3904239 c -0.21439,0.40375 -0.410656,0.7876906 -0.188169,1.2894068 0.222487,0.5009958 0.651266,0.6425423 1.10858,0.78625 v 0.5525 c -0.458084,0.1433475 -0.887635,0.284894 -1.109352,0.78625 z M 15.610169,3.6483052 c 0.637773,0 1.15678,0.484788 1.15678,1.0805084 0,0.5957203 -0.519007,1.0805086 -1.15678,1.0805086 -0.63777,0 -1.156778,-0.4847883 -1.156778,-1.0805086 0,-0.5957204 0.519008,-1.0805084 1.156778,-1.0805084 z m 0,-0.720339 c -1.065008,0 -1.927965,0.8060592 -1.927965,1.8008474 0,0.9947882 0.862957,1.8008475 1.927965,1.8008475 1.065009,0 1.927967,-0.8060593 1.927967,-1.8008475 0,-0.9947882 -0.862958,-1.8008474 -1.927967,-1.8008474 z"
     id="path2"
     inkscape:connector-curvature="0"
     style="stroke-width:1" />
  <path
     inkscape:connector-curvature="0"
     d="m 2.4979746,18.155663 c -0.734,0.670585 -1.084,1.551672 -1.1155,2.711826 H 0.50847457 c 0.0345,-1.608583 0.55000003,-2.870216 1.57650003,-3.76913 z M 10.177974,8.5254236 c -0.9259997,0 -1.5989997,0.662357 -2.0689997,1.7957704 l 1.7725,4.537766 c 1.6999997,0.152219 2.6269997,-1.474191 2.6269997,-3.136941 0,-1.7813724 -1.049,-3.1965954 -2.3305,-3.1965954 z m -7.4334994,7.3558714 0.7785,1.992557 5.2694997,-2.899699 -1.358,-3.476348 z m 2.3824998,2.587033 c 0.3165,0.42443 0.382,1.129985 0.382,1.753945 v 3.387897 h 0.9995 v -3.494862 c 0,-1.21775 0.331,-2.073466 0.8674999,-2.884614 z"
     id="path2-7"
     style="stroke-width:1" />
  <path
     inkscape:connector-curvature="0"
     d="m 21.217917,22.847551 c -0.137239,0 -0.272368,-0.05681 -0.373186,-0.163172 l -4.068102,-4.292057 h -1.892852 c -0.291371,0 -0.527846,-0.249492 -0.527846,-0.556903 v -5.569038 c 0,-0.307411 0.236475,-0.556903 0.527846,-0.556903 h 1.892852 l 4.068102,-4.2920571 c 0.150963,-0.1592746 0.377937,-0.2071683 0.575351,-0.1208482 0.197413,0.08632 0.32568,0.2890331 0.32568,0.5145789 V 22.290648 c 0,0.224989 -0.128794,0.428258 -0.32568,0.514579 -0.06546,0.0284 -0.134073,0.04233 -0.202165,0.04233 z"
     id="path4"
     style="stroke-width:1" />
</svg>
