<?xml version="1.0" encoding="UTF-8" standalone="no"?>
<svg
   xmlns:dc="http://purl.org/dc/elements/1.1/"
   xmlns:cc="http://creativecommons.org/ns#"
   xmlns:rdf="http://www.w3.org/1999/02/22-rdf-syntax-ns#"
   xmlns:svg="http://www.w3.org/2000/svg"
   xmlns="http://www.w3.org/2000/svg"
   xmlns:sodipodi="http://sodipodi.sourceforge.net/DTD/sodipodi-0.dtd"
   xmlns:inkscape="http://www.inkscape.org/namespaces/inkscape"
   width="24"
   height="24"
   fill-rule="evenodd"
   clip-rule="evenodd"
   version="1.1"
   id="svg4"
   sodipodi:docname="storyboard-edit.svg"
   inkscape:version="0.92.4 (5da689c313, 2019-01-14)">
  <metadata
     id="metadata10">
    <rdf:RDF>
      <cc:Work
         rdf:about="">
        <dc:format>image/svg+xml</dc:format>
        <dc:type
           rdf:resource="http://purl.org/dc/dcmitype/StillImage" />
        <dc:title></dc:title>
      </cc:Work>
    </rdf:RDF>
  </metadata>
  <defs
     id="defs8" />
  <sodipodi:namedview
     pagecolor="#ffffff"
     bordercolor="#666666"
     borderopacity="1"
     objecttolerance="10"
     gridtolerance="10"
     guidetolerance="10"
     inkscape:pageopacity="0"
     inkscape:pageshadow="2"
     inkscape:window-width="2944"
     inkscape:window-height="1853"
     id="namedview6"
     showgrid="false"
     inkscape:zoom="55.625733"
     inkscape:cx="6.7415028"
     inkscape:cy="12.048168"
     inkscape:window-x="494"
     inkscape:window-y="78"
     inkscape:window-maximized="0"
     inkscape:current-layer="svg4" />
  <path
     inkscape:connector-curvature="0"
     d="m 19.236713,12.187797 c -0.61145,1.085494 -1.565288,2.19171 -2.755902,2.14669 -0.277809,0.504516 -0.573108,1.198403 -0.900695,2.003053 l -0.882535,0.395181 c 0.629613,-1.674333 1.500712,-3.545183 2.48751,-4.997987 -0.450685,0.378029 -1.174471,1.169818 -1.79063,1.988762 -0.738584,-1.306309 -0.201799,-2.637628 0.654499,-3.700969 0.01413,0.458065 0.241488,0.854674 0.404273,1.054051 -0.05852,-0.378744 -0.07669,-1.064055 0.131169,-1.6800496 0.482971,-0.523095 0.917512,-0.9082699 1.421337,-1.2577147 -0.05581,0.341584 0.05381,0.7331906 0.176238,0.9725849 0.01614,-0.3501591 0.150678,-1.021893 0.350457,-1.3148833 0.621541,-0.5195217 1.568653,-0.9811602 2.618008,-1.0683427 -0.05447,0.6953161 -0.293281,1.8401222 -0.688808,2.5754564 -0.346422,0.2887027 -0.821321,0.4859351 -1.20474,0.5952706 0.331623,0.063601 0.693516,0.055025 1.004959,-7.147e-4 -0.180946,0.5309561 -0.37131,1.0204641 -0.671318,1.6264541 -0.45674,0.334437 -1.061464,0.523095 -1.481878,0.589553 0.309426,0.133632 0.855628,0.17508 1.128056,0.07361 z m -9.3103342,2.719094 0.4338682,0.55811 3.210624,-1.994477 -0.449342,-0.548822 z m 4.6817372,-0.170078 -0.449339,-0.548106 -3.232146,2.006627 0.433867,0.558109 z m 3.147392,0.0051 c -0.283191,0.145058 -0.572437,0.243673 -0.865046,0.284407 -0.08071,0.165074 -0.165474,0.353017 -0.253592,0.552393 l 0.200453,0.244396 c 0.41907,0.494511 0.308752,1.217697 -0.252921,1.600013 -0.519968,0.355162 -3.592696,2.412526 -4.295629,2.883455 -0.04979,-0.51523 -0.240814,-0.994021 -0.55562,-1.392059 -0.31548,-0.39813 -4.1133364,-5.271059 -5.0604475,-6.558787 -0.3154793,-0.428766 -0.3867823,-0.88969 -0.1984372,-1.297733 0.1802747,-0.392322 0.5663836,-0.656013 0.9619103,-0.656013 0.6181772,0 0.9471098,0.46807 1.0419548,0.868253 0.1076286,0.458065 -0.023541,0.879685 -0.4190694,1.204118 l 0.8939713,1.160528 5.2440837,-3.177159 C 15.153645,9.7066693 15.422712,8.320325 14.822697,7.2326876 14.40699,6.4802026 13.63948,6.013562 12.819505,6.013562 c -0.799125,0 -0.533423,-0.011437 -6.434027,3.1978822 -0.8300667,0.4223347 -1.3789606,1.2770088 -1.3789606,2.2881828 0,0.621712 0.2071804,1.254856 0.5979982,1.777237 0.9598907,1.282011 5.0860094,6.563697 5.1230064,6.615151 0.249557,0.352303 0.287227,0.799648 0.10091,1.195543 -0.18633,0.396608 -0.546205,0.633145 -0.9612382,0.633145 -0.618176,0 -0.9471098,-0.468071 -1.0419548,-0.868967 -0.1049359,-0.449488 0.00797,-0.863248 0.4062883,-1.181965 L 8.3725308,18.565697 c -0.5529281,0.475215 -0.8589913,1.069056 -0.9262572,1.74508 -0.1560577,1.575714 1.0258104,2.853439 2.4303332,2.853439 0.4009062,0 0.8818622,-0.126492 1.2383722,-0.364451 l 6.341199,-4.249075 c 0.643739,-0.474503 1.003614,-1.272722 1.003614,-2.070228 0,-0.532384 -0.161437,-1.039043 -0.462792,-1.431364 z M 12.41927,7.5513999 c 0.126451,-0.062171 0.26772,-0.095758 0.409652,-0.095758 0.357856,0 0.670646,0.2008055 0.836122,0.5373871 0.209869,0.425908 0.152021,1.0497629 -0.368623,1.3663354 L 9.8678568,11.423164 C 9.8335508,10.644953 9.4783848,9.9360589 8.8891326,9.4708475 Z m 1.410575,9.5636331 0.242832,-0.646723 0.167494,-0.435197 -2.320018,1.441369 0.433868,0.558111 z"
     id="path2-5"
     style="stroke-width:0.53318745" />
  <path
     inkscape:connector-curvature="0"
     d="M 1.2088319,6.8138341 0.58360381,9.4829956 3.6806336,8.9448189 11.011749,2.6260184 8.5395116,0.4950336 Z m 2.0429627,1.44113 -1.556336,0.2711481 0.313266,-1.3422582 z M 9.7825816,2.6252693 3.8661596,7.7254013 2.6235246,6.6539166 7.3268566,2.5994279 8.5634086,3.6652948 9.1777746,3.1357319 7.9412226,2.069865 8.5395116,1.5541592 Z"
     id="path2-8"
     style="stroke-width:0.99999994" />
</svg>
