<?xml version="1.0" encoding="UTF-8" standalone="no"?>
<svg
   xmlns:dc="http://purl.org/dc/elements/1.1/"
   xmlns:cc="http://creativecommons.org/ns#"
   xmlns:rdf="http://www.w3.org/1999/02/22-rdf-syntax-ns#"
   xmlns:svg="http://www.w3.org/2000/svg"
   xmlns="http://www.w3.org/2000/svg"
   xmlns:sodipodi="http://sodipodi.sourceforge.net/DTD/sodipodi-0.dtd"
   xmlns:inkscape="http://www.inkscape.org/namespaces/inkscape"
   width="24"
   height="24"
   fill-rule="evenodd"
   clip-rule="evenodd"
   version="1.1"
   id="svg4"
   sodipodi:docname="video-chat.svg"
   inkscape:version="0.92.4 (5da689c313, 2019-01-14)">
  <metadata
     id="metadata10">
    <rdf:RDF>
      <cc:Work
         rdf:about="">
        <dc:format>image/svg+xml</dc:format>
        <dc:type
           rdf:resource="http://purl.org/dc/dcmitype/StillImage" />
        <dc:title />
      </cc:Work>
    </rdf:RDF>
  </metadata>
  <defs
     id="defs8" />
  <sodipodi:namedview
     pagecolor="#ffffff"
     bordercolor="#666666"
     borderopacity="1"
     objecttolerance="10"
     gridtolerance="10"
     guidetolerance="10"
     inkscape:pageopacity="0"
     inkscape:pageshadow="2"
     inkscape:window-width="3111"
     inkscape:window-height="1840"
     id="namedview6"
     showgrid="false"
     inkscape:zoom="55.625733"
     inkscape:cx="6.3098324"
     inkscape:cy="12.097239"
     inkscape:window-x="388"
     inkscape:window-y="48"
     inkscape:window-maximized="0"
     inkscape:current-layer="svg4" />
  <path
     d="m 22.171745,4.1216876 c 7.21e-4,6.535e-4 0.0023,0.00128 0.003,0.00264 V 19.804789 c -7.19e-4,6.53e-4 -0.0013,0.002 -0.003,0.0027 H 2.0069917 c -7.206e-4,-6.53e-4 -0.00216,-0.0013 -0.00293,-0.0027 V 4.1243018 c 7.207e-4,-6.536e-4 0.0014,-0.00192 0.00293,-0.00264 z m 0.003,-1.3070858 H 2.004831 c -0.7923858,0 -1.44069997,0.5881882 -1.44069997,1.3070858 V 19.80672 c 0,0.718897 0.64831417,1.307086 1.44069997,1.307086 h 20.169795 c 0.792385,0 1.440701,-0.588189 1.440701,-1.307086 V 4.1216876 c 0,-0.7188976 -0.648316,-1.3070858 -1.440701,-1.3070858 z"
     id="path4"
     inkscape:connector-curvature="0"
     style="stroke-width:0.54642332" />
  <path
     inkscape:connector-curvature="0"
     d="m 20.153032,16.109666 c -1.465079,-0.421525 -2.82919,-0.791024 -2.168434,-2.345465 0.170406,-0.401352 0.315253,-0.786246 0.437521,-1.156275 -0.368934,0.263322 -0.780892,0.467183 -1.004978,0.536729 l -0.09543,-0.565928 c 0.48907,-0.174131 1.017333,-0.498504 1.385413,-0.975772 0.78217,-3.3355734 -0.539765,-5.1002472 -2.312429,-5.1002472 -2.165027,0 -3.606248,2.6273675 -1.589902,7.2614932 0.680779,1.563468 -0.734882,1.932965 -2.168435,2.345465 -1.269109,0.365252 -1.353887,1.137694 -1.353887,2.475533 l 0.0022,0.658833 H 21.50486 l 0.0022,-0.658833 c 0,-1.337839 -0.08478,-2.110281 -1.353887,-2.475533 z m -3.754928,-2.535522 c -0.187875,0.04832 -0.371915,-0.102989 -0.410257,-0.337646 -0.03919,-0.234653 0.08222,-0.463996 0.270096,-0.512307 l 0.746811,-0.206516 0.14016,0.849423 z"
     id="path2-9"
     style="stroke-width:0.37873584" />
  <path
     inkscape:connector-curvature="0"
     d="m 10.911517,5.2555727 c 2.81e-4,2.895e-4 8.72e-4,5.798e-4 0.0011,0.00116 v 6.9448013 c -2.8e-4,2.9e-4 -5.61e-4,8.67e-4 -0.0011,10e-4 H 3.0609812 c -2.804e-4,-2.91e-4 -8.4e-4,-5.79e-4 -0.00109,-10e-4 V 5.2567287 c 2.802e-4,-2.895e-4 5.603e-4,-8.665e-4 0.00109,-0.00116 z m 0.0011,-0.5789022 H 3.0601063 c -0.308491,0 -0.5608927,0.2605061 -0.5608927,0.5789022 V 12.2024 c 0,0.318398 0.2524017,0.578904 0.5608927,0.578904 h 7.8524997 c 0.308525,0 0.560926,-0.260506 0.560926,-0.578904 V 5.2555727 c 0,-0.3183961 -0.252401,-0.5789022 -0.560893,-0.5789022 z"
     id="path4-2"
     style="stroke-width:0.22689927" />
  <path
     inkscape:connector-curvature="0"
     d="m 7.0187211,5.9340192 c -1.3433689,0 -2.4321704,0.9148824 -2.4321704,2.0431612 0,1.1285064 1.0888015,2.0431616 2.4321704,2.0431616 1.343369,0 2.4321703,-0.9148822 2.4321703,-2.0431616 0,-1.1282788 -1.0888013,-2.0431612 -2.4321703,-2.0431612 z m 0,2.9512336 c -0.5969629,0 -1.0809647,-0.4065897 -1.0809647,-0.9080724 0,-0.5014821 0.4840018,-0.9080717 1.0809647,-0.9080717 0.5969626,0 1.0809645,0.4065896 1.0809645,0.9080717 0,0.5014827 -0.4840019,0.9080724 -1.0809645,0.9080724 z M 7.5592036,7.9771804 c 0,0.2504007 -0.2421364,0.4540354 -0.5404825,0.4540354 -0.2980762,0 -0.5404823,-0.2036347 -0.5404823,-0.4540354 0,-0.2504008 0.2424061,-0.4540362 0.5404823,-0.4540362 0.2983461,0 0.5404825,0.2036354 0.5404825,0.4540362 z m 1.7825108,2.8379516 c 0.2715912,0.258801 -0.00274,0.607955 -0.391309,0.563233 -0.4850838,-0.05562 -0.8745009,-0.386385 -1.9314142,-0.386385 -1.0569131,0 -1.4463307,0.330992 -1.9314134,0.386385 -0.388877,0.04472 -0.6631719,-0.304658 -0.3913092,-0.563233 l 0.7550538,-0.719873 c 0.4558968,0.238821 0.9917849,0.379119 1.5673987,0.379119 0.5756132,0 1.1115016,-0.140524 1.5673987,-0.379347 z"
     id="path2-4"
     style="stroke-width:0.19725423" />
</svg>
