<?xml version="1.0" encoding="UTF-8" standalone="no"?>
<!-- Generated by IcoMoon.io -->

<svg
   xmlns:dc="http://purl.org/dc/elements/1.1/"
   xmlns:cc="http://creativecommons.org/ns#"
   xmlns:rdf="http://www.w3.org/1999/02/22-rdf-syntax-ns#"
   xmlns:svg="http://www.w3.org/2000/svg"
   xmlns="http://www.w3.org/2000/svg"
   xmlns:sodipodi="http://sodipodi.sourceforge.net/DTD/sodipodi-0.dtd"
   xmlns:inkscape="http://www.inkscape.org/namespaces/inkscape"
   version="1.1"
   width="32"
   height="32"
   viewBox="0 0 32 32"
   id="svg6"
   sodipodi:docname="call-list.svg"
   inkscape:version="0.92.4 (5da689c313, 2019-01-14)">
  <metadata
     id="metadata12">
    <rdf:RDF>
      <cc:Work
         rdf:about="">
        <dc:format>image/svg+xml</dc:format>
        <dc:type
           rdf:resource="http://purl.org/dc/dcmitype/StillImage" />
        <dc:title>phone</dc:title>
      </cc:Work>
    </rdf:RDF>
  </metadata>
  <defs
     id="defs10" />
  <sodipodi:namedview
     pagecolor="#ffffff"
     bordercolor="#666666"
     borderopacity="1"
     objecttolerance="10"
     gridtolerance="10"
     guidetolerance="10"
     inkscape:pageopacity="0"
     inkscape:pageshadow="2"
     inkscape:window-width="2249"
     inkscape:window-height="1166"
     id="namedview8"
     showgrid="false"
     inkscape:zoom="20.85965"
     inkscape:cx="16.196355"
     inkscape:cy="19.058004"
     inkscape:window-x="471"
     inkscape:window-y="520"
     inkscape:window-maximized="0"
     inkscape:current-layer="svg6" />
  <title
     id="title2">phone</title>
  <path
     d="m 17.915559,25.484272 c -1.606896,1.053995 -1.606896,2.10799 -3.213793,2.10799 -1.606896,0 -3.213792,-1.053995 -4.8206894,-2.10799 -1.6068966,-1.053995 -3.2137931,-2.10799 -3.2137931,-3.161985 0,-1.053995 1.6068965,-1.053995 3.2137931,-2.10799 1.6068974,-1.053995 -3.2137931,-4.21598 -4.8206897,-4.21598 -1.6068965,0 -4.82068969,3.161985 -4.82068969,3.161985 0,2.10799 3.30136899,6.381413 6.42758629,8.43196 3.1262172,2.050547 9.6413795,4.21598 12.8551725,4.21598 0,0 4.82069,-2.10799 4.82069,-3.161985 0,-1.053995 -4.82069,-4.21598 -6.427587,-3.161985 z"
     id="path4"
     inkscape:connector-curvature="0"
     style="stroke-width:0.65070367" />
  <path
     d="M 8.8541574,0.70865743 H 14.494362 V 4.7529833 H 8.8541574 Z M 17.314464,1.719739 h 14.10051 V 3.7419019 H 17.314464 Z M 8.8541574,6.7751467 H 14.494362 V 10.819473 H 8.8541574 Z m 8.4603066,1.0110814 h 14.10051 V 9.8083909 H 17.314464 Z M 8.8541574,12.841636 h 5.6402046 v 4.044325 H 8.8541574 Z m 8.4603066,1.011081 h 14.10051 v 2.022163 h -14.10051 z"
     id="path4-1"
     inkscape:connector-curvature="0"
     style="stroke-width:0.59700847" />
</svg>
