<?xml version="1.0" encoding="UTF-8" standalone="no"?>
<svg
   xmlns:dc="http://purl.org/dc/elements/1.1/"
   xmlns:cc="http://creativecommons.org/ns#"
   xmlns:rdf="http://www.w3.org/1999/02/22-rdf-syntax-ns#"
   xmlns:svg="http://www.w3.org/2000/svg"
   xmlns="http://www.w3.org/2000/svg"
   xmlns:sodipodi="http://sodipodi.sourceforge.net/DTD/sodipodi-0.dtd"
   xmlns:inkscape="http://www.inkscape.org/namespaces/inkscape"
   width="24"
   height="24"
   viewBox="0 0 24 24"
   version="1.1"
   id="svg4"
   sodipodi:docname="client-random-connect.svg"
   inkscape:version="0.92.4 (5da689c313, 2019-01-14)">
  <metadata
     id="metadata10">
    <rdf:RDF>
      <cc:Work
         rdf:about="">
        <dc:format>image/svg+xml</dc:format>
        <dc:type
           rdf:resource="http://purl.org/dc/dcmitype/StillImage" />
        <dc:title />
      </cc:Work>
    </rdf:RDF>
  </metadata>
  <defs
     id="defs8" />
  <sodipodi:namedview
     pagecolor="#ffffff"
     bordercolor="#666666"
     borderopacity="1"
     objecttolerance="10"
     gridtolerance="10"
     guidetolerance="10"
     inkscape:pageopacity="0"
     inkscape:pageshadow="2"
     inkscape:window-width="3290"
     inkscape:window-height="1546"
     id="namedview6"
     showgrid="false"
     inkscape:zoom="13.906433"
     inkscape:cx="-58.245793"
     inkscape:cy="23.801623"
     inkscape:window-x="646"
     inkscape:window-y="271"
     inkscape:window-maximized="0"
     inkscape:current-layer="svg4" />
  <path
     d="m 12.513862,10.746446 c -0.01555,-0.03356 0.151848,-0.05187 0.181594,-0.05187 0.03285,0.0045 -0.08702,0.229824 -0.181594,0.05187 z m -0.955476,-1.5619913 0.04796,-0.01575 c 0.02842,0.02797 -0.03195,0.0483 -0.02264,0.06914 0.03818,0.07883 0.0095,0.126103 0.0036,0.168811 -0.0062,0.04324 -0.04619,0.02441 -0.06616,0.04729 -0.02353,0.03356 0.114552,0.03811 0.11633,0.04323 0.0049,0.01677 -0.1665,0.04525 -0.134975,0.08695 0.04264,0.06916 0.36585,-0.09914 0.314349,-0.08949 0.0999,-0.05746 0.01289,-0.06356 -0.04308,-0.09662 -0.0191,-0.109316 -0.03507,-0.278128 -0.09457,-0.345753 l 0.03907,-0.05186 c -0.09146,-0.1520296 -0.159838,0.184064 -0.159838,0.184064 z m 5.775491,3.5088863 c 0,3.369571 -2.385587,6.10153 -5.327945,6.10153 -2.9428017,0 -5.3279454,-2.731959 -5.3279454,-6.10153 0,-3.3695713 2.3851437,-6.1015296 5.3279454,-6.1015296 2.942358,0 5.327945,2.7319583 5.327945,6.1015296 z M 13.644276,9.9623987 c -0.0025,-0.07424 -0.08435,-0.144403 -0.169606,-0.01575 -0.05994,0.08847 -0.04927,0.2232143 -0.0817,0.2832123 -0.0462,0.08898 0.251745,0.17237 0.251745,0.08848 0.01111,-0.140844 0.325007,-0.03203 0.386278,-0.01265 0.110109,0.03508 0.285488,-0.11492 0.09369,-0.193725 -0.157619,-0.0661 -0.240646,-0.1367753 -0.254855,-0.2659253 0,0 0.08347,-0.08948 0.04706,-0.0844 -0.09679,0.01373 -0.272613,0.3996513 -0.272613,0.200843 z m 2.795394,2.7309423 c 0,-0.526257 -0.0786,-1.057598 -0.158507,-1.338269 -0.02574,-0.08847 -0.08392,-0.158638 -0.159394,-0.192197 -0.113662,-0.05086 -0.593621,0.30355 -0.665994,0.129148 -0.04751,-0.116436 -0.143854,0.07424 -0.253964,0.0041 -0.05328,-0.03356 -0.201574,-0.261858 -0.268618,-0.233892 -0.137194,0.05642 0.210454,0.490154 0.30547,0.547104 0.08925,-0.07728 0.378284,-0.236436 0.440444,-0.01932 0.11899,0.408805 -0.327226,0.856759 -0.555439,1.092685 -0.34099,0.352871 -0.277054,-0.2283 -0.509263,-0.43321 -0.122097,-0.107297 -0.120767,-0.335584 -0.244197,-0.414395 -0.05507,-0.03559 -0.30769,-0.368634 -0.305469,-0.413378 l -0.0074,0.08441 c -0.04173,0.03609 -0.130534,-0.13627 -0.139858,-0.163218 0,0.149996 0.213118,0.388972 0.283712,0.508969 0.120323,0.205925 0.184703,0.505917 0.332109,0.67422 0.07904,0.09051 0.380949,0.464732 0.459535,0.456597 0.08569,-0.0087 0.356529,-0.232875 0.404481,-0.220164 0.285931,0.0773 -0.673097,1.629618 -0.764116,1.821817 -0.07503,0.161181 0.06127,0.559813 0.05017,0.750487 -0.01289,0.220163 -0.164278,0.29135 -0.307688,0.411345 -0.153624,0.128634 -0.117659,0.378802 -0.246862,0.470326 -0.229546,0.161691 -0.394712,0.687948 -0.720605,0.685404 -0.0959,-5.08e-4 -0.506154,0.183046 -0.559877,0.0036 -0.04175,-0.130164 -0.09767,-0.228806 -0.156731,-0.357447 -0.05772,-0.126102 -0.0065,-0.256773 -0.07681,-0.368126 -0.0484,-0.07728 -0.210898,-0.252706 -0.225549,-0.344228 -8.89e-4,-0.0788 0.05195,-0.318295 0.124319,-0.359991 0.101669,-0.05947 0.01952,-0.232873 0.0071,-0.333548 -0.02131,-0.179995 -0.118546,-0.328467 -0.235316,-0.432699 -0.172715,-0.152033 -0.08347,-0.273046 -0.04306,-0.49016 0,-0.103724 -0.05507,-0.239993 -0.17671,-0.199316 -0.250415,0.08339 -0.174491,-0.22372 -0.356974,-0.209993 -0.131422,0.01068 -0.238868,0.106269 -0.360968,0.14847 -0.153622,0.0529 -0.310797,-0.04169 -0.462643,-0.06357 -0.624702,-0.0905 -0.828494,-0.90811 -0.665548,-1.497926 0.01642,-0.09662 -0.05061,-0.275587 -0.02132,-0.350329 0.07015,-0.178978 0.213118,-0.379819 0.338325,-0.515579 0.07017,-0.07627 0.160283,-0.05695 0.242866,-0.116437 0.127427,-0.09203 0.129202,-0.281181 0.253964,-0.397109 0.1776,-0.165249 0.420021,-0.16169 0.651786,-0.197282 0.123431,-0.01881 0.593177,-0.135251 0.667326,-0.03051 0,0.01932 0.08481,0.307112 -0.0085,0.29084 0.192252,0.01173 0.466196,0.380838 0.648678,0.2944 0.09369,-0.04475 0.05949,-0.374227 0.251746,-0.21508 0.116326,0.0956 0.637577,0.138303 0.745912,0.03507 0.06661,-0.06304 0.103894,-0.472866 0.02308,-0.519137 0.05152,0.05848 -0.27128,0.06304 -0.301472,0.04983 -0.05328,-0.02236 -0.10301,0.05797 -0.188697,0.01265 0.05152,0.02798 -0.286822,-0.179995 -0.09678,-0.339142 -0.07947,0.06661 -0.153623,-0.01881 -0.239313,0.05441 -0.05904,0.05491 0.02753,0.09152 -0.05683,0.139319 -0.134087,0.07779 -0.235318,-0.266944 -0.285932,-0.306094 -0.05152,-0.03864 -0.450213,-0.3589733 -0.341878,-0.149995 l 0.350313,0.39914 c -0.01731,0.01265 -0.0919,-0.145418 -0.0919,-0.03 0.02353,-0.06864 0.0089,0.294399 -0.0462,0.176436 -0.02442,-0.04525 0.03997,-0.07067 0.0025,-0.136266 0,-0.04323 -0.101231,-0.08543 -0.120766,-0.114921 -0.05551,-0.07879 -0.202906,-0.252704 -0.282826,-0.294399 -0.02219,-0.01173 -0.339212,0.04425 -0.365853,0.05594 -0.03108,0.04983 -0.05772,0.102207 -0.07947,0.15813 -0.06571,0.02797 -0.127425,0.06406 -0.186033,0.108801 l -0.06971,0.179487 c -0.03019,0.03102 -0.339658,0.147963 -0.341434,0.152538 0.01289,-0.03812 -0.216227,-0.08695 -0.20113,-0.163214 0.01687,-0.0839 0.09457,-0.345755 0.07459,-0.441345 -0.02131,-0.10016 0.47685,0.144403 0.508818,-0.119496 0.01289,-0.1144073 0.02042,-0.2476223 -0.138972,-0.2669423 0.03019,0.0041 0.308578,-0.125087 0.354753,-0.183046 0.06482,-0.08544 0.213562,-0.224739 0.321453,-0.224739 0.126095,0 0.09902,-0.209995 0.157173,-0.312703 0.05817,0.02694 -0.03108,0.191181 0.03863,0.257787 -0.0045,-0.05236 0.197578,0.029 0.217113,0.01678 0.04619,-0.02745 0.303694,-0.01107 0.263734,-0.149488 -0.0444,-0.140843 0.02264,-0.09914 0.08036,-0.128633 -0.0098,0.0045 0.15096,-0.3147388 0.178486,-0.2099952 -0.01909,-0.1077861 -0.186922,0.037627 -0.245528,0.032033 -0.135419,-0.012262 -0.07814,-0.2643991 -0.02708,-0.338124 0.03952,-0.058471 -0.107887,-0.1301631 -0.109667,-0.018306 -0.0025,0.1672834 -0.138527,0.3188048 -0.107002,0.5410022 0.04796,0.335076 -0.326337,-0.08083 -0.359192,-0.05797 -0.124319,0.08644 -0.225995,-0.1088007 -0.161616,-0.2257568 0.06571,-0.1194826 0.224218,-0.1139046 0.289487,-0.2420264 0.04617,-0.090512 0.0999,-0.1957573 0.170937,-0.2644005 0.237538,-0.2282989 0.303248,-0.045759 0.539899,-0.020844 0.231323,0.024408 0.07814,0.063041 0.04617,0.1647419 -0.03064,0.096617 0.126984,0.1311786 0.181595,0.050328 0.03108,-0.046775 0.101679,-0.1642312 0.132311,-0.2511783 0.03952,-0.1128754 0.400041,-0.1001634 0.148294,-0.2725361 -0.165963,-0.11339 -0.889675,-0.3416859 -1.374518,-0.3416859 -0.104779,0 -0.178041,0.1337252 -0.257961,0.2094867 -0.158064,0.1499961 -0.562987,0.4443939 -0.788093,0.3549076 -0.230434,-0.091014 -0.723713,0.335582 -0.802744,0.338633 -0.02885,0.00211 0.0017,-0.3223639 0.158951,-0.3462609 -0.06792,0.011734 0.553662,-0.3594825 0.536791,-0.4367696 -0.02041,-0.091526 -1.2427447,0.4179555 -1.1881326,0.5201551 0.026192,0.046775 0.1327546,0.046775 -0.00703,0.1494891 C 9.822029,8.4669334 9.736789,8.8187938 9.6617524,8.8187938 9.437536,8.931183 9.4233273,8.5976263 9.1738025,9.0267677 l -0.3969321,0.183046 c -0.5896259,0.717438 -0.9976579,1.6260573 -1.1455083,2.6353503 -0.00577,0.04017 0.1482937,0.114921 0.1682742,0.142371 0.049728,0.06813 0.049728,0.362023 0.074149,0.458124 0.061272,0.243044 0.2126738,0.378293 0.3285565,0.599474 0.068376,0.131693 0.182038,0.464733 0.1460745,0.603037 0.047952,-0.09052 0.4750751,0.414395 0.5532182,0.519647 0.1838136,0.247618 0.3254497,0.54761 0.027081,0.792689 -0.096346,0.07933 0.1465181,0.574051 0.021314,0.695576 l -0.1602812,0.04729 c -0.1580634,0.111347 -0.086579,0.384397 0.00934,0.49931 0.8071841,0.966584 1.9446997,1.569618 3.2056457,1.569618 2.449522,0 4.43507,-2.273837 4.43507,-5.079016 z M 11.330614,9.4610547 c 0.05551,-0.02797 0.130091,-0.02694 0.138084,-0.111859 0.0065,-0.07526 0.01952,-0.02338 0.03551,-0.05085 0.01554,-0.02694 -0.02975,-0.07017 -0.04885,-0.07423 -0.0284,-0.0071 -0.04795,0.03507 -0.06616,0.0529 l -0.03195,0.0097 -0.03019,0.04424 0.0036,0.02441 -0.03863,0.05389 c -0.03773,0.04271 8.89e-4,0.07068 0.03863,0.05186 z"
     id="path2"
     inkscape:connector-curvature="0"
     style="stroke-width:0.47513604" />
  <path
     inkscape:connector-curvature="0"
     d="m 21.849916,9.1620727 c -0.322509,0.252318 -0.716953,0.401507 -1.142829,0.401507 -0.431523,0 -0.830741,-0.153007 -1.155639,-0.411425 h -0.01398 c -1.60817,0.336486 -1.652811,2.1759083 -1.652811,2.1759083 0,0 0.777349,1.682943 2.750125,1.76998 1.972856,0.08702 2.750125,-1.769621 2.750125,-1.769621 -0.0627,-1.6428183 -1.296088,-2.0906213 -1.535043,-2.1663493 z"
     id="path2-5"
     style="stroke-width:0.08322118" />
  <path
     inkscape:connector-curvature="0"
     d="m 20.707087,5.7013287 c -0.862412,0 -1.561619,0.7647974 -1.561619,1.7080969 0,0.9433025 0.699207,1.7080851 1.561619,1.7080851 0.862495,0 1.561623,-0.7647826 1.561623,-1.7080851 0,-0.9432995 -0.699128,-1.7080969 -1.561623,-1.7080969 z M 20.93825,8.6641409 H 20.502983 V 8.1880522 h 0.435267 z m 0.508946,-1.4978971 c -0.05428,0.093835 -0.170206,0.2214175 -0.347813,0.3829635 -0.0919,0.083628 -0.148961,0.1508136 -0.171163,0.2016631 -0.02212,0.050781 -0.03216,0.1416832 -0.03017,0.2727713 h -0.395076 c -10e-4,-0.062081 -0.0015,-0.099888 -0.0015,-0.1134696 0,-0.1400547 0.02125,-0.2553729 0.06351,-0.3457146 0.04233,-0.09038 0.127001,-0.1920014 0.254078,-0.3049763 0.12708,-0.1129816 0.20299,-0.186955 0.227738,-0.2220243 0.03811,-0.055305 0.0573,-0.1163045 0.0573,-0.1830333 0,-0.092648 -0.03383,-0.1719911 -0.101465,-0.2380446 -0.06764,-0.066011 -0.158754,-0.099189 -0.273413,-0.099189 -0.110519,0 -0.20291,0.034495 -0.277313,0.1033554 -0.07432,0.068978 -0.125491,0.1739821 -0.153329,0.3151602 l -0.399718,-0.054222 c 0.0114,-0.2021866 0.09009,-0.3739125 0.236252,-0.5150853 0.146088,-0.1411809 0.337947,-0.2117602 0.575472,-0.2117602 0.24994,0 0.448712,0.071471 0.596479,0.21428 0.147614,0.1429094 0.221532,0.3092501 0.221532,0.4989821 0,0.1051356 -0.02723,0.2045417 -0.08133,0.2982841 z"
     id="path4-7"
     style="stroke-width:0.08322118" />
  <path
     inkscape:connector-curvature="0"
     d="m 4.8481231,9.2996367 c -0.3225095,0.252316 -0.7169535,0.401504 -1.142829,0.401504 -0.4315233,0 -0.8307418,-0.153006 -1.1556397,-0.411424 h -0.013972 c -1.60817109,0.336485 -1.65281133,2.1759083 -1.65281133,2.1759083 0,0 0.77734863,1.682945 2.75012443,1.769982 1.9728552,0.08701 2.7501256,-1.769624 2.7501256,-1.769624 C 6.3204171,9.8231657 5.0870329,9.3753627 4.8480778,9.2996367 Z"
     id="path2-5-3"
     style="stroke-width:0.08322118" />
  <path
     inkscape:connector-curvature="0"
     d="m 3.7052941,5.8388911 c -0.8624115,0 -1.5616197,0.7647974 -1.5616197,1.7080969 0,0.9433022 0.6992082,1.7080847 1.5616197,1.7080847 0.8624942,0 1.5616221,-0.7647825 1.5616221,-1.7080847 0,-0.9432995 -0.6991279,-1.7080969 -1.5616221,-1.7080969 z M 3.9364556,8.801703 H 3.5011898 V 8.3256152 H 3.9364556 Z M 4.4454035,7.3038061 C 4.3911255,7.3976411 4.2751963,7.5252238 4.0975901,7.6867699 4.0056831,7.7703979 3.9486291,7.8375833 3.926428,7.8884328 3.904302,7.9392148 3.894276,8.030116 3.896261,8.1612041 H 3.501184 c -0.00102,-0.062081 -0.00159,-0.099888 -0.00159,-0.1134698 0,-0.1400545 0.021241,-0.2553727 0.06351,-0.3457145 0.042338,-0.09038 0.1270022,-0.1920013 0.2540788,-0.3049762 0.1270811,-0.1129816 0.2029907,-0.186955 0.2277389,-0.2220244 0.038117,-0.055305 0.057294,-0.1163044 0.057294,-0.1830331 0,-0.092648 -0.033831,-0.1719911 -0.1014553,-0.2380446 -0.067638,-0.066011 -0.1587544,-0.099189 -0.2734138,-0.099189 -0.1105176,0 -0.20291,0.034495 -0.2773124,0.1033555 C 3.3757062,6.827086 3.3245434,6.93209 3.296706,7.0732683 L 2.8970097,7.0190463 c 0.011398,-0.2021866 0.090081,-0.3739125 0.2362513,-0.5150854 0.1460885,-0.1411808 0.3379468,-0.21176 0.5754728,-0.21176 0.2499387,0 0.4487116,0.071471 0.5964786,0.2142799 0.1476139,0.1429096 0.221532,0.3092501 0.221532,0.4989821 0,0.1051356 -0.027229,0.2045417 -0.081325,0.2982842 z"
     id="path4-7-0"
     style="stroke-width:0.08322118" />
</svg>
