<?xml version="1.0" encoding="UTF-8" standalone="no"?>
<svg
   xmlns:dc="http://purl.org/dc/elements/1.1/"
   xmlns:cc="http://creativecommons.org/ns#"
   xmlns:rdf="http://www.w3.org/1999/02/22-rdf-syntax-ns#"
   xmlns:svg="http://www.w3.org/2000/svg"
   xmlns="http://www.w3.org/2000/svg"
   xmlns:sodipodi="http://sodipodi.sourceforge.net/DTD/sodipodi-0.dtd"
   xmlns:inkscape="http://www.inkscape.org/namespaces/inkscape"
   width="24"
   height="24"
   viewBox="0 0 24 24"
   version="1.1"
   id="svg4"
   sodipodi:docname="client-random-connect.svg"
   inkscape:version="0.92.4 (5da689c313, 2019-01-14)">
  <metadata
     id="metadata10">
    <rdf:RDF>
      <cc:Work
         rdf:about="">
        <dc:format>image/svg+xml</dc:format>
        <dc:type
           rdf:resource="http://purl.org/dc/dcmitype/StillImage" />
        <dc:title />
      </cc:Work>
    </rdf:RDF>
  </metadata>
  <defs
     id="defs8" />
  <sodipodi:namedview
     pagecolor="#ffffff"
     bordercolor="#666666"
     borderopacity="1"
     objecttolerance="10"
     gridtolerance="10"
     guidetolerance="10"
     inkscape:pageopacity="0"
     inkscape:pageshadow="2"
     inkscape:window-width="4024"
     inkscape:window-height="1546"
     id="namedview6"
     showgrid="false"
     inkscape:zoom="13.906433"
     inkscape:cx="-83.593774"
     inkscape:cy="23.801623"
     inkscape:window-x="646"
     inkscape:window-y="271"
     inkscape:window-maximized="0"
     inkscape:current-layer="svg4" />
  <path
     d="m 13.039686,12.669771 c -0.02174,-0.04503 0.212306,-0.0696 0.253896,-0.0696 0.04593,0.006 -0.121667,0.308372 -0.253896,0.0696 z m -1.335899,-2.095845 0.06705,-0.02113 c 0.03974,0.03753 -0.04467,0.06481 -0.03165,0.09277 0.05338,0.105773 0.01328,0.169203 0.005,0.226507 -0.0087,0.05802 -0.06458,0.03275 -0.0925,0.06345 -0.0329,0.04503 0.160161,0.05114 0.162647,0.058 0.0069,0.0225 -0.232792,0.06072 -0.188716,0.116668 0.05962,0.0928 0.511514,-0.133024 0.439507,-0.120076 0.139676,-0.0771 0.01802,-0.08528 -0.06023,-0.129643 -0.0267,-0.146677 -0.04903,-0.373185 -0.132223,-0.463923 l 0.05463,-0.06959 c -0.127871,-0.203985 -0.223474,0.246978 -0.223474,0.246978 z m 8.075002,4.708145 c 0,4.521214 -3.335408,8.186896 -7.449266,8.186896 -4.1144774,0 -7.4492656,-3.665682 -7.4492656,-8.186896 0,-4.521215 3.3347882,-8.1868954 7.4492656,-8.1868954 4.113858,0 7.449266,3.6656804 7.449266,8.1868954 z m -5.158615,-3.664317 c -0.0035,-0.09961 -0.117934,-0.193757 -0.237135,-0.02113 -0.0838,0.118707 -0.06889,0.299504 -0.114228,0.380008 -0.0646,0.119391 0.351977,0.231282 0.351977,0.11872 0.01553,-0.188981 0.454408,-0.04298 0.540074,-0.01697 0.153949,0.04707 0.399155,-0.154197 0.130993,-0.259936 -0.220375,-0.08869 -0.336459,-0.183522 -0.356325,-0.356813 0,0 0.116703,-0.120062 0.0658,-0.113246 -0.135326,0.01842 -0.381153,0.536243 -0.381153,0.269487 z m 3.90838,3.664317 c 0,-0.70612 -0.109895,-1.419061 -0.221617,-1.79566 -0.03599,-0.118707 -0.117333,-0.212856 -0.222857,-0.257885 -0.158916,-0.06824 -0.829971,0.407296 -0.931159,0.173288 -0.06643,-0.156231 -0.201129,0.09961 -0.35508,0.0055 -0.07449,-0.04503 -0.28183,-0.351355 -0.375568,-0.313831 -0.191818,0.0757 0.294246,0.657678 0.427093,0.734092 0.124785,-0.103693 0.528898,-0.317245 0.615807,-0.02592 0.166365,0.548525 -0.457511,1.14958 -0.776587,1.46614 -0.476755,0.473474 -0.387363,-0.306328 -0.712026,-0.581272 -0.17071,-0.143968 -0.168851,-0.450279 -0.341424,-0.556025 -0.077,-0.04775 -0.430197,-0.494625 -0.427092,-0.554662 l -0.01035,0.11326 c -0.05835,0.04842 -0.182506,-0.182844 -0.195542,-0.219003 0,0.201262 0.29797,0.521914 0.396671,0.682924 0.16823,0.276305 0.258243,0.678828 0.464339,0.904653 0.110509,0.121444 0.532623,0.623567 0.642498,0.612651 0.119808,-0.01167 0.498481,-0.312466 0.565525,-0.295411 0.399775,0.10372 -0.94109,2.186585 -1.068348,2.444473 -0.104903,0.21627 0.08566,0.751145 0.07015,1.006987 -0.01802,0.29541 -0.229685,0.390927 -0.430194,0.551934 -0.214789,0.172598 -0.164505,0.508268 -0.34515,0.631072 -0.32094,0.216954 -0.551867,0.923074 -1.007514,0.91966 -0.134082,-6.82e-4 -0.707679,0.245607 -0.782792,0.0048 -0.05837,-0.174651 -0.136557,-0.307006 -0.219133,-0.479614 -0.0807,-0.169201 -0.0091,-0.344532 -0.107392,-0.493943 -0.06767,-0.103693 -0.294867,-0.339075 -0.315351,-0.461877 -0.0012,-0.105733 0.07263,-0.427082 0.173816,-0.483028 0.142149,-0.0798 0.02729,-0.312464 0.0099,-0.447548 -0.02979,-0.241513 -0.165745,-0.440729 -0.329007,-0.580585 -0.241481,-0.203995 -0.116703,-0.366367 -0.0602,-0.657686 0,-0.139175 -0.077,-0.322017 -0.247068,-0.267438 -0.350117,0.111891 -0.243964,-0.300182 -0.499103,-0.281764 -0.183747,0.01433 -0.333973,0.14259 -0.504687,0.199214 -0.214787,0.07098 -0.434541,-0.05594 -0.646844,-0.0853 -0.8734274,-0.121431 -1.1583591,-1.218481 -0.9305362,-2.009883 0.022958,-0.129643 -0.07076,-0.369777 -0.029809,-0.470064 0.09808,-0.240148 0.2979712,-0.509632 0.4730292,-0.691792 0.09811,-0.102337 0.2241,-0.07641 0.339563,-0.156233 0.178162,-0.123483 0.180644,-0.377282 0.35508,-0.532832 0.248311,-0.221727 0.587252,-0.216952 0.911294,-0.264708 0.172575,-0.02524 0.829351,-0.181477 0.933023,-0.04094 0,0.02592 0.118577,0.412076 -0.01188,0.390243 0.268797,0.01574 0.651812,0.511 0.906949,0.395019 0.130993,-0.06004 0.08318,-0.502129 0.351979,-0.288589 0.162641,0.128274 0.891428,0.185572 1.042897,0.04706 0.09313,-0.08459 0.145259,-0.634481 0.03227,-0.696567 0.07203,0.07847 -0.37929,0.08459 -0.421503,0.06686 -0.07449,-0.03 -0.144023,0.07778 -0.263827,0.01697 0.07203,0.03754 -0.40102,-0.241514 -0.135313,-0.455053 -0.111111,0.08937 -0.214788,-0.02524 -0.334595,0.07301 -0.08255,0.07368 0.03849,0.122799 -0.07946,0.186935 -0.187474,0.104377 -0.32901,-0.35818 -0.399776,-0.41071 -0.07203,-0.05185 -0.629465,-0.481663 -0.477996,-0.20126 l 0.48979,0.535557 c -0.0242,0.01697 -0.12849,-0.195119 -0.12849,-0.04025 0.0329,-0.0921 0.01244,0.395018 -0.06459,0.236737 -0.03414,-0.06072 0.05588,-0.09482 0.0035,-0.182838 0,-0.058 -0.141536,-0.114628 -0.168849,-0.154199 -0.07761,-0.105718 -0.283693,-0.339072 -0.395433,-0.395018 -0.03102,-0.01574 -0.47427,0.05937 -0.511518,0.07506 -0.04345,0.06686 -0.0807,0.137139 -0.111111,0.212176 -0.09187,0.03753 -0.17816,0.08595 -0.260102,0.145986 l -0.09746,0.240832 c -0.04221,0.04162 -0.474893,0.198533 -0.477376,0.204672 0.01802,-0.05115 -0.302318,-0.116667 -0.28121,-0.218997 0.02359,-0.112575 0.132223,-0.463926 0.104288,-0.592187 -0.0298,-0.134392 0.666707,0.193757 0.711404,-0.160337 0.01802,-0.153509 0.02855,-0.332254 -0.194304,-0.358177 0.04221,0.0055 0.431438,-0.167839 0.495998,-0.245607 0.09063,-0.114641 0.298591,-0.30155 0.44944,-0.30155 0.1763,0 0.138445,-0.281766 0.219751,-0.419577 0.08133,0.03615 -0.04345,0.256522 0.05401,0.345892 -0.0063,-0.07025 0.276243,0.03891 0.303556,0.02252 0.06458,-0.03683 0.42461,-0.01485 0.36874,-0.200579 -0.06208,-0.18898 0.03165,-0.133024 0.112355,-0.172597 -0.0137,0.006 0.211065,-0.422309 0.24955,-0.281767 -0.02669,-0.144625 -0.261344,0.05049 -0.343284,0.04298 -0.189337,-0.01645 -0.109252,-0.3547644 -0.03786,-0.4536868 0.05525,-0.078455 -0.150843,-0.17465 -0.153331,-0.024563 -0.0035,0.2244571 -0.193682,0.4277648 -0.149605,0.7259048 0.06705,0.449597 -0.456268,-0.108456 -0.502204,-0.07778 -0.173817,0.115983 -0.315976,-0.145987 -0.225964,-0.302916 0.09187,-0.1603186 0.313491,-0.1528342 0.404747,-0.3247452 0.06455,-0.1214469 0.139675,-0.2626627 0.238995,-0.3547666 0.332114,-0.3063263 0.423986,-0.061398 0.75486,-0.027968 0.323424,0.03275 0.109251,0.084587 0.06455,0.221047 -0.04284,0.1296385 0.177543,0.1760125 0.253897,0.067529 0.04346,-0.062762 0.142163,-0.2203617 0.184991,-0.3370254 C 14.440643,9.1500392 14.9447,9.1670958 14.59272,8.93581 14.360679,8.7836659 13.348821,8.4773436 12.670938,8.4773436 c -0.146497,0 -0.248929,0.1794294 -0.360669,0.2810845 -0.220986,0.2012829 -0.787129,0.5962993 -1.10186,0.4762286 -0.322182,-0.1221206 -1.01186,0.4502763 -1.122357,0.4543701 -0.04034,0.00283 0.0024,-0.4325406 0.222237,-0.4646051 -0.09496,0.015744 0.774103,-0.4823455 0.750515,-0.5860476 -0.02854,-0.1228076 -1.7375436,0.5608033 -1.6611877,0.6979324 0.03662,0.062762 0.1856108,0.062762 -0.00983,0.2005811 C 9.2760997,9.6111722 9.1569214,10.083291 9.052009,10.083291 8.7385209,10.234092 8.718655,9.786533 8.3697819,10.362345 l -0.5549705,0.245607 c -0.8243853,0.962642 -1.3948752,2.181807 -1.6015922,3.536054 -0.00807,0.0539 0.2073368,0.154198 0.2352725,0.19103 0.069527,0.09142 0.069527,0.485754 0.1036714,0.614701 0.085667,0.326111 0.2973499,0.507585 0.4593712,0.80436 0.0956,0.176703 0.2545164,0.623569 0.2042341,0.809142 0.067044,-0.121458 0.6642261,0.556026 0.7734819,0.697251 0.256999,0.332248 0.4550274,0.73477 0.037863,1.063612 -0.1347061,0.106443 0.2048543,0.770249 0.0298,0.933308 l -0.2240972,0.06345 c -0.2209963,0.149403 -0.1210504,0.515775 0.013059,0.669963 1.1285643,1.29694 2.7189819,2.106078 4.4819729,2.106078 3.424799,0 6.200893,-3.050984 6.200893,-6.81491 z m -7.143226,-4.337009 c 0.07761,-0.03753 0.181886,-0.03615 0.193062,-0.15009 0.0091,-0.100982 0.02729,-0.03137 0.04965,-0.06823 0.02173,-0.03615 -0.0416,-0.09415 -0.0683,-0.0996 -0.03971,-0.0095 -0.06704,0.04706 -0.0925,0.07098 l -0.04467,0.01301 -0.04221,0.05936 0.005,0.03275 -0.05401,0.07231 c -0.05275,0.05731 0.0012,0.09484 0.05401,0.06958 z"
     id="path2"
     inkscape:connector-curvature="0"
     style="stroke-width:0.65078133" />
  <path
     inkscape:connector-curvature="0"
     d="m 21.562279,5.9261602 c -0.322509,0.252318 -0.716953,0.401507 -1.142829,0.401507 -0.431523,0 -0.830741,-0.153007 -1.155639,-0.411425 h -0.01398 c -1.60817,0.336486 -1.652811,2.1759083 -1.652811,2.1759083 0,0 0.777349,1.6829433 2.750125,1.7699803 1.972856,0.08702 2.750125,-1.7696213 2.750125,-1.7696213 -0.0627,-1.6428183 -1.296088,-2.0906213 -1.535043,-2.1663493 z"
     id="path2-5"
     style="stroke-width:0.08322118" />
  <path
     inkscape:connector-curvature="0"
     d="m 20.41945,2.4654162 c -0.862412,0 -1.561619,0.7647974 -1.561619,1.7080969 0,0.9433025 0.699207,1.7080851 1.561619,1.7080851 0.862495,0 1.561623,-0.7647826 1.561623,-1.7080851 0,-0.9432995 -0.699128,-1.7080969 -1.561623,-1.7080969 z m 0.231163,2.9628122 H 20.215346 V 4.9521397 h 0.435267 z m 0.508946,-1.4978971 c -0.05428,0.093835 -0.170206,0.2214175 -0.347813,0.3829635 -0.0919,0.083628 -0.148961,0.1508136 -0.171163,0.2016631 -0.02212,0.050781 -0.03216,0.1416832 -0.03017,0.2727713 h -0.395076 c -0.001,-0.062081 -0.0015,-0.099888 -0.0015,-0.1134696 0,-0.1400547 0.02125,-0.2553729 0.06351,-0.3457146 0.04233,-0.09038 0.127001,-0.1920014 0.254078,-0.3049763 0.12708,-0.1129816 0.20299,-0.186955 0.227738,-0.2220243 0.03811,-0.055305 0.0573,-0.1163045 0.0573,-0.1830333 0,-0.092648 -0.03383,-0.1719911 -0.101465,-0.2380446 -0.06764,-0.066011 -0.158754,-0.099189 -0.273413,-0.099189 -0.110519,0 -0.20291,0.034495 -0.277313,0.1033554 -0.07432,0.068978 -0.125491,0.1739821 -0.153329,0.3151602 l -0.399718,-0.054222 c 0.0114,-0.2021866 0.09009,-0.3739125 0.236252,-0.5150853 0.146088,-0.1411809 0.337947,-0.2117602 0.575472,-0.2117602 0.24994,0 0.448712,0.071471 0.596479,0.21428 0.147614,0.1429094 0.221532,0.3092501 0.221532,0.4989821 0,0.1051356 -0.02723,0.2045417 -0.08133,0.2982841 z"
     id="path4-7"
     style="stroke-width:0.08322118" />
  <path
     inkscape:connector-curvature="0"
     d="m 5.2076689,6.1356334 c -0.3225095,0.252316 -0.7169535,0.401504 -1.142829,0.401504 -0.4315233,0 -0.8307418,-0.153006 -1.1556397,-0.411424 h -0.013972 c -1.6081711,0.336485 -1.6528113,2.1759083 -1.6528113,2.1759083 0,0 0.7773486,1.682945 2.7501244,1.7699823 C 5.9653965,10.158614 6.7426669,8.3019797 6.7426669,8.3019797 6.6799629,6.6591624 5.4465787,6.2113594 5.2076236,6.1356334 Z"
     id="path2-5-3"
     style="stroke-width:0.08322118" />
  <path
     inkscape:connector-curvature="0"
     d="m 4.0648399,2.6748878 c -0.8624115,0 -1.5616197,0.7647974 -1.5616197,1.7080969 0,0.9433022 0.6992082,1.7080847 1.5616197,1.7080847 0.8624942,0 1.5616221,-0.7647825 1.5616221,-1.7080847 0,-0.9432995 -0.6991279,-1.7080969 -1.5616221,-1.7080969 z M 4.2960014,5.6376997 H 3.8607356 V 5.1616119 H 4.2960014 Z M 4.8049493,4.1398028 C 4.7506713,4.2336378 4.6347421,4.3612205 4.4571359,4.5227666 4.3652289,4.6063946 4.3081749,4.67358 4.2859738,4.7244295 4.2638478,4.7752115 4.2538218,4.8661127 4.2558068,4.9972008 h -0.395077 c -0.00102,-0.062081 -0.00159,-0.099888 -0.00159,-0.1134698 0,-0.1400545 0.021241,-0.2553727 0.06351,-0.3457145 0.042338,-0.09038 0.1270022,-0.1920013 0.2540788,-0.3049762 0.1270811,-0.1129816 0.2029907,-0.186955 0.2277389,-0.2220244 0.038117,-0.055305 0.057294,-0.1163044 0.057294,-0.1830331 0,-0.092648 -0.033831,-0.1719911 -0.1014553,-0.2380446 -0.067638,-0.066011 -0.1587544,-0.099189 -0.2734138,-0.099189 -0.1105176,0 -0.20291,0.034495 -0.2773124,0.1033555 C 3.735252,3.6630827 3.6840892,3.7680867 3.6562518,3.909265 L 3.2565555,3.855043 c 0.011398,-0.2021866 0.090081,-0.3739125 0.2362513,-0.5150854 0.1460885,-0.1411808 0.3379468,-0.21176 0.5754728,-0.21176 0.2499387,0 0.4487116,0.071471 0.5964786,0.2142799 0.1476139,0.1429096 0.221532,0.3092501 0.221532,0.4989821 0,0.1051356 -0.027229,0.2045417 -0.081325,0.2982842 z"
     id="path4-7-0"
     style="stroke-width:0.08322118" />
</svg>
