<?xml version="1.0" encoding="UTF-8" standalone="no"?>
<!-- Generated by IcoMoon.io -->

<svg
   xmlns:dc="http://purl.org/dc/elements/1.1/"
   xmlns:cc="http://creativecommons.org/ns#"
   xmlns:rdf="http://www.w3.org/1999/02/22-rdf-syntax-ns#"
   xmlns:svg="http://www.w3.org/2000/svg"
   xmlns="http://www.w3.org/2000/svg"
   xmlns:sodipodi="http://sodipodi.sourceforge.net/DTD/sodipodi-0.dtd"
   xmlns:inkscape="http://www.inkscape.org/namespaces/inkscape"
   version="1.1"
   width="32"
   height="32"
   viewBox="0 0 32 32"
   id="svg6"
   sodipodi:docname="direct-connected.svg"
   inkscape:version="0.92.4 (5da689c313, 2019-01-14)">
  <metadata
     id="metadata12">
    <rdf:RDF>
      <cc:Work
         rdf:about="">
        <dc:format>image/svg+xml</dc:format>
        <dc:type
           rdf:resource="http://purl.org/dc/dcmitype/StillImage" />
        <dc:title>arrow-right2</dc:title>
      </cc:Work>
    </rdf:RDF>
  </metadata>
  <defs
     id="defs10" />
  <sodipodi:namedview
     pagecolor="#ffffff"
     bordercolor="#666666"
     borderopacity="1"
     objecttolerance="10"
     gridtolerance="10"
     guidetolerance="10"
     inkscape:pageopacity="0"
     inkscape:pageshadow="2"
     inkscape:window-width="3091"
     inkscape:window-height="1314"
     id="namedview8"
     showgrid="false"
     inkscape:zoom="7.375"
     inkscape:cx="-31.79661"
     inkscape:cy="16"
     inkscape:window-x="563"
     inkscape:window-y="112"
     inkscape:window-maximized="0"
     inkscape:current-layer="svg6" />
  <title
     id="title2">arrow-right2</title>
  <path
     id="path2-1"
     d="m 9.0852696,9.2647483 c -1.3653568,0 -2.5086717,0.6459887 -3.1363114,1.7715087 -0.9115245,1.635716 -0.6538003,4.034906 0.7279727,6.753883 0.1940855,0.384449 0.1250112,0.547333 0.1018458,0.599898 -0.2191919,0.517409 -1.5556706,0.84298 -2.5309263,1.079011 -2.5781506,0.626664 -2.419747,2.033129 -2.4158844,3.367882 v 1.179664 h 0.022629 0.5884123 0.3602127 v -1.175637 c -0.00671,-1.939772 0.3039685,-2.036529 1.6577391,-2.367383 1.3663225,-0.330853 2.781407,-0.672449 3.1985472,-1.656766 0.1931186,-0.452475 0.1470859,-0.964376 -0.1339083,-1.517859 -1.2127937,-2.388125 -1.4777899,-4.424218 -0.746831,-5.735266 0.4567266,-0.817341 1.2752387,-1.268239 2.3064983,-1.268239 1.0235341,0 1.8366611,0.443182 2.2895271,1.246096 0.729992,1.294556 0.469463,3.340325 -0.731743,5.761434 -0.274231,0.555547 -0.316674,1.066416 -0.122594,1.517861 0.420999,0.980194 1.78055,1.310355 3.219293,1.660792 1.361494,0.331884 1.62963,0.448321 1.621904,2.363356 l 0.0112,1.201807 c 0.505811,-0.0015 0.513671,-0.0085 0.967641,-0.008 l -0.01886,-1.181678 c -0.03374,-1.075064 0.307908,-2.729638 -2.366803,-3.380007 -1.038982,-0.252522 -2.332389,-0.56764 -2.555441,-1.08505 -0.02318,-0.0536 -0.09312,-0.218396 0.09807,-0.605938 1.366316,-2.752988 1.615894,-5.157879 0.705335,-6.774011 C 11.576125,9.903075 10.440081,9.2647503 9.0853452,9.2647503 Z"
     inkscape:connector-curvature="0"
     sodipodi:nodetypes="sccccccccccccccsccccccccccccss"
     style="stroke-width:0.99761713" />
  <path
     id="path2-1-2"
     d="m 23.593797,9.286945 c -1.365357,0 -2.508672,0.645988 -3.136312,1.771508 -0.911524,1.635716 -0.6538,4.034906 0.727973,6.753883 0.194085,0.384449 0.125011,0.547333 0.101846,0.599898 -0.219192,0.517409 -1.555671,0.84298 -2.530927,1.079011 -2.57815,0.626664 -2.419747,2.033129 -2.415884,3.367882 v 1.179664 h 0.02263 0.588412 0.360213 v -1.175637 c -0.0067,-1.939772 0.303968,-2.036529 1.657739,-2.367383 1.366322,-0.330853 2.781407,-0.672449 3.198547,-1.656766 0.193119,-0.452475 0.147086,-0.964376 -0.133908,-1.517859 -1.212794,-2.388125 -1.47779,-4.424218 -0.746831,-5.735266 0.456726,-0.817341 1.275238,-1.268239 2.306498,-1.268239 1.023534,0 1.836661,0.443182 2.289527,1.246096 0.729992,1.294556 0.469463,3.340325 -0.731743,5.761434 -0.274231,0.555547 -0.316674,1.066416 -0.122594,1.517861 0.420999,0.980194 1.78055,1.310355 3.219293,1.660792 1.361494,0.331884 1.62963,0.448321 1.621904,2.363356 l 0.0112,1.201807 c 0.505811,-0.0015 0.513671,-0.0085 0.967641,-0.008 l -0.01886,-1.181678 c -0.03374,-1.075064 0.307908,-2.729638 -2.366803,-3.380007 -1.038982,-0.252522 -2.332389,-0.56764 -2.555441,-1.08505 -0.02318,-0.0536 -0.09312,-0.218396 0.09807,-0.605938 1.366316,-2.752988 1.615894,-5.157879 0.705335,-6.774011 -0.62667,-1.109032 -1.762714,-1.747356 -3.11745,-1.747356 z"
     inkscape:connector-curvature="0"
     sodipodi:nodetypes="sccccccccccccccsccccccccccccss"
     style="stroke-width:0.99761713" />
  <path
     inkscape:connector-curvature="0"
     d="m 17.266346,10.693287 5.496328,-3.7851811 c 0.429264,-0.2956226 0.429264,-0.7748265 0,-1.0704492 L 17.266346,2.0524754 c -0.429263,-0.2956227 -1.125098,-0.2956227 -1.554361,0 -0.429264,0.2956227 -0.429264,0.7748266 0,1.0704493 l 3.619881,2.4929204 H 8.7943058 c -0.6073443,0 -1.0992656,0.3387737 -1.0992656,0.7570362 0,0.4182626 0.4919213,0.7570364 1.0992656,0.7570364 H 19.331866 l -3.619881,2.4929205 c -0.214357,0.147622 -0.322085,0.341424 -0.322085,0.5352238 0,0.193801 0.107179,0.387603 0.322085,0.535225 0.429263,0.295623 1.125098,0.295623 1.554361,0 z"
     id="path4"
     style="stroke-width:0.45612055" />
  <path
     inkscape:connector-curvature="0"
     d="m 13.058598,22.79162 -5.8353138,3.672185 c -0.4557385,0.286798 -0.4557385,0.751697 0,1.038493 l 5.8353138,3.672186 c 0.455738,0.286797 1.194489,0.286797 1.650226,0 0.455739,-0.286798 0.455739,-0.751697 0,-1.038495 l -3.843136,-2.418501 h 11.187464 c 0.644801,0 1.167063,-0.32866 1.167063,-0.734436 0,-0.405776 -0.522262,-0.734437 -1.167063,-0.734437 H 10.865688 l 3.843136,-2.418501 c 0.227578,-0.143216 0.34195,-0.331231 0.34195,-0.519246 0,-0.188016 -0.113789,-0.376032 -0.34195,-0.519248 -0.455737,-0.286797 -1.194488,-0.286797 -1.650226,0 z"
     id="path4-0"
     style="stroke-width:0.46290764" />
</svg>
