<?xml version="1.0" encoding="UTF-8" standalone="no"?>
<!-- Generated by IcoMoon.io -->

<svg
   xmlns:dc="http://purl.org/dc/elements/1.1/"
   xmlns:cc="http://creativecommons.org/ns#"
   xmlns:rdf="http://www.w3.org/1999/02/22-rdf-syntax-ns#"
   xmlns:svg="http://www.w3.org/2000/svg"
   xmlns="http://www.w3.org/2000/svg"
   xmlns:sodipodi="http://sodipodi.sourceforge.net/DTD/sodipodi-0.dtd"
   xmlns:inkscape="http://www.inkscape.org/namespaces/inkscape"
   version="1.1"
   width="32"
   height="32"
   viewBox="0 0 32 32"
   id="svg6"
   sodipodi:docname="direct-connected-overlay.svg"
   inkscape:version="0.92.4 (5da689c313, 2019-01-14)">
  <metadata
     id="metadata12">
    <rdf:RDF>
      <cc:Work
         rdf:about="">
        <dc:format>image/svg+xml</dc:format>
        <dc:type
           rdf:resource="http://purl.org/dc/dcmitype/StillImage" />
        <dc:title>arrow-right2</dc:title>
      </cc:Work>
    </rdf:RDF>
  </metadata>
  <defs
     id="defs10" />
  <sodipodi:namedview
     pagecolor="#ffffff"
     bordercolor="#666666"
     borderopacity="1"
     objecttolerance="10"
     gridtolerance="10"
     guidetolerance="10"
     inkscape:pageopacity="0"
     inkscape:pageshadow="2"
     inkscape:window-width="3091"
     inkscape:window-height="1314"
     id="namedview8"
     showgrid="false"
     inkscape:zoom="7.375"
     inkscape:cx="16"
     inkscape:cy="16"
     inkscape:window-x="563"
     inkscape:window-y="112"
     inkscape:window-maximized="0"
     inkscape:current-layer="svg6" />
  <title
     id="title2">arrow-right2</title>
  <path
     id="path2-1"
     d="m 5.0171849,22.587378 c -0.6826784,0 -1.2543359,0.322994 -1.5681557,0.885754 -0.4557623,0.817858 -0.3269002,2.017453 0.3639863,3.376942 0.097043,0.192224 0.062506,0.273666 0.050923,0.299949 -0.1095959,0.258704 -0.7778353,0.42149 -1.2654631,0.539505 -1.2890753,0.313332 -1.2098735,1.016565 -1.2079422,1.683941 v 0.589832 h 0.011315 0.2942061 0.1801064 v -0.587818 c -0.00335,-0.969886 0.1519842,-1.018265 0.8288695,-1.183692 0.6831613,-0.165426 1.3907035,-0.336224 1.5992736,-0.828383 0.096559,-0.226237 0.073543,-0.482188 -0.066954,-0.758929 -0.6063969,-1.194063 -0.738895,-2.212109 -0.3734155,-2.867633 0.2283633,-0.408671 0.6376193,-0.63412 1.1532491,-0.63412 0.5117671,0 0.918331,0.221591 1.144764,0.623048 0.364996,0.647278 0.234731,1.670163 -0.3658719,2.880717 -0.1371155,0.277774 -0.158337,0.533208 -0.061297,0.758931 0.2104999,0.490097 0.8902749,0.655177 1.6096469,0.830396 0.680747,0.165942 0.814815,0.22416 0.810952,1.181678 l 0.0056,0.600903 c 0.252905,-7.5e-4 0.256835,-0.0042 0.48382,-0.004 l -0.0094,-0.590839 c -0.01687,-0.537532 0.153954,-1.364819 -1.183401,-1.690003 -0.519491,-0.126261 -1.166195,-0.28382 -1.277721,-0.542525 -0.01159,-0.0268 -0.04656,-0.109198 0.04903,-0.302969 0.683158,-1.376494 0.807947,-2.57894 0.352668,-3.387006 -0.313361,-0.554516 -0.8813828,-0.873678 -1.5587507,-0.873678 z"
     inkscape:connector-curvature="0"
     sodipodi:nodetypes="sccccccccccccccsccccccccccccss"
     style="stroke-width:0.49880856" />
  <path
     inkscape:connector-curvature="0"
     d="m 19.060557,27.460607 3.801398,-2.259726 c 0.296889,-0.176485 0.296889,-0.462566 0,-0.63905 l -3.801398,-2.259726 c -0.296889,-0.176485 -0.778146,-0.176485 -1.075034,0 -0.29689,0.176484 -0.29689,0.462565 0,0.63905 l 2.503599,1.488256 h -7.28804 c -0.420054,0 -0.760279,0.202245 -0.760279,0.451944 0,0.249701 0.340225,0.451946 0.760279,0.451946 h 7.28804 l -2.503599,1.488255 c -0.148256,0.08813 -0.222763,0.203828 -0.222763,0.319525 0,0.115699 0.07413,0.231396 0.222763,0.319526 0.296888,0.176484 0.778145,0.176484 1.075034,0 z"
     id="path4"
     style="stroke-width:0.293089" />
  <path
     id="path2-1-6"
     d="m 26.712152,23.016354 c -0.682678,0 -1.254335,0.322994 -1.568155,0.885754 -0.455763,0.817858 -0.3269,2.017453 0.363986,3.376942 0.09704,0.192224 0.06251,0.273666 0.05092,0.299949 -0.109596,0.258704 -0.777835,0.42149 -1.265463,0.539505 -1.289075,0.313332 -1.209874,1.016565 -1.207942,1.683941 v 0.589832 h 0.01131 0.294206 0.180106 v -0.587818 c -0.0033,-0.969886 0.151984,-1.018265 0.82887,-1.183692 0.683161,-0.165426 1.390703,-0.336224 1.599273,-0.828383 0.09656,-0.226237 0.07354,-0.482188 -0.06695,-0.758929 -0.606397,-1.194063 -0.738895,-2.212109 -0.373415,-2.867633 0.228363,-0.408671 0.637619,-0.63412 1.153249,-0.63412 0.511767,0 0.918331,0.221591 1.144764,0.623048 0.364996,0.647278 0.234731,1.670163 -0.365872,2.880717 -0.137115,0.277774 -0.158337,0.533208 -0.0613,0.758931 0.2105,0.490097 0.890275,0.655177 1.609647,0.830396 0.680747,0.165942 0.814815,0.22416 0.810952,1.181678 l 0.0056,0.600903 c 0.252905,-7.5e-4 0.256835,-0.0042 0.48382,-0.004 l -0.0094,-0.590839 c -0.01687,-0.537532 0.153954,-1.364819 -1.183401,-1.690003 -0.519491,-0.126261 -1.166195,-0.28382 -1.277721,-0.542525 -0.01159,-0.0268 -0.04656,-0.109198 0.04903,-0.302969 0.683158,-1.376494 0.807947,-2.57894 0.352668,-3.387006 -0.313361,-0.554516 -0.881383,-0.873678 -1.558751,-0.873678 z"
     inkscape:connector-curvature="0"
     sodipodi:nodetypes="sccccccccccccccsccccccccccccss"
     style="stroke-width:0.49880856" />
  <path
     inkscape:connector-curvature="0"
     d="m 13.75301,25.895325 -3.8013997,2.259726 c -0.29689,0.176485 -0.29689,0.462566 0,0.63905 l 3.8013997,2.259726 c 0.29689,0.176485 0.77814,0.176485 1.07503,0 0.29689,-0.176484 0.29689,-0.462565 0,-0.63905 l -2.5036,-1.488256 h 7.28804 c 0.42006,0 0.76028,-0.202245 0.76028,-0.451944 0,-0.249701 -0.34022,-0.451946 -0.76028,-0.451946 h -7.28804 l 2.5036,-1.488255 c 0.14826,-0.08813 0.22277,-0.203828 0.22277,-0.319525 0,-0.115699 -0.0741,-0.231396 -0.22277,-0.319526 -0.29689,-0.176484 -0.77814,-0.176484 -1.07503,0 z"
     id="path4-4"
     style="stroke-width:0.293089" />
</svg>
