<?xml version="1.0" encoding="UTF-8" standalone="no"?>
<!-- Generated by IcoMoon.io -->

<svg
   xmlns:dc="http://purl.org/dc/elements/1.1/"
   xmlns:cc="http://creativecommons.org/ns#"
   xmlns:rdf="http://www.w3.org/1999/02/22-rdf-syntax-ns#"
   xmlns:svg="http://www.w3.org/2000/svg"
   xmlns="http://www.w3.org/2000/svg"
   xmlns:sodipodi="http://sodipodi.sourceforge.net/DTD/sodipodi-0.dtd"
   xmlns:inkscape="http://www.inkscape.org/namespaces/inkscape"
   version="1.1"
   width="32"
   height="32"
   viewBox="0 0 32 32"
   id="svg6"
   sodipodi:docname="direct-connected.svg"
   inkscape:version="0.92.4 (5da689c313, 2019-01-14)">
  <metadata
     id="metadata12">
    <rdf:RDF>
      <cc:Work
         rdf:about="">
        <dc:format>image/svg+xml</dc:format>
        <dc:type
           rdf:resource="http://purl.org/dc/dcmitype/StillImage" />
        <dc:title>arrow-right2</dc:title>
      </cc:Work>
    </rdf:RDF>
  </metadata>
  <defs
     id="defs10" />
  <sodipodi:namedview
     pagecolor="#ffffff"
     bordercolor="#666666"
     borderopacity="1"
     objecttolerance="10"
     gridtolerance="10"
     guidetolerance="10"
     inkscape:pageopacity="0"
     inkscape:pageshadow="2"
     inkscape:window-width="3091"
     inkscape:window-height="1314"
     id="namedview8"
     showgrid="false"
     inkscape:zoom="7.375"
     inkscape:cx="-79.59322"
     inkscape:cy="16"
     inkscape:window-x="563"
     inkscape:window-y="112"
     inkscape:window-maximized="0"
     inkscape:current-layer="svg6" />
  <title
     id="title2">arrow-right2</title>
  <path
     inkscape:connector-curvature="0"
     d="m 16.859566,9.0926434 5.496328,-3.3331942 c 0.429264,-0.2603225 0.429264,-0.6823048 0,-0.9426274 L 16.859566,1.4836274 c -0.429263,-0.2603226 -1.125098,-0.2603226 -1.554361,0 -0.429264,0.2603225 -0.429264,0.6823049 0,0.9426274 l 3.619881,2.1952419 H 8.3875261 c -0.6073443,0 -1.0992656,0.2983209 -1.0992656,0.6666388 0,0.3683181 0.4919213,0.666639 1.0992656,0.666639 H 18.925086 l -3.619881,2.195242 c -0.214357,0.1299945 -0.322085,0.3006547 -0.322085,0.471313 0,0.1706593 0.107179,0.3413194 0.322085,0.4713139 0.429263,0.2603228 1.125098,0.2603228 1.554361,0 z"
     id="path4"
     style="stroke-width:0.42802253" />
  <path
     inkscape:connector-curvature="0"
     d="m 13.058598,23.585323 -5.8353138,3.333195 c -0.4557385,0.260323 -0.4557385,0.682306 0,0.942627 l 5.8353138,3.333195 c 0.455738,0.260322 1.194489,0.260322 1.650226,0 0.455739,-0.260323 0.455739,-0.682305 0,-0.942628 L 10.865688,28.05647 h 11.187464 c 0.644801,0 1.167063,-0.298321 1.167063,-0.666638 0,-0.368318 -0.522262,-0.666639 -1.167063,-0.666639 H 10.865688 l 3.843136,-2.195242 c 0.227578,-0.129996 0.34195,-0.300654 0.34195,-0.471313 0,-0.17066 -0.113789,-0.34132 -0.34195,-0.471315 -0.455737,-0.260322 -1.194488,-0.260322 -1.650226,0 z"
     id="path4-0"
     style="stroke-width:0.44102421" />
  <path
     inkscape:connector-curvature="0"
     d="M 13.088246,18.433627 C 11.184218,17.931209 9.411961,17.490802 10.27013,15.638057 12.883393,9.9988251 10.962756,6.9830508 8.203881,6.9830508 c -2.813687,0 -4.686156,3.1315712 -2.06625,8.6550062 0.884191,1.863502 -0.955059,2.303909 -2.818116,2.79557 -1.701389,0.449266 -1.76506,1.41487 -1.759523,3.103096 l 0.0022,0.632769 h 13.28224 l 0.0022,-0.613153 c 0.0066,-1.700881 -0.05094,-2.671548 -1.758416,-3.122712 z"
     id="path2"
     style="stroke-width:0.5918926" />
  <path
     inkscape:connector-curvature="0"
     d="m 29.834026,18.230237 c -1.904027,-0.502418 -3.676284,-0.942825 -2.818115,-2.79557 2.613262,-5.6392318 0.692626,-8.6550061 -2.066249,-8.6550061 -2.813687,0 -4.686156,3.1315712 -2.06625,8.6550061 0.884191,1.863502 -0.955059,2.303909 -2.818116,2.79557 -1.701389,0.449266 -1.76506,1.41487 -1.759523,3.103096 l 0.0022,0.632769 h 13.282239 l 0.0022,-0.613153 c 0.0066,-1.700881 -0.05094,-2.671548 -1.758416,-3.122712 z"
     id="path2-2"
     style="stroke-width:0.5918926" />
</svg>
