<?xml version="1.0" encoding="UTF-8" standalone="no"?>
<!-- Generated by IcoMoon.io -->

<svg
   xmlns:dc="http://purl.org/dc/elements/1.1/"
   xmlns:cc="http://creativecommons.org/ns#"
   xmlns:rdf="http://www.w3.org/1999/02/22-rdf-syntax-ns#"
   xmlns:svg="http://www.w3.org/2000/svg"
   xmlns="http://www.w3.org/2000/svg"
   xmlns:sodipodi="http://sodipodi.sourceforge.net/DTD/sodipodi-0.dtd"
   xmlns:inkscape="http://www.inkscape.org/namespaces/inkscape"
   version="1.1"
   width="32"
   height="32"
   viewBox="0 0 32 32"
   id="svg6"
   sodipodi:docname="direct-connected-overlay.svg"
   inkscape:version="0.92.4 (5da689c313, 2019-01-14)">
  <metadata
     id="metadata12">
    <rdf:RDF>
      <cc:Work
         rdf:about="">
        <dc:format>image/svg+xml</dc:format>
        <dc:type
           rdf:resource="http://purl.org/dc/dcmitype/StillImage" />
        <dc:title>arrow-right2</dc:title>
      </cc:Work>
    </rdf:RDF>
  </metadata>
  <defs
     id="defs10" />
  <sodipodi:namedview
     pagecolor="#ffffff"
     bordercolor="#666666"
     borderopacity="1"
     objecttolerance="10"
     gridtolerance="10"
     guidetolerance="10"
     inkscape:pageopacity="0"
     inkscape:pageshadow="2"
     inkscape:window-width="3091"
     inkscape:window-height="1314"
     id="namedview8"
     showgrid="false"
     inkscape:zoom="7.375"
     inkscape:cx="-79.59322"
     inkscape:cy="16"
     inkscape:window-x="563"
     inkscape:window-y="112"
     inkscape:window-maximized="0"
     inkscape:current-layer="svg6" />
  <title
     id="title2">arrow-right2</title>
  <path
     inkscape:connector-curvature="0"
     d="m 19.060557,26.273361 3.801398,-1.694741 c 0.296889,-0.132361 0.296889,-0.346914 0,-0.479274 l -3.801398,-1.694742 c -0.296889,-0.13236 -0.778146,-0.13236 -1.075034,0 -0.29689,0.132359 -0.29689,0.346913 0,0.479273 l 2.503599,1.116157 h -7.28804 c -0.420054,0 -0.760279,0.151679 -0.760279,0.338948 0,0.18727 0.340225,0.338949 0.760279,0.338949 h 7.28804 l -2.503599,1.116157 c -0.148256,0.0661 -0.222763,0.152867 -0.222763,0.239636 0,0.08678 0.07413,0.173543 0.222763,0.239637 0.296888,0.13236 0.778145,0.13236 1.075034,0 z"
     id="path4"
     style="stroke-width:0.25381863" />
  <path
     inkscape:connector-curvature="0"
     d="m 14.295383,26.411223 -3.8014,1.807739 c -0.29689,0.141185 -0.29689,0.370044 0,0.511228 l 3.8014,1.807739 c 0.29689,0.141185 0.77814,0.141185 1.07503,0 0.29689,-0.141184 0.29689,-0.370043 0,-0.511228 l -2.5036,-1.190577 h 7.28804 c 0.42006,0 0.76028,-0.161792 0.76028,-0.361547 0,-0.199756 -0.34022,-0.361548 -0.76028,-0.361548 h -7.28804 l 2.5036,-1.190577 c 0.14826,-0.0705 0.22277,-0.163059 0.22277,-0.255614 0,-0.09256 -0.0741,-0.185113 -0.22277,-0.255615 -0.29689,-0.141184 -0.77814,-0.141184 -1.07503,0 z"
     id="path4-4"
     style="stroke-width:0.26214376" />
  <path
     inkscape:connector-curvature="0"
     d="M 9.2976538,29.125966 C 7.8405183,28.785039 6.4842257,28.486192 7.1409741,27.228972 c 1.9999066,-3.826622 0.5300601,-5.87304 -1.5812822,-5.87304 -2.1532895,0 -3.5862731,2.124994 -1.5812822,5.87304 0.6766633,1.264519 -0.7308982,1.563367 -2.1566793,1.896994 -1.3020578,0.304858 -1.35078371,0.96009 -1.34654713,2.105672 l 0.001657,0.429379 H 10.64162 l 0.0017,-0.416069 c 0.0051,-1.154169 -0.03898,-1.812836 -1.3457,-2.118982 z"
     id="path2"
     style="stroke-width:0.42653438" />
  <path
     inkscape:connector-curvature="0"
     d="m 30.179031,28.922576 c -1.457135,-0.340927 -2.813428,-0.639774 -2.156679,-1.896994 1.999906,-3.826622 0.53006,-5.87304 -1.581282,-5.87304 -2.15329,0 -3.586274,2.124994 -1.581283,5.87304 0.676664,1.264519 -0.730898,1.563367 -2.156679,1.896994 -1.302058,0.304858 -1.350784,0.96009 -1.346547,2.105672 l 0.0017,0.429379 h 10.16478 l 0.0017,-0.416069 c 0.0051,-1.154169 -0.03898,-1.812836 -1.3457,-2.118982 z"
     id="path2-2"
     style="stroke-width:0.42653438" />
</svg>
