<?xml version="1.0" encoding="UTF-8" standalone="no"?>
<svg
   xmlns:dc="http://purl.org/dc/elements/1.1/"
   xmlns:cc="http://creativecommons.org/ns#"
   xmlns:rdf="http://www.w3.org/1999/02/22-rdf-syntax-ns#"
   xmlns:svg="http://www.w3.org/2000/svg"
   xmlns="http://www.w3.org/2000/svg"
   xmlns:sodipodi="http://sodipodi.sourceforge.net/DTD/sodipodi-0.dtd"
   xmlns:inkscape="http://www.inkscape.org/namespaces/inkscape"
   width="24"
   height="24"
   viewBox="0 0 24 24"
   version="1.1"
   id="svg4"
   sodipodi:docname="disconnect.svg"
   inkscape:version="0.92.4 (5da689c313, 2019-01-14)">
  <metadata
     id="metadata10">
    <rdf:RDF>
      <cc:Work
         rdf:about="">
        <dc:format>image/svg+xml</dc:format>
        <dc:type
           rdf:resource="http://purl.org/dc/dcmitype/StillImage" />
        <dc:title></dc:title>
      </cc:Work>
    </rdf:RDF>
  </metadata>
  <defs
     id="defs8" />
  <sodipodi:namedview
     pagecolor="#ffffff"
     bordercolor="#666666"
     borderopacity="1"
     objecttolerance="10"
     gridtolerance="10"
     guidetolerance="10"
     inkscape:pageopacity="0"
     inkscape:pageshadow="2"
     inkscape:window-width="1828"
     inkscape:window-height="1086"
     id="namedview6"
     showgrid="false"
     inkscape:zoom="9.8333333"
     inkscape:cx="12"
     inkscape:cy="12"
     inkscape:window-x="988"
     inkscape:window-y="518"
     inkscape:window-maximized="0"
     inkscape:current-layer="svg4" />
  <path
     d="M21 9c-1.656 0-3 1.343-3 3s1.344 3 3 3 3-1.343 3-3-1.344-3-3-3zm-15 9c-1.657 0-3 1.343-3 3s1.343 3 3 3c1.656 0 3-1.343 3-3s-1.344-3-3-3zm3-15c0 1.657-1.344 3-3 3s-3-1.343-3-3 1.344-3 3-3 3 1.343 3 3zm1.588-1.979l.412-.021c4.281 0 7.981 2.45 9.8 6.021-.717.029-1.39.21-1.998.511-1.555-2.703-4.466-4.532-7.802-4.532 0-.703-.149-1.372-.412-1.979zm10.212 15.958c-1.819 3.571-5.519 6.021-9.8 6.021l-.412-.021c.263-.607.412-1.276.412-1.979 3.336 0 6.247-1.829 7.802-4.532.608.302 1.281.483 1.998.511zm-18.91 1.186c-1.193-1.759-1.89-3.88-1.89-6.165s.697-4.406 1.89-6.165c.392.566.901 1.039 1.487 1.403-.867 1.383-1.377 3.012-1.377 4.762s.51 3.379 1.377 4.762c-.586.364-1.096.837-1.487 1.403z"
     id="path2" />
  <path
     inkscape:connector-curvature="0"
     d="m 20.197,3.1420847 0.867,0.867 -8.21,8.2910003 8.308,8.202 -0.866,0.867 -8.292,-8.21 -8.23,8.311 -0.84,-0.84 8.213,-8.32 -8.312,-8.2310003 0.84,-0.84 8.319,8.2120003 z M 20.188,0.30508473 11.976,8.6230847 3.666,0.41908473 0,4.0860847 l 8.321,8.2400003 -8.207,8.313 3.667,3.666 8.237,-8.318 8.285,8.204 3.697,-3.698 -8.315,-8.209 8.201,-8.2820003 z"
     id="path2-7" />
</svg>
