<?xml version="1.0" encoding="UTF-8" standalone="no"?>
<svg
   xmlns:dc="http://purl.org/dc/elements/1.1/"
   xmlns:cc="http://creativecommons.org/ns#"
   xmlns:rdf="http://www.w3.org/1999/02/22-rdf-syntax-ns#"
   xmlns:svg="http://www.w3.org/2000/svg"
   xmlns="http://www.w3.org/2000/svg"
   xmlns:sodipodi="http://sodipodi.sourceforge.net/DTD/sodipodi-0.dtd"
   xmlns:inkscape="http://www.inkscape.org/namespaces/inkscape"
   width="24"
   height="24"
   viewBox="0 0 24 24"
   version="1.1"
   id="svg4"
   sodipodi:docname="eye-group.svg"
   inkscape:version="0.92.4 (5da689c313, 2019-01-14)">
  <metadata
     id="metadata10">
    <rdf:RDF>
      <cc:Work
         rdf:about="">
        <dc:format>image/svg+xml</dc:format>
        <dc:type
           rdf:resource="http://purl.org/dc/dcmitype/StillImage" />
        <dc:title></dc:title>
      </cc:Work>
    </rdf:RDF>
  </metadata>
  <defs
     id="defs8" />
  <sodipodi:namedview
     pagecolor="#ffffff"
     bordercolor="#666666"
     borderopacity="1"
     objecttolerance="10"
     gridtolerance="10"
     guidetolerance="10"
     inkscape:pageopacity="0"
     inkscape:pageshadow="2"
     inkscape:window-width="2655"
     inkscape:window-height="1479"
     id="namedview6"
     showgrid="false"
     inkscape:zoom="9.8333333"
     inkscape:cx="-59.694916"
     inkscape:cy="12"
     inkscape:window-x="863"
     inkscape:window-y="229"
     inkscape:window-maximized="0"
     inkscape:current-layer="svg4" />
  <path
     d="m 17.539753,22.508477 h -0.871135 c 0,-1.354709 0.05237,-1.549361 -0.768135,-1.73965 -1.255203,-0.289796 -2.441449,-0.563006 -2.874399,-1.509207 -0.157117,-0.345659 -0.262736,-0.914779 0.135292,-1.664583 0.891212,-1.683783 1.114671,-3.127525 0.612763,-3.961124 -0.586575,-0.973262 -2.362891,-0.977626 -2.954704,0.01478 -0.502779,0.844946 -0.275829,2.280833 0.622366,3.938432 0.405888,0.747182 0.303762,1.318048 0.14665,1.665451 -0.427712,0.950568 -1.6026111,1.222034 -2.8473384,1.508335 -0.8571699,0.19814 -0.8030512,0.379702 -0.8030512,1.747504 H 7.069543 L 7.067803,21.96461 c 0,-1.098955 0.087281,-1.732664 1.3861345,-2.032935 1.4681864,-0.339551 2.9189165,-0.64244 2.2214835,-1.928189 -2.0652367,-3.810124 -0.590069,-5.969624 1.627924,-5.969624 2.17522,0 3.689666,2.08007 1.62967,5.96962 -0.676484,1.277897 0.719253,1.58166 2.221481,1.928192 1.300591,0.30027 1.387009,0.935727 1.387009,2.036428 z m 4.198559,-1.932557 c -1.125145,-0.260116 -2.172601,-0.487937 -1.665458,-1.44636 1.545,-2.917162 0.410255,-4.476998 -1.222036,-4.476998 -1.104192,0 -1.962234,0.713142 -1.962234,2.029445 0,1.107684 0.501034,1.898511 0.789084,2.553173 h 0.914778 c -0.148395,-0.654662 -1.279642,-2.236318 -0.668626,-3.261079 0.359629,-0.604031 1.48739,-0.604905 1.845273,-0.01041 0.331694,0.550788 0.157989,1.581659 -0.466118,2.759172 -0.338682,0.639821 -0.24441,1.135617 -0.105617,1.438506 0.266227,0.581339 0.852805,0.861533 1.516195,1.05444 1.315432,0.384938 1.194101,0.03665 1.194101,1.291858 h 0.870261 l 0.0017,-0.404143 c 0,-0.82487 -0.06458,-1.302335 -1.041347,-1.527538 z M 1.8322553,22.508477 h 0.870263 c 0,-1.255199 -0.1213362,-0.906923 1.1941013,-1.291863 0.6642625,-0.192906 1.2508386,-0.473101 1.5161951,-1.054437 0.1387812,-0.303762 0.2330589,-0.798686 -0.105617,-1.438506 -0.624111,-1.177513 -0.7978139,-2.208382 -0.4661197,-2.759172 0.3578822,-0.595303 1.4856439,-0.594429 1.8452707,0.01041 0.6110178,1.025634 -0.5202366,2.606419 -0.6686256,3.26108 h 0.9147794 c 0.28805,-0.654659 0.789084,-1.445487 0.789084,-2.553172 8.722e-4,-1.317174 -0.8571699,-2.030318 -1.9613641,-2.030318 -1.6322884,0 -2.7670337,1.559837 -1.2220338,4.476999 0.5071435,0.959295 -0.5403133,1.186244 -1.6654582,1.446362 -0.9776282,0.2252 -1.0422214,0.702664 -1.0422214,1.528409 z"
     id="path2"
     inkscape:connector-curvature="0"
     style="stroke-width:0.87288022" />
  <path
     inkscape:connector-curvature="0"
     d="m 11.807797,2.9322036 c 3.543118,0 6.013084,1.9399323 7.087728,2.9858984 -1.044814,1.1831525 -3.514779,3.45478 -7.087728,3.45478 -3.2962722,0 -5.9138987,-2.2774243 -7.0683398,-3.482475 C 5.8528816,4.8296271 8.3317971,2.9322036 11.807797,2.9322036 Z m 0,-1.2881353 c -5.6446787,0 -8.9603398,4.219288 -8.9603398,4.219288 0,0 3.6057633,4.7976617 8.9603398,4.7976617 5.766982,0 8.937966,-4.7976617 8.937966,-4.7976617 0,0 -3.200068,-4.219288 -8.937966,-4.219288 z m -0.01119,1.9322035 c -1.64739,0 -2.9830508,1.1541693 -2.9830508,2.576271 0,1.422746 1.3356608,2.5762709 2.9830508,2.5762709 1.64739,0 2.98305,-1.1535249 2.98305,-2.5762709 0,-1.4221017 -1.33566,-2.576271 -2.98305,-2.576271 z"
     id="path2-20"
     style="stroke-width:0.69305247" />
</svg>
