<?xml version="1.0" encoding="UTF-8" standalone="no"?>
<svg
   xmlns:dc="http://purl.org/dc/elements/1.1/"
   xmlns:cc="http://creativecommons.org/ns#"
   xmlns:rdf="http://www.w3.org/1999/02/22-rdf-syntax-ns#"
   xmlns:svg="http://www.w3.org/2000/svg"
   xmlns="http://www.w3.org/2000/svg"
   xmlns:sodipodi="http://sodipodi.sourceforge.net/DTD/sodipodi-0.dtd"
   xmlns:inkscape="http://www.inkscape.org/namespaces/inkscape"
   width="24"
   height="24"
   viewBox="0 0 24 24"
   version="1.1"
   id="svg4"
   sodipodi:docname="eye-friends.svg"
   inkscape:version="0.92.4 (5da689c313, 2019-01-14)">
  <metadata
     id="metadata10">
    <rdf:RDF>
      <cc:Work
         rdf:about="">
        <dc:format>image/svg+xml</dc:format>
        <dc:type
           rdf:resource="http://purl.org/dc/dcmitype/StillImage" />
        <dc:title></dc:title>
      </cc:Work>
    </rdf:RDF>
  </metadata>
  <defs
     id="defs8" />
  <sodipodi:namedview
     pagecolor="#ffffff"
     bordercolor="#666666"
     borderopacity="1"
     objecttolerance="10"
     gridtolerance="10"
     guidetolerance="10"
     inkscape:pageopacity="0"
     inkscape:pageshadow="2"
     inkscape:window-width="2853"
     inkscape:window-height="1600"
     id="namedview6"
     showgrid="false"
     inkscape:zoom="9.8333333"
     inkscape:cx="-49.641666"
     inkscape:cy="12"
     inkscape:window-x="863"
     inkscape:window-y="229"
     inkscape:window-maximized="0"
     inkscape:current-layer="svg4" />
  <path
     inkscape:connector-curvature="0"
     d="m 12.214577,2.0169493 c 3.543118,0 6.013084,1.9399323 7.087728,2.9858984 -1.044814,1.1831525 -3.514779,3.45478 -7.087728,3.45478 -3.2962725,0 -5.913899,-2.2774243 -7.0683401,-3.482475 C 6.2596613,3.9143728 8.7385768,2.0169493 12.214577,2.0169493 Z m 0,-1.28813528 c -5.644679,0 -8.9603401,4.21928798 -8.9603401,4.21928798 0,0 3.6057633,4.7976614 8.9603401,4.7976614 5.766982,0 8.937966,-4.7976614 8.937966,-4.7976614 0,0 -3.200068,-4.21928798 -8.937966,-4.21928798 z m -0.01119,1.93220348 c -1.64739,0 -2.9830511,1.1541693 -2.9830511,2.576271 0,1.422746 1.3356611,2.5762709 2.9830511,2.5762709 1.64739,0 2.98305,-1.1535249 2.98305,-2.5762709 0,-1.4221017 -1.33566,-2.576271 -2.98305,-2.576271 z"
     id="path2-20"
     style="stroke-width:0.69305247" />
  <path
     inkscape:connector-curvature="0"
     d="m 10.316339,20.273763 c 2.176406,-0.442416 4.201898,-0.829738 3.221423,-2.459161 -2.986982,-4.959225 -0.792542,-7.611212 2.361492,-7.611212 3.215729,0 5.356068,2.753826 2.361491,7.612046 -1.010847,1.639441 1.090577,2.025928 3.220475,2.459161 1.884068,0.382314 2.010305,1.192017 2.010305,2.593556 l -0.0028,0.691169 h -1.261424 c 0,-1.743784 0.07878,-1.975843 -1.163661,-2.227936 -1.804339,-0.365619 -3.507119,-0.711204 -4.129763,-1.923255 -0.226847,-0.442415 -0.374915,-1.170313 0.214509,-2.122758 1.302237,-2.113576 1.631593,-3.945009 0.900745,-5.022665 -0.856135,-1.26631 -3.433084,-1.259632 -4.282576,-0.01836 -0.728949,1.062632 -0.404339,2.904081 0.888407,5.050212 0.576135,0.956619 0.424271,1.682848 0.195525,2.122759 -0.62644,1.206207 -2.346305,1.555131 -4.166779,1.924089 -1.1883393,0.242076 -1.1124071,0.49083 -1.1124071,2.217919 h -1.263322 c 0,-1.833102 -0.1670508,-2.843144 2.0084071,-3.285559 z M 0.71376274,23.559322 H 1.9751864 c 0,-1.601042 -0.1765423,-1.156123 1.7312543,-1.646953 C 4.6688813,21.666119 5.519322,21.308847 5.904678,20.566758 6.105898,20.180271 6.2416268,19.548369 5.7509152,18.732822 4.847322,17.231949 4.5938983,15.91639 5.0751186,15.214369 c 0.5191865,-0.758784 2.154576,-0.75795 2.6756608,0.01252 0.8874576,1.308046 -0.752678,3.323957 -0.9681356,4.158703 h 1.3250169 c 0.4176271,-0.834746 1.144678,-1.843118 1.144678,-3.255508 0,-1.677839 -1.2452881,-2.587712 -2.8455593,-2.587712 -2.366237,0 -4.0120675,1.989199 -1.7711184,5.708826 0.7346441,1.222068 -0.784,1.512559 -2.4155932,1.843954 -1.41423727,0.287987 -1.50820337,0.894847 -1.50820337,1.948296 z"
     id="path2"
     style="stroke-width:0.89011294" />
</svg>
