<?xml version="1.0" encoding="UTF-8" standalone="no"?>
<svg
   xmlns:dc="http://purl.org/dc/elements/1.1/"
   xmlns:cc="http://creativecommons.org/ns#"
   xmlns:rdf="http://www.w3.org/1999/02/22-rdf-syntax-ns#"
   xmlns:svg="http://www.w3.org/2000/svg"
   xmlns="http://www.w3.org/2000/svg"
   xmlns:sodipodi="http://sodipodi.sourceforge.net/DTD/sodipodi-0.dtd"
   xmlns:inkscape="http://www.inkscape.org/namespaces/inkscape"
   width="24"
   height="24"
   viewBox="0 0 24 24"
   version="1.1"
   id="svg4"
   sodipodi:docname="eye-random-connect.svg"
   inkscape:version="0.92.4 (5da689c313, 2019-01-14)">
  <metadata
     id="metadata10">
    <rdf:RDF>
      <cc:Work
         rdf:about="">
        <dc:format>image/svg+xml</dc:format>
        <dc:type
           rdf:resource="http://purl.org/dc/dcmitype/StillImage" />
        <dc:title></dc:title>
      </cc:Work>
    </rdf:RDF>
  </metadata>
  <defs
     id="defs8" />
  <sodipodi:namedview
     pagecolor="#ffffff"
     bordercolor="#666666"
     borderopacity="1"
     objecttolerance="10"
     gridtolerance="10"
     guidetolerance="10"
     inkscape:pageopacity="0"
     inkscape:pageshadow="2"
     inkscape:window-width="1908"
     inkscape:window-height="1424"
     id="namedview6"
     showgrid="false"
     inkscape:zoom="9.8333333"
     inkscape:cx="-23.847458"
     inkscape:cy="12"
     inkscape:window-x="863"
     inkscape:window-y="229"
     inkscape:window-maximized="0"
     inkscape:current-layer="svg4" />
  <path
     d="m 12.565574,16.237779 c -0.01454,-0.02805 0.142128,-0.04337 0.169969,-0.04337 0.03075,0.0038 -0.08145,0.192138 -0.169969,0.04337 z m -0.89432,-1.305859 0.04489,-0.01317 c 0.02659,0.02338 -0.02991,0.04038 -0.02119,0.05781 0.03575,0.0659 0.0089,0.105414 0.0033,0.141129 -0.0058,0.03614 -0.04323,0.02041 -0.06191,0.03954 -0.02204,0.02806 0.107219,0.03186 0.108883,0.03614 0.0046,0.01402 -0.155841,0.03784 -0.126336,0.07269 0.03991,0.05782 0.342435,-0.08289 0.294229,-0.0748 0.09351,-0.04803 0.0121,-0.05314 -0.04031,-0.08077 -0.01786,-0.09139 -0.03282,-0.232519 -0.08851,-0.289054 l 0.03657,-0.04337 c -0.08561,-0.127101 -0.149608,0.153881 -0.149608,0.153881 z m 5.405817,2.933506 c 0,2.817035 -2.232892,5.101013 -4.986917,5.101013 -2.7544401,0 -4.9869176,-2.283978 -4.9869176,-5.101013 0,-2.817034 2.2324775,-5.101011 4.9869176,-5.101011 2.754025,0 4.986917,2.283977 4.986917,5.101011 z M 13.623632,15.5823 c -0.0024,-0.06207 -0.07894,-0.120731 -0.158751,-0.01317 -0.05611,0.07397 -0.04612,0.186611 -0.07647,0.236771 -0.04324,0.07439 0.235632,0.144105 0.235632,0.07396 0.0104,-0.117743 0.304202,-0.02678 0.361553,-0.01059 0.103068,0.02934 0.267214,-0.09608 0.08769,-0.161957 -0.14753,-0.05526 -0.225243,-0.114344 -0.238542,-0.222319 0,0 0.07813,-0.07481 0.04406,-0.07057 -0.09058,0.01153 -0.255163,0.334116 -0.255163,0.167909 z m 2.616467,2.283126 c 0,-0.439962 -0.07355,-0.884175 -0.14836,-1.118821 -0.02409,-0.07396 -0.07856,-0.132626 -0.149191,-0.160682 -0.106397,-0.04251 -0.555626,0.253775 -0.623365,0.107968 -0.04448,-0.09734 -0.134647,0.06207 -0.23771,0.0034 -0.04986,-0.02807 -0.188671,-0.21892 -0.251423,-0.195538 -0.128414,0.04717 0.196982,0.40978 0.285916,0.457389 0.08354,-0.06461 0.35407,-0.197663 0.412252,-0.01615 0.111368,0.341768 -0.30628,0.716266 -0.519887,0.913507 -0.319163,0.295008 -0.259319,-0.190862 -0.476665,-0.362172 -0.114285,-0.0897 -0.113039,-0.280557 -0.228567,-0.346445 -0.05154,-0.02975 -0.287996,-0.308186 -0.285917,-0.345593 l -0.007,0.07057 c -0.03907,0.03017 -0.122178,-0.113919 -0.130905,-0.136453 0,0.1254 0.199475,0.32519 0.265552,0.42551 0.112627,0.172157 0.172879,0.422957 0.310851,0.563662 0.07398,0.07566 0.356565,0.388527 0.430122,0.381725 0.0802,-0.0073 0.333709,-0.194689 0.37859,-0.184062 0.26763,0.06462 -0.630014,1.362397 -0.715208,1.523078 -0.07022,0.134752 0.05734,0.468018 0.04696,0.627426 -0.0121,0.184059 -0.153763,0.243572 -0.287994,0.343892 -0.14379,0.107542 -0.110121,0.316687 -0.23106,0.393202 -0.214854,0.135178 -0.369448,0.575141 -0.674482,0.573013 -0.08976,-4.24e-4 -0.473756,0.153031 -0.52404,0.0031 -0.03908,-0.108818 -0.09144,-0.191285 -0.146699,-0.298833 -0.05401,-0.105413 -0.0061,-0.214667 -0.0719,-0.30776 -0.0453,-0.06461 -0.197398,-0.211267 -0.211112,-0.287783 -8.32e-4,-0.06588 0.04863,-0.266102 0.116356,-0.30096 0.09516,-0.04973 0.01828,-0.194687 0.0067,-0.278854 -0.01994,-0.15048 -0.110957,-0.274605 -0.220254,-0.361748 -0.16166,-0.127101 -0.07813,-0.22827 -0.0403,-0.409781 0,-0.08672 -0.05154,-0.20064 -0.165399,-0.166634 -0.234387,0.06971 -0.163322,-0.187035 -0.334124,-0.175559 -0.123011,0.0089 -0.22358,0.08884 -0.337865,0.124125 -0.143788,0.04422 -0.290903,-0.03486 -0.43303,-0.05314 -0.584716,-0.07566 -0.775465,-0.7592 -0.622949,-1.252298 0.01539,-0.08077 -0.04738,-0.230397 -0.01994,-0.292883 0.06567,-0.14963 0.199478,-0.317538 0.316671,-0.431035 0.06567,-0.06376 0.150023,-0.04761 0.227321,-0.09734 0.119272,-0.07694 0.12093,-0.235074 0.237708,-0.331994 0.166232,-0.138152 0.393135,-0.135176 0.610066,-0.164932 0.115532,-0.01572 0.55521,-0.113068 0.624613,-0.02551 0,0.01615 0.07937,0.256752 -0.0079,0.243149 0.179946,0.0098 0.436356,0.318388 0.607157,0.246124 0.08769,-0.0374 0.05569,-0.312861 0.235634,-0.179809 0.108872,0.07991 0.596768,0.115618 0.698168,0.02932 0.06235,-0.05271 0.09724,-0.395327 0.02162,-0.434011 0.04821,0.04889 -0.253916,0.05271 -0.282178,0.04166 -0.04986,-0.0187 -0.09642,0.04846 -0.176618,0.01058 0.04821,0.02337 -0.268462,-0.15048 -0.09058,-0.283532 -0.0744,0.05569 -0.143789,-0.01573 -0.223996,0.04549 -0.05526,0.04591 0.02576,0.07652 -0.05319,0.116469 -0.125504,0.06503 -0.220256,-0.223171 -0.267632,-0.255901 -0.04821,-0.0323 -0.421395,-0.30011 -0.319994,-0.1254 l 0.327891,0.333691 c -0.01621,0.01058 -0.08603,-0.121574 -0.08603,-0.02508 0.02204,-0.05738 0.0082,0.246123 -0.04324,0.147503 -0.02286,-0.03784 0.03741,-0.05909 0.0024,-0.113918 0,-0.03614 -0.09475,-0.07142 -0.113039,-0.09608 -0.05196,-0.06588 -0.189918,-0.211266 -0.264721,-0.246124 -0.02076,-0.0098 -0.317501,0.03699 -0.342435,0.04676 -0.02909,0.04166 -0.05402,0.08545 -0.0744,0.132201 -0.06149,0.02337 -0.119272,0.05355 -0.174124,0.09095 l -0.06524,0.150053 c -0.02827,0.02593 -0.317919,0.123701 -0.319582,0.127526 0.0121,-0.03187 -0.202384,-0.07269 -0.188254,-0.136451 0.01579,-0.07016 0.08851,-0.289058 0.06982,-0.368974 -0.01994,-0.08374 0.446329,0.120718 0.47625,-0.0999 0.0121,-0.09565 0.01912,-0.207017 -0.130075,-0.22317 0.02824,0.0034 0.288825,-0.104574 0.332046,-0.153029 0.06067,-0.07142 0.199892,-0.187889 0.300876,-0.187889 0.118026,0 0.09267,-0.175558 0.147114,-0.261426 0.05443,0.02253 -0.02909,0.159832 0.03615,0.215517 -0.0042,-0.04378 0.18493,0.02422 0.203214,0.01402 0.04323,-0.02295 0.284255,-0.0093 0.246854,-0.124975 -0.04155,-0.117744 0.02119,-0.08289 0.07522,-0.107542 -0.0091,0.0037 0.141296,-0.263129 0.167061,-0.17556 -0.01786,-0.09011 -0.174957,0.03146 -0.229813,0.02678 -0.12675,-0.01015 -0.07314,-0.221044 -0.02534,-0.28268 0.03697,-0.04888 -0.100987,-0.108819 -0.102641,-0.0153 -0.0024,0.139851 -0.12966,0.266527 -0.100144,0.452288 0.04489,0.280131 -0.305449,-0.06758 -0.336201,-0.04846 -0.116355,0.07226 -0.21153,-0.09096 -0.151271,-0.188737 0.06151,-0.09989 0.209866,-0.09523 0.270958,-0.202342 0.04323,-0.07567 0.09351,-0.163656 0.159995,-0.221044 0.222334,-0.190863 0.283839,-0.03825 0.505341,-0.01743 0.216517,0.02041 0.07315,0.05271 0.04322,0.137728 -0.02867,0.08077 0.11886,0.109668 0.169971,0.04208 0.02909,-0.0391 0.09517,-0.137302 0.123841,-0.20999 0.03697,-0.09437 0.374436,-0.08374 0.138802,-0.227846 -0.155426,-0.0948 -0.832814,-0.285657 -1.286623,-0.285657 -0.09807,0 -0.166646,0.111792 -0.241448,0.175135 -0.147947,0.1254 -0.526951,0.371523 -0.737651,0.29671 -0.215684,-0.07609 -0.67739,0.280554 -0.751362,0.283104 -0.02702,0.0019 0.0015,-0.269502 0.148777,-0.289481 -0.06356,0.0098 0.518223,-0.300536 0.502431,-0.365148 -0.01911,-0.07652 -1.163199,0.349418 -1.112083,0.434861 0.02452,0.0391 0.124258,0.0391 -0.0067,0.124976 -0.0748,0.04633 -0.1545931,0.340492 -0.2248272,0.340492 -0.2098647,0.09396 -0.2231635,-0.184913 -0.4567159,0.173859 l -0.3715219,0.15298 c -0.5518867,0.599791 -0.9338012,1.359418 -1.0721881,2.20321 -0.00544,0.03358 0.138802,0.09608 0.1575038,0.119018 0.046552,0.05696 0.046552,0.302661 0.069404,0.383003 0.057348,0.20319 0.1990614,0.316262 0.3075272,0.501174 0.063994,0.110092 0.1703861,0.388527 0.136725,0.50415 0.044882,-0.07567 0.4446668,0.346443 0.5178065,0.434436 0.172049,0.207015 0.30462,0.457815 0.025343,0.662707 -0.090189,0.06631 0.13714,0.479919 0.019943,0.581516 l -0.1500228,0.03954 c -0.1479463,0.09309 -0.081033,0.321362 0.00876,0.417433 0.755515,0.808084 1.8202234,1.312235 3.0004604,1.312235 2.292734,0 4.151191,-1.900977 4.151191,-4.246169 z m -4.782036,-2.702261 c 0.05194,-0.02337 0.121763,-0.02253 0.129244,-0.09352 0.0061,-0.06292 0.01828,-0.01956 0.03324,-0.04251 0.01453,-0.02252 -0.02784,-0.05865 -0.04571,-0.06206 -0.02659,-0.006 -0.04488,0.02932 -0.06191,0.04422 l -0.02991,0.008 -0.02827,0.03699 0.0033,0.02041 -0.03615,0.04506 c -0.03533,0.03571 8.32e-4,0.05909 0.03615,0.04337 z"
     id="path2-23"
     inkscape:connector-curvature="0"
     style="stroke-width:0.42030352" />
  <path
     inkscape:connector-curvature="0"
     d="m 21.30405,14.91321 c -0.301867,0.210942 -0.671063,0.335667 -1.069679,0.335667 -0.403903,0 -0.777568,-0.127917 -1.08167,-0.343958 h -0.01309 c -1.505236,0.281307 -1.547018,1.819105 -1.547018,1.819105 0,0 0.727593,1.406978 2.574096,1.479743 1.846577,0.07275 2.574096,-1.479444 2.574096,-1.479444 -0.05868,-1.37343 -1.213122,-1.747805 -1.436783,-1.811113 z"
     id="path2-5"
     style="stroke-width:0.07361713" />
  <path
     inkscape:connector-curvature="0"
     d="m 20.234371,12.019952 c -0.807211,0 -1.461665,0.639386 -1.461665,1.428006 0,0.788622 0.654454,1.427996 1.461665,1.427996 0.807288,0 1.461666,-0.639374 1.461666,-1.427996 0,-0.78862 -0.654378,-1.428006 -1.461666,-1.428006 z m 0.216365,2.476974 h -0.407405 v -0.398019 h 0.407405 z m 0.476371,-1.252274 c -0.05081,0.07845 -0.159313,0.18511 -0.325551,0.320167 -0.08603,0.06991 -0.139425,0.126083 -0.160205,0.168594 -0.02071,0.04245 -0.03009,0.118448 -0.02823,0.228042 h -0.36979 c -9.54e-4,-0.0519 -0.0014,-0.08351 -0.0014,-0.09486 0,-0.117088 0.01989,-0.213497 0.05945,-0.289025 0.03962,-0.07556 0.118874,-0.160517 0.237815,-0.254967 0.118946,-0.09445 0.189997,-0.156298 0.213161,-0.185617 0.03568,-0.04624 0.05363,-0.09723 0.05363,-0.153021 0,-0.07745 -0.03166,-0.143787 -0.09496,-0.199009 -0.0633,-0.05519 -0.148594,-0.08292 -0.255912,-0.08292 -0.10344,0 -0.189923,0.02884 -0.259563,0.0864 -0.06958,0.05767 -0.117456,0.145453 -0.143515,0.263481 l -0.374113,-0.04533 c 0.01062,-0.169033 0.08432,-0.312599 0.22113,-0.430623 0.136738,-0.118034 0.316318,-0.177036 0.538639,-0.177036 0.23394,0 0.41999,0.05974 0.5583,0.179143 0.138165,0.11948 0.207351,0.25854 0.207351,0.417159 0,0.0879 -0.0255,0.171001 -0.07613,0.249373 z"
     id="path4-7"
     style="stroke-width:0.07361713" />
  <path
     inkscape:connector-curvature="0"
     d="m 5.390498,15.028215 c -0.3018665,0.210942 -0.6710632,0.335667 -1.0696794,0.335667 -0.4039025,0 -0.7775682,-0.127916 -1.0816702,-0.343959 h -0.013078 c -1.5052359,0.281308 -1.5470188,1.819106 -1.5470188,1.819106 0,0 0.7275925,1.406978 2.5740959,1.479743 1.8465777,0.07275 2.5740969,-1.479444 2.5740969,-1.479444 -0.058691,-1.37343 -1.2131291,-1.747804 -1.4367891,-1.811113 z"
     id="path2-5-3"
     style="stroke-width:0.07361713" />
  <path
     inkscape:connector-curvature="0"
     d="m 4.3208186,12.134957 c -0.8072108,0 -1.4616645,0.639387 -1.4616645,1.428005 0,0.788623 0.6544537,1.427998 1.4616645,1.427998 0.807288,0 1.4616665,-0.639375 1.4616665,-1.427998 0,-0.788618 -0.6543785,-1.428005 -1.4616665,-1.428005 z M 4.537184,14.611933 H 4.1297785 v -0.39802 H 4.537184 Z m 0.4763715,-1.252275 c -0.050803,0.07845 -0.1593128,0.185109 -0.3255508,0.320165 -0.086023,0.0699 -0.1394265,0.126083 -0.1602065,0.168595 -0.02071,0.04245 -0.030094,0.118447 -0.028236,0.228042 h -0.369789 c -9.543e-4,-0.0519 -0.00149,-0.08351 -0.00149,-0.09486 0,-0.117086 0.019882,-0.213496 0.059443,-0.289025 0.039626,-0.07556 0.1188716,-0.160517 0.2378142,-0.254967 0.1189466,-0.09445 0.1899977,-0.156297 0.2131618,-0.185616 0.035678,-0.04624 0.053628,-0.09723 0.053628,-0.153021 0,-0.07745 -0.031665,-0.143787 -0.094962,-0.199009 -0.063308,-0.05519 -0.1485926,-0.08292 -0.2559129,-0.08292 -0.1034434,0 -0.1899223,0.02884 -0.2595623,0.08642 -0.069571,0.05767 -0.1174591,0.145452 -0.1435143,0.263481 l -0.3741094,-0.04533 c 0.010667,-0.169032 0.084315,-0.312599 0.2211294,-0.430622 0.1367378,-0.118035 0.3163157,-0.177037 0.5386383,-0.177037 0.2339408,0 0.4199908,0.05975 0.5582996,0.179143 0.1381654,0.11948 0.2073522,0.25854 0.2073522,0.417159 0,0.0879 -0.025487,0.171003 -0.076121,0.249373 z"
     id="path4-7-0"
     style="stroke-width:0.07361713" />
  <path
     inkscape:connector-curvature="0"
     d="m 11.909492,3.5278452 c 3.543118,0 6.013084,1.9180534 7.087728,2.9522229 -1.044814,1.1698087 -3.514779,3.4158163 -7.087728,3.4158163 -3.2962722,0 -5.9138987,-2.2517391 -7.0683398,-3.4431989 C 5.9545766,5.4038692 8.4334921,3.5278452 11.909492,3.5278452 Z m 0,-1.2736074 c -5.6446787,0 -8.9603398,4.171702 -8.9603398,4.171702 0,0 3.6057633,4.7435522 8.9603398,4.7435522 5.766982,0 8.937966,-4.7435522 8.937966,-4.7435522 0,0 -3.200068,-4.171702 -8.937966,-4.171702 z m -0.01119,1.9104117 c -1.64739,0 -2.9830508,1.1411523 -2.9830508,2.5472154 0,1.4066999 1.3356608,2.5472151 2.9830508,2.5472151 1.64739,0 2.98305,-1.1405152 2.98305,-2.5472151 0,-1.4060631 -1.33566,-2.5472154 -2.98305,-2.5472154 z"
     id="path2-20"
     style="stroke-width:0.68913323" />
</svg>
