<?xml version="1.0" encoding="UTF-8" standalone="no"?>
<svg
   xmlns:dc="http://purl.org/dc/elements/1.1/"
   xmlns:cc="http://creativecommons.org/ns#"
   xmlns:rdf="http://www.w3.org/1999/02/22-rdf-syntax-ns#"
   xmlns:svg="http://www.w3.org/2000/svg"
   xmlns="http://www.w3.org/2000/svg"
   xmlns:sodipodi="http://sodipodi.sourceforge.net/DTD/sodipodi-0.dtd"
   xmlns:inkscape="http://www.inkscape.org/namespaces/inkscape"
   width="24"
   height="24"
   viewBox="0 0 24 24"
   version="1.1"
   id="svg4"
   sodipodi:docname="eye-all.svg"
   inkscape:version="0.92.4 (5da689c313, 2019-01-14)">
  <metadata
     id="metadata10">
    <rdf:RDF>
      <cc:Work
         rdf:about="">
        <dc:format>image/svg+xml</dc:format>
        <dc:type
           rdf:resource="http://purl.org/dc/dcmitype/StillImage" />
        <dc:title></dc:title>
      </cc:Work>
    </rdf:RDF>
  </metadata>
  <defs
     id="defs8" />
  <sodipodi:namedview
     pagecolor="#ffffff"
     bordercolor="#666666"
     borderopacity="1"
     objecttolerance="10"
     gridtolerance="10"
     guidetolerance="10"
     inkscape:pageopacity="0"
     inkscape:pageshadow="2"
     inkscape:window-width="1908"
     inkscape:window-height="1424"
     id="namedview6"
     showgrid="false"
     inkscape:zoom="9.8333333"
     inkscape:cx="-23.847458"
     inkscape:cy="12"
     inkscape:window-x="863"
     inkscape:window-y="229"
     inkscape:window-maximized="0"
     inkscape:current-layer="svg4" />
  <path
     d="m 21.07484,23.220341 h -0.469397 c 0,-1.09166 0.02822,-1.248516 -0.413897,-1.401855 -0.676346,-0.233526 -1.315535,-0.453685 -1.548823,-1.216158 -0.08466,-0.278542 -0.141571,-0.737153 0.0729,-1.341364 0.480215,-1.356837 0.600622,-2.520241 0.330177,-3.191977 -0.316066,-0.78428 -1.273205,-0.787796 -1.592094,0.01191 -0.270914,0.680879 -0.148626,1.837954 0.335352,3.173691 0.218706,0.602099 0.163677,1.062117 0.07902,1.342064 -0.230466,0.765992 -0.863541,0.984746 -1.534242,1.215455 -0.461872,0.159667 -0.432711,0.305974 -0.432711,1.408184 h -0.467987 l -9.4e-4,-0.438212 c 0,-0.885567 0.04703,-1.396226 0.746896,-1.638192 0.791108,-0.273619 1.57281,-0.517695 1.19701,-1.553785 -1.112819,-3.070296 -0.317949,-4.810477 0.87718,-4.810477 1.172082,0 1.988117,1.676174 0.878121,4.810474 -0.364512,1.029763 0.387558,1.274543 1.197009,1.553787 0.700803,0.241966 0.747367,0.754034 0.747367,1.641007 z m 2.262325,-1.557305 c -0.606266,-0.209608 -1.170671,-0.393192 -0.897405,-1.165514 0.832498,-2.350725 0.221059,-3.607681 -0.658474,-3.607681 -0.594976,0 -1.057318,0.574668 -1.057318,1.635379 0,0.8926 0.269974,1.52987 0.425185,2.057413 h 0.492913 c -0.07996,-0.527543 -0.689514,-1.802083 -0.360278,-2.627862 0.19378,-0.486744 0.801456,-0.487448 0.994295,-0.0084 0.178728,0.443838 0.08513,1.274541 -0.25116,2.223412 -0.182493,0.515585 -0.131696,0.91511 -0.05691,1.159186 0.143452,0.468457 0.45952,0.694245 0.816977,0.849694 0.708799,0.310193 0.643422,0.02953 0.643422,1.041013 h 0.468926 l 9.1e-4,-0.325668 c 0,-0.664702 -0.0348,-1.049456 -0.561113,-1.23093 z m -10.726054,1.557305 h 0.468927 c 0,-1.011472 -0.06538,-0.730822 0.643422,-1.041016 0.357927,-0.155449 0.673994,-0.381237 0.816977,-0.849693 0.07478,-0.24478 0.12558,-0.643602 -0.05691,-1.159186 -0.336292,-0.948871 -0.429889,-1.779572 -0.251161,-2.223412 0.192839,-0.479711 0.800515,-0.479007 0.994294,0.0084 0.329237,0.826483 -0.280321,2.100321 -0.360278,2.627863 h 0.492914 c 0.155211,-0.527541 0.425185,-1.164811 0.425185,-2.057412 4.7e-4,-1.061413 -0.461872,-1.636083 -1.056849,-1.636083 -0.879532,0 -1.490971,1.256957 -0.658473,3.607682 0.273266,0.773025 -0.291139,0.955906 -0.897405,1.165516 -0.526779,0.181475 -0.561584,0.566228 -0.561584,1.231635 z"
     id="path2"
     inkscape:connector-curvature="0"
     style="stroke-width:0.5751785" />
  <path
     d="m 11.594162,22.677965 h -1.366526 v 1.364516 L 7.7984087,22.677965 H 4.3060255 v -1.364516 h 0.9110172 v 0.682257 h 2.8847355 l 1.2148411,0.682259 V 21.995706 H 10.683145 V 19.266332 H 9.7721274 V 18.584073 H 11.594162 Z M 8.8611107,20.631189 H 4.4577103 L 2.0284839,21.995706 V 20.631189 H 0.66195851 V 15.85504 H 8.8611107 Z M 4.7615346,19.238019 H 2.483992 v 0.369784 H 4.7615346 Z M 7.0390772,18.243286 H 2.483992 v 0.341129 h 4.5550852 z m 0,-1.023389 H 2.483992 v 0.34113 h 4.5550852 z"
     id="path2-2"
     inkscape:connector-curvature="0"
     style="stroke-width:0.39419183" />
  <path
     d="m 12.503753,11.425479 c -0.01202,-0.0231 0.117423,-0.03571 0.140425,-0.03571 0.02541,0.0031 -0.06729,0.158223 -0.140425,0.03571 z m -0.738866,-1.075357 0.03709,-0.01085 c 0.02197,0.01926 -0.02471,0.03325 -0.01751,0.04761 0.02953,0.05427 0.0073,0.08681 0.0027,0.116218 -0.0048,0.02976 -0.03571,0.0168 -0.05115,0.03256 -0.0182,0.0231 0.08858,0.02624 0.08996,0.02976 0.0038,0.01155 -0.128753,0.03116 -0.104376,0.05986 0.03297,0.04762 0.282911,-0.06826 0.243085,-0.0616 0.07725,-0.03955 0.01,-0.04376 -0.03331,-0.06652 -0.01476,-0.07526 -0.02712,-0.191477 -0.07313,-0.238033 l 0.03021,-0.03571 c -0.07073,-0.104666 -0.123602,0.126719 -0.123602,0.126719 z m 4.466161,2.415702 c 0,2.31979 -1.844764,4.200615 -4.120076,4.200615 -2.2756545,0 -4.1200757,-1.880825 -4.1200757,-4.200615 0,-2.31979 1.8444212,-4.2006143 4.1200757,-4.2006143 2.275312,0 4.120076,1.8808243 4.120076,4.2006143 z M 13.377896,10.8857 c -0.002,-0.05111 -0.06522,-0.09942 -0.131156,-0.01085 -0.04635,0.06091 -0.0381,0.153672 -0.06317,0.194978 -0.03572,0.06126 0.194673,0.118668 0.194673,0.06091 0.0086,-0.09696 0.251326,-0.02205 0.298707,-0.0087 0.08515,0.02416 0.220766,-0.07912 0.07245,-0.13337 -0.121886,-0.04551 -0.186091,-0.09416 -0.197078,-0.183076 0,0 0.06455,-0.06161 0.0364,-0.05811 -0.07484,0.0095 -0.210811,0.27514 -0.210811,0.138271 z m 2.161665,1.880124 c 0,-0.362303 -0.06077,-0.728106 -0.122572,-0.921334 -0.01991,-0.06091 -0.0649,-0.109216 -0.123258,-0.132319 -0.0879,-0.03501 -0.459045,0.20898 -0.51501,0.08891 -0.03674,-0.08016 -0.111242,0.05111 -0.19639,0.0028 -0.0412,-0.02311 -0.155876,-0.180277 -0.20772,-0.161023 -0.106093,0.03885 0.162742,0.337448 0.236217,0.376654 0.06902,-0.05321 0.292525,-0.162773 0.340593,-0.0133 0.09201,0.281442 -0.253041,0.589836 -0.429518,0.752261 -0.263685,0.242935 -0.214244,-0.157173 -0.39381,-0.298244 -0.09442,-0.07387 -0.09339,-0.231034 -0.188837,-0.285292 -0.04258,-0.0245 -0.237935,-0.253787 -0.236218,-0.284592 l -0.0058,0.05811 c -0.03227,0.02485 -0.100941,-0.09381 -0.108151,-0.112367 0,0.103265 0.164802,0.267789 0.219393,0.350401 0.09305,0.14177 0.142829,0.3483 0.256818,0.464169 0.06112,0.0623 0.294586,0.319946 0.355357,0.314345 0.06626,-0.006 0.275702,-0.160324 0.312782,-0.151572 0.22111,0.05322 -0.520503,1.121915 -0.590888,1.254234 -0.05802,0.110966 0.04738,0.385406 0.0388,0.516676 -0.01,0.151571 -0.127036,0.200579 -0.237934,0.283191 -0.118796,0.08856 -0.09098,0.260787 -0.190897,0.323797 -0.177507,0.111316 -0.305229,0.47362 -0.557241,0.471868 -0.07416,-3.49e-4 -0.391406,0.126019 -0.43295,0.0025 -0.03228,-0.08961 -0.07554,-0.157522 -0.121199,-0.246085 -0.04463,-0.08681 -0.0051,-0.176776 -0.0594,-0.253437 -0.03742,-0.05321 -0.163086,-0.173976 -0.174416,-0.236985 -6.88e-4,-0.05425 0.04017,-0.219132 0.09613,-0.247836 0.07862,-0.04095 0.0151,-0.160323 0.0055,-0.229633 -0.01648,-0.123918 -0.09167,-0.226134 -0.181969,-0.297894 -0.13356,-0.104666 -0.06455,-0.187978 -0.0333,-0.33745 0,-0.07141 -0.04258,-0.165224 -0.136649,-0.13722 -0.193645,0.0574 -0.134933,-0.154021 -0.276045,-0.144571 -0.101629,0.0074 -0.184717,0.07316 -0.279137,0.102215 -0.118794,0.03641 -0.240337,-0.02871 -0.357759,-0.04376 -0.483079,-0.0623 -0.640671,-0.625191 -0.514666,-1.031251 0.01271,-0.06652 -0.03914,-0.189729 -0.01648,-0.241185 0.05425,-0.123218 0.164804,-0.261488 0.261626,-0.354952 0.05425,-0.05251 0.123945,-0.03921 0.187807,-0.08016 0.09854,-0.06336 0.09991,-0.19358 0.19639,-0.273392 0.137336,-0.113766 0.324799,-0.111316 0.504022,-0.135819 0.09545,-0.01295 0.458702,-0.09311 0.516041,-0.02101 0,0.0133 0.06557,0.211432 -0.0065,0.20023 0.148667,0.0081 0.360507,0.262188 0.501619,0.20268 0.07245,-0.0308 0.04601,-0.257637 0.194675,-0.148071 0.08995,0.06581 0.493036,0.09521 0.57681,0.02415 0.05151,-0.0434 0.08034,-0.325547 0.01786,-0.357403 0.03983,0.04026 -0.20978,0.0434 -0.233129,0.03431 -0.0412,-0.0154 -0.07966,0.03991 -0.145918,0.0087 0.03983,0.01925 -0.221797,-0.123918 -0.07484,-0.233484 -0.06146,0.04586 -0.118795,-0.01295 -0.18506,0.03746 -0.04566,0.0378 0.02128,0.06301 -0.04395,0.09591 -0.103689,0.05355 -0.181971,-0.183778 -0.221111,-0.210731 -0.03983,-0.0266 -0.348147,-0.247136 -0.264372,-0.103265 l 0.270896,0.27479 c -0.01339,0.0087 -0.07107,-0.100114 -0.07107,-0.02065 0.0182,-0.04725 0.0068,0.20268 -0.03572,0.121467 -0.01888,-0.03116 0.03091,-0.04866 0.002,-0.09381 0,-0.02976 -0.07828,-0.05881 -0.09339,-0.07912 -0.04292,-0.05425 -0.156906,-0.173975 -0.218707,-0.20268 -0.01716,-0.0081 -0.262312,0.03046 -0.282912,0.03851 -0.02403,0.03431 -0.04463,0.07037 -0.06146,0.108866 -0.05081,0.01925 -0.09854,0.0441 -0.143858,0.0749 l -0.0539,0.123567 c -0.02335,0.02135 -0.262657,0.101866 -0.26403,0.105016 0.01,-0.02625 -0.167206,-0.05986 -0.155532,-0.112366 0.01305,-0.05777 0.07313,-0.238036 0.05768,-0.303845 -0.01648,-0.06896 0.368747,0.09941 0.393467,-0.08227 0.01,-0.07876 0.0158,-0.170476 -0.107465,-0.183777 0.02334,0.0028 0.238621,-0.08612 0.274329,-0.126018 0.05013,-0.05881 0.165146,-0.154723 0.248577,-0.154723 0.09751,0 0.07657,-0.144571 0.121542,-0.215281 0.04497,0.01856 -0.02403,0.131619 0.02987,0.177475 -0.0034,-0.03605 0.152786,0.01995 0.167892,0.01155 0.03571,-0.0189 0.234845,-0.0076 0.203944,-0.102916 -0.03433,-0.09696 0.01751,-0.06826 0.06214,-0.08856 -0.0075,0.0031 0.116736,-0.216683 0.138022,-0.144571 -0.01476,-0.07421 -0.144545,0.02591 -0.189866,0.02205 -0.104718,-0.0084 -0.06042,-0.1820265 -0.02094,-0.232783 0.03055,-0.040253 -0.08343,-0.089611 -0.0848,-0.012601 -0.002,0.115166 -0.107122,0.219482 -0.08274,0.372454 0.03709,0.230684 -0.252355,-0.05565 -0.277762,-0.03991 -0.09613,0.05951 -0.174761,-0.0749 -0.124976,-0.155423 0.05081,-0.08226 0.173386,-0.07842 0.223858,-0.1666249 0.03571,-0.062313 0.07725,-0.1347694 0.132185,-0.1820271 0.183687,-0.1571727 0.234501,-0.031502 0.417501,-0.014353 0.178881,0.016804 0.06043,0.043403 0.0357,0.1134164 -0.02369,0.066516 0.0982,0.09031 0.140426,0.034652 0.02403,-0.032201 0.07863,-0.113066 0.102315,-0.1729244 0.03055,-0.07771 0.30935,-0.068958 0.114675,-0.1876284 -0.128409,-0.078064 -0.688052,-0.2352347 -1.062978,-0.2352347 -0.08103,0 -0.137679,0.092063 -0.199479,0.1442216 -0.12223,0.1032651 -0.435355,0.3059444 -0.60943,0.2443366 -0.178193,-0.062658 -0.559644,0.2310324 -0.620758,0.2331331 -0.02232,0.00145 0.0013,-0.2219323 0.122916,-0.2383839 -0.05252,0.00808 0.428144,-0.2474868 0.415097,-0.3006953 -0.01579,-0.063012 -0.961008,0.2877424 -0.918777,0.3581025 0.02026,0.032201 0.102659,0.032201 -0.0055,0.1029156 -0.0618,0.038156 -0.127721,0.2803909 -0.185747,0.2803909 -0.173386,0.07737 -0.184373,-0.1522732 -0.3773285,0.143171 l -0.306946,0.126019 c -0.455956,0.493921 -0.771485,1.119463 -0.885817,1.814314 -0.0045,0.02765 0.114675,0.07912 0.130126,0.09801 0.03846,0.04691 0.03846,0.249237 0.05734,0.315397 0.04738,0.167325 0.16446,0.260438 0.254072,0.41271 0.05287,0.09066 0.140769,0.319947 0.112959,0.415162 0.03708,-0.06231 0.367373,0.285291 0.4278,0.357752 0.142143,0.170474 0.25167,0.377004 0.02094,0.54573 -0.07451,0.05461 0.113302,0.395207 0.01648,0.47887 l -0.123945,0.03256 c -0.12223,0.07666 -0.06695,0.264638 0.0072,0.343751 0.6241895,0.665446 1.5038265,1.080608 2.4789105,1.080608 1.894204,0 3.429619,-1.565429 3.429619,-3.496663 z m -3.950808,-2.225275 c 0.04292,-0.01925 0.100598,-0.01856 0.106779,-0.07701 0.0051,-0.05181 0.0151,-0.0161 0.02746,-0.03501 0.01201,-0.01855 -0.023,-0.0483 -0.03777,-0.0511 -0.02197,-0.0049 -0.03708,0.02415 -0.05115,0.03641 l -0.02471,0.0066 -0.02335,0.03046 0.0027,0.0168 -0.02987,0.0371 c -0.02919,0.0294 6.87e-4,0.04866 0.02987,0.03571 z"
     id="path2-23"
     inkscape:connector-curvature="0"
     style="stroke-width:0.34667918" />
  <path
     inkscape:connector-curvature="0"
     d="m 19.72328,10.334714 c -0.249395,0.173708 -0.554417,0.276417 -0.883744,0.276417 -0.333695,0 -0.642409,-0.105337 -0.893651,-0.283245 h -0.01081 c -1.243591,0.231653 -1.278111,1.498009 -1.278111,1.498009 0,0 0.601121,1.158627 2.126659,1.218548 1.525599,0.05991 2.126659,-1.218302 2.126659,-1.218302 -0.04848,-1.131001 -1.002254,-1.439293 -1.187037,-1.491427 z"
     id="path2-5"
     style="stroke-width:0.06072166" />
  <path
     inkscape:connector-curvature="0"
     d="m 18.839536,7.9521545 c -0.666899,0 -1.207594,0.5265268 -1.207594,1.175944 0,0.6494191 0.540695,1.1759355 1.207594,1.1759355 0.666963,0 1.207595,-0.5265164 1.207595,-1.1759355 0,-0.6494172 -0.540632,-1.175944 -1.207595,-1.175944 z M 19.018292,9.99191 H 18.681703 V 9.6641465 h 0.336589 z m 0.393567,-1.0312308 c -0.04197,0.064601 -0.131621,0.1524357 -0.268963,0.2636524 -0.07107,0.057574 -0.11519,0.103828 -0.132358,0.1388355 -0.01711,0.03496 -0.02486,0.097542 -0.02333,0.18779 h -0.305512 c -7.88e-4,-0.04274 -0.0012,-0.068768 -0.0012,-0.078118 0,-0.096421 0.01643,-0.1758121 0.04911,-0.2380081 0.03274,-0.062222 0.09821,-0.1321839 0.196477,-0.2099618 0.09827,-0.077782 0.156971,-0.1287096 0.176109,-0.1528532 0.02948,-0.038074 0.04431,-0.08007 0.04431,-0.1260098 0,-0.063784 -0.02616,-0.1184076 -0.07846,-0.1638824 -0.0523,-0.045446 -0.122764,-0.068287 -0.211428,-0.068287 -0.08546,0 -0.156911,0.023749 -0.214445,0.071155 -0.05748,0.047488 -0.09704,0.1197784 -0.118569,0.2169729 l -0.309083,-0.03733 c 0.0088,-0.1391959 0.06966,-0.2574211 0.182692,-0.3546119 0.11297,-0.097196 0.261334,-0.1457867 0.445011,-0.1457867 0.193276,0 0.346986,0.049204 0.461254,0.1475215 0.114149,0.098387 0.171309,0.2129041 0.171309,0.3435256 0,0.072381 -0.02106,0.1408173 -0.06289,0.2053546 z"
     id="path4-7"
     style="stroke-width:0.06072166" />
  <path
     inkscape:connector-curvature="0"
     d="m 6.5758713,10.429419 c -0.2493951,0.173708 -0.5544168,0.276418 -0.8837444,0.276418 -0.3336949,0 -0.6424088,-0.105338 -0.8936508,-0.283246 H 4.7876715 C 3.5440804,10.654244 3.5095603,11.9206 3.5095603,11.9206 c 0,0 0.6011201,1.158627 2.1266585,1.218548 1.5255998,0.05991 2.1266594,-1.218302 2.1266594,-1.218302 -0.048489,-1.131001 -1.0022592,-1.439293 -1.187042,-1.491427 z"
     id="path2-5-3"
     style="stroke-width:0.06072166" />
  <path
     inkscape:connector-curvature="0"
     d="m 5.6921269,8.0468598 c -0.6668988,0 -1.2075933,0.5265267 -1.2075933,1.1759439 0,0.6494191 0.5406945,1.1759363 1.2075933,1.1759363 0.6669628,0 1.2075951,-0.5265172 1.2075951,-1.1759363 0,-0.6494172 -0.5406323,-1.1759439 -1.2075951,-1.1759439 z M 5.8708831,10.086616 H 5.534294 V 9.7588518 H 5.8708831 Z M 6.2644502,9.0553845 c -0.041973,0.064601 -0.1316206,0.1524356 -0.2689626,0.2636523 -0.071071,0.057574 -0.1151909,0.103828 -0.1323589,0.1388355 -0.01711,0.03496 -0.024863,0.097542 -0.023328,0.18779 h -0.305511 c -7.885e-4,-0.04274 -0.00123,-0.068768 -0.00123,-0.078118 0,-0.096421 0.016426,-0.1758122 0.049111,-0.2380082 0.032738,-0.062222 0.098209,-0.1321838 0.1964766,-0.2099618 0.098271,-0.077782 0.1569717,-0.1287096 0.1761094,-0.1528532 0.029476,-0.038074 0.044306,-0.08007 0.044306,-0.1260098 0,-0.063784 -0.026161,-0.1184076 -0.078456,-0.1638824 -0.052304,-0.045446 -0.1227638,-0.068287 -0.2114293,-0.068287 -0.085463,0 -0.1569094,0.023749 -0.2144444,0.071155 -0.057478,0.047488 -0.097042,0.1197784 -0.1185682,0.2169729 l -0.3090805,-0.03733 c 0.00881,-0.1391959 0.069659,-0.257421 0.182692,-0.3546119 0.1129696,-0.097196 0.2613327,-0.1457867 0.4450105,-0.1457867 0.1932765,0 0.3469867,0.049204 0.4612542,0.1475216 0.1141491,0.098386 0.1713096,0.212904 0.1713096,0.3435255 0,0.072381 -0.021057,0.1408173 -0.062889,0.2053546 z"
     id="path4-7-0"
     style="stroke-width:0.06072166" />
  <path
     inkscape:connector-curvature="0"
     d="m 12.214577,1.3486685 c 3.543118,0 6.013084,1.699264 7.087728,2.6154674 -1.044814,1.0363705 -3.514779,3.0261795 -7.087728,3.0261795 -3.2962725,0 -5.913899,-1.9948867 -7.0683401,-3.0504386 C 6.2596613,3.0106974 8.7385768,1.3486685 12.214577,1.3486685 Z m 0,-1.12832905 c -5.644679,0 -8.9603401,3.69584255 -8.9603401,3.69584255 0,0 3.6057633,4.2024626 8.9603401,4.2024626 5.766982,0 8.937966,-4.2024626 8.937966,-4.2024626 0,0 -3.200068,-3.69584255 -8.937966,-3.69584255 z m -0.01119,1.69249405 c -1.64739,0 -2.9830511,1.0109829 -2.9830511,2.2566585 0,1.2462399 1.3356611,2.2566583 2.9830511,2.2566583 1.64739,0 2.98305,-1.0104184 2.98305,-2.2566583 0,-1.2456756 -1.33566,-2.2566585 -2.98305,-2.2566585 z"
     id="path2-20"
     style="stroke-width:0.64863932" />
</svg>
