<?xml version="1.0" encoding="UTF-8" standalone="no"?>
<svg
   xmlns:dc="http://purl.org/dc/elements/1.1/"
   xmlns:cc="http://creativecommons.org/ns#"
   xmlns:rdf="http://www.w3.org/1999/02/22-rdf-syntax-ns#"
   xmlns:svg="http://www.w3.org/2000/svg"
   xmlns="http://www.w3.org/2000/svg"
   xmlns:sodipodi="http://sodipodi.sourceforge.net/DTD/sodipodi-0.dtd"
   xmlns:inkscape="http://www.inkscape.org/namespaces/inkscape"
   width="24"
   height="24"
   fill-rule="evenodd"
   clip-rule="evenodd"
   version="1.1"
   id="svg4"
   sodipodi:docname="invite-accept.svg"
   inkscape:version="0.92.4 (5da689c313, 2019-01-14)">
  <metadata
     id="metadata10">
    <rdf:RDF>
      <cc:Work
         rdf:about="">
        <dc:format>image/svg+xml</dc:format>
        <dc:type
           rdf:resource="http://purl.org/dc/dcmitype/StillImage" />
        <dc:title></dc:title>
      </cc:Work>
    </rdf:RDF>
  </metadata>
  <defs
     id="defs8" />
  <sodipodi:namedview
     pagecolor="#ffffff"
     bordercolor="#666666"
     borderopacity="1"
     objecttolerance="10"
     gridtolerance="10"
     guidetolerance="10"
     inkscape:pageopacity="0"
     inkscape:pageshadow="2"
     inkscape:window-width="3009"
     inkscape:window-height="1149"
     id="namedview6"
     showgrid="false"
     inkscape:zoom="9.8333333"
     inkscape:cx="12"
     inkscape:cy="12"
     inkscape:window-x="0"
     inkscape:window-y="0"
     inkscape:window-maximized="0"
     inkscape:current-layer="svg4" />
  <path
     d="M 16.271187,22.001746 H 0.20338984 V 9.8926545 L 1.5423729,8.5645316 V 1.9339491 H 14.932204 v 6.633319 l 1.338983,1.3253864 z M 2.2118644,12.449474 V 2.8461218 H 14.262712 V 12.447651 L 8.2372882,17.440884 Z M 6.2288136,4.316544 7.1025,6.51488 8.90678,6.9673174 7.6427797,8.7788922 l 0.2410169,2.4783728 -1.654983,-1.0791 -1.6549831,1.0791 0.241017,-2.4783728 -1.264,-1.8115748 L 5.3551271,6.51488 Z m 5.3559324,5.902668 v 0.912173 H 9.5762717 V 10.219212 Z M 12.923729,8.3948676 V 9.3070403 H 9.5762717 V 8.3948676 Z m 0,-1.8243451 V 7.4826949 H 9.5762717 V 6.5705225 Z m 0,-1.8243452 V 5.6583498 H 9.5762717 V 4.7461773 Z"
     id="path2"
     inkscape:connector-curvature="0"
     style="stroke-width:0.7814678" />
  <path
     inkscape:connector-curvature="0"
     d="m 23.419241,14.835063 -2.965956,7.857123 c -0.231641,0.613643 -0.607131,0.613643 -0.838772,0 l -2.965955,-7.857123 c -0.231641,-0.613641 -0.231641,-1.608354 0,-2.221994 0.231641,-0.613642 0.607131,-0.613642 0.838772,0 l 1.953378,5.174701 V 2.7240916 c 0,-0.8682115 0.265453,-1.5714243 0.593191,-1.5714243 0.327738,0 0.593191,0.7032128 0.593191,1.5714243 V 17.78777 l 1.953378,-5.174701 c 0.115672,-0.306428 0.26753,-0.460429 0.419386,-0.460429 0.151857,0 0.303714,0.153216 0.419387,0.460429 0.231641,0.61364 0.231641,1.608353 0,2.221994 z"
     id="path4"
     style="stroke-width:0.48274091" />
</svg>
