<svg xmlns="http://www.w3.org/2000/svg" xmlns:xlink="http://www.w3.org/1999/xlink" version="1.1" x="0px" y="0px" viewBox="0 0 100 125" enable-background="new 0 0 100 100" xml:space="preserve"><path d="M9.99,92.62c-0.2,0.97-0.42,1.77-0.7,2.51c-0.25,0.63-0.65,1.54-1.31,2.11c-0.24,0.2-0.55,0.37-0.89,0.45  c-0.04,0-0.09,0-0.12,0.02c-0.29,0.05-0.6,0.03-0.87-0.09c-0.27-0.12-0.52-0.37-0.72-0.7c-0.32-0.52-0.46-1.14-0.41-1.73  c0.08-0.75,0.41-1.37,0.99-1.81c0.7-0.55,1.79-0.85,2.94-0.85c0.34,0,0.68,0.03,1.03,0.08L9.99,92.62z"/><path d="M64.39,47.74c-0.85-1.02-2.03-1.53-3.52-1.53c-1.53,0-2.75,0.52-3.65,1.57c-0.91,1.06-1.36,2.45-1.36,4.18  c0,1.76,0.45,3.15,1.36,4.18c0.9,1.02,2.08,1.53,3.54,1.53c1.51,0,2.71-0.5,3.59-1.49c0.89-1,1.33-2.38,1.33-4.14  C65.68,50.2,65.25,48.77,64.39,47.74z M64.39,47.74c-0.85-1.02-2.03-1.53-3.52-1.53c-1.53,0-2.75,0.52-3.65,1.57  c-0.91,1.06-1.36,2.45-1.36,4.18c0,1.76,0.45,3.15,1.36,4.18c0.9,1.02,2.08,1.53,3.54,1.53c1.51,0,2.71-0.5,3.59-1.49  c0.89-1,1.33-2.38,1.33-4.14C65.68,50.2,65.25,48.77,64.39,47.74z M91.38,38.92H36.51c-2.44,0-4.42,1.98-4.42,4.42v17.25  c0,2.44,1.98,4.43,4.42,4.43h54.87c2.44,0,4.43-1.99,4.43-4.43V43.34C95.81,40.9,93.82,38.92,91.38,38.92z M49.87,60.82H38.3V43.06  h4.38v14.51h7.19V60.82z M67.62,58.56c-1.77,1.71-4.08,2.57-6.94,2.57c-2.78,0-5.04-0.83-6.79-2.49c-1.76-1.65-2.63-3.81-2.63-6.47  c0-2.8,0.89-5.07,2.67-6.81c1.78-1.73,4.13-2.6,7.06-2.6c2.78,0,5.02,0.83,6.73,2.49c1.71,1.66,2.56,3.85,2.56,6.56  C70.28,54.61,69.4,56.85,67.62,58.56z M89.44,59.63c-1.9,1-4.25,1.5-7.07,1.5c-3.12,0-5.58-0.79-7.38-2.38  c-1.8-1.58-2.7-3.75-2.7-6.53c0-2.79,0.98-5.06,2.95-6.82c1.97-1.76,4.58-2.64,7.85-2.64c2.06,0,3.87,0.26,5.44,0.78v3.76  c-1.49-0.8-3.33-1.19-5.49-1.19c-1.82,0-3.3,0.54-4.44,1.61c-1.14,1.08-1.71,2.52-1.71,4.32c0,1.82,0.51,3.23,1.54,4.23  c1.02,1,2.4,1.5,4.15,1.5c1.04,0,1.87-0.14,2.49-0.41V53.9h-3.89v-3.2h8.26V59.63z M60.87,46.21c-1.53,0-2.75,0.52-3.65,1.57  c-0.91,1.06-1.36,2.45-1.36,4.18c0,1.76,0.45,3.15,1.36,4.18c0.9,1.02,2.08,1.53,3.54,1.53c1.51,0,2.71-0.5,3.59-1.49  c0.89-1,1.33-2.38,1.33-4.14c0-1.84-0.43-3.27-1.29-4.3C63.54,46.72,62.36,46.21,60.87,46.21z"/><path d="M12.31,8.75c0,0.13,0,0.27-0.01,0.41c-0.06,1.09-0.3,2.12-0.74,3.17c-0.57,1.39-0.89,1.84-1.03,1.99  C10.16,14.3,10,14.15,9.9,14.01c-0.62-0.89-0.16-3.44,0.43-5.24L12.31,8.75z"/><path d="M80.7,86.72c-0.13,2.66-0.37,5.49-1.25,8.11c-0.27,0.78-0.66,1.77-1.38,2.38c-0.27,0.23-0.63,0.41-1,0.49H9.6  c0-0.01,0.01-0.01,0.02-0.02c0.52-0.68,0.85-1.44,1.07-2.02c0.43-1.11,0.73-2.34,1-4c0.24-1.48,0.39-3.08,0.5-5.01  c0.09-1.74,0.13-3.61,0.11-5.72c-0.02-1.91-0.08-3.9-0.19-6.08c-0.09-1.95-0.22-3.95-0.39-6.1c-0.15-1.93-0.32-3.86-0.51-5.78  c-0.17-1.71-0.36-3.41-0.56-5.11c-0.15-1.36-0.32-2.72-0.5-4.08c-0.11-0.9-0.23-1.8-0.36-2.71l-0.03-0.22  c-0.04-0.25-0.07-0.5-0.11-0.76C4.06,13.94,7.66,5.38,9.47,3.38c0.36-0.4,0.66-0.56,0.86-0.63c1.02,1.33,1.66,2.88,1.89,4.5  L9.27,7.27L9.09,7.76c-0.19,0.52-1.82,5.11-0.41,7.12c0.3,0.41,0.85,0.91,1.84,0.94c0.04,0.01,0.08,0.01,0.12,0.01h64.45  c-0.02,1.91,0.05,3.78,0.12,5.52l0.06,1.38c0.18,4.9,0.62,9.81,1.18,14.69H36.51c-3.26,0-5.92,2.65-5.92,5.92v17.25  c0,3.27,2.66,5.93,5.92,5.93h43.54C80.7,73.22,81.04,79.98,80.7,86.72z"/><path d="M81.94,12.68c-0.48,1-1.53,1.65-2.68,1.65H12.29c0.21-0.4,0.44-0.9,0.69-1.5c0.47-1.12,0.74-2.33,0.82-3.58  c0.13-2.3-0.46-4.57-1.67-6.54H79.8c0.2,0,0.39,0.03,0.57,0.07c0.61,0.16,1.15,0.56,1.46,1.13C82.88,5.83,83.76,8.91,81.94,12.68z"/><text x="0" y="115" fill="#000000" font-size="5px" font-weight="bold" font-family="'Helvetica Neue', Helvetica, Arial-Unicode, Arial, Sans-serif">Created by Ataur Rahman</text><text x="0" y="120" fill="#000000" font-size="5px" font-weight="bold" font-family="'Helvetica Neue', Helvetica, Arial-Unicode, Arial, Sans-serif">from the Noun Project</text></svg>