<?xml version="1.0" encoding="UTF-8" standalone="no"?>
<svg
   xmlns:dc="http://purl.org/dc/elements/1.1/"
   xmlns:cc="http://creativecommons.org/ns#"
   xmlns:rdf="http://www.w3.org/1999/02/22-rdf-syntax-ns#"
   xmlns:svg="http://www.w3.org/2000/svg"
   xmlns="http://www.w3.org/2000/svg"
   xmlns:sodipodi="http://sodipodi.sourceforge.net/DTD/sodipodi-0.dtd"
   xmlns:inkscape="http://www.inkscape.org/namespaces/inkscape"
   width="24"
   height="24"
   viewBox="0 0 24 24"
   version="1.1"
   id="svg4"
   sodipodi:docname="overlay-join.svg"
   inkscape:version="0.92.4 (5da689c313, 2019-01-14)">
  <metadata
     id="metadata10">
    <rdf:RDF>
      <cc:Work
         rdf:about="">
        <dc:format>image/svg+xml</dc:format>
        <dc:type
           rdf:resource="http://purl.org/dc/dcmitype/StillImage" />
        <dc:title></dc:title>
      </cc:Work>
    </rdf:RDF>
  </metadata>
  <defs
     id="defs8" />
  <sodipodi:namedview
     pagecolor="#ffffff"
     bordercolor="#666666"
     borderopacity="1"
     objecttolerance="10"
     gridtolerance="10"
     guidetolerance="10"
     inkscape:pageopacity="0"
     inkscape:pageshadow="2"
     inkscape:window-width="3268"
     inkscape:window-height="1708"
     id="namedview6"
     showgrid="false"
     inkscape:zoom="27.812867"
     inkscape:cx="-9.1192492"
     inkscape:cy="6.6701794"
     inkscape:window-x="373"
     inkscape:window-y="198"
     inkscape:window-maximized="0"
     inkscape:current-layer="svg4" />
  <path
     d="M 6.8537578,23.766887 H 6.4894663 c 0,-0.661844 0.0219,-0.756942 -0.3212189,-0.849908 -0.5249011,-0.14158 -1.0209658,-0.275057 -1.2020169,-0.737324 -0.065703,-0.168872 -0.109871,-0.446916 0.056576,-0.813233 0.3726873,-0.822614 0.4661334,-1.527955 0.2562454,-1.935211 -0.2452941,-0.475488 -0.9881144,-0.47762 -1.2355989,0.0072 -0.2102522,0.412799 -0.1153462,1.114303 0.2602612,1.924124 0.1697344,0.365037 0.1270273,0.643934 0.061326,0.813658 C 4.18618,22.640615 3.6948604,22.77324 3.17434,22.913112 2.8158885,23.009914 2.8385199,23.098616 2.8385199,23.766857 H 2.4753226 L 2.474595,23.50118 c 0,-0.536895 0.036499,-0.846494 0.5796541,-0.993192 C 3.6682156,22.3421 4.2748823,22.194124 3.9832296,21.56597 3.1195884,19.70453 3.7364744,18.649505 4.6639953,18.649505 c 0.9096341,0 1.5429455,1.01622 0.6814958,2.916463 -0.2828922,0.624317 0.3007774,0.772721 0.9289795,0.94202 0.5438815,0.146697 0.5800198,0.45715 0.5800198,0.994898 z M 8.6095123,22.822735 C 8.1389989,22.695655 7.7009734,22.584353 7.9130506,22.116114 8.5591391,20.690932 8.0846112,19.928873 7.4020193,19.928873 c -0.4617513,0 -0.8205675,0.348406 -0.8205675,0.991487 0,0.54116 0.2095225,0.927519 0.3299793,1.247355 H 7.2939732 C 7.2319174,21.847879 6.7588522,21.07516 7.014367,20.574512 c 0.1503898,-0.2951 0.6219972,-0.295527 0.7716568,-0.0051 0.1387079,0.269088 0.066068,0.772721 -0.1949214,1.347996 -0.1416301,0.312585 -0.1022074,0.554807 -0.044167,0.702783 0.1113309,0.284014 0.3566262,0.420903 0.6340428,0.515148 0.5500877,0.188062 0.4993495,0.01791 0.4993495,0.631138 h 0.363926 l 7.109e-4,-0.197444 c 0,-0.402991 -0.027006,-0.636257 -0.4354708,-0.74628 z m -8.32432006,0.944152 h 0.36392682 c 0,-0.613229 -0.0507404,-0.443078 0.49934964,-0.631141 0.2777814,-0.09424 0.523076,-0.231134 0.6340428,-0.515146 0.058036,-0.148403 0.097461,-0.390199 -0.044167,-0.702783 -0.2609909,-0.575275 -0.33363,-1.078907 -0.1949221,-1.347996 0.1496593,-0.290836 0.621267,-0.290409 0.7716558,0.0051 0.2555156,0.501074 -0.2175527,1.273368 -0.279606,1.593203 H 2.418015 C 2.5384718,21.84829 2.7479943,21.46193 2.7479943,20.92077 2.7483591,20.277263 2.3895428,19.928856 1.9277906,19.928856 c -0.6825908,0 -1.15711891,0.76206 -0.5110304,2.187242 0.2120774,0.468664 -0.2259484,0.57954 -0.6964618,0.706621 -0.40882483,0.110022 -0.43583643,0.343287 -0.43583643,0.746706 z"
     id="path2"
     inkscape:connector-curvature="0"
     style="stroke-width:0.39454025" />
</svg>
