<?xml version="1.0" encoding="UTF-8" standalone="no"?>
<svg
   xmlns:dc="http://purl.org/dc/elements/1.1/"
   xmlns:cc="http://creativecommons.org/ns#"
   xmlns:rdf="http://www.w3.org/1999/02/22-rdf-syntax-ns#"
   xmlns:svg="http://www.w3.org/2000/svg"
   xmlns="http://www.w3.org/2000/svg"
   xmlns:sodipodi="http://sodipodi.sourceforge.net/DTD/sodipodi-0.dtd"
   xmlns:inkscape="http://www.inkscape.org/namespaces/inkscape"
   width="24"
   height="24"
   fill-rule="evenodd"
   clip-rule="evenodd"
   version="1.1"
   id="svg4"
   sodipodi:docname="offer-file.svg"
   inkscape:version="0.92.4 (5da689c313, 2019-01-14)">
  <metadata
     id="metadata10">
    <rdf:RDF>
      <cc:Work
         rdf:about="">
        <dc:format>image/svg+xml</dc:format>
        <dc:type
           rdf:resource="http://purl.org/dc/dcmitype/StillImage" />
        <dc:title></dc:title>
      </cc:Work>
    </rdf:RDF>
  </metadata>
  <defs
     id="defs8" />
  <sodipodi:namedview
     pagecolor="#ffffff"
     bordercolor="#666666"
     borderopacity="1"
     objecttolerance="10"
     gridtolerance="10"
     guidetolerance="10"
     inkscape:pageopacity="0"
     inkscape:pageshadow="2"
     inkscape:window-width="2635"
     inkscape:window-height="1736"
     id="namedview6"
     showgrid="false"
     inkscape:zoom="55.625733"
     inkscape:cx="9.2538562"
     inkscape:cy="11.086381"
     inkscape:window-x="1104"
     inkscape:window-y="178"
     inkscape:window-maximized="0"
     inkscape:current-layer="svg4" />
  <path
     id="path2"
     d="M 6.8475109,14.918211 H 1.5544771 V 23.89955 H 6.853719 v -1.32927 c 1.3173915,0.06886 3.1303372,0.3218 6.069288,1.103177 0.50449,0.13472 0.957672,0.198806 1.386911,0.198806 0.957043,0 1.770924,-0.318207 2.56475,-1.003774 0.510847,-0.440087 3.770461,-3.180189 5.230932,-4.457535 0.432418,-0.37851 0.633278,-0.863454 0.645845,-1.352659 0.0053,-0.205942 0.0237,-0.39845 -0.01449,-0.617857 -0.0082,-0.04672 0.03394,-0.08897 -0.266786,-0.481158 -0.03714,-0.04843 -0.321231,-0.332784 -0.610901,-0.458296 -0.239526,-0.103784 -0.666247,-0.146181 -0.943928,-0.146181 -0.452555,0 -0.894694,0.149283 -1.27306,0.432694 -0.01802,0.01297 -1.919965,1.403616 -3.111235,2.264827 -0.104925,-0.588777 -0.567846,-1.090376 -1.246149,-1.303932 -2.223562,-0.704536 -3.27359,-1.202579 -4.560246,-1.202579 -0.665585,0 -1.3192138,0.137683 -1.9996358,0.417102 L 6.828658,16.539841 M 2.6143255,15.916137 h 3.1795451 v 6.985487 H 2.6143255 Z M 20.97123,16.35273 c 0.635115,0.03944 1.068988,0.75476 0.414005,1.327321 -2.339088,2.045749 -3.869176,3.284066 -5.224722,4.453636 -1.082105,0.933062 -2.083877,0.811346 -2.949773,0.580825 -1.689399,-0.450065 -4.1398178,-1.028301 -6.357021,-1.146057 v -3.87866 c 0.775809,-0.197589 1.6163352,-0.535341 2.2935782,-0.812765 1.4530528,-0.595761 2.4196178,-0.294138 3.7984798,0.155927 1.432915,0.466032 1.408142,0.47308 2.003776,0.662686 0.905111,0.284409 0.630743,1.430371 -0.447123,1.149955 -0.643328,-0.169649 -1.859157,-0.425648 -2.332909,-0.518455 -0.677243,-0.13472 -0.895075,0.673024 -0.285662,0.855644 0.924188,0.275428 2.909781,0.742599 3.291325,0.742599 0.480112,0 0.813418,-0.234048 1.215101,-0.518455 0.771569,-0.542873 3.91026,-2.837853 3.91026,-2.837853 0.223628,-0.167155 0.458981,-0.229493 0.670685,-0.216348 z"
     inkscape:connector-curvature="0"
     sodipodi:nodetypes="ccccccsccssssscccscccccccccccccccccccsccc"
     style="stroke-width:1.02842164" />
  <path
     inkscape:connector-curvature="0"
     d="m 7.245682,1.8267037 c 1.1360481,1.084575 2.1222696,2.0184397 4.047789,2.0184397 h 9.055457 V 12.591715 H 3.8844612 V 1.8267037 Z M 8.0005778,0.48107696 H 2.2380146 V 13.937343 H 21.995374 V 2.4995168 H 11.293471 c -1.3410306,0 -1.8975298,-0.7118364 -3.2928932,-2.01843984 z"
     id="path2-0"
     style="stroke-width:0.74422818" />
</svg>
