<?xml version="1.0" encoding="UTF-8" standalone="no"?>
<svg
   xmlns:dc="http://purl.org/dc/elements/1.1/"
   xmlns:cc="http://creativecommons.org/ns#"
   xmlns:rdf="http://www.w3.org/1999/02/22-rdf-syntax-ns#"
   xmlns:svg="http://www.w3.org/2000/svg"
   xmlns="http://www.w3.org/2000/svg"
   xmlns:sodipodi="http://sodipodi.sourceforge.net/DTD/sodipodi-0.dtd"
   xmlns:inkscape="http://www.inkscape.org/namespaces/inkscape"
   width="24"
   height="24"
   fill-rule="evenodd"
   clip-rule="evenodd"
   version="1.1"
   id="svg4"
   sodipodi:docname="offer-video-chat.svg"
   inkscape:version="0.92.4 (5da689c313, 2019-01-14)">
  <metadata
     id="metadata10">
    <rdf:RDF>
      <cc:Work
         rdf:about="">
        <dc:format>image/svg+xml</dc:format>
        <dc:type
           rdf:resource="http://purl.org/dc/dcmitype/StillImage" />
        <dc:title></dc:title>
      </cc:Work>
    </rdf:RDF>
  </metadata>
  <defs
     id="defs8" />
  <sodipodi:namedview
     pagecolor="#ffffff"
     bordercolor="#666666"
     borderopacity="1"
     objecttolerance="10"
     gridtolerance="10"
     guidetolerance="10"
     inkscape:pageopacity="0"
     inkscape:pageshadow="2"
     inkscape:window-width="2635"
     inkscape:window-height="1736"
     id="namedview6"
     showgrid="false"
     inkscape:zoom="55.625733"
     inkscape:cx="7.4656696"
     inkscape:cy="17.631871"
     inkscape:window-x="1104"
     inkscape:window-y="178"
     inkscape:window-maximized="0"
     inkscape:current-layer="svg4" />
  <path
     id="path2"
     d="M 6.8475109,14.918211 H 1.5544771 V 23.89955 H 6.853719 v -1.32927 c 1.3173915,0.06886 3.1303372,0.3218 6.069288,1.103177 0.50449,0.13472 0.957672,0.198806 1.386911,0.198806 0.957043,0 1.770924,-0.318207 2.56475,-1.003774 0.510847,-0.440087 3.770461,-3.180189 5.230932,-4.457535 0.432418,-0.37851 0.633278,-0.863454 0.645845,-1.352659 0.0053,-0.205942 0.0237,-0.39845 -0.01449,-0.617857 -0.0082,-0.04672 0.03394,-0.08897 -0.266786,-0.481158 -0.03714,-0.04843 -0.321231,-0.332784 -0.610901,-0.458296 -0.239526,-0.103784 -0.666247,-0.146181 -0.943928,-0.146181 -0.452555,0 -0.894694,0.149283 -1.27306,0.432694 -0.01802,0.01297 -1.919965,1.403616 -3.111235,2.264827 -0.104925,-0.588777 -0.567846,-1.090376 -1.246149,-1.303932 -2.223562,-0.704536 -3.27359,-1.202579 -4.560246,-1.202579 -0.665585,0 -1.3192138,0.137683 -1.9996358,0.417102 L 6.828658,16.539841 M 2.6143255,15.916137 h 3.1795451 v 6.985487 H 2.6143255 Z M 20.97123,16.35273 c 0.635115,0.03944 1.068988,0.75476 0.414005,1.327321 -2.339088,2.045749 -3.869176,3.284066 -5.224722,4.453636 -1.082105,0.933062 -2.083877,0.811346 -2.949773,0.580825 -1.689399,-0.450065 -4.1398178,-1.028301 -6.357021,-1.146057 v -3.87866 c 0.775809,-0.197589 1.6163352,-0.535341 2.2935782,-0.812765 1.4530528,-0.595761 2.4196178,-0.294138 3.7984798,0.155927 1.432915,0.466032 1.408142,0.47308 2.003776,0.662686 0.905111,0.284409 0.630743,1.430371 -0.447123,1.149955 -0.643328,-0.169649 -1.859157,-0.425648 -2.332909,-0.518455 -0.677243,-0.13472 -0.895075,0.673024 -0.285662,0.855644 0.924188,0.275428 2.909781,0.742599 3.291325,0.742599 0.480112,0 0.813418,-0.234048 1.215101,-0.518455 0.771569,-0.542873 3.91026,-2.837853 3.91026,-2.837853 0.223628,-0.167155 0.458981,-0.229493 0.670685,-0.216348 z"
     inkscape:connector-curvature="0"
     sodipodi:nodetypes="ccccccsccssssscccscccccccccccccccccccsccc"
     style="stroke-width:1.02842164" />
  <path
     d="m 20.453146,1.50856 c 6.01e-4,4.975e-4 0.0019,9.779e-4 0.0025,0.00201 v 11.937139 c -5.99e-4,4.97e-4 -0.0011,0.0015 -0.0025,0.002 H 3.6538003 c -6.004e-4,-4.98e-4 -0.0018,-9.87e-4 -0.00244,-0.002 V 1.5105501 c 6.004e-4,-4.975e-4 0.00116,-0.00146 0.00244,-0.00201 z m 0.0025,-0.99505146 H 3.6520002 c -0.6601402,0 -1.2002536,0.44777288 -1.2002536,0.99505146 v 11.940619 c 0,0.547278 0.5401134,0.995052 1.2002536,0.995052 H 20.455547 c 0.660139,0 1.200254,-0.447774 1.200254,-0.995052 V 1.50856 c 0,-0.54727858 -0.540115,-0.99505146 -1.200254,-0.99505146 z"
     id="path4"
     inkscape:connector-curvature="0"
     style="stroke-width:0.54642332" />
  <path
     inkscape:connector-curvature="0"
     d="m 18.771348,10.634705 c -1.220564,-0.320896 -2.357011,-0.602186 -1.806533,-1.7855427 0.141967,-0.305539 0.262639,-0.598549 0.364501,-0.880243 -0.30736,0.20046 -0.650565,0.355654 -0.837252,0.408598 l -0.0795,-0.430827 c 0.407446,-0.132561 0.847545,-0.379498 1.154194,-0.742831 0.651629,-2.539287 -0.449681,-3.8826887 -1.926495,-3.8826887 -1.803694,0 -3.004382,2.0001487 -1.324554,5.5279917 0.567159,1.1902277 -0.612234,1.4715167 -1.806534,1.7855427 -1.0573,0.278057 -1.127929,0.866098 -1.127929,1.884561 l 0.0018,0.501553 h 8.514485 l 0.0018,-0.501553 c 0,-1.018463 -0.07063,-1.606504 -1.12793,-1.884561 z M 15.6431,8.7044763 c -0.156519,0.03678 -0.309844,-0.07841 -0.341786,-0.257041 -0.03265,-0.178636 0.0685,-0.353229 0.225018,-0.390007 l 0.622171,-0.157215 0.116768,0.646644 z"
     id="path2-9"
     style="stroke-width:0.37873584" />
  <path
     inkscape:connector-curvature="0"
     d="m 11.0722,2.3717581 c 2.34e-4,2.204e-4 7.26e-4,4.415e-4 9.64e-4,8.815e-4 v 5.2869025 c -2.33e-4,2.204e-4 -4.67e-4,6.597e-4 -9.64e-4,8.081e-4 H 4.5318836 C 4.5316501,7.6601291 4.5311838,7.6599095 4.5309761,7.6595421 V 2.3726382 c 2.335e-4,-2.204e-4 4.669e-4,-6.597e-4 9.075e-4,-8.816e-4 z m 9.64e-4,-0.4407036 H 4.5311547 c -0.2570052,0 -0.4672822,0.1983167 -0.4672822,0.4407036 v 5.2884444 c 0,0.2423877 0.210277,0.4407044 0.4672822,0.4407044 h 6.5419523 c 0.257033,0 0.46731,-0.1983167 0.46731,-0.4407044 V 2.3717581 c 0,-0.2423869 -0.210277,-0.4407036 -0.467283,-0.4407036 z"
     id="path4-2"
     style="stroke-width:0.22689928" />
  <path
     inkscape:connector-curvature="0"
     d="m 7.8290945,2.8882423 c -1.1191666,0 -2.0262521,0.6964769 -2.0262521,1.5554071 0,0.8591035 0.9070855,1.5554077 2.0262521,1.5554077 1.1191668,0 2.0262521,-0.696477 2.0262521,-1.5554077 0,-0.8589302 -0.9070853,-1.5554071 -2.0262521,-1.5554071 z m 0,2.2466998 c -0.4973324,0 -0.9005565,-0.3095265 -0.9005565,-0.6912927 0,-0.3817656 0.4032241,-0.6912921 0.9005565,-0.6912921 0.4973323,0 0.9005564,0.3095265 0.9005564,0.6912921 0,0.3817662 -0.4032241,0.6912927 -0.9005564,0.6912927 z M 8.2793729,4.4436494 c 0,0.1906238 -0.2017248,0.3456457 -0.4502784,0.3456457 -0.2483285,0 -0.4502782,-0.1550219 -0.4502782,-0.3456457 0,-0.1906237 0.2019497,-0.3456463 0.4502782,-0.3456463 0.2485536,0 0.4502784,0.1550226 0.4502784,0.3456463 z M 9.7643907,6.6041107 C 9.9906546,6.8011289 9.7621038,7.0669309 9.4383894,7.0328847 9.034264,6.9905444 8.7098388,6.7387401 7.8293196,6.7387401 6.9488005,6.7387401 6.624375,6.9907158 6.2202504,7.0328847 5.8962752,7.0669303 5.6677589,6.8009562 5.8942489,6.6041107 L 6.5232876,6.0560891 c 0.3798097,0.181809 0.8262605,0.2886137 1.3058069,0.2886137 0.479546,0 0.925997,-0.1069774 1.305807,-0.2887871 z"
     id="path2-4"
     style="stroke-width:0.19725421" />
</svg>
