<?xml version="1.0" encoding="UTF-8" standalone="no"?>
<svg
   xmlns:dc="http://purl.org/dc/elements/1.1/"
   xmlns:cc="http://creativecommons.org/ns#"
   xmlns:rdf="http://www.w3.org/1999/02/22-rdf-syntax-ns#"
   xmlns:svg="http://www.w3.org/2000/svg"
   xmlns="http://www.w3.org/2000/svg"
   xmlns:sodipodi="http://sodipodi.sourceforge.net/DTD/sodipodi-0.dtd"
   xmlns:inkscape="http://www.inkscape.org/namespaces/inkscape"
   width="24"
   height="24"
   fill-rule="evenodd"
   clip-rule="evenodd"
   version="1.1"
   id="svg4"
   sodipodi:docname="offer-truth-or-dare.svg"
   inkscape:version="0.92.4 (5da689c313, 2019-01-14)">
  <metadata
     id="metadata10">
    <rdf:RDF>
      <cc:Work
         rdf:about="">
        <dc:format>image/svg+xml</dc:format>
        <dc:type
           rdf:resource="http://purl.org/dc/dcmitype/StillImage" />
        <dc:title></dc:title>
      </cc:Work>
    </rdf:RDF>
  </metadata>
  <defs
     id="defs8" />
  <sodipodi:namedview
     pagecolor="#ffffff"
     bordercolor="#666666"
     borderopacity="1"
     objecttolerance="10"
     gridtolerance="10"
     guidetolerance="10"
     inkscape:pageopacity="0"
     inkscape:pageshadow="2"
     inkscape:window-width="3096"
     inkscape:window-height="1736"
     id="namedview6"
     showgrid="false"
     inkscape:zoom="55.625733"
     inkscape:cx="14.0031"
     inkscape:cy="11.947853"
     inkscape:window-x="315"
     inkscape:window-y="142"
     inkscape:window-maximized="0"
     inkscape:current-layer="svg4" />
  <path
     id="path2"
     d="M 6.8475109,14.918211 H 1.5544771 V 23.89955 H 6.853719 v -1.32927 c 1.3173915,0.06886 3.1303372,0.3218 6.069288,1.103177 0.50449,0.13472 0.957672,0.198806 1.386911,0.198806 0.957043,0 1.770924,-0.318207 2.56475,-1.003774 0.510847,-0.440087 3.770461,-3.180189 5.230932,-4.457535 0.432418,-0.37851 0.633278,-0.863454 0.645845,-1.352659 0.0053,-0.205942 0.0237,-0.39845 -0.01449,-0.617857 -0.0082,-0.04672 0.03394,-0.08897 -0.266786,-0.481158 -0.03714,-0.04843 -0.321231,-0.332784 -0.610901,-0.458296 -0.239526,-0.103784 -0.666247,-0.146181 -0.943928,-0.146181 -0.452555,0 -0.894694,0.149283 -1.27306,0.432694 -0.01802,0.01297 -1.919965,1.403616 -3.111235,2.264827 -0.104925,-0.588777 -0.567846,-1.090376 -1.246149,-1.303932 -2.223562,-0.704536 -3.27359,-1.202579 -4.560246,-1.202579 -0.665585,0 -1.3192138,0.137683 -1.9996358,0.417102 L 6.828658,16.539841 M 2.6143255,15.916137 h 3.1795451 v 6.985487 H 2.6143255 Z M 20.97123,16.35273 c 0.635115,0.03944 1.068988,0.75476 0.414005,1.327321 -2.339088,2.045749 -3.869176,3.284066 -5.224722,4.453636 -1.082105,0.933062 -2.083877,0.811346 -2.949773,0.580825 -1.689399,-0.450065 -4.1398178,-1.028301 -6.357021,-1.146057 v -3.87866 c 0.775809,-0.197589 1.6163352,-0.535341 2.2935782,-0.812765 1.4530528,-0.595761 2.4196178,-0.294138 3.7984798,0.155927 1.432915,0.466032 1.408142,0.47308 2.003776,0.662686 0.905111,0.284409 0.630743,1.430371 -0.447123,1.149955 -0.643328,-0.169649 -1.859157,-0.425648 -2.332909,-0.518455 -0.677243,-0.13472 -0.895075,0.673024 -0.285662,0.855644 0.924188,0.275428 2.909781,0.742599 3.291325,0.742599 0.480112,0 0.813418,-0.234048 1.215101,-0.518455 0.771569,-0.542873 3.91026,-2.837853 3.91026,-2.837853 0.223628,-0.167155 0.458981,-0.229493 0.670685,-0.216348 z"
     inkscape:connector-curvature="0"
     sodipodi:nodetypes="ccccccsccssssscccscccccccccccccccccccsccc"
     style="stroke-width:1.02842164" />
  <path
     inkscape:connector-curvature="0"
     d="m 17.866899,1.2118917 c 0.54835,0 0.994483,0.4734256 0.994483,1.0553456 0,0.5819177 -0.446133,1.0553436 -0.994483,1.0553436 -0.548352,0 -0.994483,-0.4734259 -0.994483,-1.0553436 0,-0.58192 0.446131,-1.0553456 0.994483,-1.0553456 m 0,-0.43560186 c -0.77594,0 -1.404963,0.66751716 -1.404963,1.49094746 0,0.8234282 0.629023,1.4909464 1.404963,1.4909464 0.775939,0 1.404963,-0.6675182 1.404963,-1.4909464 0,-0.8234303 -0.629024,-1.49094746 -1.404963,-1.49094746 z"
     id="path2-8"
     style="stroke-width:0.21142739" />
  <path
     inkscape:connector-curvature="0"
     d="m 11.847036,2.4150806 c 0.02442,0 0.04884,0.0062 0.07059,0.017831 l 3.166081,1.6992996 c 0.351611,0.1887233 0.746135,0.2884734 1.140946,0.2884734 l 1.53355,-2.75e-5 1.663308,0.019808 c 0.556975,0 1.059957,0.3693884 1.251584,0.9191762 l 0.410516,1.1777453 c 0.02227,0.063867 0.01791,0.1351382 -0.0119,0.1954792 L 20.209004,8.4781126 20.59079,8.6866762 20.19976,8.4872098 c -0.0028,-0.00389 -0.0071,-0.019259 -0.0016,-0.033919 L 20.703582,7.1228106 C 20.817397,6.82325 20.805659,6.4851055 20.671363,6.1951373 L 20.274162,5.3371828 C 20.171691,5.1158741 19.963334,4.9783931 19.730396,4.9783931 c -0.323932,0 -0.584811,0.2555168 -0.606818,0.5939099 l -0.561308,8.509673 c -9.13e-4,0.01384 -0.01195,0.02467 -0.02515,0.02467 h -1.711024 c -0.01324,0 -0.0243,-0.01086 -0.02519,-0.02472 L 16.261208,5.7863594 C 16.240565,5.4687544 16.072258,5.1830417 15.810985,5.0220811 L 12.218711,2.8090472 c -0.112608,-0.069377 -0.241131,-0.106041 -0.371649,-0.106041 -0.130572,0 -0.259093,0.036683 -0.371702,0.1060619 L 7.883086,5.0221049 C 7.6219443,5.1830044 7.4536099,5.4686472 7.4328632,5.7863316 L 6.8932476,14.081883 c -9.217e-4,0.01389 -0.011975,0.02476 -0.025158,0.02476 H 5.1570391 c -0.013235,0 -0.024316,-0.0109 -0.025262,-0.02474 L 4.5705728,5.5726778 C 4.5485118,5.2338789 4.2875818,4.9783915 3.9637281,4.9783915 c -0.232937,0 -0.4412936,0.1374786 -0.5437651,0.358781 L 3.0227354,6.195123 C 2.888488,6.485111 2.8767232,6.8232079 2.9904884,7.1227447 l 0.5117263,1.3471055 -0.00499,0.015034 c -0.00379,-0.00183 -0.014077,-0.010682 -0.021901,-0.026462 L 2.6223597,6.732853 C 2.5925277,6.672488 2.5881687,6.6012218 2.6104367,6.5374024 L 3.0209523,5.3596333 C 3.2125543,4.8098523 3.7155096,4.4404706 4.2773951,4.4404392 L 5.931012,4.4206882 h 1.5384361 c 0.3947062,0 0.7892025,-0.099736 1.140788,-0.2884306 L 11.776448,2.4329324 c 0.0218,-0.011683 0.04617,-0.017851 0.07058,-0.017851 v 0 m 0,-0.4523088 c -0.09128,0 -0.182568,0.022435 -0.266184,0.067299 L 8.4145898,3.729413 C 8.1219345,3.8864848 7.7980285,3.9683808 7.4694481,3.9683808 H 5.9310122 l -1.6585021,0.01978 c -0.7398838,0 -1.4010369,0.485571 -1.6555608,1.2158688 l -0.4105155,1.177758 c -0.063868,0.1832919 -0.051472,0.3863737 0.034139,0.5595923 L 3.0935377,8.666973 c 0.071903,0.1454632 0.2062033,0.253795 0.3616173,0.267149 0.012921,0.00103 0.025737,0.00175 0.038341,0.00175 0.3109331,0 0.5236491,-0.3300651 0.4083095,-0.633668 L 3.3900777,6.9550154 C 3.32101,6.7731776 3.3281014,6.5691381 3.4096157,6.3930843 L 3.8068429,5.5351287 c 0.033141,-0.071594 0.095171,-0.104415 0.1568848,-0.104415 0.085454,0 0.1704355,0.062898 0.1775785,0.1728906 L 4.702561,14.113209 c 0.016597,0.251021 0.2151325,0.445757 0.4544774,0.445757 h 1.7110244 c 0.2395026,0 0.4380378,-0.194964 0.4544246,-0.446126 L 7.8621042,5.8172009 C 7.8730802,5.6490967 7.9623169,5.4975462 8.1006085,5.4123525 L 11.692882,3.1993141 c 0.04759,-0.029323 0.100843,-0.043985 0.154154,-0.043985 0.05326,0 0.106568,0.014662 0.154153,0.043985 l 3.592223,2.2130162 c 0.138291,0.085197 0.227579,0.2367593 0.238504,0.4048738 l 0.539668,8.2955929 c 0.01633,0.25119 0.214922,0.446175 0.454451,0.446175 h 1.711025 c 0.239318,0 0.437853,-0.194713 0.454398,-0.445713 l 0.561308,-8.509665 c 0.0071,-0.1099757 0.09212,-0.1728914 0.177578,-0.1728914 0.06174,0 0.123717,0.032807 0.156885,0.1044158 l 0.3972,0.8579548 c 0.08154,0.1760657 0.08863,0.380114 0.01954,0.5619628 l -0.505423,1.3305201 c -0.09173,0.2414878 0.01116,0.5290529 0.242995,0.6197153 0.05308,0.02076 0.106778,0.030512 0.159064,0.030512 0.164107,0 0.314505,-0.096033 0.39019,-0.2491007 l 0.862707,-1.7452476 c 0.08561,-0.1732361 0.09801,-0.3763425 0.03411,-0.5596542 L 21.077099,5.2040332 C 20.822554,4.4737335 20.161402,3.9881625 19.421516,3.9881625 l -1.658423,-0.01978 h -1.538434 c -0.328633,0 -0.652593,-0.081902 -0.945274,-0.2390029 L 12.113274,2.0300782 c -0.08362,-0.044871 -0.1749,-0.067306 -0.266236,-0.067306 z"
     id="path4"
     style="stroke-width:0.2205743" />
  <path
     inkscape:connector-curvature="0"
     d="m 6.0048041,1.1387115 c 0.5748061,0 1.0424135,0.4915825 1.0424135,1.0958204 0,0.6042354 -0.4676074,1.0958182 -1.0424135,1.0958182 -0.5748061,0 -1.0424137,-0.4915828 -1.0424137,-1.0958182 0,-0.6042379 0.4676076,-1.0958204 1.0424137,-1.0958204 m 0,-0.45230811 c -0.8133105,0 -1.4726778,0.69311791 -1.4726778,1.54812851 0,0.8550083 0.6593673,1.5481272 1.4726778,1.5481272 0.8133631,0 1.4726776,-0.6931189 1.4726776,-1.5481272 0,-0.8550106 -0.6593145,-1.54812851 -1.4726776,-1.54812851 z"
     id="path6"
     style="stroke-width:0.2205743" />
  <path
     inkscape:connector-curvature="0"
     d="m 11.782964,5.4741334 c -0.0525,0 -0.105003,0.00508 -0.143185,0.025255 L 8.2033243,7.1156631 H 8.1675266 8.1317289 C 7.9789971,7.2368835 7.9408145,7.3959857 7.9408145,7.5576135 v 3.9649245 c 0,0.161627 0.073979,0.325781 0.2267105,0.366188 L 11.603979,13.505 h 0.0358 0.04773 0.0358 0.0358 0.0358 0.0358 l 3.436452,-1.616274 c 0.152731,-0.08081 0.238643,-0.204561 0.238643,-0.366188 V 7.5576135 C 15.620342,7.3959857 15.536817,7.234358 15.422268,7.153545 l -0.0358,-0.037882 -3.436454,-1.6162751 c -0.05727,-0.020204 -0.114548,-0.025255 -0.16705,-0.025255 z m -0.02386,0.8333916 2.481883,1.1743255 -2.481883,1.174325 -2.4818837,-1.174325 z m 0,0.8965283 c -0.316317,0 -0.572743,0.1215841 -0.572743,0.2777972 0,0.1562123 0.256426,0.2777972 0.572743,0.2777972 0.316316,0 0.572742,-0.1215849 0.572742,-0.2777972 0,-0.1562131 -0.256426,-0.2777972 -0.572742,-0.2777972 z M 8.7044729,8.0879541 9.9215505,8.6940565 11.377271,9.3759231 V 12.53271 L 8.7044729,11.282622 Z m 6.1092511,0 V 11.244741 L 12.140927,12.53271 V 9.3759231 l 1.45572,-0.6818666 z M 9.1817581,8.6182939 c -0.046559,-0.00817 -0.098599,-0.00453 -0.143185,0.012627 C 8.860229,8.6996168 8.7849742,8.9601266 8.871523,9.2117702 8.9580727,9.4634138 9.1823958,9.6213963 9.3607408,9.5527031 9.5390849,9.4840074 9.6143397,9.2234977 9.52779,8.9718541 9.4628792,8.7831221 9.3214497,8.6428226 9.1817581,8.6182939 Z m 4.9041059,0.4545774 c -0.139691,0.024524 -0.269187,0.1648274 -0.334099,0.3535601 -0.08655,0.2516429 -0.01129,0.5121558 0.167049,0.5808486 0.178345,0.0687 0.390736,-0.08929 0.477285,-0.3409324 0.08655,-0.2516437 0.01129,-0.5121558 -0.167049,-0.580849 -0.04458,-0.01717 -0.09662,-0.020799 -0.143186,-0.012627 z M 9.9454148,9.8304999 c -0.046559,-0.00817 -0.098599,-0.00453 -0.1431858,0.012627 -0.1783441,0.068696 -0.2535989,0.3292051 -0.1670492,0.5808491 0.086549,0.251643 0.3108728,0.409626 0.4892172,0.340933 0.178344,-0.0687 0.253599,-0.329205 0.16705,-0.580849 C 10.226536,9.9953282 10.085106,9.8550286 9.9454148,9.8304999 Z m 2.9233722,0.8965281 c -0.137708,0.01877 -0.274597,0.142674 -0.3341,0.315678 -0.07933,0.230674 6.49e-4,0.474275 0.178982,0.542968 0.178345,0.0687 0.386016,-0.07238 0.465353,-0.303052 0.07934,-0.230673 -6.49e-4,-0.474274 -0.178981,-0.542967 -0.04458,-0.01717 -0.08535,-0.01889 -0.131254,-0.01263 z m -1.968801,0.315678 c -0.04656,-0.0082 -0.0986,-0.0045 -0.143186,0.01263 -0.178344,0.0687 -0.253599,0.329206 -0.16705,0.580849 0.08655,0.251644 0.310873,0.409627 0.489217,0.340933 0.178344,-0.06869 0.253599,-0.329205 0.16705,-0.580848 -0.06491,-0.188733 -0.206341,-0.329032 -0.346031,-0.353561 z"
     id="path2-81"
     style="stroke-width:0.39279109" />
</svg>
