<?xml version="1.0" encoding="UTF-8" standalone="no"?>
<!-- Generator: Adobe Illustrator 16.0.0, SVG Export Plug-In . SVG Version: 6.00 Build 0)  -->

<svg
   xmlns:dc="http://purl.org/dc/elements/1.1/"
   xmlns:cc="http://creativecommons.org/ns#"
   xmlns:rdf="http://www.w3.org/1999/02/22-rdf-syntax-ns#"
   xmlns:svg="http://www.w3.org/2000/svg"
   xmlns="http://www.w3.org/2000/svg"
   xmlns:sodipodi="http://sodipodi.sourceforge.net/DTD/sodipodi-0.dtd"
   xmlns:inkscape="http://www.inkscape.org/namespaces/inkscape"
   version="1.1"
   id="Capa_1"
   x="0px"
   y="0px"
   width="485.228px"
   height="485.228px"
   viewBox="0 0 485.228 485.228"
   style="enable-background:new 0 0 485.228 485.228;"
   xml:space="preserve"
   sodipodi:docname="person-round3.svg"
   inkscape:version="0.92.4 (5da689c313, 2019-01-14)"><metadata
   id="metadata47"><rdf:RDF><cc:Work
       rdf:about=""><dc:format>image/svg+xml</dc:format><dc:type
         rdf:resource="http://purl.org/dc/dcmitype/StillImage" /><dc:title></dc:title></cc:Work></rdf:RDF></metadata><defs
   id="defs45" /><sodipodi:namedview
   pagecolor="#ffffff"
   bordercolor="#666666"
   borderopacity="1"
   objecttolerance="10"
   gridtolerance="10"
   guidetolerance="10"
   inkscape:pageopacity="0"
   inkscape:pageshadow="2"
   inkscape:window-width="3315"
   inkscape:window-height="1725"
   id="namedview43"
   showgrid="false"
   inkscape:zoom="1.9454772"
   inkscape:cx="131.48612"
   inkscape:cy="182.88014"
   inkscape:window-x="1894"
   inkscape:window-y="198"
   inkscape:window-maximized="0"
   inkscape:current-layer="Capa_1" />
<g
   id="g10"
   transform="matrix(2.0079937,0,0,1.8848118,-150.62601,-127.22592)">
	<g
   id="g8">
		
		
		<path
   style="stroke-width:1.94542801"
   d="M 245.1875 15.679688 C 234.18169 15.679688 223.71474 17.386393 213.06836 18.724609 C 150.2784 31.254838 138.62109 81.997681 138.62109 130.00195 C 138.62109 163.99265 156.69326 210.15537 184.28711 240.68555 L 184.28711 244.32031 C 184.28711 275.9173 157.05057 301.47852 123.39258 301.47852 L 92.949219 301.47852 C 92.949219 301.47852 60.183178 310.2931 28.605469 346.88672 C 68.743255 421.37637 150.15914 472.95117 245.18945 472.95117 C 340.15551 472.95117 421.5281 421.37637 461.74219 346.88672 C 430.21267 310.26483 397.38477 301.47656 397.38477 301.47656 L 366.97461 301.47656 C 333.31662 301.47656 306.08203 275.90592 306.08203 244.31836 L 306.08203 240.71484 C 333.67186 210.15451 351.74609 163.99076 351.74609 130.00195 C 351.74609 81.999566 340.0908 31.256723 277.29883 18.724609 C 266.64642 17.388278 256.17926 15.679688 245.1875 15.679688 z M 247.15234 41.970703 C 290.02012 41.970703 320.41684 69.229602 319.90625 113.59375 C 319.52603 144.05421 301.54734 164.04762 287.08789 180.12305 C 265.41499 204.2026 267.11914 216.02476 267.11914 232.2793 L 224.28516 232.2793 C 224.28516 197.04994 223.11177 182.8436 254.87695 151.72266 C 267.0985 139.73326 276.76592 130.27518 275.42969 111.625 C 274.19124 93.903974 259.82036 84.634766 246.27344 84.634766 C 223.26433 84.634766 213.42188 105.73501 213.42188 131.52734 L 170.45508 131.52734 C 170.45508 72.11768 203.38287 41.970703 247.15234 41.970703 z M 246.29492 254.66797 C 261.31929 254.66797 273.44336 267.19459 273.44336 282.6543 C 273.44336 298.10283 261.31929 310.64063 246.29492 310.64062 C 231.32488 310.64062 219.14648 298.10283 219.14648 282.6543 C 219.14648 267.20578 231.32488 254.66797 246.29492 254.66797 z "
   transform="matrix(0.49800953,0,0,0.53055695,75.013189,67.500596)"
   id="path6" />
	</g>
</g>
<g
   id="g12">
</g>
<g
   id="g14">
</g>
<g
   id="g16">
</g>
<g
   id="g18">
</g>
<g
   id="g20">
</g>
<g
   id="g22">
</g>
<g
   id="g24">
</g>
<g
   id="g26">
</g>
<g
   id="g28">
</g>
<g
   id="g30">
</g>
<g
   id="g32">
</g>
<g
   id="g34">
</g>
<g
   id="g36">
</g>
<g
   id="g38">
</g>
<g
   id="g40">
</g>
</svg>