<?xml version="1.0" encoding="UTF-8" standalone="no"?>
<svg
   xmlns:dc="http://purl.org/dc/elements/1.1/"
   xmlns:cc="http://creativecommons.org/ns#"
   xmlns:rdf="http://www.w3.org/1999/02/22-rdf-syntax-ns#"
   xmlns:svg="http://www.w3.org/2000/svg"
   xmlns="http://www.w3.org/2000/svg"
   xmlns:sodipodi="http://sodipodi.sourceforge.net/DTD/sodipodi-0.dtd"
   xmlns:inkscape="http://www.inkscape.org/namespaces/inkscape"
   width="24"
   height="24"
   fill-rule="evenodd"
   clip-rule="evenodd"
   version="1.1"
   id="svg4"
   sodipodi:docname="person.svg"
   inkscape:version="0.92.4 (5da689c313, 2019-01-14)">
  <metadata
     id="metadata10">
    <rdf:RDF>
      <cc:Work
         rdf:about="">
        <dc:format>image/svg+xml</dc:format>
        <dc:type
           rdf:resource="http://purl.org/dc/dcmitype/StillImage" />
        <dc:title></dc:title>
      </cc:Work>
    </rdf:RDF>
  </metadata>
  <defs
     id="defs8" />
  <sodipodi:namedview
     pagecolor="#ffffff"
     bordercolor="#666666"
     borderopacity="1"
     objecttolerance="10"
     gridtolerance="10"
     guidetolerance="10"
     inkscape:pageopacity="0"
     inkscape:pageshadow="2"
     inkscape:window-width="3490"
     inkscape:window-height="1598"
     id="namedview6"
     showgrid="false"
     inkscape:zoom="32"
     inkscape:cx="20.725419"
     inkscape:cy="7.3409626"
     inkscape:window-x="1185"
     inkscape:window-y="393"
     inkscape:window-maximized="0"
     inkscape:current-layer="svg4" />
  <path
     id="path2"
     d="m 11.990536,0.7714844 c -2.2166744,0 -4.0728589,0.9995745 -5.0918411,2.7411522 -1.4798735,2.5310307 -1.0614534,6.2434225 1.1818716,10.4506424 0.3151002,0.59488 0.2029622,0.846918 0.1653399,0.928254 -0.355861,0.800616 -2.5256518,1.30439 -4.1089909,1.669612 -4.18565919,0.96967 -3.92848918,3.14597 -3.92221852,5.211304 v 1.825359 H 0.25143908 1.2067334 1.7915451 V 21.77868 C 1.7805711,18.777168 2.2850404,18.627451 4.4829034,18.115504 6.7011458,17.603556 8.9985552,17.074987 9.6757854,15.551901 9.9893179,14.851762 9.9145844,14.059669 9.4583945,13.203234 7.4894104,9.5079603 7.0591858,6.3574045 8.2459064,4.3287524 8.9874076,3.0640346 10.316273,2.3663365 11.990536,2.3663365 c 1.661722,0 2.981842,0.6857615 3.717076,1.9281515 1.185152,2.0031345 0.762178,5.1686634 -1.187994,8.914974 -0.445216,0.859627 -0.514126,1.650124 -0.199019,2.34867 0.683497,1.516706 2.890745,2.02758 5.226561,2.56983 2.210405,0.513543 2.645725,0.693712 2.633182,3.656948 l 0.01838,1.859621 c 0.821191,-0.0023 0.833953,-0.01291 1.570978,-0.01244 L 23.73909,21.803616 C 23.68423,20.140184 24.238904,17.579973 19.896479,16.573621 18.209674,16.182881 16.109816,15.69528 15.747685,14.894665 15.710055,14.811732 15.5965,14.55673 15.9069,13.957066 18.12513,9.6972187 18.530322,5.9760047 17.052017,3.4752764 16.034604,1.7592164 14.190224,0.7715035 11.990793,0.7715035 Z"
     inkscape:connector-curvature="0"
     sodipodi:nodetypes="sccccccccccccccsccccccccccccss"
     style="stroke-width:1.58119893" />
</svg>
