<?xml version="1.0" encoding="UTF-8" standalone="no"?>
<svg
   xmlns:dc="http://purl.org/dc/elements/1.1/"
   xmlns:cc="http://creativecommons.org/ns#"
   xmlns:rdf="http://www.w3.org/1999/02/22-rdf-syntax-ns#"
   xmlns:svg="http://www.w3.org/2000/svg"
   xmlns="http://www.w3.org/2000/svg"
   xmlns:sodipodi="http://sodipodi.sourceforge.net/DTD/sodipodi-0.dtd"
   xmlns:inkscape="http://www.inkscape.org/namespaces/inkscape"
   width="24"
   height="24"
   viewBox="0 0 24 24"
   version="1.1"
   id="svg4"
   sodipodi:docname="push-to-talk.svg"
   inkscape:version="0.92.4 (5da689c313, 2019-01-14)">
  <metadata
     id="metadata10">
    <rdf:RDF>
      <cc:Work
         rdf:about="">
        <dc:format>image/svg+xml</dc:format>
        <dc:type
           rdf:resource="http://purl.org/dc/dcmitype/StillImage" />
      </cc:Work>
    </rdf:RDF>
  </metadata>
  <defs
     id="defs8" />
  <sodipodi:namedview
     pagecolor="#ffffff"
     bordercolor="#666666"
     borderopacity="1"
     objecttolerance="10"
     gridtolerance="10"
     guidetolerance="10"
     inkscape:pageopacity="0"
     inkscape:pageshadow="2"
     inkscape:window-width="2460"
     inkscape:window-height="1444"
     id="namedview6"
     showgrid="false"
     inkscape:zoom="48.5"
     inkscape:cx="12.536035"
     inkscape:cy="13.977433"
     inkscape:window-x="725"
     inkscape:window-y="207"
     inkscape:window-maximized="0"
     inkscape:current-layer="svg4" />
  <path
     d="M 14.341415,3.9661017 V 6.4194915 H 5.7312446 c -1.1882033,0 -2.1525423,0.7327457 -2.1525423,1.6355932 V 21.957627 c 0,0.902847 0.964339,1.635593 2.1525423,1.635593 h 8.6101704 c 1.188202,0 2.152542,-0.732746 2.152542,-1.635593 V 3.9661017 Z M 7.883787,21.139831 H 5.7312446 V 20.322034 H 7.883787 Z m 0,-1.635594 H 5.7312446 V 18.68644 H 7.883787 Z m 0,-1.635593 H 5.7312446 V 17.050847 H 7.883787 Z M 11.1126,21.139831 H 8.9600575 V 20.322034 H 11.1126 Z m 0,-1.635594 H 8.9600575 V 18.68644 H 11.1126 Z m 0,-1.635593 H 8.9600575 V 17.050847 H 11.1126 Z m 3.228815,3.271187 h -2.152543 v -0.817797 h 2.152543 z m 0,-1.635594 H 12.188872 V 18.68644 h 2.152543 z m 0,-1.635593 h -2.152543 v -0.817797 h 2.152543 z m 0,-2.45339 H 5.7312446 V 8.8728814 h 8.6101704 z"
     id="path2"
     inkscape:connector-curvature="0"
     style="stroke-width:0.93817425" />
  <path
     inkscape:connector-curvature="0"
     d="M 11.941894,5.691169 11.077777,6.166607 C 9.4520954,5.4712982 8.4207491,4.456609 8.4207491,3.3231394 c 0,-1.1334704 1.0313463,-2.1481596 2.6576109,-2.84315269 l 0.864117,0.47512233 C 10.586576,1.5347963 9.7253734,2.3804761 9.7253734,3.3231394 c 0,0.9426626 0.8612026,1.7883423 2.2165206,2.3680296 z m 5.21908,-2.3680296 c 0,-0.5234562 -0.783125,-0.9477175 -1.748045,-0.9477175 -0.964921,0 -1.748046,0.4242613 -1.748046,0.9477175 0,0.4119409 0.488288,0.7591211 1.165363,0.8895903 V 7.4299141 H 15.99561 V 4.2127297 c 0.677076,-0.1304692 1.165364,-0.4776494 1.165364,-0.8895903 z m -4.82577,0 c 0,-0.5657878 0.516838,-1.0734483 1.329679,-1.4209443 L 12.801932,1.4277044 c -1.083788,0.4634333 -1.771353,1.1397876 -1.771353,1.895435 0,0.7556466 0.687565,1.4320009 1.771353,1.8954343 L 13.664883,4.744083 C 12.85146,4.3965869 12.335204,3.8889265 12.335204,3.3231394 Z m 7.412875,-2.84315269 -0.864115,0.47512233 c 1.355316,0.57968726 2.21652,1.42536706 2.21652,2.36803036 0,0.9426626 -0.861204,1.7883423 -2.21652,2.3680296 l 0.864115,0.475438 c 1.625682,-0.6953088 2.657029,-1.709998 2.657029,-2.8434676 0,-1.1334704 -1.031347,-2.1481596 -2.657029,-2.84315269 z M 18.023925,1.4277044 17.160974,1.9021951 c 0.813422,0.3478119 1.329679,0.8551565 1.329679,1.4209443 0,0.5657871 -0.516257,1.0734475 -1.329679,1.4209436 l 0.862951,0.4744907 c 1.083787,-0.4634334 1.771351,-1.1397877 1.771351,-1.8954343 0,-0.7556474 -0.686981,-1.4320017 -1.771351,-1.895435 z"
     id="path2-4"
     style="stroke-width:0.48590717" />
</svg>
