<?xml version="1.0" encoding="UTF-8" standalone="no"?>
<!-- Generator: Adobe Illustrator 16.0.0, SVG Export Plug-In . SVG Version: 6.00 Build 0)  -->

<svg
   xmlns:dc="http://purl.org/dc/elements/1.1/"
   xmlns:cc="http://creativecommons.org/ns#"
   xmlns:rdf="http://www.w3.org/1999/02/22-rdf-syntax-ns#"
   xmlns:svg="http://www.w3.org/2000/svg"
   xmlns="http://www.w3.org/2000/svg"
   xmlns:sodipodi="http://sodipodi.sourceforge.net/DTD/sodipodi-0.dtd"
   xmlns:inkscape="http://www.inkscape.org/namespaces/inkscape"
   version="1.1"
   id="Capa_1"
   x="0px"
   y="0px"
   width="485.228px"
   height="485.228px"
   viewBox="0 0 485.228 485.228"
   style="enable-background:new 0 0 485.228 485.228;"
   xml:space="preserve"
   sodipodi:docname="search-random-connect.svg"
   inkscape:version="0.92.4 (5da689c313, 2019-01-14)"><metadata
   id="metadata47"><rdf:RDF><cc:Work
       rdf:about=""><dc:format>image/svg+xml</dc:format><dc:type
         rdf:resource="http://purl.org/dc/dcmitype/StillImage" /><dc:title></dc:title></cc:Work></rdf:RDF></metadata><defs
   id="defs45" /><sodipodi:namedview
   pagecolor="#ffffff"
   bordercolor="#666666"
   borderopacity="1"
   objecttolerance="10"
   gridtolerance="10"
   guidetolerance="10"
   inkscape:pageopacity="0"
   inkscape:pageshadow="2"
   inkscape:window-width="2316"
   inkscape:window-height="1210"
   id="namedview43"
   showgrid="false"
   inkscape:zoom="0.4863693"
   inkscape:cx="-482.14392"
   inkscape:cy="242.614"
   inkscape:window-x="373"
   inkscape:window-y="320"
   inkscape:window-maximized="0"
   inkscape:current-layer="g8" />
<g
   id="g10">
	<g
   id="g8">
		<path
   d="M474.122,420.51l-91.811-91.839c-14.743,20.731-32.87,38.858-53.602,53.635l91.806,91.806    c14.805,14.813,38.793,14.813,53.606,0C488.93,459.308,488.93,435.318,474.122,420.51z"
   id="path2" />
		<path
   d="M394.221,197.125c0-108.864-88.254-197.119-197.103-197.119C88.252,0.006,0,88.261,0,197.125    s88.252,197.114,197.119,197.114C305.967,394.239,394.221,305.989,394.221,197.125z M197.119,348.754    c-83.606,0-151.631-68.027-151.631-151.629c0-83.606,68.025-151.629,151.631-151.629c83.613,0,151.608,68.022,151.608,151.629    C348.727,280.727,280.737,348.754,197.119,348.754z"
   id="path4" />
		
	<path
   d="m 203.57872,246.70268 c -0.18405,-0.30068 1.7988,-0.46341 2.1512,-0.46341 0.38961,0.0353 -1.03046,2.05519 -2.1512,0.46341 z m -11.3189,-13.96779 0.56829,-0.14151 c 0.33722,0.24999 -0.37886,0.43158 -0.2687,0.61789 0.45276,0.70515 0.10748,1.12729 0.0403,1.50958 -0.0806,0.38677 -0.5468,0.21815 -0.78326,0.42333 -0.27944,0.30068 1.35693,0.34077 1.37802,0.38676 0.0537,0.14977 -1.97238,0.40446 -1.59902,0.77708 0.50515,0.61789 4.3341,-0.88674 3.72389,-0.80066 1.18361,-0.51411 0.15315,-0.56836 -0.51053,-0.86433 -0.22571,-0.97754 -0.41514,-2.48712 -1.12047,-3.0918 l 0.46216,-0.46342 c -1.08285,-1.35959 -1.89338,1.6459 -1.89338,1.6459 z m 68.41847,31.37761 c 0,30.13182 -28.26046,54.56186 -63.11679,54.56186 -34.86144,0 -63.11679,-24.43004 -63.11679,-54.56186 0,-30.13181 28.25535,-54.56185 63.11679,-54.56185 34.85633,0 63.11679,24.43004 63.11679,54.56185 z m -43.70832,-24.42096 c -0.0269,-0.66387 -0.99956,-1.2913 -2.00919,-0.14149 -0.70936,0.79123 -0.58308,1.99599 -0.96731,2.53251 -0.54681,0.79595 2.98228,1.54141 2.98228,0.79123 0.13435,-1.25949 3.85004,-0.28654 4.57593,-0.11792 1.30453,0.31366 3.38196,-1.02825 1.10972,-1.73233 -1.86718,-0.59077 -2.85075,-1.22304 -3.01909,-2.37792 0,0 0.98881,-0.80067 0.55755,-0.75467 -1.146,0.12262 -3.22949,3.57373 -3.22949,1.79599 z m 33.1153,24.42096 c 0,-4.70597 -0.93104,-9.45734 -1.8778,-11.96721 -0.30497,-0.79123 -0.99418,-1.41867 -1.88814,-1.71876 -1.34658,-0.45517 -7.03237,2.71446 -7.88965,1.1544 -0.56292,-1.04121 -1.70422,0.66388 -3.00861,0.0353 -0.63144,-0.30069 -2.38792,-2.34161 -3.18206,-2.0915 -1.62535,0.50469 2.49312,4.38311 3.61869,4.89241 1.05733,-0.69101 4.48122,-2.11427 5.21758,-0.17335 1.40959,3.65568 -3.87637,7.66134 -6.57988,9.77112 -4.03947,3.15547 -3.28214,-2.04151 -6.03294,-3.87394 -1.4464,-0.95985 -1.43069,-3.00088 -2.89281,-3.70557 -0.65159,-0.31837 -3.64502,-3.2965 -3.61869,-3.69659 l -0.094,0.75467 c -0.49441,0.3231 -1.54636,-1.21855 -1.6568,-1.45959 0,1.34132 2.52456,3.47834 3.36088,4.55139 1.42544,1.84152 2.18814,4.52414 3.93428,6.02913 0.93641,0.80891 4.51292,4.15576 5.44382,4.08301 1.01568,-0.0826 4.22367,-2.08243 4.7917,-1.96876 3.38721,0.691 -7.97375,14.57261 -9.05204,16.29126 -0.88939,1.4413 0.72548,5.00606 0.59382,6.71116 -0.15316,1.96875 -1.94604,2.60527 -3.64502,3.67831 -1.81989,1.1497 -1.39374,3.38741 -2.92438,4.20577 -2.71922,1.4459 -4.67588,6.15188 -8.53654,6.12911 -1.13659,-0.005 -5.99613,1.63693 -6.63254,0.0353 -0.49441,-1.16385 -1.15675,-2.04599 -1.85671,-3.19638 -0.68383,-1.1273 -0.0806,-2.2961 -0.90954,-3.29191 -0.57367,-0.69099 -2.49836,-2.25977 -2.67194,-3.07824 -0.0105,-0.70514 0.61532,-2.8463 1.47274,-3.21914 1.20511,-0.53181 0.23108,-2.08243 0.0806,-2.98262 -0.25258,-1.60956 -1.40435,-2.93732 -2.78761,-3.86934 -2.046,-1.35958 -0.98881,-2.44171 -0.51053,-4.38323 0,-0.92801 -0.65293,-2.1461 -2.09342,-1.78233 -2.96643,0.74524 -2.0671,-2.00058 -4.22878,-1.87783 -1.55697,0.0943 -2.82979,0.95042 -4.27619,1.32764 -1.8199,0.47284 -3.68184,-0.37263 -5.48064,-0.56837 -7.40048,-0.80891 -9.8146,-8.12051 -7.88427,-13.39484 0.1948,-0.86434 -0.5992,-2.46447 -0.25258,-3.13283 0.83162,-1.6005 2.52469,-3.39638 4.0079,-4.61046 0.83162,-0.68156 1.89889,-0.50941 2.87709,-1.04121 1.50954,-0.82306 1.53064,-2.51436 3.00861,-3.55109 2.10391,-1.47775 4.97575,-1.4459 7.72131,-1.76416 1.46212,-0.16862 7.02699,-1.20948 7.90537,-0.27239 0,0.17216 1.00493,2.7463 -0.0941,2.60079 2.27749,0.10611 5.52269,3.40557 7.6845,2.63263 1.10973,-0.39975 0.70533,-3.34639 2.98228,-1.92324 1.37802,0.8549 7.55297,1.23672 8.83628,0.31366 0.78862,-0.56365 1.23063,-4.22864 0.27407,-4.64241 0.60994,0.52355 -3.21363,0.56365 -3.57127,0.44573 -0.63144,-0.20047 -1.21989,0.51883 -2.23543,0.11792 0.60994,0.24998 -3.39783,-1.60958 -1.146,-3.03273 -0.94179,0.59549 -1.81989,-0.16862 -2.83504,0.487 -0.69995,0.49054 0.32647,0.81835 -0.67308,1.24592 -1.58841,0.69571 -2.78761,-2.38713 -3.38721,-2.73722 -0.60995,-0.3455 -5.33339,-3.21007 -4.04996,-1.34131 l 4.14991,3.56925 c -0.20555,0.1179 -1.08822,-1.3004 -1.08822,-0.26886 0.2781,-0.61435 0.10747,2.63263 -0.54681,1.57774 -0.28885,-0.40446 0.47291,-0.63205 0.0269,-1.21856 0,-0.38677 -1.19973,-0.76411 -1.43068,-1.02825 -0.65697,-0.70514 -2.40364,-2.25976 -3.3504,-2.63262 -0.26332,-0.10611 -4.01851,0.3962 -4.3341,0.49997 -0.36811,0.44572 -0.68383,0.91386 -0.94178,1.41407 -0.77789,0.24998 -1.50955,0.57308 -2.20373,0.97282 l -0.82625,1.60509 c -0.35737,0.2771 -4.02375,1.32304 -4.04485,1.36396 0.15316,-0.34079 -2.5615,-0.77709 -2.38254,-1.45948 0.20018,-0.74995 1.12047,-3.0918 0.88401,-3.9467 -0.25257,-0.89617 5.64884,1.29132 6.02757,-1.06832 0.15316,-1.02353 0.24183,-2.21426 -1.64631,-2.38701 0.35737,0.0353 3.65551,-1.11903 4.20257,-1.63693 0.76848,-0.76411 2.52993,-2.00967 3.80799,-2.00967 1.49383,0 1.17287,-1.87784 1.86195,-2.7963 0.68921,0.24055 -0.36812,1.70968 0.45813,2.3053 -0.0537,-0.46814 2.34063,0.25941 2.57198,0.14975 0.5468,-0.24527 3.59773,-0.0943 3.12429,-1.33683 -0.52665,-1.25948 0.26869,-0.88674 0.95253,-1.15088 -0.12091,0.0353 1.78832,-2.81446 2.11452,-1.87783 -0.22571,-0.9634 -2.21434,0.33606 -2.90866,0.28654 -1.60426,-0.10611 -0.92566,-2.36437 -0.32109,-3.02365 0.46753,-0.52237 -1.27766,-1.16384 -1.29916,-0.16391 -0.0269,1.49591 -1.64107,2.85089 -1.26691,4.83781 0.5683,2.9964 -3.86589,-0.72284 -4.2551,-0.51884 -1.47274,0.77354 -2.67731,-0.97282 -1.91461,-2.01875 0.77788,-1.06833 2.65621,-1.0188 3.42939,-2.16426 0.5468,-0.80891 1.18362,-1.75048 2.02491,-2.36436 2.81408,-2.04151 3.5925,-0.40917 6.39596,-0.18631 2.74032,0.21815 0.92566,0.56365 0.5468,1.47315 -0.36274,0.86432 1.50417,1.17327 2.1512,0.45044 0.36811,-0.41861 1.20511,-1.46855 1.56731,-2.24609 0.46754,-1.00938 4.73903,-0.89618 1.75675,-2.43712 -1.96714,-1.01409 -10.54049,-3.05549 -16.28405,-3.05549 -1.24138,0 -2.10914,1.19582 -3.0559,1.87337 -1.87242,1.3413 -6.66936,3.97381 -9.33605,3.17363 -2.72984,-0.81363 -8.57335,3.00088 -9.50963,3.02823 -0.34259,0.0236 0.0269,-2.88272 1.88303,-3.09639 -0.80475,0.10611 6.55893,-3.21467 6.35901,-3.90578 -0.24182,-0.81835 -14.72197,3.73752 -14.07508,4.65138 0.31035,0.4186 1.57269,0.4186 -0.0806,1.33682 -0.94716,0.49526 -1.95652,3.64201 -2.84551,3.64201 -2.65608,1.00465 -2.82442,-1.97795 -5.78037,1.85967 l -4.70222,1.63681 c -6.98494,6.41554 -11.81868,14.54077 -13.57019,23.56618 -0.0672,0.35964 1.75675,1.02824 1.99347,1.27304 0.58979,0.60963 0.58979,3.23743 0.87864,4.09669 0.72549,2.17345 2.51945,3.38293 3.89223,5.36076 0.81012,1.178 2.15657,4.15577 1.73041,5.39249 0.5683,-0.80892 5.62802,3.70567 6.55369,4.64689 2.17753,2.21426 3.85541,4.89688 0.32109,7.08849 -1.14197,0.70869 1.73566,5.13331 0.25258,6.22004 l -1.89876,0.42332 c -1.87242,0.99523 -1.02508,3.43742 0.10748,4.46495 9.56216,8.6436 23.03764,14.03608 37.97525,14.03608 29.01792,0 52.53949,-20.33335 52.53949,-45.41818 z m -60.52372,-28.90418 c 0.65697,-0.24999 1.54098,-0.24054 1.6357,-0.99994 0.0806,-0.6733 0.23108,-0.20871 0.42051,-0.45516 0.18406,-0.24056 -0.35199,-0.62732 -0.57904,-0.66388 -0.33588,-0.059 -0.5683,0.31366 -0.78326,0.47285 l -0.37886,0.0826 -0.35737,0.39621 0.0403,0.21814 -0.45813,0.48228 c -0.44738,0.38206 0.0106,0.63204 0.45813,0.46342 z"
   id="path2-33"
   inkscape:connector-curvature="0"
   style="stroke-width:4.89030266" /><path
   inkscape:connector-curvature="0"
   d="m 314.17703,232.53478 c -3.82062,2.25623 -8.49328,3.59035 -13.53835,3.59035 -5.11198,0 -9.84134,-1.36819 -13.69017,-3.67902 h -0.16525 c -19.05097,3.0089 -19.57977,19.45768 -19.57977,19.45768 0,0 9.20869,15.04935 32.57898,15.82772 23.3711,0.77826 32.57898,-15.82454 32.57898,-15.82454 -0.74295,-14.69063 -15.35395,-18.69499 -18.18468,-19.37219 z"
   id="path2-5"
   style="stroke-width:0.85654777" /><path
   inkscape:connector-curvature="0"
   d="m 300.63868,201.58768 c -10.21644,0 -18.4996,6.8391 -18.4996,15.27433 0,8.43534 8.28316,15.27421 18.4996,15.27421 10.21738,0 18.49946,-6.83887 18.49946,-15.27421 0,-8.43523 -8.28208,-15.27433 -18.49946,-15.27433 z m 2.7383,26.49442 h -5.15632 v -4.2573 h 5.15632 z m 6.02918,-13.39474 c -0.64353,0.83958 -2.01631,1.98008 -4.12021,3.42468 -1.08823,0.7476 -1.76468,1.34864 -2.02773,1.80332 -0.26198,0.45398 -0.38021,1.26691 -0.35737,2.43913 h -4.68019 c -0.0121,-0.5554 -0.0134,-0.89264 -0.0134,-1.01528 0,-1.2524 0.25123,-2.28359 0.75235,-3.09143 0.50112,-0.80775 1.50444,-1.71689 3.00983,-2.7272 1.50551,-1.01056 2.40471,-1.67184 2.69799,-1.98538 0.45142,-0.49407 0.67847,-1.04003 0.67847,-1.63681 0,-0.82897 -0.40036,-1.538 -1.20243,-2.12866 -0.80072,-0.59076 -1.88075,-0.88673 -3.23902,-0.88673 -1.30856,0 -2.40377,0.30894 -3.2851,0.92447 -0.87999,0.61671 -1.48671,1.5558 -1.8164,2.81823 l -4.735,-0.48464 c 0.13435,-1.80791 1.06673,-3.34356 2.79876,-4.60598 1.73055,-1.26254 4.00347,-1.89364 6.81727,-1.89364 2.96079,0 5.31552,0.63912 7.06609,1.91616 1.74869,1.27788 2.62438,2.7654 2.62438,4.462 0,0.93981 -0.32244,1.82914 -0.96329,2.66741 z"
   id="path4-7"
   style="stroke-width:0.85654777" /><path
   inkscape:connector-curvature="0"
   d="m 112.76748,233.7649 c -3.82048,2.25634 -8.49328,3.59034 -13.53835,3.59034 -5.11199,0 -9.84121,-1.36819 -13.69004,-3.67902 h -0.16525 c -19.0511,3.0089 -19.5799,19.45769 -19.5799,19.45769 0,0 9.20882,15.04934 32.57898,15.82771 23.37123,0.77827 32.57898,-15.82453 32.57898,-15.82453 -0.74295,-14.69063 -15.35395,-18.69499 -18.18469,-19.37219 z"
   id="path2-5-3"
   style="stroke-width:0.85654777" /><path
   inkscape:connector-curvature="0"
   d="m 99.22913,202.81779 c -10.21645,0 -18.49947,6.8391 -18.49947,15.27433 0,8.43535 8.28302,15.27433 18.49947,15.27433 10.21751,0 18.49959,-6.83898 18.49959,-15.27433 0,-8.43523 -8.28208,-15.27433 -18.49959,-15.27433 z m 2.73843,26.49442 h -5.15631 v -4.25729 h 5.15631 z m 6.02919,-13.39472 c -0.64354,0.83957 -2.01631,1.98007 -4.12036,3.42467 -1.08822,0.74761 -1.76454,1.34863 -2.02759,1.80332 -0.26198,0.45399 -0.38155,1.26691 -0.35737,2.43924 h -4.68018 c -0.0121,-0.5554 -0.0134,-0.89264 -0.0134,-1.01527 0,-1.25252 0.25123,-2.28371 0.75236,-3.09156 0.50112,-0.80774 1.50444,-1.71688 3.00982,-2.7272 1.50551,-1.01055 2.40471,-1.67184 2.69786,-1.98538 0.45141,-0.49407 0.67846,-1.04003 0.67846,-1.63681 0,-0.82896 -0.40036,-1.538 -1.20242,-2.12865 -0.80072,-0.59077 -1.88062,-0.88674 -3.23889,-0.88674 -1.3099,0 -2.40377,0.30894 -3.28524,0.92448 -0.87998,0.61671 -1.48657,1.5558 -1.81626,2.81835 l -4.735,-0.48465 c 0.13569,-1.80803 1.06673,-3.34367 2.79876,-4.6061 1.73055,-1.26254 4.00333,-1.89363 6.81728,-1.89363 2.96078,0 5.31552,0.63911 7.06609,1.91616 1.74868,1.27799 2.62424,2.7654 2.62424,4.462 0,0.9398 -0.32244,1.82913 -0.96329,2.66741 z"
   id="path4-7-0"
   style="stroke-width:0.85654777" /><path
   inkscape:connector-curvature="0"
   d="m 223.33274,135.47474 c 5.46317,-4.98001 8.72302,-11.17151 8.72302,-17.87948 0,-6.70787 -3.25985,-12.89947 -8.72302,-17.879484 l 10.11461,-7.144862 c 8.09816,6.827068 13.02648,15.511106 13.02648,25.024346 0,9.51323 -4.93477,18.19231 -13.02648,25.02929 z M 152.51761,85.445989 142.39024,78.29122 c -13.43893,10.491359 -21.67883,24.21 -21.67883,39.30404 0,15.09402 8.2399,28.80784 21.67239,39.30415 l 10.1275,-7.15477 c -10.77184,-8.67412 -17.37523,-19.86557 -17.37523,-32.14938 0,-12.28371 6.60984,-23.475261 17.38154,-32.149271 z m 10.07605,57.173611 10.1146,-7.14486 c -5.46317,-4.98001 -8.72301,-11.17151 -8.72301,-17.87948 0,-6.70787 3.25984,-12.89947 8.72301,-17.879484 l -10.1146,-7.144862 c -8.09816,6.827068 -13.02662,15.511106 -13.02662,25.024346 0,9.51323 4.92846,18.19231 13.02662,25.02434 z m 91.0571,-64.32838 -10.12105,7.154769 c 10.7717,8.67401 17.37523,19.865561 17.37523,32.149271 0,12.28381 -6.60353,23.47526 -17.37523,32.14938 l 10.1275,7.15477 c 13.43235,-10.50127 21.67225,-24.21507 21.67225,-39.30415 0,-15.08909 -8.2399,-28.812681 -21.6787,-39.30404 z m -16.4411,119.16344 h -13.87692 c -5.47607,-10.93814 -14.56626,-15.22315 -25.31231,-15.22315 -10.90054,0 -19.89414,4.39915 -25.31217,15.22315 h -13.61292 l 32.48265,-65.87757 c -7.48606,-2.05554 -12.88474,-7.50722 -12.88474,-13.98183 0,-8.22723 8.65852,-14.89546 19.32718,-14.89546 10.66867,0 19.32733,6.66823 19.32733,14.89546 0,6.47461 -5.39882,11.93125 -12.88488,13.98183 z m -39.18923,-50.71397 -5.48896,10.99286 h 10.97148 z m 12.92358,25.88833 -2.48035,-4.96516 h -20.88631 l -2.48036,4.96516 z"
   id="path2-3"
   style="stroke-width:5.65575361" /></g>
</g>
<g
   id="g12">
</g>
<g
   id="g14">
</g>
<g
   id="g16">
</g>
<g
   id="g18">
</g>
<g
   id="g20">
</g>
<g
   id="g22">
</g>
<g
   id="g24">
</g>
<g
   id="g26">
</g>
<g
   id="g28">
</g>
<g
   id="g30">
</g>
<g
   id="g32">
</g>
<g
   id="g34">
</g>
<g
   id="g36">
</g>
<g
   id="g38">
</g>
<g
   id="g40">
</g>
</svg>