<?xml version="1.0" encoding="UTF-8" standalone="no"?>
<!-- Generated by IcoMoon.io -->

<svg
   xmlns:dc="http://purl.org/dc/elements/1.1/"
   xmlns:cc="http://creativecommons.org/ns#"
   xmlns:rdf="http://www.w3.org/1999/02/22-rdf-syntax-ns#"
   xmlns:svg="http://www.w3.org/2000/svg"
   xmlns="http://www.w3.org/2000/svg"
   xmlns:sodipodi="http://sodipodi.sourceforge.net/DTD/sodipodi-0.dtd"
   xmlns:inkscape="http://www.inkscape.org/namespaces/inkscape"
   version="1.1"
   width="32"
   height="32"
   viewBox="0 0 32 32"
   id="svg6"
   sodipodi:docname="share-hand.svg"
   inkscape:version="0.92.4 (5da689c313, 2019-01-14)">
  <metadata
     id="metadata12">
    <rdf:RDF>
      <cc:Work
         rdf:about="">
        <dc:format>image/svg+xml</dc:format>
        <dc:type
           rdf:resource="http://purl.org/dc/dcmitype/StillImage" />
        <dc:title>list</dc:title>
      </cc:Work>
    </rdf:RDF>
  </metadata>
  <defs
     id="defs10" />
  <sodipodi:namedview
     pagecolor="#ffffff"
     bordercolor="#666666"
     borderopacity="1"
     objecttolerance="2"
     gridtolerance="2"
     guidetolerance="2"
     inkscape:pageopacity="0"
     inkscape:pageshadow="2"
     inkscape:window-width="2294"
     inkscape:window-height="1293"
     id="namedview8"
     showgrid="false"
     inkscape:zoom="29.5"
     inkscape:cx="18.011331"
     inkscape:cy="14.809952"
     inkscape:window-x="1254"
     inkscape:window-y="333"
     inkscape:window-maximized="0"
     inkscape:current-layer="svg6" />
  <title
     id="title2">list</title>
  <path
     id="path2-5"
     d="M 8.5432904,21.203391 H 0.88135594 V 31.834304 H 8.5522761 v -1.573413 c 1.9069919,0.0815 4.5313229,0.380904 8.7855999,1.305794 0.730274,0.159464 1.386281,0.23532 2.007625,0.23532 1.385368,0 2.563502,-0.376651 3.712606,-1.188133 0.739476,-0.520916 5.457931,-3.764285 7.572037,-5.276236 0.625946,-0.44803 0.916701,-1.022043 0.934893,-1.601098 0.0076,-0.243767 0.0343,-0.471632 -0.02097,-0.731337 -0.01181,-0.0553 0.04912,-0.105308 -0.386187,-0.56953 -0.05375,-0.05735 -0.464995,-0.393905 -0.884309,-0.542472 -0.346725,-0.122841 -0.964427,-0.173028 -1.366382,-0.173028 -0.655097,0 -1.295117,0.176702 -1.84282,0.512167 -0.02608,0.01536 -2.779245,1.661412 -4.503667,2.680799 -0.151885,-0.696915 -0.821987,-1.290642 -1.803865,-1.543422 -3.218718,-0.833935 -4.738685,-1.423452 -6.601185,-1.423452 -0.963468,0 -1.909629,0.16297 -2.894575,0.49371 L 8.5160018,23.122862 M 2.4155415,22.384603 h 4.6025522 v 8.268488 H 2.4155415 Z m 26.5725465,0.51678 c 0.919361,0.04668 1.547413,0.893385 0.599292,1.571107 -3.385948,2.421485 -5.600827,3.887239 -7.563049,5.271621 -1.566402,1.104433 -3.016517,0.960363 -4.269945,0.687504 -2.445488,-0.532727 -5.992594,-1.217167 -9.2021083,-1.356551 v -4.591041 c 1.1230227,-0.233879 2.3397273,-0.633664 3.3200713,-0.962042 2.103368,-0.705183 3.502519,-0.348162 5.498491,0.184565 2.074217,0.551626 2.038355,0.559968 2.900567,0.7844 1.310193,0.336645 0.913031,1.693082 -0.647234,1.361162 -0.93125,-0.200807 -2.691223,-0.503825 -3.377003,-0.613677 -0.980342,-0.159463 -1.295665,0.796635 -0.413508,1.012797 1.337806,0.326016 4.212053,0.878989 4.764355,0.878989 0.694987,0 1.177465,-0.277033 1.75892,-0.613677 1.116885,-0.642582 5.6603,-3.359072 5.6603,-3.359072 0.323712,-0.197856 0.664396,-0.271643 0.970851,-0.256085 z"
     inkscape:connector-curvature="0"
     sodipodi:nodetypes="ccccccsccssssscccscccccccccccccccccccsccc"
     style="stroke-width:1.34617889" />
</svg>
